<?xml version="1.0" encoding="utf-8" standalone="no"?>
<!DOCTYPE svg PUBLIC "-//W3C//DTD SVG 1.1//EN"
  "http://www.w3.org/Graphics/SVG/1.1/DTD/svg11.dtd">
<svg xmlns:xlink="http://www.w3.org/1999/xlink" width="576pt" height="324pt" viewBox="0 0 576 324" xmlns="http://www.w3.org/2000/svg" version="1.1">
 <metadata>
  <rdf:RDF xmlns:dc="http://purl.org/dc/elements/1.1/" xmlns:cc="http://creativecommons.org/ns#" xmlns:rdf="http://www.w3.org/1999/02/22-rdf-syntax-ns#">
   <cc:Work>
    <dc:type rdf:resource="http://purl.org/dc/dcmitype/StillImage"/>
    <dc:date>2025-06-09T10:23:37.544180</dc:date>
    <dc:format>image/svg+xml</dc:format>
    <dc:creator>
     <cc:Agent>
      <dc:title>Matplotlib v3.10.3, https://matplotlib.org/</dc:title>
     </cc:Agent>
    </dc:creator>
   </cc:Work>
  </rdf:RDF>
 </metadata>
 <defs>
  <style type="text/css">*{stroke-linejoin: round; stroke-linecap: butt}</style>
 </defs>
 <g id="figure_1">
  <g id="patch_1">
   <path d="M 0 324 
L 576 324 
L 576 0 
L 0 0 
z
" style="fill: #ffffff"/>
  </g>
  <g id="axes_1">
   <g id="patch_2">
    <path d="M 52.00024 290.64351 
L 389.795784 290.64351 
L 389.795784 18.118365 
L 52.00024 18.118365 
z
" style="fill: #ffffff"/>
   </g>
   <g id="matplotlib.axis_1">
    <g id="xtick_1">
     <g id="line2d_1">
      <path d="M 67.354583 290.64351 
L 67.354583 18.118365 
" clip-path="url(#p27a34691f4)" style="fill: none; stroke: #b0b0b0; stroke-width: 0.8; stroke-linecap: square"/>
     </g>
     <g id="line2d_2">
      <defs>
       <path id="m11a2b3298f" d="M 0 0 
L 0 3.5 
" style="stroke: #000000; stroke-width: 0.8"/>
      </defs>
      <g>
       <use xlink:href="#m11a2b3298f" x="67.354583" y="290.64351" style="stroke: #000000; stroke-width: 0.8"/>
      </g>
     </g>
     <g id="text_1">
      <!-- 0 -->
      <g transform="translate(64.173333 305.241947) scale(0.1 -0.1)">
       <defs>
        <path id="DejaVuSans-30" d="M 2034 4250 
Q 1547 4250 1301 3770 
Q 1056 3291 1056 2328 
Q 1056 1369 1301 889 
Q 1547 409 2034 409 
Q 2525 409 2770 889 
Q 3016 1369 3016 2328 
Q 3016 3291 2770 3770 
Q 2525 4250 2034 4250 
z
M 2034 4750 
Q 2819 4750 3233 4129 
Q 3647 3509 3647 2328 
Q 3647 1150 3233 529 
Q 2819 -91 2034 -91 
Q 1250 -91 836 529 
Q 422 1150 422 2328 
Q 422 3509 836 4129 
Q 1250 4750 2034 4750 
z
" transform="scale(0.015625)"/>
       </defs>
       <use xlink:href="#DejaVuSans-30"/>
      </g>
     </g>
    </g>
    <g id="xtick_2">
     <g id="line2d_3">
      <path d="M 118.535726 290.64351 
L 118.535726 18.118365 
" clip-path="url(#p27a34691f4)" style="fill: none; stroke: #b0b0b0; stroke-width: 0.8; stroke-linecap: square"/>
     </g>
     <g id="line2d_4">
      <g>
       <use xlink:href="#m11a2b3298f" x="118.535726" y="290.64351" style="stroke: #000000; stroke-width: 0.8"/>
      </g>
     </g>
     <g id="text_2">
      <!-- 10 -->
      <g transform="translate(112.173226 305.241947) scale(0.1 -0.1)">
       <defs>
        <path id="DejaVuSans-31" d="M 794 531 
L 1825 531 
L 1825 4091 
L 703 3866 
L 703 4441 
L 1819 4666 
L 2450 4666 
L 2450 531 
L 3481 531 
L 3481 0 
L 794 0 
L 794 531 
z
" transform="scale(0.015625)"/>
       </defs>
       <use xlink:href="#DejaVuSans-31"/>
       <use xlink:href="#DejaVuSans-30" transform="translate(63.623047 0)"/>
      </g>
     </g>
    </g>
    <g id="xtick_3">
     <g id="line2d_5">
      <path d="M 169.716869 290.64351 
L 169.716869 18.118365 
" clip-path="url(#p27a34691f4)" style="fill: none; stroke: #b0b0b0; stroke-width: 0.8; stroke-linecap: square"/>
     </g>
     <g id="line2d_6">
      <g>
       <use xlink:href="#m11a2b3298f" x="169.716869" y="290.64351" style="stroke: #000000; stroke-width: 0.8"/>
      </g>
     </g>
     <g id="text_3">
      <!-- 20 -->
      <g transform="translate(163.354369 305.241947) scale(0.1 -0.1)">
       <defs>
        <path id="DejaVuSans-32" d="M 1228 531 
L 3431 531 
L 3431 0 
L 469 0 
L 469 531 
Q 828 903 1448 1529 
Q 2069 2156 2228 2338 
Q 2531 2678 2651 2914 
Q 2772 3150 2772 3378 
Q 2772 3750 2511 3984 
Q 2250 4219 1831 4219 
Q 1534 4219 1204 4116 
Q 875 4013 500 3803 
L 500 4441 
Q 881 4594 1212 4672 
Q 1544 4750 1819 4750 
Q 2544 4750 2975 4387 
Q 3406 4025 3406 3419 
Q 3406 3131 3298 2873 
Q 3191 2616 2906 2266 
Q 2828 2175 2409 1742 
Q 1991 1309 1228 531 
z
" transform="scale(0.015625)"/>
       </defs>
       <use xlink:href="#DejaVuSans-32"/>
       <use xlink:href="#DejaVuSans-30" transform="translate(63.623047 0)"/>
      </g>
     </g>
    </g>
    <g id="xtick_4">
     <g id="line2d_7">
      <path d="M 220.898012 290.64351 
L 220.898012 18.118365 
" clip-path="url(#p27a34691f4)" style="fill: none; stroke: #b0b0b0; stroke-width: 0.8; stroke-linecap: square"/>
     </g>
     <g id="line2d_8">
      <g>
       <use xlink:href="#m11a2b3298f" x="220.898012" y="290.64351" style="stroke: #000000; stroke-width: 0.8"/>
      </g>
     </g>
     <g id="text_4">
      <!-- 30 -->
      <g transform="translate(214.535512 305.241947) scale(0.1 -0.1)">
       <defs>
        <path id="DejaVuSans-33" d="M 2597 2516 
Q 3050 2419 3304 2112 
Q 3559 1806 3559 1356 
Q 3559 666 3084 287 
Q 2609 -91 1734 -91 
Q 1441 -91 1130 -33 
Q 819 25 488 141 
L 488 750 
Q 750 597 1062 519 
Q 1375 441 1716 441 
Q 2309 441 2620 675 
Q 2931 909 2931 1356 
Q 2931 1769 2642 2001 
Q 2353 2234 1838 2234 
L 1294 2234 
L 1294 2753 
L 1863 2753 
Q 2328 2753 2575 2939 
Q 2822 3125 2822 3475 
Q 2822 3834 2567 4026 
Q 2313 4219 1838 4219 
Q 1578 4219 1281 4162 
Q 984 4106 628 3988 
L 628 4550 
Q 988 4650 1302 4700 
Q 1616 4750 1894 4750 
Q 2613 4750 3031 4423 
Q 3450 4097 3450 3541 
Q 3450 3153 3228 2886 
Q 3006 2619 2597 2516 
z
" transform="scale(0.015625)"/>
       </defs>
       <use xlink:href="#DejaVuSans-33"/>
       <use xlink:href="#DejaVuSans-30" transform="translate(63.623047 0)"/>
      </g>
     </g>
    </g>
    <g id="xtick_5">
     <g id="line2d_9">
      <path d="M 272.079155 290.64351 
L 272.079155 18.118365 
" clip-path="url(#p27a34691f4)" style="fill: none; stroke: #b0b0b0; stroke-width: 0.8; stroke-linecap: square"/>
     </g>
     <g id="line2d_10">
      <g>
       <use xlink:href="#m11a2b3298f" x="272.079155" y="290.64351" style="stroke: #000000; stroke-width: 0.8"/>
      </g>
     </g>
     <g id="text_5">
      <!-- 40 -->
      <g transform="translate(265.716655 305.241947) scale(0.1 -0.1)">
       <defs>
        <path id="DejaVuSans-34" d="M 2419 4116 
L 825 1625 
L 2419 1625 
L 2419 4116 
z
M 2253 4666 
L 3047 4666 
L 3047 1625 
L 3713 1625 
L 3713 1100 
L 3047 1100 
L 3047 0 
L 2419 0 
L 2419 1100 
L 313 1100 
L 313 1709 
L 2253 4666 
z
" transform="scale(0.015625)"/>
       </defs>
       <use xlink:href="#DejaVuSans-34"/>
       <use xlink:href="#DejaVuSans-30" transform="translate(63.623047 0)"/>
      </g>
     </g>
    </g>
    <g id="xtick_6">
     <g id="line2d_11">
      <path d="M 323.260298 290.64351 
L 323.260298 18.118365 
" clip-path="url(#p27a34691f4)" style="fill: none; stroke: #b0b0b0; stroke-width: 0.8; stroke-linecap: square"/>
     </g>
     <g id="line2d_12">
      <g>
       <use xlink:href="#m11a2b3298f" x="323.260298" y="290.64351" style="stroke: #000000; stroke-width: 0.8"/>
      </g>
     </g>
     <g id="text_6">
      <!-- 50 -->
      <g transform="translate(316.897798 305.241947) scale(0.1 -0.1)">
       <defs>
        <path id="DejaVuSans-35" d="M 691 4666 
L 3169 4666 
L 3169 4134 
L 1269 4134 
L 1269 2991 
Q 1406 3038 1543 3061 
Q 1681 3084 1819 3084 
Q 2600 3084 3056 2656 
Q 3513 2228 3513 1497 
Q 3513 744 3044 326 
Q 2575 -91 1722 -91 
Q 1428 -91 1123 -41 
Q 819 9 494 109 
L 494 744 
Q 775 591 1075 516 
Q 1375 441 1709 441 
Q 2250 441 2565 725 
Q 2881 1009 2881 1497 
Q 2881 1984 2565 2268 
Q 2250 2553 1709 2553 
Q 1456 2553 1204 2497 
Q 953 2441 691 2322 
L 691 4666 
z
" transform="scale(0.015625)"/>
       </defs>
       <use xlink:href="#DejaVuSans-35"/>
       <use xlink:href="#DejaVuSans-30" transform="translate(63.623047 0)"/>
      </g>
     </g>
    </g>
    <g id="xtick_7">
     <g id="line2d_13">
      <path d="M 374.441441 290.64351 
L 374.441441 18.118365 
" clip-path="url(#p27a34691f4)" style="fill: none; stroke: #b0b0b0; stroke-width: 0.8; stroke-linecap: square"/>
     </g>
     <g id="line2d_14">
      <g>
       <use xlink:href="#m11a2b3298f" x="374.441441" y="290.64351" style="stroke: #000000; stroke-width: 0.8"/>
      </g>
     </g>
     <g id="text_7">
      <!-- 60 -->
      <g transform="translate(368.078941 305.241947) scale(0.1 -0.1)">
       <defs>
        <path id="DejaVuSans-36" d="M 2113 2584 
Q 1688 2584 1439 2293 
Q 1191 2003 1191 1497 
Q 1191 994 1439 701 
Q 1688 409 2113 409 
Q 2538 409 2786 701 
Q 3034 994 3034 1497 
Q 3034 2003 2786 2293 
Q 2538 2584 2113 2584 
z
M 3366 4563 
L 3366 3988 
Q 3128 4100 2886 4159 
Q 2644 4219 2406 4219 
Q 1781 4219 1451 3797 
Q 1122 3375 1075 2522 
Q 1259 2794 1537 2939 
Q 1816 3084 2150 3084 
Q 2853 3084 3261 2657 
Q 3669 2231 3669 1497 
Q 3669 778 3244 343 
Q 2819 -91 2113 -91 
Q 1303 -91 875 529 
Q 447 1150 447 2328 
Q 447 3434 972 4092 
Q 1497 4750 2381 4750 
Q 2619 4750 2861 4703 
Q 3103 4656 3366 4563 
z
" transform="scale(0.015625)"/>
       </defs>
       <use xlink:href="#DejaVuSans-36"/>
       <use xlink:href="#DejaVuSans-30" transform="translate(63.623047 0)"/>
      </g>
     </g>
    </g>
    <g id="text_8">
     <!-- $n_X$ -->
     <g transform="translate(215.148012 318.920073) scale(0.1 -0.1)">
      <defs>
       <path id="DejaVuSans-Oblique-6e" d="M 3566 2113 
L 3156 0 
L 2578 0 
L 2988 2091 
Q 3016 2238 3031 2350 
Q 3047 2463 3047 2528 
Q 3047 2791 2881 2937 
Q 2716 3084 2419 3084 
Q 1956 3084 1622 2776 
Q 1288 2469 1184 1941 
L 800 0 
L 225 0 
L 903 3500 
L 1478 3500 
L 1363 2950 
Q 1603 3253 1940 3418 
Q 2278 3584 2650 3584 
Q 3113 3584 3367 3334 
Q 3622 3084 3622 2631 
Q 3622 2519 3608 2391 
Q 3594 2263 3566 2113 
z
" transform="scale(0.015625)"/>
       <path id="DejaVuSans-Oblique-58" d="M 878 4666 
L 1516 4666 
L 2316 2981 
L 3763 4666 
L 4500 4666 
L 2578 2438 
L 3738 0 
L 3103 0 
L 2163 1966 
L 459 0 
L -275 0 
L 1906 2509 
L 878 4666 
z
" transform="scale(0.015625)"/>
      </defs>
      <use xlink:href="#DejaVuSans-Oblique-6e"/>
      <use xlink:href="#DejaVuSans-Oblique-58" transform="translate(63.378906 -16.40625) scale(0.7)"/>
     </g>
    </g>
   </g>
   <g id="matplotlib.axis_2">
    <g id="ytick_1">
     <g id="line2d_15">
      <path d="M 52.00024 18.118365 
L 389.795784 18.118365 
" clip-path="url(#p27a34691f4)" style="fill: none; stroke: #b0b0b0; stroke-width: 0.8; stroke-linecap: square"/>
     </g>
     <g id="line2d_16">
      <defs>
       <path id="m470fe39559" d="M 0 0 
L -3.5 0 
" style="stroke: #000000; stroke-width: 0.8"/>
      </defs>
      <g>
       <use xlink:href="#m470fe39559" x="52.00024" y="18.118365" style="stroke: #000000; stroke-width: 0.8"/>
      </g>
     </g>
     <g id="text_9">
      <!-- $\mathdefault{10^{0}}$ -->
      <g transform="translate(27.40024 21.917584) scale(0.1 -0.1)">
       <use xlink:href="#DejaVuSans-31" transform="translate(0 0.765625)"/>
       <use xlink:href="#DejaVuSans-30" transform="translate(63.623047 0.765625)"/>
       <use xlink:href="#DejaVuSans-30" transform="translate(128.203125 39.046875) scale(0.7)"/>
      </g>
     </g>
    </g>
    <g id="ytick_2">
     <g id="line2d_17">
      <path d="M 52.00024 72.623394 
L 389.795784 72.623394 
" clip-path="url(#p27a34691f4)" style="fill: none; stroke: #b0b0b0; stroke-width: 0.8; stroke-linecap: square"/>
     </g>
     <g id="line2d_18">
      <g>
       <use xlink:href="#m470fe39559" x="52.00024" y="72.623394" style="stroke: #000000; stroke-width: 0.8"/>
      </g>
     </g>
     <g id="text_10">
      <!-- $\mathdefault{10^{-15}}$ -->
      <g transform="translate(17.10024 76.422613) scale(0.1 -0.1)">
       <defs>
        <path id="DejaVuSans-2212" d="M 678 2272 
L 4684 2272 
L 4684 1741 
L 678 1741 
L 678 2272 
z
" transform="scale(0.015625)"/>
       </defs>
       <use xlink:href="#DejaVuSans-31" transform="translate(0 0.684375)"/>
       <use xlink:href="#DejaVuSans-30" transform="translate(63.623047 0.684375)"/>
       <use xlink:href="#DejaVuSans-2212" transform="translate(128.203125 38.965625) scale(0.7)"/>
       <use xlink:href="#DejaVuSans-31" transform="translate(186.855469 38.965625) scale(0.7)"/>
       <use xlink:href="#DejaVuSans-35" transform="translate(231.391602 38.965625) scale(0.7)"/>
      </g>
     </g>
    </g>
    <g id="ytick_3">
     <g id="line2d_19">
      <path d="M 52.00024 127.128423 
L 389.795784 127.128423 
" clip-path="url(#p27a34691f4)" style="fill: none; stroke: #b0b0b0; stroke-width: 0.8; stroke-linecap: square"/>
     </g>
     <g id="line2d_20">
      <g>
       <use xlink:href="#m470fe39559" x="52.00024" y="127.128423" style="stroke: #000000; stroke-width: 0.8"/>
      </g>
     </g>
     <g id="text_11">
      <!-- $\mathdefault{10^{-30}}$ -->
      <g transform="translate(17.10024 130.927642) scale(0.1 -0.1)">
       <use xlink:href="#DejaVuSans-31" transform="translate(0 0.765625)"/>
       <use xlink:href="#DejaVuSans-30" transform="translate(63.623047 0.765625)"/>
       <use xlink:href="#DejaVuSans-2212" transform="translate(128.203125 39.046875) scale(0.7)"/>
       <use xlink:href="#DejaVuSans-33" transform="translate(186.855469 39.046875) scale(0.7)"/>
       <use xlink:href="#DejaVuSans-30" transform="translate(231.391602 39.046875) scale(0.7)"/>
      </g>
     </g>
    </g>
    <g id="ytick_4">
     <g id="line2d_21">
      <path d="M 52.00024 181.633452 
L 389.795784 181.633452 
" clip-path="url(#p27a34691f4)" style="fill: none; stroke: #b0b0b0; stroke-width: 0.8; stroke-linecap: square"/>
     </g>
     <g id="line2d_22">
      <g>
       <use xlink:href="#m470fe39559" x="52.00024" y="181.633452" style="stroke: #000000; stroke-width: 0.8"/>
      </g>
     </g>
     <g id="text_12">
      <!-- $\mathdefault{10^{-45}}$ -->
      <g transform="translate(17.10024 185.432671) scale(0.1 -0.1)">
       <use xlink:href="#DejaVuSans-31" transform="translate(0 0.684375)"/>
       <use xlink:href="#DejaVuSans-30" transform="translate(63.623047 0.684375)"/>
       <use xlink:href="#DejaVuSans-2212" transform="translate(128.203125 38.965625) scale(0.7)"/>
       <use xlink:href="#DejaVuSans-34" transform="translate(186.855469 38.965625) scale(0.7)"/>
       <use xlink:href="#DejaVuSans-35" transform="translate(231.391602 38.965625) scale(0.7)"/>
      </g>
     </g>
    </g>
    <g id="ytick_5">
     <g id="line2d_23">
      <path d="M 52.00024 236.138481 
L 389.795784 236.138481 
" clip-path="url(#p27a34691f4)" style="fill: none; stroke: #b0b0b0; stroke-width: 0.8; stroke-linecap: square"/>
     </g>
     <g id="line2d_24">
      <g>
       <use xlink:href="#m470fe39559" x="52.00024" y="236.138481" style="stroke: #000000; stroke-width: 0.8"/>
      </g>
     </g>
     <g id="text_13">
      <!-- $\mathdefault{10^{-60}}$ -->
      <g transform="translate(17.10024 239.9377) scale(0.1 -0.1)">
       <use xlink:href="#DejaVuSans-31" transform="translate(0 0.765625)"/>
       <use xlink:href="#DejaVuSans-30" transform="translate(63.623047 0.765625)"/>
       <use xlink:href="#DejaVuSans-2212" transform="translate(128.203125 39.046875) scale(0.7)"/>
       <use xlink:href="#DejaVuSans-36" transform="translate(186.855469 39.046875) scale(0.7)"/>
       <use xlink:href="#DejaVuSans-30" transform="translate(231.391602 39.046875) scale(0.7)"/>
      </g>
     </g>
    </g>
    <g id="ytick_6">
     <g id="line2d_25">
      <path d="M 52.00024 290.64351 
L 389.795784 290.64351 
" clip-path="url(#p27a34691f4)" style="fill: none; stroke: #b0b0b0; stroke-width: 0.8; stroke-linecap: square"/>
     </g>
     <g id="line2d_26">
      <g>
       <use xlink:href="#m470fe39559" x="52.00024" y="290.64351" style="stroke: #000000; stroke-width: 0.8"/>
      </g>
     </g>
     <g id="text_14">
      <!-- $\mathdefault{10^{-75}}$ -->
      <g transform="translate(17.10024 294.442729) scale(0.1 -0.1)">
       <defs>
        <path id="DejaVuSans-37" d="M 525 4666 
L 3525 4666 
L 3525 4397 
L 1831 0 
L 1172 0 
L 2766 4134 
L 525 4134 
L 525 4666 
z
" transform="scale(0.015625)"/>
       </defs>
       <use xlink:href="#DejaVuSans-31" transform="translate(0 0.684375)"/>
       <use xlink:href="#DejaVuSans-30" transform="translate(63.623047 0.684375)"/>
       <use xlink:href="#DejaVuSans-2212" transform="translate(128.203125 38.965625) scale(0.7)"/>
       <use xlink:href="#DejaVuSans-37" transform="translate(186.855469 38.965625) scale(0.7)"/>
       <use xlink:href="#DejaVuSans-35" transform="translate(231.391602 38.965625) scale(0.7)"/>
      </g>
     </g>
    </g>
    <g id="text_15">
     <!-- $|\langle 0_{A}| n_{X} \rangle |$ -->
     <g transform="translate(10.70024 174.830938) rotate(-90) scale(0.1 -0.1)">
      <defs>
       <path id="DejaVuSans-7c" d="M 1344 4891 
L 1344 -1509 
L 813 -1509 
L 813 4891 
L 1344 4891 
z
" transform="scale(0.015625)"/>
       <path id="DejaVuSans-27e8" d="M 572 2006 
L 1453 4856 
L 1984 4856 
L 1103 2006 
L 1984 -844 
L 1453 -844 
L 572 2006 
z
" transform="scale(0.015625)"/>
       <path id="DejaVuSans-Oblique-41" d="M 2356 4666 
L 3072 4666 
L 3938 0 
L 3278 0 
L 3084 1197 
L 984 1197 
L 325 0 
L -341 0 
L 2356 4666 
z
M 2584 4044 
L 1275 1722 
L 2988 1722 
L 2584 4044 
z
" transform="scale(0.015625)"/>
       <path id="DejaVuSans-27e9" d="M 1925 2006 
L 1044 -844 
L 513 -844 
L 1394 2006 
L 513 4856 
L 1044 4856 
L 1925 2006 
z
" transform="scale(0.015625)"/>
      </defs>
      <use xlink:href="#DejaVuSans-7c" transform="translate(0 0.578125)"/>
      <use xlink:href="#DejaVuSans-27e8" transform="translate(33.691406 0.578125)"/>
      <use xlink:href="#DejaVuSans-30" transform="translate(72.705078 0.578125)"/>
      <use xlink:href="#DejaVuSans-Oblique-41" transform="translate(137.285156 -15.828125) scale(0.7)"/>
      <use xlink:href="#DejaVuSans-7c" transform="translate(187.905273 0.578125)"/>
      <use xlink:href="#DejaVuSans-Oblique-6e" transform="translate(221.59668 0.578125)"/>
      <use xlink:href="#DejaVuSans-Oblique-58" transform="translate(284.975586 -15.828125) scale(0.7)"/>
      <use xlink:href="#DejaVuSans-27e9" transform="translate(335.664062 0.578125)"/>
      <use xlink:href="#DejaVuSans-7c" transform="translate(374.677734 0.578125)"/>
     </g>
    </g>
   </g>
   <g id="line2d_27">
    <path d="M 67.354583 18.118365 
M 77.590812 29.128354 
M 87.82704 39.81848 
M 98.063269 50.425419 
M 108.299497 60.993757 
M 118.535726 71.540001 
M 128.771955 82.071741 
M 139.008183 92.593264 
M 149.244412 103.107281 
M 159.48064 113.615474 
M 169.716869 124.119011 
M 179.953098 134.618796 
M 190.189326 145.11539 
M 200.425555 155.609456 
M 210.661783 166.101236 
M 220.898012 176.591038 
M 231.134241 187.07921 
M 241.370469 197.565816 
M 251.606698 208.05111 
M 261.842926 218.535234 
M 272.079155 229.018293 
M 282.315384 239.500424 
M 292.551612 249.981553 
M 302.787841 260.46204 
M 313.024069 270.941704 
M 323.260298 281.420728 
M 333.496527 291.899103 
M 343.732755 302.376923 
M 353.968984 312.854231 
M 364.205212 323.330981 
" clip-path="url(#p27a34691f4)" style="fill: none; stroke: #1f77b4; stroke-width: 1.5; stroke-linecap: square"/>
    <defs>
     <path id="mb5ffcf2a94" d="M 0 1.5 
C 0.397805 1.5 0.77937 1.341951 1.06066 1.06066 
C 1.341951 0.77937 1.5 0.397805 1.5 0 
C 1.5 -0.397805 1.341951 -0.77937 1.06066 -1.06066 
C 0.77937 -1.341951 0.397805 -1.5 0 -1.5 
C -0.397805 -1.5 -0.77937 -1.341951 -1.06066 -1.06066 
C -1.341951 -0.77937 -1.5 -0.397805 -1.5 0 
C -1.5 0.397805 -1.341951 0.77937 -1.06066 1.06066 
C -0.77937 1.341951 -0.397805 1.5 0 1.5 
z
" style="stroke: #1f77b4"/>
    </defs>
    <g clip-path="url(#p27a34691f4)">
     <use xlink:href="#mb5ffcf2a94" x="67.354583" y="18.118365" style="fill: #1f77b4; stroke: #1f77b4"/>
     <use xlink:href="#mb5ffcf2a94" x="77.590812" y="29.128354" style="fill: #1f77b4; stroke: #1f77b4"/>
     <use xlink:href="#mb5ffcf2a94" x="87.82704" y="39.81848" style="fill: #1f77b4; stroke: #1f77b4"/>
     <use xlink:href="#mb5ffcf2a94" x="98.063269" y="50.425419" style="fill: #1f77b4; stroke: #1f77b4"/>
     <use xlink:href="#mb5ffcf2a94" x="108.299497" y="60.993757" style="fill: #1f77b4; stroke: #1f77b4"/>
     <use xlink:href="#mb5ffcf2a94" x="118.535726" y="71.540001" style="fill: #1f77b4; stroke: #1f77b4"/>
     <use xlink:href="#mb5ffcf2a94" x="128.771955" y="82.071741" style="fill: #1f77b4; stroke: #1f77b4"/>
     <use xlink:href="#mb5ffcf2a94" x="139.008183" y="92.593264" style="fill: #1f77b4; stroke: #1f77b4"/>
     <use xlink:href="#mb5ffcf2a94" x="149.244412" y="103.107281" style="fill: #1f77b4; stroke: #1f77b4"/>
     <use xlink:href="#mb5ffcf2a94" x="159.48064" y="113.615474" style="fill: #1f77b4; stroke: #1f77b4"/>
     <use xlink:href="#mb5ffcf2a94" x="169.716869" y="124.119011" style="fill: #1f77b4; stroke: #1f77b4"/>
     <use xlink:href="#mb5ffcf2a94" x="179.953098" y="134.618796" style="fill: #1f77b4; stroke: #1f77b4"/>
     <use xlink:href="#mb5ffcf2a94" x="190.189326" y="145.11539" style="fill: #1f77b4; stroke: #1f77b4"/>
     <use xlink:href="#mb5ffcf2a94" x="200.425555" y="155.609456" style="fill: #1f77b4; stroke: #1f77b4"/>
     <use xlink:href="#mb5ffcf2a94" x="210.661783" y="166.101236" style="fill: #1f77b4; stroke: #1f77b4"/>
     <use xlink:href="#mb5ffcf2a94" x="220.898012" y="176.591038" style="fill: #1f77b4; stroke: #1f77b4"/>
     <use xlink:href="#mb5ffcf2a94" x="231.134241" y="187.07921" style="fill: #1f77b4; stroke: #1f77b4"/>
     <use xlink:href="#mb5ffcf2a94" x="241.370469" y="197.565816" style="fill: #1f77b4; stroke: #1f77b4"/>
     <use xlink:href="#mb5ffcf2a94" x="251.606698" y="208.05111" style="fill: #1f77b4; stroke: #1f77b4"/>
     <use xlink:href="#mb5ffcf2a94" x="261.842926" y="218.535234" style="fill: #1f77b4; stroke: #1f77b4"/>
     <use xlink:href="#mb5ffcf2a94" x="272.079155" y="229.018293" style="fill: #1f77b4; stroke: #1f77b4"/>
     <use xlink:href="#mb5ffcf2a94" x="282.315384" y="239.500424" style="fill: #1f77b4; stroke: #1f77b4"/>
     <use xlink:href="#mb5ffcf2a94" x="292.551612" y="249.981553" style="fill: #1f77b4; stroke: #1f77b4"/>
     <use xlink:href="#mb5ffcf2a94" x="302.787841" y="260.46204" style="fill: #1f77b4; stroke: #1f77b4"/>
     <use xlink:href="#mb5ffcf2a94" x="313.024069" y="270.941704" style="fill: #1f77b4; stroke: #1f77b4"/>
     <use xlink:href="#mb5ffcf2a94" x="323.260298" y="281.420728" style="fill: #1f77b4; stroke: #1f77b4"/>
     <use xlink:href="#mb5ffcf2a94" x="333.496527" y="291.899103" style="fill: #1f77b4; stroke: #1f77b4"/>
     <use xlink:href="#mb5ffcf2a94" x="343.732755" y="302.376923" style="fill: #1f77b4; stroke: #1f77b4"/>
     <use xlink:href="#mb5ffcf2a94" x="353.968984" y="312.854231" style="fill: #1f77b4; stroke: #1f77b4"/>
     <use xlink:href="#mb5ffcf2a94" x="364.205212" y="323.330981" style="fill: #1f77b4; stroke: #1f77b4"/>
     <use xlink:href="#mb5ffcf2a94" x="374.441441" y="333.807376" style="fill: #1f77b4; stroke: #1f77b4"/>
    </g>
   </g>
   <g id="line2d_28">
    <path d="M 67.354583 18.118365 
M 77.590812 28.238699 
M 87.82704 38.039045 
M 98.063269 47.756313 
M 108.299497 57.435036 
M 118.535726 67.091621 
M 128.771955 76.733639 
M 139.008183 86.36551 
M 149.244412 95.989818 
M 159.48064 105.608314 
M 169.716869 115.222179 
M 179.953098 124.83227 
M 190.189326 134.439262 
M 200.425555 144.043574 
M 210.661783 153.645685 
M 220.898012 163.245789 
M 231.134241 172.84428 
M 241.370469 182.441235 
M 251.606698 192.036854 
M 261.842926 201.631294 
M 272.079155 211.224652 
M 282.315384 220.817085 
M 292.551612 230.408571 
M 302.787841 239.999316 
M 313.024069 249.589365 
M 323.260298 259.178663 
M 333.496527 268.767362 
M 343.732755 278.355494 
M 353.968984 287.943124 
M 364.205212 297.530183 
M 374.441441 307.11692 
" clip-path="url(#p27a34691f4)" style="fill: none; stroke: #ff7f0e; stroke-width: 1.5; stroke-linecap: square"/>
    <defs>
     <path id="m497e34a5e2" d="M 0 1.5 
C 0.397805 1.5 0.77937 1.341951 1.06066 1.06066 
C 1.341951 0.77937 1.5 0.397805 1.5 0 
C 1.5 -0.397805 1.341951 -0.77937 1.06066 -1.06066 
C 0.77937 -1.341951 0.397805 -1.5 0 -1.5 
C -0.397805 -1.5 -0.77937 -1.341951 -1.06066 -1.06066 
C -1.341951 -0.77937 -1.5 -0.397805 -1.5 0 
C -1.5 0.397805 -1.341951 0.77937 -1.06066 1.06066 
C -0.77937 1.341951 -0.397805 1.5 0 1.5 
z
" style="stroke: #ff7f0e"/>
    </defs>
    <g clip-path="url(#p27a34691f4)">
     <use xlink:href="#m497e34a5e2" x="67.354583" y="18.118365" style="fill: #ff7f0e; stroke: #ff7f0e"/>
     <use xlink:href="#m497e34a5e2" x="77.590812" y="28.238699" style="fill: #ff7f0e; stroke: #ff7f0e"/>
     <use xlink:href="#m497e34a5e2" x="87.82704" y="38.039045" style="fill: #ff7f0e; stroke: #ff7f0e"/>
     <use xlink:href="#m497e34a5e2" x="98.063269" y="47.756313" style="fill: #ff7f0e; stroke: #ff7f0e"/>
     <use xlink:href="#m497e34a5e2" x="108.299497" y="57.435036" style="fill: #ff7f0e; stroke: #ff7f0e"/>
     <use xlink:href="#m497e34a5e2" x="118.535726" y="67.091621" style="fill: #ff7f0e; stroke: #ff7f0e"/>
     <use xlink:href="#m497e34a5e2" x="128.771955" y="76.733639" style="fill: #ff7f0e; stroke: #ff7f0e"/>
     <use xlink:href="#m497e34a5e2" x="139.008183" y="86.36551" style="fill: #ff7f0e; stroke: #ff7f0e"/>
     <use xlink:href="#m497e34a5e2" x="149.244412" y="95.989818" style="fill: #ff7f0e; stroke: #ff7f0e"/>
     <use xlink:href="#m497e34a5e2" x="159.48064" y="105.608314" style="fill: #ff7f0e; stroke: #ff7f0e"/>
     <use xlink:href="#m497e34a5e2" x="169.716869" y="115.222179" style="fill: #ff7f0e; stroke: #ff7f0e"/>
     <use xlink:href="#m497e34a5e2" x="179.953098" y="124.83227" style="fill: #ff7f0e; stroke: #ff7f0e"/>
     <use xlink:href="#m497e34a5e2" x="190.189326" y="134.439262" style="fill: #ff7f0e; stroke: #ff7f0e"/>
     <use xlink:href="#m497e34a5e2" x="200.425555" y="144.043574" style="fill: #ff7f0e; stroke: #ff7f0e"/>
     <use xlink:href="#m497e34a5e2" x="210.661783" y="153.645685" style="fill: #ff7f0e; stroke: #ff7f0e"/>
     <use xlink:href="#m497e34a5e2" x="220.898012" y="163.245789" style="fill: #ff7f0e; stroke: #ff7f0e"/>
     <use xlink:href="#m497e34a5e2" x="231.134241" y="172.84428" style="fill: #ff7f0e; stroke: #ff7f0e"/>
     <use xlink:href="#m497e34a5e2" x="241.370469" y="182.441235" style="fill: #ff7f0e; stroke: #ff7f0e"/>
     <use xlink:href="#m497e34a5e2" x="251.606698" y="192.036854" style="fill: #ff7f0e; stroke: #ff7f0e"/>
     <use xlink:href="#m497e34a5e2" x="261.842926" y="201.631294" style="fill: #ff7f0e; stroke: #ff7f0e"/>
     <use xlink:href="#m497e34a5e2" x="272.079155" y="211.224652" style="fill: #ff7f0e; stroke: #ff7f0e"/>
     <use xlink:href="#m497e34a5e2" x="282.315384" y="220.817085" style="fill: #ff7f0e; stroke: #ff7f0e"/>
     <use xlink:href="#m497e34a5e2" x="292.551612" y="230.408571" style="fill: #ff7f0e; stroke: #ff7f0e"/>
     <use xlink:href="#m497e34a5e2" x="302.787841" y="239.999316" style="fill: #ff7f0e; stroke: #ff7f0e"/>
     <use xlink:href="#m497e34a5e2" x="313.024069" y="249.589365" style="fill: #ff7f0e; stroke: #ff7f0e"/>
     <use xlink:href="#m497e34a5e2" x="323.260298" y="259.178663" style="fill: #ff7f0e; stroke: #ff7f0e"/>
     <use xlink:href="#m497e34a5e2" x="333.496527" y="268.767362" style="fill: #ff7f0e; stroke: #ff7f0e"/>
     <use xlink:href="#m497e34a5e2" x="343.732755" y="278.355494" style="fill: #ff7f0e; stroke: #ff7f0e"/>
     <use xlink:href="#m497e34a5e2" x="353.968984" y="287.943124" style="fill: #ff7f0e; stroke: #ff7f0e"/>
     <use xlink:href="#m497e34a5e2" x="364.205212" y="297.530183" style="fill: #ff7f0e; stroke: #ff7f0e"/>
     <use xlink:href="#m497e34a5e2" x="374.441441" y="307.11692" style="fill: #ff7f0e; stroke: #ff7f0e"/>
    </g>
   </g>
   <g id="line2d_29">
    <path d="M 67.354583 18.118365 
M 77.590812 30.298356 
M 87.82704 42.15841 
M 98.063269 53.935383 
M 108.299497 65.673796 
M 118.535726 77.389986 
M 128.771955 89.091744 
M 139.008183 100.783243 
M 149.244412 112.467192 
M 159.48064 124.145435 
M 169.716869 135.818986 
M 179.953098 147.488751 
M 190.189326 159.15539 
M 200.425555 170.819433 
M 210.661783 182.481204 
M 220.898012 194.141019 
M 231.134241 205.799126 
M 241.370469 217.455815 
M 251.606698 229.111064 
M 261.842926 240.765192 
M 272.079155 252.418227 
M 282.315384 264.070331 
M 292.551612 275.721491 
M 302.787841 287.371954 
M 313.024069 299.021635 
M 323.260298 310.670649 
M 333.496527 322.318996 
" clip-path="url(#p27a34691f4)" style="fill: none; stroke: #2ca02c; stroke-width: 1.5; stroke-linecap: square"/>
    <defs>
     <path id="m3fbcc53e0f" d="M 0 1.5 
C 0.397805 1.5 0.77937 1.341951 1.06066 1.06066 
C 1.341951 0.77937 1.5 0.397805 1.5 0 
C 1.5 -0.397805 1.341951 -0.77937 1.06066 -1.06066 
C 0.77937 -1.341951 0.397805 -1.5 0 -1.5 
C -0.397805 -1.5 -0.77937 -1.341951 -1.06066 -1.06066 
C -1.341951 -0.77937 -1.5 -0.397805 -1.5 0 
C -1.5 0.397805 -1.341951 0.77937 -1.06066 1.06066 
C -0.77937 1.341951 -0.397805 1.5 0 1.5 
z
" style="stroke: #2ca02c"/>
    </defs>
    <g clip-path="url(#p27a34691f4)">
     <use xlink:href="#m3fbcc53e0f" x="67.354583" y="18.118365" style="fill: #2ca02c; stroke: #2ca02c"/>
     <use xlink:href="#m3fbcc53e0f" x="77.590812" y="30.298356" style="fill: #2ca02c; stroke: #2ca02c"/>
     <use xlink:href="#m3fbcc53e0f" x="87.82704" y="42.15841" style="fill: #2ca02c; stroke: #2ca02c"/>
     <use xlink:href="#m3fbcc53e0f" x="98.063269" y="53.935383" style="fill: #2ca02c; stroke: #2ca02c"/>
     <use xlink:href="#m3fbcc53e0f" x="108.299497" y="65.673796" style="fill: #2ca02c; stroke: #2ca02c"/>
     <use xlink:href="#m3fbcc53e0f" x="118.535726" y="77.389986" style="fill: #2ca02c; stroke: #2ca02c"/>
     <use xlink:href="#m3fbcc53e0f" x="128.771955" y="89.091744" style="fill: #2ca02c; stroke: #2ca02c"/>
     <use xlink:href="#m3fbcc53e0f" x="139.008183" y="100.783243" style="fill: #2ca02c; stroke: #2ca02c"/>
     <use xlink:href="#m3fbcc53e0f" x="149.244412" y="112.467192" style="fill: #2ca02c; stroke: #2ca02c"/>
     <use xlink:href="#m3fbcc53e0f" x="159.48064" y="124.145435" style="fill: #2ca02c; stroke: #2ca02c"/>
     <use xlink:href="#m3fbcc53e0f" x="169.716869" y="135.818986" style="fill: #2ca02c; stroke: #2ca02c"/>
     <use xlink:href="#m3fbcc53e0f" x="179.953098" y="147.488751" style="fill: #2ca02c; stroke: #2ca02c"/>
     <use xlink:href="#m3fbcc53e0f" x="190.189326" y="159.15539" style="fill: #2ca02c; stroke: #2ca02c"/>
     <use xlink:href="#m3fbcc53e0f" x="200.425555" y="170.819433" style="fill: #2ca02c; stroke: #2ca02c"/>
     <use xlink:href="#m3fbcc53e0f" x="210.661783" y="182.481204" style="fill: #2ca02c; stroke: #2ca02c"/>
     <use xlink:href="#m3fbcc53e0f" x="220.898012" y="194.141019" style="fill: #2ca02c; stroke: #2ca02c"/>
     <use xlink:href="#m3fbcc53e0f" x="231.134241" y="205.799126" style="fill: #2ca02c; stroke: #2ca02c"/>
     <use xlink:href="#m3fbcc53e0f" x="241.370469" y="217.455815" style="fill: #2ca02c; stroke: #2ca02c"/>
     <use xlink:href="#m3fbcc53e0f" x="251.606698" y="229.111064" style="fill: #2ca02c; stroke: #2ca02c"/>
     <use xlink:href="#m3fbcc53e0f" x="261.842926" y="240.765192" style="fill: #2ca02c; stroke: #2ca02c"/>
     <use xlink:href="#m3fbcc53e0f" x="272.079155" y="252.418227" style="fill: #2ca02c; stroke: #2ca02c"/>
     <use xlink:href="#m3fbcc53e0f" x="282.315384" y="264.070331" style="fill: #2ca02c; stroke: #2ca02c"/>
     <use xlink:href="#m3fbcc53e0f" x="292.551612" y="275.721491" style="fill: #2ca02c; stroke: #2ca02c"/>
     <use xlink:href="#m3fbcc53e0f" x="302.787841" y="287.371954" style="fill: #2ca02c; stroke: #2ca02c"/>
     <use xlink:href="#m3fbcc53e0f" x="313.024069" y="299.021635" style="fill: #2ca02c; stroke: #2ca02c"/>
     <use xlink:href="#m3fbcc53e0f" x="323.260298" y="310.670649" style="fill: #2ca02c; stroke: #2ca02c"/>
     <use xlink:href="#m3fbcc53e0f" x="333.496527" y="322.318996" style="fill: #2ca02c; stroke: #2ca02c"/>
     <use xlink:href="#m3fbcc53e0f" x="343.732755" y="333.9668" style="fill: #2ca02c; stroke: #2ca02c"/>
     <use xlink:href="#m3fbcc53e0f" x="353.968984" y="345.61414" style="fill: #2ca02c; stroke: #2ca02c"/>
     <use xlink:href="#m3fbcc53e0f" x="364.205212" y="357.260934" style="fill: #2ca02c; stroke: #2ca02c"/>
     <use xlink:href="#m3fbcc53e0f" x="374.441441" y="368.907286" style="fill: #2ca02c; stroke: #2ca02c"/>
    </g>
   </g>
   <g id="line2d_30">
    <path d="M 67.354583 18.118365 
M 77.590812 29.55032 
M 87.82704 40.662359 
M 98.063269 51.69127 
M 108.299497 62.681684 
M 118.535726 73.64986 
M 128.771955 84.603541 
M 139.008183 95.547046 
M 149.244412 106.483032 
M 159.48064 117.413174 
M 169.716869 128.33869 
M 179.953098 139.260422 
M 190.189326 150.17905 
M 200.425555 161.095062 
M 210.661783 172.008772 
M 220.898012 182.920585 
M 231.134241 193.830678 
M 241.370469 204.739273 
M 251.606698 215.646528 
M 261.842926 226.55261 
M 272.079155 237.457652 
M 282.315384 248.361682 
M 292.551612 259.264878 
M 302.787841 270.167272 
M 313.024069 281.0689 
M 323.260298 291.969905 
M 333.496527 302.870253 
M 343.732755 313.770053 
M 353.968984 324.669306 
" clip-path="url(#p27a34691f4)" style="fill: none; stroke: #d62728; stroke-width: 1.5; stroke-linecap: square"/>
    <defs>
     <path id="m96a534b991" d="M 0 1.5 
C 0.397805 1.5 0.77937 1.341951 1.06066 1.06066 
C 1.341951 0.77937 1.5 0.397805 1.5 0 
C 1.5 -0.397805 1.341951 -0.77937 1.06066 -1.06066 
C 0.77937 -1.341951 0.397805 -1.5 0 -1.5 
C -0.397805 -1.5 -0.77937 -1.341951 -1.06066 -1.06066 
C -1.341951 -0.77937 -1.5 -0.397805 -1.5 0 
C -1.5 0.397805 -1.341951 0.77937 -1.06066 1.06066 
C -0.77937 1.341951 -0.397805 1.5 0 1.5 
z
" style="stroke: #d62728"/>
    </defs>
    <g clip-path="url(#p27a34691f4)">
     <use xlink:href="#m96a534b991" x="67.354583" y="18.118365" style="fill: #d62728; stroke: #d62728"/>
     <use xlink:href="#m96a534b991" x="77.590812" y="29.55032" style="fill: #d62728; stroke: #d62728"/>
     <use xlink:href="#m96a534b991" x="87.82704" y="40.662359" style="fill: #d62728; stroke: #d62728"/>
     <use xlink:href="#m96a534b991" x="98.063269" y="51.69127" style="fill: #d62728; stroke: #d62728"/>
     <use xlink:href="#m96a534b991" x="108.299497" y="62.681684" style="fill: #d62728; stroke: #d62728"/>
     <use xlink:href="#m96a534b991" x="118.535726" y="73.64986" style="fill: #d62728; stroke: #d62728"/>
     <use xlink:href="#m96a534b991" x="128.771955" y="84.603541" style="fill: #d62728; stroke: #d62728"/>
     <use xlink:href="#m96a534b991" x="139.008183" y="95.547046" style="fill: #d62728; stroke: #d62728"/>
     <use xlink:href="#m96a534b991" x="149.244412" y="106.483032" style="fill: #d62728; stroke: #d62728"/>
     <use xlink:href="#m96a534b991" x="159.48064" y="117.413174" style="fill: #d62728; stroke: #d62728"/>
     <use xlink:href="#m96a534b991" x="169.716869" y="128.33869" style="fill: #d62728; stroke: #d62728"/>
     <use xlink:href="#m96a534b991" x="179.953098" y="139.260422" style="fill: #d62728; stroke: #d62728"/>
     <use xlink:href="#m96a534b991" x="190.189326" y="150.17905" style="fill: #d62728; stroke: #d62728"/>
     <use xlink:href="#m96a534b991" x="200.425555" y="161.095062" style="fill: #d62728; stroke: #d62728"/>
     <use xlink:href="#m96a534b991" x="210.661783" y="172.008772" style="fill: #d62728; stroke: #d62728"/>
     <use xlink:href="#m96a534b991" x="220.898012" y="182.920585" style="fill: #d62728; stroke: #d62728"/>
     <use xlink:href="#m96a534b991" x="231.134241" y="193.830678" style="fill: #d62728; stroke: #d62728"/>
     <use xlink:href="#m96a534b991" x="241.370469" y="204.739273" style="fill: #d62728; stroke: #d62728"/>
     <use xlink:href="#m96a534b991" x="251.606698" y="215.646528" style="fill: #d62728; stroke: #d62728"/>
     <use xlink:href="#m96a534b991" x="261.842926" y="226.55261" style="fill: #d62728; stroke: #d62728"/>
     <use xlink:href="#m96a534b991" x="272.079155" y="237.457652" style="fill: #d62728; stroke: #d62728"/>
     <use xlink:href="#m96a534b991" x="282.315384" y="248.361682" style="fill: #d62728; stroke: #d62728"/>
     <use xlink:href="#m96a534b991" x="292.551612" y="259.264878" style="fill: #d62728; stroke: #d62728"/>
     <use xlink:href="#m96a534b991" x="302.787841" y="270.167272" style="fill: #d62728; stroke: #d62728"/>
     <use xlink:href="#m96a534b991" x="313.024069" y="281.0689" style="fill: #d62728; stroke: #d62728"/>
     <use xlink:href="#m96a534b991" x="323.260298" y="291.969905" style="fill: #d62728; stroke: #d62728"/>
     <use xlink:href="#m96a534b991" x="333.496527" y="302.870253" style="fill: #d62728; stroke: #d62728"/>
     <use xlink:href="#m96a534b991" x="343.732755" y="313.770053" style="fill: #d62728; stroke: #d62728"/>
     <use xlink:href="#m96a534b991" x="353.968984" y="324.669306" style="fill: #d62728; stroke: #d62728"/>
     <use xlink:href="#m96a534b991" x="364.205212" y="335.568088" style="fill: #d62728; stroke: #d62728"/>
     <use xlink:href="#m96a534b991" x="374.441441" y="346.466399" style="fill: #d62728; stroke: #d62728"/>
    </g>
   </g>
   <g id="line2d_31">
    <path d="M 67.354583 18.118365 
M 77.590812 29.814618 
M 87.82704 41.190902 
M 98.063269 52.484096 
M 108.299497 63.738803 
M 118.535726 74.971258 
M 128.771955 86.189218 
M 139.008183 97.396966 
M 149.244412 108.597246 
M 159.48064 119.791624 
M 169.716869 130.981441 
M 179.953098 142.167473 
M 190.189326 153.350365 
M 200.425555 164.530644 
M 210.661783 175.708648 
M 220.898012 186.884727 
M 231.134241 198.059073 
M 241.370469 209.231956 
M 251.606698 220.403487 
M 261.842926 231.573909 
M 272.079155 242.743191 
M 282.315384 253.911475 
M 292.551612 265.078944 
M 302.787841 276.245625 
M 313.024069 287.411553 
M 323.260298 298.576808 
M 333.496527 309.741463 
M 343.732755 320.905522 
" clip-path="url(#p27a34691f4)" style="fill: none; stroke: #9467bd; stroke-width: 1.5; stroke-linecap: square"/>
    <defs>
     <path id="mdb5845a1be" d="M 0 1.5 
C 0.397805 1.5 0.77937 1.341951 1.06066 1.06066 
C 1.341951 0.77937 1.5 0.397805 1.5 0 
C 1.5 -0.397805 1.341951 -0.77937 1.06066 -1.06066 
C 0.77937 -1.341951 0.397805 -1.5 0 -1.5 
C -0.397805 -1.5 -0.77937 -1.341951 -1.06066 -1.06066 
C -1.341951 -0.77937 -1.5 -0.397805 -1.5 0 
C -1.5 0.397805 -1.341951 0.77937 -1.06066 1.06066 
C -0.77937 1.341951 -0.397805 1.5 0 1.5 
z
" style="stroke: #9467bd"/>
    </defs>
    <g clip-path="url(#p27a34691f4)">
     <use xlink:href="#mdb5845a1be" x="67.354583" y="18.118365" style="fill: #9467bd; stroke: #9467bd"/>
     <use xlink:href="#mdb5845a1be" x="77.590812" y="29.814618" style="fill: #9467bd; stroke: #9467bd"/>
     <use xlink:href="#mdb5845a1be" x="87.82704" y="41.190902" style="fill: #9467bd; stroke: #9467bd"/>
     <use xlink:href="#mdb5845a1be" x="98.063269" y="52.484096" style="fill: #9467bd; stroke: #9467bd"/>
     <use xlink:href="#mdb5845a1be" x="108.299497" y="63.738803" style="fill: #9467bd; stroke: #9467bd"/>
     <use xlink:href="#mdb5845a1be" x="118.535726" y="74.971258" style="fill: #9467bd; stroke: #9467bd"/>
     <use xlink:href="#mdb5845a1be" x="128.771955" y="86.189218" style="fill: #9467bd; stroke: #9467bd"/>
     <use xlink:href="#mdb5845a1be" x="139.008183" y="97.396966" style="fill: #9467bd; stroke: #9467bd"/>
     <use xlink:href="#mdb5845a1be" x="149.244412" y="108.597246" style="fill: #9467bd; stroke: #9467bd"/>
     <use xlink:href="#mdb5845a1be" x="159.48064" y="119.791624" style="fill: #9467bd; stroke: #9467bd"/>
     <use xlink:href="#mdb5845a1be" x="169.716869" y="130.981441" style="fill: #9467bd; stroke: #9467bd"/>
     <use xlink:href="#mdb5845a1be" x="179.953098" y="142.167473" style="fill: #9467bd; stroke: #9467bd"/>
     <use xlink:href="#mdb5845a1be" x="190.189326" y="153.350365" style="fill: #9467bd; stroke: #9467bd"/>
     <use xlink:href="#mdb5845a1be" x="200.425555" y="164.530644" style="fill: #9467bd; stroke: #9467bd"/>
     <use xlink:href="#mdb5845a1be" x="210.661783" y="175.708648" style="fill: #9467bd; stroke: #9467bd"/>
     <use xlink:href="#mdb5845a1be" x="220.898012" y="186.884727" style="fill: #9467bd; stroke: #9467bd"/>
     <use xlink:href="#mdb5845a1be" x="231.134241" y="198.059073" style="fill: #9467bd; stroke: #9467bd"/>
     <use xlink:href="#mdb5845a1be" x="241.370469" y="209.231956" style="fill: #9467bd; stroke: #9467bd"/>
     <use xlink:href="#mdb5845a1be" x="251.606698" y="220.403487" style="fill: #9467bd; stroke: #9467bd"/>
     <use xlink:href="#mdb5845a1be" x="261.842926" y="231.573909" style="fill: #9467bd; stroke: #9467bd"/>
     <use xlink:href="#mdb5845a1be" x="272.079155" y="242.743191" style="fill: #9467bd; stroke: #9467bd"/>
     <use xlink:href="#mdb5845a1be" x="282.315384" y="253.911475" style="fill: #9467bd; stroke: #9467bd"/>
     <use xlink:href="#mdb5845a1be" x="292.551612" y="265.078944" style="fill: #9467bd; stroke: #9467bd"/>
     <use xlink:href="#mdb5845a1be" x="302.787841" y="276.245625" style="fill: #9467bd; stroke: #9467bd"/>
     <use xlink:href="#mdb5845a1be" x="313.024069" y="287.411553" style="fill: #9467bd; stroke: #9467bd"/>
     <use xlink:href="#mdb5845a1be" x="323.260298" y="298.576808" style="fill: #9467bd; stroke: #9467bd"/>
     <use xlink:href="#mdb5845a1be" x="333.496527" y="309.741463" style="fill: #9467bd; stroke: #9467bd"/>
     <use xlink:href="#mdb5845a1be" x="343.732755" y="320.905522" style="fill: #9467bd; stroke: #9467bd"/>
     <use xlink:href="#mdb5845a1be" x="353.968984" y="332.069066" style="fill: #9467bd; stroke: #9467bd"/>
     <use xlink:href="#mdb5845a1be" x="364.205212" y="343.232103" style="fill: #9467bd; stroke: #9467bd"/>
     <use xlink:href="#mdb5845a1be" x="374.441441" y="354.394687" style="fill: #9467bd; stroke: #9467bd"/>
    </g>
   </g>
   <g id="line2d_32">
    <path d="M 67.354583 18.118412 
M 77.590812 25.771898 
M 87.82704 33.105448 
M 98.063269 40.355871 
M 108.299497 47.567794 
M 118.535726 54.757482 
M 128.771955 61.932697 
M 139.008183 69.097745 
M 149.244412 76.25517 
M 159.48064 83.406899 
M 169.716869 90.553985 
M 179.953098 97.697244 
M 190.189326 104.837351 
M 200.425555 111.974861 
M 210.661783 119.110137 
M 220.898012 126.243411 
M 231.134241 133.374991 
M 241.370469 140.505162 
M 251.606698 147.633907 
M 261.842926 154.761541 
M 272.079155 161.888062 
M 282.315384 169.01365 
M 292.551612 176.138361 
M 302.787841 183.262226 
M 313.024069 190.385431 
M 323.260298 197.507928 
M 333.496527 204.629808 
M 343.732755 211.751101 
M 353.968984 218.871894 
M 364.205212 225.99216 
M 374.441441 233.112005 
" clip-path="url(#p27a34691f4)" style="fill: none; stroke: #8c564b; stroke-width: 1.5; stroke-linecap: square"/>
    <defs>
     <path id="mf952542880" d="M 0 1.5 
C 0.397805 1.5 0.77937 1.341951 1.06066 1.06066 
C 1.341951 0.77937 1.5 0.397805 1.5 0 
C 1.5 -0.397805 1.341951 -0.77937 1.06066 -1.06066 
C 0.77937 -1.341951 0.397805 -1.5 0 -1.5 
C -0.397805 -1.5 -0.77937 -1.341951 -1.06066 -1.06066 
C -1.341951 -0.77937 -1.5 -0.397805 -1.5 0 
C -1.5 0.397805 -1.341951 0.77937 -1.06066 1.06066 
C -0.77937 1.341951 -0.397805 1.5 0 1.5 
z
" style="stroke: #8c564b"/>
    </defs>
    <g clip-path="url(#p27a34691f4)">
     <use xlink:href="#mf952542880" x="67.354583" y="18.118412" style="fill: #8c564b; stroke: #8c564b"/>
     <use xlink:href="#mf952542880" x="77.590812" y="25.771898" style="fill: #8c564b; stroke: #8c564b"/>
     <use xlink:href="#mf952542880" x="87.82704" y="33.105448" style="fill: #8c564b; stroke: #8c564b"/>
     <use xlink:href="#mf952542880" x="98.063269" y="40.355871" style="fill: #8c564b; stroke: #8c564b"/>
     <use xlink:href="#mf952542880" x="108.299497" y="47.567794" style="fill: #8c564b; stroke: #8c564b"/>
     <use xlink:href="#mf952542880" x="118.535726" y="54.757482" style="fill: #8c564b; stroke: #8c564b"/>
     <use xlink:href="#mf952542880" x="128.771955" y="61.932697" style="fill: #8c564b; stroke: #8c564b"/>
     <use xlink:href="#mf952542880" x="139.008183" y="69.097745" style="fill: #8c564b; stroke: #8c564b"/>
     <use xlink:href="#mf952542880" x="149.244412" y="76.25517" style="fill: #8c564b; stroke: #8c564b"/>
     <use xlink:href="#mf952542880" x="159.48064" y="83.406899" style="fill: #8c564b; stroke: #8c564b"/>
     <use xlink:href="#mf952542880" x="169.716869" y="90.553985" style="fill: #8c564b; stroke: #8c564b"/>
     <use xlink:href="#mf952542880" x="179.953098" y="97.697244" style="fill: #8c564b; stroke: #8c564b"/>
     <use xlink:href="#mf952542880" x="190.189326" y="104.837351" style="fill: #8c564b; stroke: #8c564b"/>
     <use xlink:href="#mf952542880" x="200.425555" y="111.974861" style="fill: #8c564b; stroke: #8c564b"/>
     <use xlink:href="#mf952542880" x="210.661783" y="119.110137" style="fill: #8c564b; stroke: #8c564b"/>
     <use xlink:href="#mf952542880" x="220.898012" y="126.243411" style="fill: #8c564b; stroke: #8c564b"/>
     <use xlink:href="#mf952542880" x="231.134241" y="133.374991" style="fill: #8c564b; stroke: #8c564b"/>
     <use xlink:href="#mf952542880" x="241.370469" y="140.505162" style="fill: #8c564b; stroke: #8c564b"/>
     <use xlink:href="#mf952542880" x="251.606698" y="147.633907" style="fill: #8c564b; stroke: #8c564b"/>
     <use xlink:href="#mf952542880" x="261.842926" y="154.761541" style="fill: #8c564b; stroke: #8c564b"/>
     <use xlink:href="#mf952542880" x="272.079155" y="161.888062" style="fill: #8c564b; stroke: #8c564b"/>
     <use xlink:href="#mf952542880" x="282.315384" y="169.01365" style="fill: #8c564b; stroke: #8c564b"/>
     <use xlink:href="#mf952542880" x="292.551612" y="176.138361" style="fill: #8c564b; stroke: #8c564b"/>
     <use xlink:href="#mf952542880" x="302.787841" y="183.262226" style="fill: #8c564b; stroke: #8c564b"/>
     <use xlink:href="#mf952542880" x="313.024069" y="190.385431" style="fill: #8c564b; stroke: #8c564b"/>
     <use xlink:href="#mf952542880" x="323.260298" y="197.507928" style="fill: #8c564b; stroke: #8c564b"/>
     <use xlink:href="#mf952542880" x="333.496527" y="204.629808" style="fill: #8c564b; stroke: #8c564b"/>
     <use xlink:href="#mf952542880" x="343.732755" y="211.751101" style="fill: #8c564b; stroke: #8c564b"/>
     <use xlink:href="#mf952542880" x="353.968984" y="218.871894" style="fill: #8c564b; stroke: #8c564b"/>
     <use xlink:href="#mf952542880" x="364.205212" y="225.99216" style="fill: #8c564b; stroke: #8c564b"/>
     <use xlink:href="#mf952542880" x="374.441441" y="233.112005" style="fill: #8c564b; stroke: #8c564b"/>
    </g>
   </g>
   <g id="line2d_33">
    <path d="M 67.354583 18.118523 
M 77.590812 24.854271 
M 87.82704 31.270163 
M 98.063269 37.602932 
M 108.299497 43.897156 
M 118.535726 50.169159 
M 128.771955 56.426689 
M 139.008183 62.674052 
M 149.244412 68.913783 
M 159.48064 75.147829 
M 169.716869 81.377153 
M 179.953098 87.602761 
M 190.189326 93.825178 
M 200.425555 100.045034 
M 210.661783 106.262605 
M 220.898012 112.4783 
M 231.134241 118.692127 
M 241.370469 124.904582 
M 251.606698 131.115691 
M 261.842926 137.325656 
M 272.079155 143.534448 
M 282.315384 149.742356 
M 292.551612 155.949333 
M 302.787841 162.155589 
M 313.024069 168.361064 
M 323.260298 174.565893 
M 333.496527 180.770114 
M 343.732755 186.973707 
M 353.968984 193.176795 
M 364.205212 199.379409 
M 374.441441 205.581537 
" clip-path="url(#p27a34691f4)" style="fill: none; stroke: #e377c2; stroke-width: 1.5; stroke-linecap: square"/>
    <defs>
     <path id="mb7713e2f7e" d="M 0 1.5 
C 0.397805 1.5 0.77937 1.341951 1.06066 1.06066 
C 1.341951 0.77937 1.5 0.397805 1.5 0 
C 1.5 -0.397805 1.341951 -0.77937 1.06066 -1.06066 
C 0.77937 -1.341951 0.397805 -1.5 0 -1.5 
C -0.397805 -1.5 -0.77937 -1.341951 -1.06066 -1.06066 
C -1.341951 -0.77937 -1.5 -0.397805 -1.5 0 
C -1.5 0.397805 -1.341951 0.77937 -1.06066 1.06066 
C -0.77937 1.341951 -0.397805 1.5 0 1.5 
z
" style="stroke: #e377c2"/>
    </defs>
    <g clip-path="url(#p27a34691f4)">
     <use xlink:href="#mb7713e2f7e" x="67.354583" y="18.118523" style="fill: #e377c2; stroke: #e377c2"/>
     <use xlink:href="#mb7713e2f7e" x="77.590812" y="24.854271" style="fill: #e377c2; stroke: #e377c2"/>
     <use xlink:href="#mb7713e2f7e" x="87.82704" y="31.270163" style="fill: #e377c2; stroke: #e377c2"/>
     <use xlink:href="#mb7713e2f7e" x="98.063269" y="37.602932" style="fill: #e377c2; stroke: #e377c2"/>
     <use xlink:href="#mb7713e2f7e" x="108.299497" y="43.897156" style="fill: #e377c2; stroke: #e377c2"/>
     <use xlink:href="#mb7713e2f7e" x="118.535726" y="50.169159" style="fill: #e377c2; stroke: #e377c2"/>
     <use xlink:href="#mb7713e2f7e" x="128.771955" y="56.426689" style="fill: #e377c2; stroke: #e377c2"/>
     <use xlink:href="#mb7713e2f7e" x="139.008183" y="62.674052" style="fill: #e377c2; stroke: #e377c2"/>
     <use xlink:href="#mb7713e2f7e" x="149.244412" y="68.913783" style="fill: #e377c2; stroke: #e377c2"/>
     <use xlink:href="#mb7713e2f7e" x="159.48064" y="75.147829" style="fill: #e377c2; stroke: #e377c2"/>
     <use xlink:href="#mb7713e2f7e" x="169.716869" y="81.377153" style="fill: #e377c2; stroke: #e377c2"/>
     <use xlink:href="#mb7713e2f7e" x="179.953098" y="87.602761" style="fill: #e377c2; stroke: #e377c2"/>
     <use xlink:href="#mb7713e2f7e" x="190.189326" y="93.825178" style="fill: #e377c2; stroke: #e377c2"/>
     <use xlink:href="#mb7713e2f7e" x="200.425555" y="100.045034" style="fill: #e377c2; stroke: #e377c2"/>
     <use xlink:href="#mb7713e2f7e" x="210.661783" y="106.262605" style="fill: #e377c2; stroke: #e377c2"/>
     <use xlink:href="#mb7713e2f7e" x="220.898012" y="112.4783" style="fill: #e377c2; stroke: #e377c2"/>
     <use xlink:href="#mb7713e2f7e" x="231.134241" y="118.692127" style="fill: #e377c2; stroke: #e377c2"/>
     <use xlink:href="#mb7713e2f7e" x="241.370469" y="124.904582" style="fill: #e377c2; stroke: #e377c2"/>
     <use xlink:href="#mb7713e2f7e" x="251.606698" y="131.115691" style="fill: #e377c2; stroke: #e377c2"/>
     <use xlink:href="#mb7713e2f7e" x="261.842926" y="137.325656" style="fill: #e377c2; stroke: #e377c2"/>
     <use xlink:href="#mb7713e2f7e" x="272.079155" y="143.534448" style="fill: #e377c2; stroke: #e377c2"/>
     <use xlink:href="#mb7713e2f7e" x="282.315384" y="149.742356" style="fill: #e377c2; stroke: #e377c2"/>
     <use xlink:href="#mb7713e2f7e" x="292.551612" y="155.949333" style="fill: #e377c2; stroke: #e377c2"/>
     <use xlink:href="#mb7713e2f7e" x="302.787841" y="162.155589" style="fill: #e377c2; stroke: #e377c2"/>
     <use xlink:href="#mb7713e2f7e" x="313.024069" y="168.361064" style="fill: #e377c2; stroke: #e377c2"/>
     <use xlink:href="#mb7713e2f7e" x="323.260298" y="174.565893" style="fill: #e377c2; stroke: #e377c2"/>
     <use xlink:href="#mb7713e2f7e" x="333.496527" y="180.770114" style="fill: #e377c2; stroke: #e377c2"/>
     <use xlink:href="#mb7713e2f7e" x="343.732755" y="186.973707" style="fill: #e377c2; stroke: #e377c2"/>
     <use xlink:href="#mb7713e2f7e" x="353.968984" y="193.176795" style="fill: #e377c2; stroke: #e377c2"/>
     <use xlink:href="#mb7713e2f7e" x="364.205212" y="199.379409" style="fill: #e377c2; stroke: #e377c2"/>
     <use xlink:href="#mb7713e2f7e" x="374.441441" y="205.581537" style="fill: #e377c2; stroke: #e377c2"/>
    </g>
   </g>
   <g id="patch_3">
    <path d="M 52.00024 290.64351 
L 52.00024 18.118365 
" style="fill: none; stroke: #000000; stroke-width: 0.8; stroke-linejoin: miter; stroke-linecap: square"/>
   </g>
   <g id="patch_4">
    <path d="M 389.795784 290.64351 
L 389.795784 18.118365 
" style="fill: none; stroke: #000000; stroke-width: 0.8; stroke-linejoin: miter; stroke-linecap: square"/>
   </g>
   <g id="patch_5">
    <path d="M 52.00024 290.64351 
L 389.795784 290.64351 
" style="fill: none; stroke: #000000; stroke-width: 0.8; stroke-linejoin: miter; stroke-linecap: square"/>
   </g>
   <g id="patch_6">
    <path d="M 52.00024 18.118365 
L 389.795784 18.118365 
" style="fill: none; stroke: #000000; stroke-width: 0.8; stroke-linejoin: miter; stroke-linecap: square"/>
   </g>
   <g id="text_16">
    <!-- SrOPh X-A b$_{1}$ -->
    <g transform="translate(181.538012 12.118365) scale(0.12 -0.12)">
     <defs>
      <path id="DejaVuSans-53" d="M 3425 4513 
L 3425 3897 
Q 3066 4069 2747 4153 
Q 2428 4238 2131 4238 
Q 1616 4238 1336 4038 
Q 1056 3838 1056 3469 
Q 1056 3159 1242 3001 
Q 1428 2844 1947 2747 
L 2328 2669 
Q 3034 2534 3370 2195 
Q 3706 1856 3706 1288 
Q 3706 609 3251 259 
Q 2797 -91 1919 -91 
Q 1588 -91 1214 -16 
Q 841 59 441 206 
L 441 856 
Q 825 641 1194 531 
Q 1563 422 1919 422 
Q 2459 422 2753 634 
Q 3047 847 3047 1241 
Q 3047 1584 2836 1778 
Q 2625 1972 2144 2069 
L 1759 2144 
Q 1053 2284 737 2584 
Q 422 2884 422 3419 
Q 422 4038 858 4394 
Q 1294 4750 2059 4750 
Q 2388 4750 2728 4690 
Q 3069 4631 3425 4513 
z
" transform="scale(0.015625)"/>
      <path id="DejaVuSans-72" d="M 2631 2963 
Q 2534 3019 2420 3045 
Q 2306 3072 2169 3072 
Q 1681 3072 1420 2755 
Q 1159 2438 1159 1844 
L 1159 0 
L 581 0 
L 581 3500 
L 1159 3500 
L 1159 2956 
Q 1341 3275 1631 3429 
Q 1922 3584 2338 3584 
Q 2397 3584 2469 3576 
Q 2541 3569 2628 3553 
L 2631 2963 
z
" transform="scale(0.015625)"/>
      <path id="DejaVuSans-4f" d="M 2522 4238 
Q 1834 4238 1429 3725 
Q 1025 3213 1025 2328 
Q 1025 1447 1429 934 
Q 1834 422 2522 422 
Q 3209 422 3611 934 
Q 4013 1447 4013 2328 
Q 4013 3213 3611 3725 
Q 3209 4238 2522 4238 
z
M 2522 4750 
Q 3503 4750 4090 4092 
Q 4678 3434 4678 2328 
Q 4678 1225 4090 567 
Q 3503 -91 2522 -91 
Q 1538 -91 948 565 
Q 359 1222 359 2328 
Q 359 3434 948 4092 
Q 1538 4750 2522 4750 
z
" transform="scale(0.015625)"/>
      <path id="DejaVuSans-50" d="M 1259 4147 
L 1259 2394 
L 2053 2394 
Q 2494 2394 2734 2622 
Q 2975 2850 2975 3272 
Q 2975 3691 2734 3919 
Q 2494 4147 2053 4147 
L 1259 4147 
z
M 628 4666 
L 2053 4666 
Q 2838 4666 3239 4311 
Q 3641 3956 3641 3272 
Q 3641 2581 3239 2228 
Q 2838 1875 2053 1875 
L 1259 1875 
L 1259 0 
L 628 0 
L 628 4666 
z
" transform="scale(0.015625)"/>
      <path id="DejaVuSans-68" d="M 3513 2113 
L 3513 0 
L 2938 0 
L 2938 2094 
Q 2938 2591 2744 2837 
Q 2550 3084 2163 3084 
Q 1697 3084 1428 2787 
Q 1159 2491 1159 1978 
L 1159 0 
L 581 0 
L 581 4863 
L 1159 4863 
L 1159 2956 
Q 1366 3272 1645 3428 
Q 1925 3584 2291 3584 
Q 2894 3584 3203 3211 
Q 3513 2838 3513 2113 
z
" transform="scale(0.015625)"/>
      <path id="DejaVuSans-20" transform="scale(0.015625)"/>
      <path id="DejaVuSans-58" d="M 403 4666 
L 1081 4666 
L 2241 2931 
L 3406 4666 
L 4084 4666 
L 2584 2425 
L 4184 0 
L 3506 0 
L 2194 1984 
L 872 0 
L 191 0 
L 1856 2491 
L 403 4666 
z
" transform="scale(0.015625)"/>
      <path id="DejaVuSans-2d" d="M 313 2009 
L 1997 2009 
L 1997 1497 
L 313 1497 
L 313 2009 
z
" transform="scale(0.015625)"/>
      <path id="DejaVuSans-41" d="M 2188 4044 
L 1331 1722 
L 3047 1722 
L 2188 4044 
z
M 1831 4666 
L 2547 4666 
L 4325 0 
L 3669 0 
L 3244 1197 
L 1141 1197 
L 716 0 
L 50 0 
L 1831 4666 
z
" transform="scale(0.015625)"/>
      <path id="DejaVuSans-62" d="M 3116 1747 
Q 3116 2381 2855 2742 
Q 2594 3103 2138 3103 
Q 1681 3103 1420 2742 
Q 1159 2381 1159 1747 
Q 1159 1113 1420 752 
Q 1681 391 2138 391 
Q 2594 391 2855 752 
Q 3116 1113 3116 1747 
z
M 1159 2969 
Q 1341 3281 1617 3432 
Q 1894 3584 2278 3584 
Q 2916 3584 3314 3078 
Q 3713 2572 3713 1747 
Q 3713 922 3314 415 
Q 2916 -91 2278 -91 
Q 1894 -91 1617 61 
Q 1341 213 1159 525 
L 1159 0 
L 581 0 
L 581 4863 
L 1159 4863 
L 1159 2969 
z
" transform="scale(0.015625)"/>
     </defs>
     <use xlink:href="#DejaVuSans-53" transform="translate(0 0.015625)"/>
     <use xlink:href="#DejaVuSans-72" transform="translate(63.476562 0.015625)"/>
     <use xlink:href="#DejaVuSans-4f" transform="translate(104.589844 0.015625)"/>
     <use xlink:href="#DejaVuSans-50" transform="translate(183.300781 0.015625)"/>
     <use xlink:href="#DejaVuSans-68" transform="translate(243.603516 0.015625)"/>
     <use xlink:href="#DejaVuSans-20" transform="translate(306.982422 0.015625)"/>
     <use xlink:href="#DejaVuSans-58" transform="translate(338.769531 0.015625)"/>
     <use xlink:href="#DejaVuSans-2d" transform="translate(407.275391 0.015625)"/>
     <use xlink:href="#DejaVuSans-41" transform="translate(443.359375 0.015625)"/>
     <use xlink:href="#DejaVuSans-20" transform="translate(511.767578 0.015625)"/>
     <use xlink:href="#DejaVuSans-62" transform="translate(543.554688 0.015625)"/>
     <use xlink:href="#DejaVuSans-31" transform="translate(607.988281 -16.390625) scale(0.7)"/>
    </g>
   </g>
   <g id="legend_1">
    <g id="patch_7">
     <path d="M 413.685561 136.418365 
L 571.285561 136.418365 
Q 573.285561 136.418365 573.285561 134.418365 
L 573.285561 25.118365 
Q 573.285561 23.118365 571.285561 23.118365 
L 413.685561 23.118365 
Q 411.685561 23.118365 411.685561 25.118365 
L 411.685561 134.418365 
Q 411.685561 136.418365 413.685561 136.418365 
z
" style="fill: #ffffff; opacity: 0.8; stroke: #cccccc; stroke-linejoin: miter"/>
    </g>
    <g id="line2d_34">
     <path d="M 415.685561 32.338678 
L 423.185561 32.338678 
L 430.685561 32.338678 
" style="fill: none; stroke: #1f77b4; stroke-width: 1.5; stroke-linecap: square"/>
     <g>
      <use xlink:href="#mb5ffcf2a94" x="423.185561" y="32.338678" style="fill: #1f77b4; stroke: #1f77b4"/>
     </g>
    </g>
    <g id="text_17">
     <!-- $\tilde{\nu}_{16}=$ 984cm$^{-1}$, $\Delta Q=$  +0 -->
     <g transform="translate(432.185561 35.838678) scale(0.1 -0.1)">
      <defs>
       <path id="DejaVuSans-303" d="M -1621 4281 
L -1799 4453 
Q -1867 4516 -1919 4545 
Q -1971 4575 -2011 4575 
Q -2130 4575 -2186 4461 
Q -2242 4347 -2249 4091 
L -2639 4091 
Q -2633 4513 -2473 4742 
Q -2314 4972 -2030 4972 
Q -1911 4972 -1811 4928 
Q -1711 4884 -1596 4781 
L -1417 4609 
Q -1349 4547 -1297 4517 
Q -1246 4488 -1205 4488 
Q -1086 4488 -1030 4602 
Q -974 4716 -967 4972 
L -577 4972 
Q -583 4550 -742 4320 
Q -902 4091 -1186 4091 
Q -1305 4091 -1405 4134 
Q -1505 4178 -1621 4281 
z
" transform="scale(0.015625)"/>
       <path id="DejaVuSans-Oblique-3bd" d="M 959 0 
L 572 3500 
L 1191 3500 
L 1522 563 
Q 1972 950 2391 1488 
Q 2706 1891 2788 2241 
Q 2825 2406 2809 2719 
Q 2794 3091 2544 3500 
L 3125 3500 
L 3125 3500 
Q 3288 3222 3353 2834 
Q 3416 2478 3369 2234 
Q 3250 1622 2719 1075 
Q 2025 363 1572 0 
L 959 0 
z
" transform="scale(0.015625)"/>
       <path id="DejaVuSans-3d" d="M 678 2906 
L 4684 2906 
L 4684 2381 
L 678 2381 
L 678 2906 
z
M 678 1631 
L 4684 1631 
L 4684 1100 
L 678 1100 
L 678 1631 
z
" transform="scale(0.015625)"/>
       <path id="DejaVuSansMono-20" transform="scale(0.015625)"/>
       <path id="DejaVuSansMono-39" d="M 1863 2069 
Q 2266 2069 2495 2359 
Q 2725 2650 2725 3163 
Q 2725 3675 2495 3965 
Q 2266 4256 1863 4256 
Q 1444 4256 1231 3979 
Q 1019 3703 1019 3163 
Q 1019 2619 1230 2344 
Q 1441 2069 1863 2069 
z
M 738 97 
L 738 678 
Q 934 563 1156 502 
Q 1378 441 1619 441 
Q 2219 441 2526 892 
Q 2834 1344 2834 2222 
Q 2688 1909 2422 1742 
Q 2156 1575 1813 1575 
Q 1138 1575 767 1990 
Q 397 2406 397 3169 
Q 397 3922 776 4336 
Q 1156 4750 1850 4750 
Q 2663 4750 3041 4165 
Q 3419 3581 3419 2328 
Q 3419 1150 2964 529 
Q 2509 -91 1644 -91 
Q 1416 -91 1184 -42 
Q 953 6 738 97 
z
" transform="scale(0.015625)"/>
       <path id="DejaVuSansMono-38" d="M 1925 2216 
Q 1503 2216 1273 1980 
Q 1044 1744 1044 1313 
Q 1044 881 1276 642 
Q 1509 403 1925 403 
Q 2350 403 2579 639 
Q 2809 875 2809 1313 
Q 2809 1741 2576 1978 
Q 2344 2216 1925 2216 
z
M 1375 2478 
Q 972 2581 745 2862 
Q 519 3144 519 3541 
Q 519 4097 897 4423 
Q 1275 4750 1925 4750 
Q 2578 4750 2956 4423 
Q 3334 4097 3334 3541 
Q 3334 3144 3107 2862 
Q 2881 2581 2478 2478 
Q 2947 2375 3195 2062 
Q 3444 1750 3444 1253 
Q 3444 622 3041 265 
Q 2638 -91 1925 -91 
Q 1213 -91 811 264 
Q 409 619 409 1247 
Q 409 1747 657 2061 
Q 906 2375 1375 2478 
z
M 1147 3481 
Q 1147 3106 1347 2909 
Q 1547 2713 1925 2713 
Q 2306 2713 2506 2909 
Q 2706 3106 2706 3481 
Q 2706 3863 2507 4063 
Q 2309 4263 1925 4263 
Q 1547 4263 1347 4061 
Q 1147 3859 1147 3481 
z
" transform="scale(0.015625)"/>
       <path id="DejaVuSansMono-34" d="M 2297 4091 
L 825 1625 
L 2297 1625 
L 2297 4091 
z
M 2194 4666 
L 2925 4666 
L 2925 1625 
L 3547 1625 
L 3547 1113 
L 2925 1113 
L 2925 0 
L 2297 0 
L 2297 1113 
L 319 1113 
L 319 1709 
L 2194 4666 
z
" transform="scale(0.015625)"/>
       <path id="DejaVuSansMono-63" d="M 3316 178 
Q 3084 44 2839 -23 
Q 2594 -91 2338 -91 
Q 1525 -91 1067 396 
Q 609 884 609 1747 
Q 609 2609 1067 3096 
Q 1525 3584 2338 3584 
Q 2591 3584 2831 3518 
Q 3072 3453 3316 3316 
L 3316 2713 
Q 3088 2916 2858 3006 
Q 2628 3097 2338 3097 
Q 1797 3097 1506 2747 
Q 1216 2397 1216 1747 
Q 1216 1100 1508 748 
Q 1800 397 2338 397 
Q 2638 397 2875 489 
Q 3113 581 3316 775 
L 3316 178 
z
" transform="scale(0.015625)"/>
       <path id="DejaVuSansMono-6d" d="M 2113 3144 
Q 2219 3369 2383 3476 
Q 2547 3584 2778 3584 
Q 3200 3584 3373 3257 
Q 3547 2931 3547 2028 
L 3547 0 
L 3022 0 
L 3022 2003 
Q 3022 2744 2939 2923 
Q 2856 3103 2638 3103 
Q 2388 3103 2295 2911 
Q 2203 2719 2203 2003 
L 2203 0 
L 1678 0 
L 1678 2003 
Q 1678 2753 1589 2928 
Q 1500 3103 1269 3103 
Q 1041 3103 952 2911 
Q 863 2719 863 2003 
L 863 0 
L 341 0 
L 341 3500 
L 863 3500 
L 863 3200 
Q 966 3388 1120 3486 
Q 1275 3584 1472 3584 
Q 1709 3584 1867 3475 
Q 2025 3366 2113 3144 
z
" transform="scale(0.015625)"/>
       <path id="DejaVuSansMono-2c" d="M 1569 947 
L 2356 947 
L 2356 300 
L 1741 -897 
L 1259 -897 
L 1569 300 
L 1569 947 
z
" transform="scale(0.015625)"/>
       <path id="DejaVuSans-394" d="M 2188 4044 
L 906 525 
L 3472 525 
L 2188 4044 
z
M 50 0 
L 1831 4666 
L 2547 4666 
L 4325 0 
L 50 0 
z
" transform="scale(0.015625)"/>
       <path id="DejaVuSans-Oblique-51" d="M 2309 -84 
Q 2275 -88 2237 -89 
Q 2200 -91 2125 -91 
Q 1250 -91 756 411 
Q 263 913 263 1797 
Q 263 2319 452 2844 
Q 641 3369 978 3788 
Q 1369 4269 1858 4509 
Q 2347 4750 2938 4750 
Q 3794 4750 4287 4245 
Q 4781 3741 4781 2869 
Q 4781 1928 4265 1147 
Q 3750 366 2919 44 
L 3553 -825 
L 2847 -825 
L 2309 -84 
z
M 2919 4238 
Q 2400 4238 2003 3986 
Q 1606 3734 1313 3219 
Q 1125 2891 1026 2522 
Q 928 2153 928 1778 
Q 928 1128 1239 775 
Q 1550 422 2119 422 
Q 2631 422 3032 676 
Q 3434 931 3719 1434 
Q 3909 1772 4009 2142 
Q 4109 2513 4109 2881 
Q 4109 3528 3796 3883 
Q 3484 4238 2919 4238 
z
" transform="scale(0.015625)"/>
       <path id="DejaVuSansMono-2b" d="M 2188 3659 
L 2188 2272 
L 3578 2272 
L 3578 1741 
L 2188 1741 
L 2188 353 
L 1663 353 
L 1663 1741 
L 275 1741 
L 275 2272 
L 1663 2272 
L 1663 3659 
L 2188 3659 
z
" transform="scale(0.015625)"/>
       <path id="DejaVuSansMono-30" d="M 1509 2344 
Q 1509 2516 1629 2641 
Q 1750 2766 1919 2766 
Q 2094 2766 2219 2641 
Q 2344 2516 2344 2344 
Q 2344 2169 2220 2047 
Q 2097 1925 1919 1925 
Q 1744 1925 1626 2044 
Q 1509 2163 1509 2344 
z
M 1925 4250 
Q 1484 4250 1267 3775 
Q 1050 3300 1050 2328 
Q 1050 1359 1267 884 
Q 1484 409 1925 409 
Q 2369 409 2586 884 
Q 2803 1359 2803 2328 
Q 2803 3300 2586 3775 
Q 2369 4250 1925 4250 
z
M 1925 4750 
Q 2672 4750 3055 4137 
Q 3438 3525 3438 2328 
Q 3438 1134 3055 521 
Q 2672 -91 1925 -91 
Q 1178 -91 797 521 
Q 416 1134 416 2328 
Q 416 3525 797 4137 
Q 1178 4750 1925 4750 
z
" transform="scale(0.015625)"/>
      </defs>
      <use xlink:href="#DejaVuSans-303" transform="translate(60.199219 3.95)"/>
      <use xlink:href="#DejaVuSans-Oblique-3bd" transform="translate(0 0.684375)"/>
      <use xlink:href="#DejaVuSans-31" transform="translate(56.816406 -15.721875) scale(0.7)"/>
      <use xlink:href="#DejaVuSans-36" transform="translate(101.352539 -15.721875) scale(0.7)"/>
      <use xlink:href="#DejaVuSans-3d" transform="translate(168.105469 0.684375)"/>
      <use xlink:href="#DejaVuSansMono-20" transform="translate(271.376953 0.684375)"/>
      <use xlink:href="#DejaVuSansMono-39" transform="translate(331.582031 0.684375)"/>
      <use xlink:href="#DejaVuSansMono-38" transform="translate(391.787109 0.684375)"/>
      <use xlink:href="#DejaVuSansMono-34" transform="translate(451.992188 0.684375)"/>
      <use xlink:href="#DejaVuSansMono-63" transform="translate(512.197266 0.684375)"/>
      <use xlink:href="#DejaVuSansMono-6d" transform="translate(572.402344 0.684375)"/>
      <use xlink:href="#DejaVuSans-2212" transform="translate(633.564453 38.965625) scale(0.7)"/>
      <use xlink:href="#DejaVuSans-31" transform="translate(692.216797 38.965625) scale(0.7)"/>
      <use xlink:href="#DejaVuSansMono-2c" transform="translate(739.487305 0.684375)"/>
      <use xlink:href="#DejaVuSansMono-20" transform="translate(799.692383 0.684375)"/>
      <use xlink:href="#DejaVuSans-394" transform="translate(859.897461 0.684375)"/>
      <use xlink:href="#DejaVuSans-Oblique-51" transform="translate(928.305664 0.684375)"/>
      <use xlink:href="#DejaVuSans-3d" transform="translate(1026.499023 0.684375)"/>
      <use xlink:href="#DejaVuSansMono-20" transform="translate(1129.770508 0.684375)"/>
      <use xlink:href="#DejaVuSansMono-20" transform="translate(1189.975586 0.684375)"/>
      <use xlink:href="#DejaVuSansMono-2b" transform="translate(1250.180664 0.684375)"/>
      <use xlink:href="#DejaVuSansMono-30" transform="translate(1310.385742 0.684375)"/>
     </g>
    </g>
    <g id="line2d_35">
     <path d="M 415.685561 48.038678 
L 423.185561 48.038678 
L 430.685561 48.038678 
" style="fill: none; stroke: #ff7f0e; stroke-width: 1.5; stroke-linecap: square"/>
     <g>
      <use xlink:href="#m497e34a5e2" x="423.185561" y="48.038678" style="fill: #ff7f0e; stroke: #ff7f0e"/>
     </g>
    </g>
    <g id="text_18">
     <!-- $\tilde{\nu}_{17}=$ 903cm$^{-1}$, $\Delta Q=$  +0 -->
     <g transform="translate(432.185561 51.538678) scale(0.1 -0.1)">
      <defs>
       <path id="DejaVuSansMono-33" d="M 2425 2497 
Q 2884 2375 3128 2064 
Q 3372 1753 3372 1288 
Q 3372 644 2939 276 
Q 2506 -91 1741 -91 
Q 1419 -91 1084 -31 
Q 750 28 428 141 
L 428 769 
Q 747 603 1056 522 
Q 1366 441 1672 441 
Q 2191 441 2469 675 
Q 2747 909 2747 1350 
Q 2747 1756 2469 1995 
Q 2191 2234 1716 2234 
L 1234 2234 
L 1234 2753 
L 1716 2753 
Q 2150 2753 2394 2943 
Q 2638 3134 2638 3475 
Q 2638 3834 2411 4026 
Q 2184 4219 1766 4219 
Q 1488 4219 1191 4156 
Q 894 4094 569 3969 
L 569 4550 
Q 947 4650 1242 4700 
Q 1538 4750 1766 4750 
Q 2447 4750 2855 4408 
Q 3263 4066 3263 3500 
Q 3263 3116 3048 2859 
Q 2834 2603 2425 2497 
z
" transform="scale(0.015625)"/>
      </defs>
      <use xlink:href="#DejaVuSans-303" transform="translate(60.199219 3.95)"/>
      <use xlink:href="#DejaVuSans-Oblique-3bd" transform="translate(0 0.684375)"/>
      <use xlink:href="#DejaVuSans-31" transform="translate(56.816406 -15.721875) scale(0.7)"/>
      <use xlink:href="#DejaVuSans-37" transform="translate(101.352539 -15.721875) scale(0.7)"/>
      <use xlink:href="#DejaVuSans-3d" transform="translate(168.105469 0.684375)"/>
      <use xlink:href="#DejaVuSansMono-20" transform="translate(271.376953 0.684375)"/>
      <use xlink:href="#DejaVuSansMono-39" transform="translate(331.582031 0.684375)"/>
      <use xlink:href="#DejaVuSansMono-30" transform="translate(391.787109 0.684375)"/>
      <use xlink:href="#DejaVuSansMono-33" transform="translate(451.992188 0.684375)"/>
      <use xlink:href="#DejaVuSansMono-63" transform="translate(512.197266 0.684375)"/>
      <use xlink:href="#DejaVuSansMono-6d" transform="translate(572.402344 0.684375)"/>
      <use xlink:href="#DejaVuSans-2212" transform="translate(633.564453 38.965625) scale(0.7)"/>
      <use xlink:href="#DejaVuSans-31" transform="translate(692.216797 38.965625) scale(0.7)"/>
      <use xlink:href="#DejaVuSansMono-2c" transform="translate(739.487305 0.684375)"/>
      <use xlink:href="#DejaVuSansMono-20" transform="translate(799.692383 0.684375)"/>
      <use xlink:href="#DejaVuSans-394" transform="translate(859.897461 0.684375)"/>
      <use xlink:href="#DejaVuSans-Oblique-51" transform="translate(928.305664 0.684375)"/>
      <use xlink:href="#DejaVuSans-3d" transform="translate(1026.499023 0.684375)"/>
      <use xlink:href="#DejaVuSansMono-20" transform="translate(1129.770508 0.684375)"/>
      <use xlink:href="#DejaVuSansMono-20" transform="translate(1189.975586 0.684375)"/>
      <use xlink:href="#DejaVuSansMono-2b" transform="translate(1250.180664 0.684375)"/>
      <use xlink:href="#DejaVuSansMono-30" transform="translate(1310.385742 0.684375)"/>
     </g>
    </g>
    <g id="line2d_36">
     <path d="M 415.685561 63.838678 
L 423.185561 63.838678 
L 430.685561 63.838678 
" style="fill: none; stroke: #2ca02c; stroke-width: 1.5; stroke-linecap: square"/>
     <g>
      <use xlink:href="#m3fbcc53e0f" x="423.185561" y="63.838678" style="fill: #2ca02c; stroke: #2ca02c"/>
     </g>
    </g>
    <g id="text_19">
     <!-- $\tilde{\nu}_{18}=$ 771cm$^{-1}$, $\Delta Q=$  +0 -->
     <g transform="translate(432.185561 67.338678) scale(0.1 -0.1)">
      <defs>
       <path id="DejaVuSans-38" d="M 2034 2216 
Q 1584 2216 1326 1975 
Q 1069 1734 1069 1313 
Q 1069 891 1326 650 
Q 1584 409 2034 409 
Q 2484 409 2743 651 
Q 3003 894 3003 1313 
Q 3003 1734 2745 1975 
Q 2488 2216 2034 2216 
z
M 1403 2484 
Q 997 2584 770 2862 
Q 544 3141 544 3541 
Q 544 4100 942 4425 
Q 1341 4750 2034 4750 
Q 2731 4750 3128 4425 
Q 3525 4100 3525 3541 
Q 3525 3141 3298 2862 
Q 3072 2584 2669 2484 
Q 3125 2378 3379 2068 
Q 3634 1759 3634 1313 
Q 3634 634 3220 271 
Q 2806 -91 2034 -91 
Q 1263 -91 848 271 
Q 434 634 434 1313 
Q 434 1759 690 2068 
Q 947 2378 1403 2484 
z
M 1172 3481 
Q 1172 3119 1398 2916 
Q 1625 2713 2034 2713 
Q 2441 2713 2670 2916 
Q 2900 3119 2900 3481 
Q 2900 3844 2670 4047 
Q 2441 4250 2034 4250 
Q 1625 4250 1398 4047 
Q 1172 3844 1172 3481 
z
" transform="scale(0.015625)"/>
       <path id="DejaVuSansMono-37" d="M 434 4666 
L 3372 4666 
L 3372 4397 
L 1703 0 
L 1044 0 
L 2669 4134 
L 434 4134 
L 434 4666 
z
" transform="scale(0.015625)"/>
       <path id="DejaVuSansMono-31" d="M 844 531 
L 1825 531 
L 1825 4097 
L 769 3859 
L 769 4434 
L 1819 4666 
L 2450 4666 
L 2450 531 
L 3419 531 
L 3419 0 
L 844 0 
L 844 531 
z
" transform="scale(0.015625)"/>
      </defs>
      <use xlink:href="#DejaVuSans-303" transform="translate(60.199219 3.95)"/>
      <use xlink:href="#DejaVuSans-Oblique-3bd" transform="translate(0 0.684375)"/>
      <use xlink:href="#DejaVuSans-31" transform="translate(56.816406 -15.721875) scale(0.7)"/>
      <use xlink:href="#DejaVuSans-38" transform="translate(101.352539 -15.721875) scale(0.7)"/>
      <use xlink:href="#DejaVuSans-3d" transform="translate(168.105469 0.684375)"/>
      <use xlink:href="#DejaVuSansMono-20" transform="translate(271.376953 0.684375)"/>
      <use xlink:href="#DejaVuSansMono-37" transform="translate(331.582031 0.684375)"/>
      <use xlink:href="#DejaVuSansMono-37" transform="translate(391.787109 0.684375)"/>
      <use xlink:href="#DejaVuSansMono-31" transform="translate(451.992188 0.684375)"/>
      <use xlink:href="#DejaVuSansMono-63" transform="translate(512.197266 0.684375)"/>
      <use xlink:href="#DejaVuSansMono-6d" transform="translate(572.402344 0.684375)"/>
      <use xlink:href="#DejaVuSans-2212" transform="translate(633.564453 38.965625) scale(0.7)"/>
      <use xlink:href="#DejaVuSans-31" transform="translate(692.216797 38.965625) scale(0.7)"/>
      <use xlink:href="#DejaVuSansMono-2c" transform="translate(739.487305 0.684375)"/>
      <use xlink:href="#DejaVuSansMono-20" transform="translate(799.692383 0.684375)"/>
      <use xlink:href="#DejaVuSans-394" transform="translate(859.897461 0.684375)"/>
      <use xlink:href="#DejaVuSans-Oblique-51" transform="translate(928.305664 0.684375)"/>
      <use xlink:href="#DejaVuSans-3d" transform="translate(1026.499023 0.684375)"/>
      <use xlink:href="#DejaVuSansMono-20" transform="translate(1129.770508 0.684375)"/>
      <use xlink:href="#DejaVuSansMono-20" transform="translate(1189.975586 0.684375)"/>
      <use xlink:href="#DejaVuSansMono-2b" transform="translate(1250.180664 0.684375)"/>
      <use xlink:href="#DejaVuSansMono-30" transform="translate(1310.385742 0.684375)"/>
     </g>
    </g>
    <g id="line2d_37">
     <path d="M 415.685561 79.638678 
L 423.185561 79.638678 
L 430.685561 79.638678 
" style="fill: none; stroke: #d62728; stroke-width: 1.5; stroke-linecap: square"/>
     <g>
      <use xlink:href="#m96a534b991" x="423.185561" y="79.638678" style="fill: #d62728; stroke: #d62728"/>
     </g>
    </g>
    <g id="text_20">
     <!-- $\tilde{\nu}_{19}=$ 689cm$^{-1}$, $\Delta Q=$  +0 -->
     <g transform="translate(432.185561 83.138678) scale(0.1 -0.1)">
      <defs>
       <path id="DejaVuSans-39" d="M 703 97 
L 703 672 
Q 941 559 1184 500 
Q 1428 441 1663 441 
Q 2288 441 2617 861 
Q 2947 1281 2994 2138 
Q 2813 1869 2534 1725 
Q 2256 1581 1919 1581 
Q 1219 1581 811 2004 
Q 403 2428 403 3163 
Q 403 3881 828 4315 
Q 1253 4750 1959 4750 
Q 2769 4750 3195 4129 
Q 3622 3509 3622 2328 
Q 3622 1225 3098 567 
Q 2575 -91 1691 -91 
Q 1453 -91 1209 -44 
Q 966 3 703 97 
z
M 1959 2075 
Q 2384 2075 2632 2365 
Q 2881 2656 2881 3163 
Q 2881 3666 2632 3958 
Q 2384 4250 1959 4250 
Q 1534 4250 1286 3958 
Q 1038 3666 1038 3163 
Q 1038 2656 1286 2365 
Q 1534 2075 1959 2075 
z
" transform="scale(0.015625)"/>
       <path id="DejaVuSansMono-36" d="M 3097 4563 
L 3097 3981 
Q 2900 4097 2678 4158 
Q 2456 4219 2216 4219 
Q 1616 4219 1306 3767 
Q 997 3316 997 2438 
Q 1147 2750 1412 2917 
Q 1678 3084 2022 3084 
Q 2697 3084 3067 2670 
Q 3438 2256 3438 1497 
Q 3438 741 3056 325 
Q 2675 -91 1984 -91 
Q 1172 -91 794 492 
Q 416 1075 416 2328 
Q 416 3509 870 4129 
Q 1325 4750 2188 4750 
Q 2419 4750 2650 4701 
Q 2881 4653 3097 4563 
z
M 1972 2591 
Q 1569 2591 1337 2300 
Q 1106 2009 1106 1497 
Q 1106 984 1337 693 
Q 1569 403 1972 403 
Q 2391 403 2603 679 
Q 2816 956 2816 1497 
Q 2816 2041 2603 2316 
Q 2391 2591 1972 2591 
z
" transform="scale(0.015625)"/>
      </defs>
      <use xlink:href="#DejaVuSans-303" transform="translate(60.199219 3.95)"/>
      <use xlink:href="#DejaVuSans-Oblique-3bd" transform="translate(0 0.684375)"/>
      <use xlink:href="#DejaVuSans-31" transform="translate(56.816406 -15.721875) scale(0.7)"/>
      <use xlink:href="#DejaVuSans-39" transform="translate(101.352539 -15.721875) scale(0.7)"/>
      <use xlink:href="#DejaVuSans-3d" transform="translate(168.105469 0.684375)"/>
      <use xlink:href="#DejaVuSansMono-20" transform="translate(271.376953 0.684375)"/>
      <use xlink:href="#DejaVuSansMono-36" transform="translate(331.582031 0.684375)"/>
      <use xlink:href="#DejaVuSansMono-38" transform="translate(391.787109 0.684375)"/>
      <use xlink:href="#DejaVuSansMono-39" transform="translate(451.992188 0.684375)"/>
      <use xlink:href="#DejaVuSansMono-63" transform="translate(512.197266 0.684375)"/>
      <use xlink:href="#DejaVuSansMono-6d" transform="translate(572.402344 0.684375)"/>
      <use xlink:href="#DejaVuSans-2212" transform="translate(633.564453 38.965625) scale(0.7)"/>
      <use xlink:href="#DejaVuSans-31" transform="translate(692.216797 38.965625) scale(0.7)"/>
      <use xlink:href="#DejaVuSansMono-2c" transform="translate(739.487305 0.684375)"/>
      <use xlink:href="#DejaVuSansMono-20" transform="translate(799.692383 0.684375)"/>
      <use xlink:href="#DejaVuSans-394" transform="translate(859.897461 0.684375)"/>
      <use xlink:href="#DejaVuSans-Oblique-51" transform="translate(928.305664 0.684375)"/>
      <use xlink:href="#DejaVuSans-3d" transform="translate(1026.499023 0.684375)"/>
      <use xlink:href="#DejaVuSansMono-20" transform="translate(1129.770508 0.684375)"/>
      <use xlink:href="#DejaVuSansMono-20" transform="translate(1189.975586 0.684375)"/>
      <use xlink:href="#DejaVuSansMono-2b" transform="translate(1250.180664 0.684375)"/>
      <use xlink:href="#DejaVuSansMono-30" transform="translate(1310.385742 0.684375)"/>
     </g>
    </g>
    <g id="line2d_38">
     <path d="M 415.685561 95.438678 
L 423.185561 95.438678 
L 430.685561 95.438678 
" style="fill: none; stroke: #9467bd; stroke-width: 1.5; stroke-linecap: square"/>
     <g>
      <use xlink:href="#mdb5845a1be" x="423.185561" y="95.438678" style="fill: #9467bd; stroke: #9467bd"/>
     </g>
    </g>
    <g id="text_21">
     <!-- $\tilde{\nu}_{20}=$ 532cm$^{-1}$, $\Delta Q=$  +0 -->
     <g transform="translate(432.185561 98.938678) scale(0.1 -0.1)">
      <defs>
       <path id="DejaVuSansMono-35" d="M 647 4666 
L 3009 4666 
L 3009 4134 
L 1222 4134 
L 1222 2988 
Q 1356 3038 1492 3061 
Q 1628 3084 1766 3084 
Q 2491 3084 2916 2656 
Q 3341 2228 3341 1497 
Q 3341 759 2895 334 
Q 2450 -91 1678 -91 
Q 1306 -91 998 -41 
Q 691 9 447 109 
L 447 750 
Q 734 594 1025 517 
Q 1316 441 1619 441 
Q 2141 441 2423 716 
Q 2706 991 2706 1497 
Q 2706 1997 2414 2275 
Q 2122 2553 1600 2553 
Q 1347 2553 1106 2495 
Q 866 2438 647 2322 
L 647 4666 
z
" transform="scale(0.015625)"/>
       <path id="DejaVuSansMono-32" d="M 1166 531 
L 3309 531 
L 3309 0 
L 475 0 
L 475 531 
Q 1059 1147 1496 1619 
Q 1934 2091 2100 2284 
Q 2413 2666 2522 2902 
Q 2631 3138 2631 3384 
Q 2631 3775 2401 3997 
Q 2172 4219 1772 4219 
Q 1488 4219 1175 4116 
Q 863 4013 513 3803 
L 513 4441 
Q 834 4594 1145 4672 
Q 1456 4750 1759 4750 
Q 2444 4750 2861 4386 
Q 3278 4022 3278 3431 
Q 3278 3131 3139 2831 
Q 3000 2531 2688 2169 
Q 2513 1966 2180 1606 
Q 1847 1247 1166 531 
z
" transform="scale(0.015625)"/>
      </defs>
      <use xlink:href="#DejaVuSans-303" transform="translate(60.199219 3.95)"/>
      <use xlink:href="#DejaVuSans-Oblique-3bd" transform="translate(0 0.684375)"/>
      <use xlink:href="#DejaVuSans-32" transform="translate(56.816406 -15.721875) scale(0.7)"/>
      <use xlink:href="#DejaVuSans-30" transform="translate(101.352539 -15.721875) scale(0.7)"/>
      <use xlink:href="#DejaVuSans-3d" transform="translate(168.105469 0.684375)"/>
      <use xlink:href="#DejaVuSansMono-20" transform="translate(271.376953 0.684375)"/>
      <use xlink:href="#DejaVuSansMono-35" transform="translate(331.582031 0.684375)"/>
      <use xlink:href="#DejaVuSansMono-33" transform="translate(391.787109 0.684375)"/>
      <use xlink:href="#DejaVuSansMono-32" transform="translate(451.992188 0.684375)"/>
      <use xlink:href="#DejaVuSansMono-63" transform="translate(512.197266 0.684375)"/>
      <use xlink:href="#DejaVuSansMono-6d" transform="translate(572.402344 0.684375)"/>
      <use xlink:href="#DejaVuSans-2212" transform="translate(633.564453 38.965625) scale(0.7)"/>
      <use xlink:href="#DejaVuSans-31" transform="translate(692.216797 38.965625) scale(0.7)"/>
      <use xlink:href="#DejaVuSansMono-2c" transform="translate(739.487305 0.684375)"/>
      <use xlink:href="#DejaVuSansMono-20" transform="translate(799.692383 0.684375)"/>
      <use xlink:href="#DejaVuSans-394" transform="translate(859.897461 0.684375)"/>
      <use xlink:href="#DejaVuSans-Oblique-51" transform="translate(928.305664 0.684375)"/>
      <use xlink:href="#DejaVuSans-3d" transform="translate(1026.499023 0.684375)"/>
      <use xlink:href="#DejaVuSansMono-20" transform="translate(1129.770508 0.684375)"/>
      <use xlink:href="#DejaVuSansMono-20" transform="translate(1189.975586 0.684375)"/>
      <use xlink:href="#DejaVuSansMono-2b" transform="translate(1250.180664 0.684375)"/>
      <use xlink:href="#DejaVuSansMono-30" transform="translate(1310.385742 0.684375)"/>
     </g>
    </g>
    <g id="line2d_39">
     <path d="M 415.685561 111.138678 
L 423.185561 111.138678 
L 430.685561 111.138678 
" style="fill: none; stroke: #8c564b; stroke-width: 1.5; stroke-linecap: square"/>
     <g>
      <use xlink:href="#mf952542880" x="423.185561" y="111.138678" style="fill: #8c564b; stroke: #8c564b"/>
     </g>
    </g>
    <g id="text_22">
     <!-- $\tilde{\nu}_{21}=$ 273cm$^{-1}$, $\Delta Q=$  +0 -->
     <g transform="translate(432.185561 114.638678) scale(0.1 -0.1)">
      <use xlink:href="#DejaVuSans-303" transform="translate(60.199219 3.95)"/>
      <use xlink:href="#DejaVuSans-Oblique-3bd" transform="translate(0 0.684375)"/>
      <use xlink:href="#DejaVuSans-32" transform="translate(56.816406 -15.721875) scale(0.7)"/>
      <use xlink:href="#DejaVuSans-31" transform="translate(101.352539 -15.721875) scale(0.7)"/>
      <use xlink:href="#DejaVuSans-3d" transform="translate(168.105469 0.684375)"/>
      <use xlink:href="#DejaVuSansMono-20" transform="translate(271.376953 0.684375)"/>
      <use xlink:href="#DejaVuSansMono-32" transform="translate(331.582031 0.684375)"/>
      <use xlink:href="#DejaVuSansMono-37" transform="translate(391.787109 0.684375)"/>
      <use xlink:href="#DejaVuSansMono-33" transform="translate(451.992188 0.684375)"/>
      <use xlink:href="#DejaVuSansMono-63" transform="translate(512.197266 0.684375)"/>
      <use xlink:href="#DejaVuSansMono-6d" transform="translate(572.402344 0.684375)"/>
      <use xlink:href="#DejaVuSans-2212" transform="translate(633.564453 38.965625) scale(0.7)"/>
      <use xlink:href="#DejaVuSans-31" transform="translate(692.216797 38.965625) scale(0.7)"/>
      <use xlink:href="#DejaVuSansMono-2c" transform="translate(739.487305 0.684375)"/>
      <use xlink:href="#DejaVuSansMono-20" transform="translate(799.692383 0.684375)"/>
      <use xlink:href="#DejaVuSans-394" transform="translate(859.897461 0.684375)"/>
      <use xlink:href="#DejaVuSans-Oblique-51" transform="translate(928.305664 0.684375)"/>
      <use xlink:href="#DejaVuSans-3d" transform="translate(1026.499023 0.684375)"/>
      <use xlink:href="#DejaVuSansMono-20" transform="translate(1129.770508 0.684375)"/>
      <use xlink:href="#DejaVuSansMono-20" transform="translate(1189.975586 0.684375)"/>
      <use xlink:href="#DejaVuSansMono-2b" transform="translate(1250.180664 0.684375)"/>
      <use xlink:href="#DejaVuSansMono-30" transform="translate(1310.385742 0.684375)"/>
     </g>
    </g>
    <g id="line2d_40">
     <path d="M 415.685561 126.838678 
L 423.185561 126.838678 
L 430.685561 126.838678 
" style="fill: none; stroke: #e377c2; stroke-width: 1.5; stroke-linecap: square"/>
     <g>
      <use xlink:href="#mb7713e2f7e" x="423.185561" y="126.838678" style="fill: #e377c2; stroke: #e377c2"/>
     </g>
    </g>
    <g id="text_23">
     <!-- $\tilde{\nu}_{22}=$  84cm$^{-1}$, $\Delta Q=$  +0 -->
     <g transform="translate(432.185561 130.338678) scale(0.1 -0.1)">
      <use xlink:href="#DejaVuSans-303" transform="translate(60.199219 3.95)"/>
      <use xlink:href="#DejaVuSans-Oblique-3bd" transform="translate(0 0.684375)"/>
      <use xlink:href="#DejaVuSans-32" transform="translate(56.816406 -15.721875) scale(0.7)"/>
      <use xlink:href="#DejaVuSans-32" transform="translate(101.352539 -15.721875) scale(0.7)"/>
      <use xlink:href="#DejaVuSans-3d" transform="translate(168.105469 0.684375)"/>
      <use xlink:href="#DejaVuSansMono-20" transform="translate(271.376953 0.684375)"/>
      <use xlink:href="#DejaVuSansMono-20" transform="translate(331.582031 0.684375)"/>
      <use xlink:href="#DejaVuSansMono-38" transform="translate(391.787109 0.684375)"/>
      <use xlink:href="#DejaVuSansMono-34" transform="translate(451.992188 0.684375)"/>
      <use xlink:href="#DejaVuSansMono-63" transform="translate(512.197266 0.684375)"/>
      <use xlink:href="#DejaVuSansMono-6d" transform="translate(572.402344 0.684375)"/>
      <use xlink:href="#DejaVuSans-2212" transform="translate(633.564453 38.965625) scale(0.7)"/>
      <use xlink:href="#DejaVuSans-31" transform="translate(692.216797 38.965625) scale(0.7)"/>
      <use xlink:href="#DejaVuSansMono-2c" transform="translate(739.487305 0.684375)"/>
      <use xlink:href="#DejaVuSansMono-20" transform="translate(799.692383 0.684375)"/>
      <use xlink:href="#DejaVuSans-394" transform="translate(859.897461 0.684375)"/>
      <use xlink:href="#DejaVuSans-Oblique-51" transform="translate(928.305664 0.684375)"/>
      <use xlink:href="#DejaVuSans-3d" transform="translate(1026.499023 0.684375)"/>
      <use xlink:href="#DejaVuSansMono-20" transform="translate(1129.770508 0.684375)"/>
      <use xlink:href="#DejaVuSansMono-20" transform="translate(1189.975586 0.684375)"/>
      <use xlink:href="#DejaVuSansMono-2b" transform="translate(1250.180664 0.684375)"/>
      <use xlink:href="#DejaVuSansMono-30" transform="translate(1310.385742 0.684375)"/>
     </g>
    </g>
   </g>
  </g>
 </g>
 <defs>
  <clipPath id="p27a34691f4">
   <rect x="52.00024" y="18.118365" width="337.795544" height="272.525145"/>
  </clipPath>
 </defs>
</svg>
