<?xml version="1.0" encoding="utf-8" standalone="no"?>
<!DOCTYPE svg PUBLIC "-//W3C//DTD SVG 1.1//EN"
  "http://www.w3.org/Graphics/SVG/1.1/DTD/svg11.dtd">
<svg xmlns:xlink="http://www.w3.org/1999/xlink" width="576pt" height="324pt" viewBox="0 0 576 324" xmlns="http://www.w3.org/2000/svg" version="1.1">
 <metadata>
  <rdf:RDF xmlns:dc="http://purl.org/dc/elements/1.1/" xmlns:cc="http://creativecommons.org/ns#" xmlns:rdf="http://www.w3.org/1999/02/22-rdf-syntax-ns#">
   <cc:Work>
    <dc:type rdf:resource="http://purl.org/dc/dcmitype/StillImage"/>
    <dc:date>2025-06-09T10:23:42.449306</dc:date>
    <dc:format>image/svg+xml</dc:format>
    <dc:creator>
     <cc:Agent>
      <dc:title>Matplotlib v3.10.3, https://matplotlib.org/</dc:title>
     </cc:Agent>
    </dc:creator>
   </cc:Work>
  </rdf:RDF>
 </metadata>
 <defs>
  <style type="text/css">*{stroke-linejoin: round; stroke-linecap: butt}</style>
 </defs>
 <g id="figure_1">
  <g id="patch_1">
   <path d="M 0 324 
L 576 324 
L 576 0 
L 0 0 
z
" style="fill: #ffffff"/>
  </g>
  <g id="axes_1">
   <g id="patch_2">
    <path d="M 52.00024 290.64351 
L 389.795784 290.64351 
L 389.795784 18.118365 
L 52.00024 18.118365 
z
" style="fill: #ffffff"/>
   </g>
   <g id="matplotlib.axis_1">
    <g id="xtick_1">
     <g id="line2d_1">
      <path d="M 67.354583 290.64351 
L 67.354583 18.118365 
" clip-path="url(#pab2bf08c3a)" style="fill: none; stroke: #b0b0b0; stroke-width: 0.8; stroke-linecap: square"/>
     </g>
     <g id="line2d_2">
      <defs>
       <path id="m1852470ddf" d="M 0 0 
L 0 3.5 
" style="stroke: #000000; stroke-width: 0.8"/>
      </defs>
      <g>
       <use xlink:href="#m1852470ddf" x="67.354583" y="290.64351" style="stroke: #000000; stroke-width: 0.8"/>
      </g>
     </g>
     <g id="text_1">
      <!-- 0 -->
      <g transform="translate(64.173333 305.241947) scale(0.1 -0.1)">
       <defs>
        <path id="DejaVuSans-30" d="M 2034 4250 
Q 1547 4250 1301 3770 
Q 1056 3291 1056 2328 
Q 1056 1369 1301 889 
Q 1547 409 2034 409 
Q 2525 409 2770 889 
Q 3016 1369 3016 2328 
Q 3016 3291 2770 3770 
Q 2525 4250 2034 4250 
z
M 2034 4750 
Q 2819 4750 3233 4129 
Q 3647 3509 3647 2328 
Q 3647 1150 3233 529 
Q 2819 -91 2034 -91 
Q 1250 -91 836 529 
Q 422 1150 422 2328 
Q 422 3509 836 4129 
Q 1250 4750 2034 4750 
z
" transform="scale(0.015625)"/>
       </defs>
       <use xlink:href="#DejaVuSans-30"/>
      </g>
     </g>
    </g>
    <g id="xtick_2">
     <g id="line2d_3">
      <path d="M 118.535726 290.64351 
L 118.535726 18.118365 
" clip-path="url(#pab2bf08c3a)" style="fill: none; stroke: #b0b0b0; stroke-width: 0.8; stroke-linecap: square"/>
     </g>
     <g id="line2d_4">
      <g>
       <use xlink:href="#m1852470ddf" x="118.535726" y="290.64351" style="stroke: #000000; stroke-width: 0.8"/>
      </g>
     </g>
     <g id="text_2">
      <!-- 10 -->
      <g transform="translate(112.173226 305.241947) scale(0.1 -0.1)">
       <defs>
        <path id="DejaVuSans-31" d="M 794 531 
L 1825 531 
L 1825 4091 
L 703 3866 
L 703 4441 
L 1819 4666 
L 2450 4666 
L 2450 531 
L 3481 531 
L 3481 0 
L 794 0 
L 794 531 
z
" transform="scale(0.015625)"/>
       </defs>
       <use xlink:href="#DejaVuSans-31"/>
       <use xlink:href="#DejaVuSans-30" transform="translate(63.623047 0)"/>
      </g>
     </g>
    </g>
    <g id="xtick_3">
     <g id="line2d_5">
      <path d="M 169.716869 290.64351 
L 169.716869 18.118365 
" clip-path="url(#pab2bf08c3a)" style="fill: none; stroke: #b0b0b0; stroke-width: 0.8; stroke-linecap: square"/>
     </g>
     <g id="line2d_6">
      <g>
       <use xlink:href="#m1852470ddf" x="169.716869" y="290.64351" style="stroke: #000000; stroke-width: 0.8"/>
      </g>
     </g>
     <g id="text_3">
      <!-- 20 -->
      <g transform="translate(163.354369 305.241947) scale(0.1 -0.1)">
       <defs>
        <path id="DejaVuSans-32" d="M 1228 531 
L 3431 531 
L 3431 0 
L 469 0 
L 469 531 
Q 828 903 1448 1529 
Q 2069 2156 2228 2338 
Q 2531 2678 2651 2914 
Q 2772 3150 2772 3378 
Q 2772 3750 2511 3984 
Q 2250 4219 1831 4219 
Q 1534 4219 1204 4116 
Q 875 4013 500 3803 
L 500 4441 
Q 881 4594 1212 4672 
Q 1544 4750 1819 4750 
Q 2544 4750 2975 4387 
Q 3406 4025 3406 3419 
Q 3406 3131 3298 2873 
Q 3191 2616 2906 2266 
Q 2828 2175 2409 1742 
Q 1991 1309 1228 531 
z
" transform="scale(0.015625)"/>
       </defs>
       <use xlink:href="#DejaVuSans-32"/>
       <use xlink:href="#DejaVuSans-30" transform="translate(63.623047 0)"/>
      </g>
     </g>
    </g>
    <g id="xtick_4">
     <g id="line2d_7">
      <path d="M 220.898012 290.64351 
L 220.898012 18.118365 
" clip-path="url(#pab2bf08c3a)" style="fill: none; stroke: #b0b0b0; stroke-width: 0.8; stroke-linecap: square"/>
     </g>
     <g id="line2d_8">
      <g>
       <use xlink:href="#m1852470ddf" x="220.898012" y="290.64351" style="stroke: #000000; stroke-width: 0.8"/>
      </g>
     </g>
     <g id="text_4">
      <!-- 30 -->
      <g transform="translate(214.535512 305.241947) scale(0.1 -0.1)">
       <defs>
        <path id="DejaVuSans-33" d="M 2597 2516 
Q 3050 2419 3304 2112 
Q 3559 1806 3559 1356 
Q 3559 666 3084 287 
Q 2609 -91 1734 -91 
Q 1441 -91 1130 -33 
Q 819 25 488 141 
L 488 750 
Q 750 597 1062 519 
Q 1375 441 1716 441 
Q 2309 441 2620 675 
Q 2931 909 2931 1356 
Q 2931 1769 2642 2001 
Q 2353 2234 1838 2234 
L 1294 2234 
L 1294 2753 
L 1863 2753 
Q 2328 2753 2575 2939 
Q 2822 3125 2822 3475 
Q 2822 3834 2567 4026 
Q 2313 4219 1838 4219 
Q 1578 4219 1281 4162 
Q 984 4106 628 3988 
L 628 4550 
Q 988 4650 1302 4700 
Q 1616 4750 1894 4750 
Q 2613 4750 3031 4423 
Q 3450 4097 3450 3541 
Q 3450 3153 3228 2886 
Q 3006 2619 2597 2516 
z
" transform="scale(0.015625)"/>
       </defs>
       <use xlink:href="#DejaVuSans-33"/>
       <use xlink:href="#DejaVuSans-30" transform="translate(63.623047 0)"/>
      </g>
     </g>
    </g>
    <g id="xtick_5">
     <g id="line2d_9">
      <path d="M 272.079155 290.64351 
L 272.079155 18.118365 
" clip-path="url(#pab2bf08c3a)" style="fill: none; stroke: #b0b0b0; stroke-width: 0.8; stroke-linecap: square"/>
     </g>
     <g id="line2d_10">
      <g>
       <use xlink:href="#m1852470ddf" x="272.079155" y="290.64351" style="stroke: #000000; stroke-width: 0.8"/>
      </g>
     </g>
     <g id="text_5">
      <!-- 40 -->
      <g transform="translate(265.716655 305.241947) scale(0.1 -0.1)">
       <defs>
        <path id="DejaVuSans-34" d="M 2419 4116 
L 825 1625 
L 2419 1625 
L 2419 4116 
z
M 2253 4666 
L 3047 4666 
L 3047 1625 
L 3713 1625 
L 3713 1100 
L 3047 1100 
L 3047 0 
L 2419 0 
L 2419 1100 
L 313 1100 
L 313 1709 
L 2253 4666 
z
" transform="scale(0.015625)"/>
       </defs>
       <use xlink:href="#DejaVuSans-34"/>
       <use xlink:href="#DejaVuSans-30" transform="translate(63.623047 0)"/>
      </g>
     </g>
    </g>
    <g id="xtick_6">
     <g id="line2d_11">
      <path d="M 323.260298 290.64351 
L 323.260298 18.118365 
" clip-path="url(#pab2bf08c3a)" style="fill: none; stroke: #b0b0b0; stroke-width: 0.8; stroke-linecap: square"/>
     </g>
     <g id="line2d_12">
      <g>
       <use xlink:href="#m1852470ddf" x="323.260298" y="290.64351" style="stroke: #000000; stroke-width: 0.8"/>
      </g>
     </g>
     <g id="text_6">
      <!-- 50 -->
      <g transform="translate(316.897798 305.241947) scale(0.1 -0.1)">
       <defs>
        <path id="DejaVuSans-35" d="M 691 4666 
L 3169 4666 
L 3169 4134 
L 1269 4134 
L 1269 2991 
Q 1406 3038 1543 3061 
Q 1681 3084 1819 3084 
Q 2600 3084 3056 2656 
Q 3513 2228 3513 1497 
Q 3513 744 3044 326 
Q 2575 -91 1722 -91 
Q 1428 -91 1123 -41 
Q 819 9 494 109 
L 494 744 
Q 775 591 1075 516 
Q 1375 441 1709 441 
Q 2250 441 2565 725 
Q 2881 1009 2881 1497 
Q 2881 1984 2565 2268 
Q 2250 2553 1709 2553 
Q 1456 2553 1204 2497 
Q 953 2441 691 2322 
L 691 4666 
z
" transform="scale(0.015625)"/>
       </defs>
       <use xlink:href="#DejaVuSans-35"/>
       <use xlink:href="#DejaVuSans-30" transform="translate(63.623047 0)"/>
      </g>
     </g>
    </g>
    <g id="xtick_7">
     <g id="line2d_13">
      <path d="M 374.441441 290.64351 
L 374.441441 18.118365 
" clip-path="url(#pab2bf08c3a)" style="fill: none; stroke: #b0b0b0; stroke-width: 0.8; stroke-linecap: square"/>
     </g>
     <g id="line2d_14">
      <g>
       <use xlink:href="#m1852470ddf" x="374.441441" y="290.64351" style="stroke: #000000; stroke-width: 0.8"/>
      </g>
     </g>
     <g id="text_7">
      <!-- 60 -->
      <g transform="translate(368.078941 305.241947) scale(0.1 -0.1)">
       <defs>
        <path id="DejaVuSans-36" d="M 2113 2584 
Q 1688 2584 1439 2293 
Q 1191 2003 1191 1497 
Q 1191 994 1439 701 
Q 1688 409 2113 409 
Q 2538 409 2786 701 
Q 3034 994 3034 1497 
Q 3034 2003 2786 2293 
Q 2538 2584 2113 2584 
z
M 3366 4563 
L 3366 3988 
Q 3128 4100 2886 4159 
Q 2644 4219 2406 4219 
Q 1781 4219 1451 3797 
Q 1122 3375 1075 2522 
Q 1259 2794 1537 2939 
Q 1816 3084 2150 3084 
Q 2853 3084 3261 2657 
Q 3669 2231 3669 1497 
Q 3669 778 3244 343 
Q 2819 -91 2113 -91 
Q 1303 -91 875 529 
Q 447 1150 447 2328 
Q 447 3434 972 4092 
Q 1497 4750 2381 4750 
Q 2619 4750 2861 4703 
Q 3103 4656 3366 4563 
z
" transform="scale(0.015625)"/>
       </defs>
       <use xlink:href="#DejaVuSans-36"/>
       <use xlink:href="#DejaVuSans-30" transform="translate(63.623047 0)"/>
      </g>
     </g>
    </g>
    <g id="text_8">
     <!-- $n_X$ -->
     <g transform="translate(215.148012 318.920073) scale(0.1 -0.1)">
      <defs>
       <path id="DejaVuSans-Oblique-6e" d="M 3566 2113 
L 3156 0 
L 2578 0 
L 2988 2091 
Q 3016 2238 3031 2350 
Q 3047 2463 3047 2528 
Q 3047 2791 2881 2937 
Q 2716 3084 2419 3084 
Q 1956 3084 1622 2776 
Q 1288 2469 1184 1941 
L 800 0 
L 225 0 
L 903 3500 
L 1478 3500 
L 1363 2950 
Q 1603 3253 1940 3418 
Q 2278 3584 2650 3584 
Q 3113 3584 3367 3334 
Q 3622 3084 3622 2631 
Q 3622 2519 3608 2391 
Q 3594 2263 3566 2113 
z
" transform="scale(0.015625)"/>
       <path id="DejaVuSans-Oblique-58" d="M 878 4666 
L 1516 4666 
L 2316 2981 
L 3763 4666 
L 4500 4666 
L 2578 2438 
L 3738 0 
L 3103 0 
L 2163 1966 
L 459 0 
L -275 0 
L 1906 2509 
L 878 4666 
z
" transform="scale(0.015625)"/>
      </defs>
      <use xlink:href="#DejaVuSans-Oblique-6e"/>
      <use xlink:href="#DejaVuSans-Oblique-58" transform="translate(63.378906 -16.40625) scale(0.7)"/>
     </g>
    </g>
   </g>
   <g id="matplotlib.axis_2">
    <g id="ytick_1">
     <g id="line2d_15">
      <path d="M 52.00024 18.118365 
L 389.795784 18.118365 
" clip-path="url(#pab2bf08c3a)" style="fill: none; stroke: #b0b0b0; stroke-width: 0.8; stroke-linecap: square"/>
     </g>
     <g id="line2d_16">
      <defs>
       <path id="m9d70156b08" d="M 0 0 
L -3.5 0 
" style="stroke: #000000; stroke-width: 0.8"/>
      </defs>
      <g>
       <use xlink:href="#m9d70156b08" x="52.00024" y="18.118365" style="stroke: #000000; stroke-width: 0.8"/>
      </g>
     </g>
     <g id="text_9">
      <!-- $\mathdefault{10^{0}}$ -->
      <g transform="translate(27.40024 21.917584) scale(0.1 -0.1)">
       <use xlink:href="#DejaVuSans-31" transform="translate(0 0.765625)"/>
       <use xlink:href="#DejaVuSans-30" transform="translate(63.623047 0.765625)"/>
       <use xlink:href="#DejaVuSans-30" transform="translate(128.203125 39.046875) scale(0.7)"/>
      </g>
     </g>
    </g>
    <g id="ytick_2">
     <g id="line2d_17">
      <path d="M 52.00024 72.623394 
L 389.795784 72.623394 
" clip-path="url(#pab2bf08c3a)" style="fill: none; stroke: #b0b0b0; stroke-width: 0.8; stroke-linecap: square"/>
     </g>
     <g id="line2d_18">
      <g>
       <use xlink:href="#m9d70156b08" x="52.00024" y="72.623394" style="stroke: #000000; stroke-width: 0.8"/>
      </g>
     </g>
     <g id="text_10">
      <!-- $\mathdefault{10^{-15}}$ -->
      <g transform="translate(17.10024 76.422613) scale(0.1 -0.1)">
       <defs>
        <path id="DejaVuSans-2212" d="M 678 2272 
L 4684 2272 
L 4684 1741 
L 678 1741 
L 678 2272 
z
" transform="scale(0.015625)"/>
       </defs>
       <use xlink:href="#DejaVuSans-31" transform="translate(0 0.684375)"/>
       <use xlink:href="#DejaVuSans-30" transform="translate(63.623047 0.684375)"/>
       <use xlink:href="#DejaVuSans-2212" transform="translate(128.203125 38.965625) scale(0.7)"/>
       <use xlink:href="#DejaVuSans-31" transform="translate(186.855469 38.965625) scale(0.7)"/>
       <use xlink:href="#DejaVuSans-35" transform="translate(231.391602 38.965625) scale(0.7)"/>
      </g>
     </g>
    </g>
    <g id="ytick_3">
     <g id="line2d_19">
      <path d="M 52.00024 127.128423 
L 389.795784 127.128423 
" clip-path="url(#pab2bf08c3a)" style="fill: none; stroke: #b0b0b0; stroke-width: 0.8; stroke-linecap: square"/>
     </g>
     <g id="line2d_20">
      <g>
       <use xlink:href="#m9d70156b08" x="52.00024" y="127.128423" style="stroke: #000000; stroke-width: 0.8"/>
      </g>
     </g>
     <g id="text_11">
      <!-- $\mathdefault{10^{-30}}$ -->
      <g transform="translate(17.10024 130.927642) scale(0.1 -0.1)">
       <use xlink:href="#DejaVuSans-31" transform="translate(0 0.765625)"/>
       <use xlink:href="#DejaVuSans-30" transform="translate(63.623047 0.765625)"/>
       <use xlink:href="#DejaVuSans-2212" transform="translate(128.203125 39.046875) scale(0.7)"/>
       <use xlink:href="#DejaVuSans-33" transform="translate(186.855469 39.046875) scale(0.7)"/>
       <use xlink:href="#DejaVuSans-30" transform="translate(231.391602 39.046875) scale(0.7)"/>
      </g>
     </g>
    </g>
    <g id="ytick_4">
     <g id="line2d_21">
      <path d="M 52.00024 181.633452 
L 389.795784 181.633452 
" clip-path="url(#pab2bf08c3a)" style="fill: none; stroke: #b0b0b0; stroke-width: 0.8; stroke-linecap: square"/>
     </g>
     <g id="line2d_22">
      <g>
       <use xlink:href="#m9d70156b08" x="52.00024" y="181.633452" style="stroke: #000000; stroke-width: 0.8"/>
      </g>
     </g>
     <g id="text_12">
      <!-- $\mathdefault{10^{-45}}$ -->
      <g transform="translate(17.10024 185.432671) scale(0.1 -0.1)">
       <use xlink:href="#DejaVuSans-31" transform="translate(0 0.684375)"/>
       <use xlink:href="#DejaVuSans-30" transform="translate(63.623047 0.684375)"/>
       <use xlink:href="#DejaVuSans-2212" transform="translate(128.203125 38.965625) scale(0.7)"/>
       <use xlink:href="#DejaVuSans-34" transform="translate(186.855469 38.965625) scale(0.7)"/>
       <use xlink:href="#DejaVuSans-35" transform="translate(231.391602 38.965625) scale(0.7)"/>
      </g>
     </g>
    </g>
    <g id="ytick_5">
     <g id="line2d_23">
      <path d="M 52.00024 236.138481 
L 389.795784 236.138481 
" clip-path="url(#pab2bf08c3a)" style="fill: none; stroke: #b0b0b0; stroke-width: 0.8; stroke-linecap: square"/>
     </g>
     <g id="line2d_24">
      <g>
       <use xlink:href="#m9d70156b08" x="52.00024" y="236.138481" style="stroke: #000000; stroke-width: 0.8"/>
      </g>
     </g>
     <g id="text_13">
      <!-- $\mathdefault{10^{-60}}$ -->
      <g transform="translate(17.10024 239.9377) scale(0.1 -0.1)">
       <use xlink:href="#DejaVuSans-31" transform="translate(0 0.765625)"/>
       <use xlink:href="#DejaVuSans-30" transform="translate(63.623047 0.765625)"/>
       <use xlink:href="#DejaVuSans-2212" transform="translate(128.203125 39.046875) scale(0.7)"/>
       <use xlink:href="#DejaVuSans-36" transform="translate(186.855469 39.046875) scale(0.7)"/>
       <use xlink:href="#DejaVuSans-30" transform="translate(231.391602 39.046875) scale(0.7)"/>
      </g>
     </g>
    </g>
    <g id="ytick_6">
     <g id="line2d_25">
      <path d="M 52.00024 290.64351 
L 389.795784 290.64351 
" clip-path="url(#pab2bf08c3a)" style="fill: none; stroke: #b0b0b0; stroke-width: 0.8; stroke-linecap: square"/>
     </g>
     <g id="line2d_26">
      <g>
       <use xlink:href="#m9d70156b08" x="52.00024" y="290.64351" style="stroke: #000000; stroke-width: 0.8"/>
      </g>
     </g>
     <g id="text_14">
      <!-- $\mathdefault{10^{-75}}$ -->
      <g transform="translate(17.10024 294.442729) scale(0.1 -0.1)">
       <defs>
        <path id="DejaVuSans-37" d="M 525 4666 
L 3525 4666 
L 3525 4397 
L 1831 0 
L 1172 0 
L 2766 4134 
L 525 4134 
L 525 4666 
z
" transform="scale(0.015625)"/>
       </defs>
       <use xlink:href="#DejaVuSans-31" transform="translate(0 0.684375)"/>
       <use xlink:href="#DejaVuSans-30" transform="translate(63.623047 0.684375)"/>
       <use xlink:href="#DejaVuSans-2212" transform="translate(128.203125 38.965625) scale(0.7)"/>
       <use xlink:href="#DejaVuSans-37" transform="translate(186.855469 38.965625) scale(0.7)"/>
       <use xlink:href="#DejaVuSans-35" transform="translate(231.391602 38.965625) scale(0.7)"/>
      </g>
     </g>
    </g>
    <g id="text_15">
     <!-- $|\langle 0_{C}| n_{X} \rangle |$ -->
     <g transform="translate(10.70024 174.880938) rotate(-90) scale(0.1 -0.1)">
      <defs>
       <path id="DejaVuSans-7c" d="M 1344 4891 
L 1344 -1509 
L 813 -1509 
L 813 4891 
L 1344 4891 
z
" transform="scale(0.015625)"/>
       <path id="DejaVuSans-27e8" d="M 572 2006 
L 1453 4856 
L 1984 4856 
L 1103 2006 
L 1984 -844 
L 1453 -844 
L 572 2006 
z
" transform="scale(0.015625)"/>
       <path id="DejaVuSans-Oblique-43" d="M 4447 4306 
L 4319 3641 
Q 4019 3944 3683 4091 
Q 3347 4238 2956 4238 
Q 2422 4238 2017 3981 
Q 1613 3725 1319 3200 
Q 1131 2863 1032 2486 
Q 934 2109 934 1728 
Q 934 1091 1264 756 
Q 1594 422 2222 422 
Q 2656 422 3056 561 
Q 3456 700 3834 978 
L 3688 231 
Q 3316 72 2936 -9 
Q 2556 -91 2175 -91 
Q 1278 -91 773 396 
Q 269 884 269 1753 
Q 269 2309 461 2846 
Q 653 3384 1013 3828 
Q 1394 4300 1883 4525 
Q 2372 4750 3022 4750 
Q 3422 4750 3780 4639 
Q 4138 4528 4447 4306 
z
" transform="scale(0.015625)"/>
       <path id="DejaVuSans-27e9" d="M 1925 2006 
L 1044 -844 
L 513 -844 
L 1394 2006 
L 513 4856 
L 1044 4856 
L 1925 2006 
z
" transform="scale(0.015625)"/>
      </defs>
      <use xlink:href="#DejaVuSans-7c" transform="translate(0 0.578125)"/>
      <use xlink:href="#DejaVuSans-27e8" transform="translate(33.691406 0.578125)"/>
      <use xlink:href="#DejaVuSans-30" transform="translate(72.705078 0.578125)"/>
      <use xlink:href="#DejaVuSans-Oblique-43" transform="translate(137.285156 -15.828125) scale(0.7)"/>
      <use xlink:href="#DejaVuSans-7c" transform="translate(188.896484 0.578125)"/>
      <use xlink:href="#DejaVuSans-Oblique-6e" transform="translate(222.587891 0.578125)"/>
      <use xlink:href="#DejaVuSans-Oblique-58" transform="translate(285.966797 -15.828125) scale(0.7)"/>
      <use xlink:href="#DejaVuSans-27e9" transform="translate(336.655273 0.578125)"/>
      <use xlink:href="#DejaVuSans-7c" transform="translate(375.668945 0.578125)"/>
     </g>
    </g>
   </g>
   <g id="line2d_27">
    <path d="M 67.354583 18.118365 
M 77.590812 32.383973 
M 87.82704 46.329681 
M 98.063269 60.192214 
M 108.299497 74.01627 
M 118.535726 87.818096 
M 128.771955 101.605412 
M 139.008183 115.382633 
M 149.244412 129.152217 
M 159.48064 142.916001 
M 169.716869 156.675181 
M 179.953098 170.430589 
M 190.189326 184.182854 
M 200.425555 197.932485 
M 210.661783 211.679876 
M 220.898012 225.425316 
M 231.134241 239.169012 
M 241.370469 252.911319 
M 251.606698 266.652235 
M 261.842926 280.39197 
M 272.079155 294.13065 
M 282.315384 307.868314 
M 292.551612 321.605166 
" clip-path="url(#pab2bf08c3a)" style="fill: none; stroke: #1f77b4; stroke-width: 1.5; stroke-linecap: square"/>
    <defs>
     <path id="m295b46a29d" d="M 0 1.5 
C 0.397805 1.5 0.77937 1.341951 1.06066 1.06066 
C 1.341951 0.77937 1.5 0.397805 1.5 0 
C 1.5 -0.397805 1.341951 -0.77937 1.06066 -1.06066 
C 0.77937 -1.341951 0.397805 -1.5 0 -1.5 
C -0.397805 -1.5 -0.77937 -1.341951 -1.06066 -1.06066 
C -1.341951 -0.77937 -1.5 -0.397805 -1.5 0 
C -1.5 0.397805 -1.341951 0.77937 -1.06066 1.06066 
C -0.77937 1.341951 -0.397805 1.5 0 1.5 
z
" style="stroke: #1f77b4"/>
    </defs>
    <g clip-path="url(#pab2bf08c3a)">
     <use xlink:href="#m295b46a29d" x="67.354583" y="18.118365" style="fill: #1f77b4; stroke: #1f77b4"/>
     <use xlink:href="#m295b46a29d" x="77.590812" y="32.383973" style="fill: #1f77b4; stroke: #1f77b4"/>
     <use xlink:href="#m295b46a29d" x="87.82704" y="46.329681" style="fill: #1f77b4; stroke: #1f77b4"/>
     <use xlink:href="#m295b46a29d" x="98.063269" y="60.192214" style="fill: #1f77b4; stroke: #1f77b4"/>
     <use xlink:href="#m295b46a29d" x="108.299497" y="74.01627" style="fill: #1f77b4; stroke: #1f77b4"/>
     <use xlink:href="#m295b46a29d" x="118.535726" y="87.818096" style="fill: #1f77b4; stroke: #1f77b4"/>
     <use xlink:href="#m295b46a29d" x="128.771955" y="101.605412" style="fill: #1f77b4; stroke: #1f77b4"/>
     <use xlink:href="#m295b46a29d" x="139.008183" y="115.382633" style="fill: #1f77b4; stroke: #1f77b4"/>
     <use xlink:href="#m295b46a29d" x="149.244412" y="129.152217" style="fill: #1f77b4; stroke: #1f77b4"/>
     <use xlink:href="#m295b46a29d" x="159.48064" y="142.916001" style="fill: #1f77b4; stroke: #1f77b4"/>
     <use xlink:href="#m295b46a29d" x="169.716869" y="156.675181" style="fill: #1f77b4; stroke: #1f77b4"/>
     <use xlink:href="#m295b46a29d" x="179.953098" y="170.430589" style="fill: #1f77b4; stroke: #1f77b4"/>
     <use xlink:href="#m295b46a29d" x="190.189326" y="184.182854" style="fill: #1f77b4; stroke: #1f77b4"/>
     <use xlink:href="#m295b46a29d" x="200.425555" y="197.932485" style="fill: #1f77b4; stroke: #1f77b4"/>
     <use xlink:href="#m295b46a29d" x="210.661783" y="211.679876" style="fill: #1f77b4; stroke: #1f77b4"/>
     <use xlink:href="#m295b46a29d" x="220.898012" y="225.425316" style="fill: #1f77b4; stroke: #1f77b4"/>
     <use xlink:href="#m295b46a29d" x="231.134241" y="239.169012" style="fill: #1f77b4; stroke: #1f77b4"/>
     <use xlink:href="#m295b46a29d" x="241.370469" y="252.911319" style="fill: #1f77b4; stroke: #1f77b4"/>
     <use xlink:href="#m295b46a29d" x="251.606698" y="266.652235" style="fill: #1f77b4; stroke: #1f77b4"/>
     <use xlink:href="#m295b46a29d" x="261.842926" y="280.39197" style="fill: #1f77b4; stroke: #1f77b4"/>
     <use xlink:href="#m295b46a29d" x="272.079155" y="294.13065" style="fill: #1f77b4; stroke: #1f77b4"/>
     <use xlink:href="#m295b46a29d" x="282.315384" y="307.868314" style="fill: #1f77b4; stroke: #1f77b4"/>
     <use xlink:href="#m295b46a29d" x="292.551612" y="321.605166" style="fill: #1f77b4; stroke: #1f77b4"/>
     <use xlink:href="#m295b46a29d" x="302.787841" y="335.341187" style="fill: #1f77b4; stroke: #1f77b4"/>
     <use xlink:href="#m295b46a29d" x="313.024069" y="349.076498" style="fill: #1f77b4; stroke: #1f77b4"/>
     <use xlink:href="#m295b46a29d" x="323.260298" y="362.811126" style="fill: #1f77b4; stroke: #1f77b4"/>
     <use xlink:href="#m295b46a29d" x="333.496527" y="376.545136" style="fill: #1f77b4; stroke: #1f77b4"/>
     <use xlink:href="#m295b46a29d" x="343.732755" y="390.278576" style="fill: #1f77b4; stroke: #1f77b4"/>
    </g>
   </g>
   <g id="line2d_28">
    <path d="M 67.354583 18.118365 
M 77.590812 29.52201 
M 87.82704 40.605708 
M 98.063269 51.606268 
M 108.299497 62.568359 
M 118.535726 73.508195 
M 128.771955 84.433579 
M 139.008183 95.348742 
M 149.244412 106.256391 
M 159.48064 117.158193 
M 169.716869 128.05539 
M 179.953098 138.948804 
M 190.189326 149.839108 
M 200.425555 160.726754 
M 210.661783 171.612169 
M 220.898012 182.495636 
M 231.134241 193.377383 
M 241.370469 204.257661 
M 251.606698 215.136609 
M 261.842926 226.014362 
M 272.079155 236.891055 
M 282.315384 247.766764 
M 292.551612 258.641617 
M 302.787841 269.515687 
M 313.024069 280.388995 
M 323.260298 291.261661 
M 333.496527 302.133703 
M 343.732755 313.005163 
M 353.968984 323.876085 
" clip-path="url(#pab2bf08c3a)" style="fill: none; stroke: #ff7f0e; stroke-width: 1.5; stroke-linecap: square"/>
    <defs>
     <path id="mc2bebbfe46" d="M 0 1.5 
C 0.397805 1.5 0.77937 1.341951 1.06066 1.06066 
C 1.341951 0.77937 1.5 0.397805 1.5 0 
C 1.5 -0.397805 1.341951 -0.77937 1.06066 -1.06066 
C 0.77937 -1.341951 0.397805 -1.5 0 -1.5 
C -0.397805 -1.5 -0.77937 -1.341951 -1.06066 -1.06066 
C -1.341951 -0.77937 -1.5 -0.397805 -1.5 0 
C -1.5 0.397805 -1.341951 0.77937 -1.06066 1.06066 
C -0.77937 1.341951 -0.397805 1.5 0 1.5 
z
" style="stroke: #ff7f0e"/>
    </defs>
    <g clip-path="url(#pab2bf08c3a)">
     <use xlink:href="#mc2bebbfe46" x="67.354583" y="18.118365" style="fill: #ff7f0e; stroke: #ff7f0e"/>
     <use xlink:href="#mc2bebbfe46" x="77.590812" y="29.52201" style="fill: #ff7f0e; stroke: #ff7f0e"/>
     <use xlink:href="#mc2bebbfe46" x="87.82704" y="40.605708" style="fill: #ff7f0e; stroke: #ff7f0e"/>
     <use xlink:href="#mc2bebbfe46" x="98.063269" y="51.606268" style="fill: #ff7f0e; stroke: #ff7f0e"/>
     <use xlink:href="#mc2bebbfe46" x="108.299497" y="62.568359" style="fill: #ff7f0e; stroke: #ff7f0e"/>
     <use xlink:href="#mc2bebbfe46" x="118.535726" y="73.508195" style="fill: #ff7f0e; stroke: #ff7f0e"/>
     <use xlink:href="#mc2bebbfe46" x="128.771955" y="84.433579" style="fill: #ff7f0e; stroke: #ff7f0e"/>
     <use xlink:href="#mc2bebbfe46" x="139.008183" y="95.348742" style="fill: #ff7f0e; stroke: #ff7f0e"/>
     <use xlink:href="#mc2bebbfe46" x="149.244412" y="106.256391" style="fill: #ff7f0e; stroke: #ff7f0e"/>
     <use xlink:href="#mc2bebbfe46" x="159.48064" y="117.158193" style="fill: #ff7f0e; stroke: #ff7f0e"/>
     <use xlink:href="#mc2bebbfe46" x="169.716869" y="128.05539" style="fill: #ff7f0e; stroke: #ff7f0e"/>
     <use xlink:href="#mc2bebbfe46" x="179.953098" y="138.948804" style="fill: #ff7f0e; stroke: #ff7f0e"/>
     <use xlink:href="#mc2bebbfe46" x="190.189326" y="149.839108" style="fill: #ff7f0e; stroke: #ff7f0e"/>
     <use xlink:href="#mc2bebbfe46" x="200.425555" y="160.726754" style="fill: #ff7f0e; stroke: #ff7f0e"/>
     <use xlink:href="#mc2bebbfe46" x="210.661783" y="171.612169" style="fill: #ff7f0e; stroke: #ff7f0e"/>
     <use xlink:href="#mc2bebbfe46" x="220.898012" y="182.495636" style="fill: #ff7f0e; stroke: #ff7f0e"/>
     <use xlink:href="#mc2bebbfe46" x="231.134241" y="193.377383" style="fill: #ff7f0e; stroke: #ff7f0e"/>
     <use xlink:href="#mc2bebbfe46" x="241.370469" y="204.257661" style="fill: #ff7f0e; stroke: #ff7f0e"/>
     <use xlink:href="#mc2bebbfe46" x="251.606698" y="215.136609" style="fill: #ff7f0e; stroke: #ff7f0e"/>
     <use xlink:href="#mc2bebbfe46" x="261.842926" y="226.014362" style="fill: #ff7f0e; stroke: #ff7f0e"/>
     <use xlink:href="#mc2bebbfe46" x="272.079155" y="236.891055" style="fill: #ff7f0e; stroke: #ff7f0e"/>
     <use xlink:href="#mc2bebbfe46" x="282.315384" y="247.766764" style="fill: #ff7f0e; stroke: #ff7f0e"/>
     <use xlink:href="#mc2bebbfe46" x="292.551612" y="258.641617" style="fill: #ff7f0e; stroke: #ff7f0e"/>
     <use xlink:href="#mc2bebbfe46" x="302.787841" y="269.515687" style="fill: #ff7f0e; stroke: #ff7f0e"/>
     <use xlink:href="#mc2bebbfe46" x="313.024069" y="280.388995" style="fill: #ff7f0e; stroke: #ff7f0e"/>
     <use xlink:href="#mc2bebbfe46" x="323.260298" y="291.261661" style="fill: #ff7f0e; stroke: #ff7f0e"/>
     <use xlink:href="#mc2bebbfe46" x="333.496527" y="302.133703" style="fill: #ff7f0e; stroke: #ff7f0e"/>
     <use xlink:href="#mc2bebbfe46" x="343.732755" y="313.005163" style="fill: #ff7f0e; stroke: #ff7f0e"/>
     <use xlink:href="#mc2bebbfe46" x="353.968984" y="323.876085" style="fill: #ff7f0e; stroke: #ff7f0e"/>
     <use xlink:href="#mc2bebbfe46" x="364.205212" y="334.746531" style="fill: #ff7f0e; stroke: #ff7f0e"/>
     <use xlink:href="#mc2bebbfe46" x="374.441441" y="345.616495" style="fill: #ff7f0e; stroke: #ff7f0e"/>
    </g>
   </g>
   <g id="line2d_29">
    <path d="M 67.354583 18.118365 
M 77.590812 32.375347 
M 87.82704 46.312459 
M 98.063269 60.166335 
M 108.299497 73.981784 
M 118.535726 87.774982 
M 128.771955 101.55371 
M 139.008183 115.322269 
M 149.244412 129.083252 
M 159.48064 142.838417 
M 169.716869 156.588974 
M 179.953098 170.335746 
M 190.189326 184.07939 
M 200.425555 197.82042 
M 210.661783 211.559191 
M 220.898012 225.296005 
M 231.134241 239.031136 
M 241.370469 252.764785 
M 251.606698 266.497069 
M 261.842926 280.228178 
M 272.079155 293.95821 
M 282.315384 307.687301 
M 292.551612 321.415495 
" clip-path="url(#pab2bf08c3a)" style="fill: none; stroke: #2ca02c; stroke-width: 1.5; stroke-linecap: square"/>
    <defs>
     <path id="mfa0b03bf74" d="M 0 1.5 
C 0.397805 1.5 0.77937 1.341951 1.06066 1.06066 
C 1.341951 0.77937 1.5 0.397805 1.5 0 
C 1.5 -0.397805 1.341951 -0.77937 1.06066 -1.06066 
C 0.77937 -1.341951 0.397805 -1.5 0 -1.5 
C -0.397805 -1.5 -0.77937 -1.341951 -1.06066 -1.06066 
C -1.341951 -0.77937 -1.5 -0.397805 -1.5 0 
C -1.5 0.397805 -1.341951 0.77937 -1.06066 1.06066 
C -0.77937 1.341951 -0.397805 1.5 0 1.5 
z
" style="stroke: #2ca02c"/>
    </defs>
    <g clip-path="url(#pab2bf08c3a)">
     <use xlink:href="#mfa0b03bf74" x="67.354583" y="18.118365" style="fill: #2ca02c; stroke: #2ca02c"/>
     <use xlink:href="#mfa0b03bf74" x="77.590812" y="32.375347" style="fill: #2ca02c; stroke: #2ca02c"/>
     <use xlink:href="#mfa0b03bf74" x="87.82704" y="46.312459" style="fill: #2ca02c; stroke: #2ca02c"/>
     <use xlink:href="#mfa0b03bf74" x="98.063269" y="60.166335" style="fill: #2ca02c; stroke: #2ca02c"/>
     <use xlink:href="#mfa0b03bf74" x="108.299497" y="73.981784" style="fill: #2ca02c; stroke: #2ca02c"/>
     <use xlink:href="#mfa0b03bf74" x="118.535726" y="87.774982" style="fill: #2ca02c; stroke: #2ca02c"/>
     <use xlink:href="#mfa0b03bf74" x="128.771955" y="101.55371" style="fill: #2ca02c; stroke: #2ca02c"/>
     <use xlink:href="#mfa0b03bf74" x="139.008183" y="115.322269" style="fill: #2ca02c; stroke: #2ca02c"/>
     <use xlink:href="#mfa0b03bf74" x="149.244412" y="129.083252" style="fill: #2ca02c; stroke: #2ca02c"/>
     <use xlink:href="#mfa0b03bf74" x="159.48064" y="142.838417" style="fill: #2ca02c; stroke: #2ca02c"/>
     <use xlink:href="#mfa0b03bf74" x="169.716869" y="156.588974" style="fill: #2ca02c; stroke: #2ca02c"/>
     <use xlink:href="#mfa0b03bf74" x="179.953098" y="170.335746" style="fill: #2ca02c; stroke: #2ca02c"/>
     <use xlink:href="#mfa0b03bf74" x="190.189326" y="184.07939" style="fill: #2ca02c; stroke: #2ca02c"/>
     <use xlink:href="#mfa0b03bf74" x="200.425555" y="197.82042" style="fill: #2ca02c; stroke: #2ca02c"/>
     <use xlink:href="#mfa0b03bf74" x="210.661783" y="211.559191" style="fill: #2ca02c; stroke: #2ca02c"/>
     <use xlink:href="#mfa0b03bf74" x="220.898012" y="225.296005" style="fill: #2ca02c; stroke: #2ca02c"/>
     <use xlink:href="#mfa0b03bf74" x="231.134241" y="239.031136" style="fill: #2ca02c; stroke: #2ca02c"/>
     <use xlink:href="#mfa0b03bf74" x="241.370469" y="252.764785" style="fill: #2ca02c; stroke: #2ca02c"/>
     <use xlink:href="#mfa0b03bf74" x="251.606698" y="266.497069" style="fill: #2ca02c; stroke: #2ca02c"/>
     <use xlink:href="#mfa0b03bf74" x="261.842926" y="280.228178" style="fill: #2ca02c; stroke: #2ca02c"/>
     <use xlink:href="#mfa0b03bf74" x="272.079155" y="293.95821" style="fill: #2ca02c; stroke: #2ca02c"/>
     <use xlink:href="#mfa0b03bf74" x="282.315384" y="307.687301" style="fill: #2ca02c; stroke: #2ca02c"/>
     <use xlink:href="#mfa0b03bf74" x="292.551612" y="321.415495" style="fill: #2ca02c; stroke: #2ca02c"/>
     <use xlink:href="#mfa0b03bf74" x="302.787841" y="335.142931" style="fill: #2ca02c; stroke: #2ca02c"/>
     <use xlink:href="#mfa0b03bf74" x="313.024069" y="348.869611" style="fill: #2ca02c; stroke: #2ca02c"/>
     <use xlink:href="#mfa0b03bf74" x="323.260298" y="362.595627" style="fill: #2ca02c; stroke: #2ca02c"/>
     <use xlink:href="#mfa0b03bf74" x="333.496527" y="376.321023" style="fill: #2ca02c; stroke: #2ca02c"/>
     <use xlink:href="#mfa0b03bf74" x="343.732755" y="390.045843" style="fill: #2ca02c; stroke: #2ca02c"/>
    </g>
   </g>
   <g id="line2d_30">
    <path d="M 67.354583 18.118365 
M 77.590812 30.589193 
M 87.82704 42.74005 
M 98.063269 54.807801 
M 108.299497 66.837023 
M 118.535726 78.844061 
M 128.771955 90.836602 
M 139.008183 102.818951 
M 149.244412 114.793792 
M 159.48064 126.762708 
M 169.716869 138.727112 
M 179.953098 150.687713 
M 190.189326 162.645189 
M 200.425555 174.600002 
M 210.661783 186.552578 
M 220.898012 198.503187 
M 231.134241 210.452206 
M 241.370469 222.399603 
M 251.606698 234.345722 
M 261.842926 246.290599 
M 272.079155 258.234498 
M 282.315384 270.177395 
M 292.551612 282.119419 
M 302.787841 294.060607 
M 313.024069 306.001153 
M 323.260298 317.940961 
" clip-path="url(#pab2bf08c3a)" style="fill: none; stroke: #d62728; stroke-width: 1.5; stroke-linecap: square"/>
    <defs>
     <path id="m9500e47d02" d="M 0 1.5 
C 0.397805 1.5 0.77937 1.341951 1.06066 1.06066 
C 1.341951 0.77937 1.5 0.397805 1.5 0 
C 1.5 -0.397805 1.341951 -0.77937 1.06066 -1.06066 
C 0.77937 -1.341951 0.397805 -1.5 0 -1.5 
C -0.397805 -1.5 -0.77937 -1.341951 -1.06066 -1.06066 
C -1.341951 -0.77937 -1.5 -0.397805 -1.5 0 
C -1.5 0.397805 -1.341951 0.77937 -1.06066 1.06066 
C -0.77937 1.341951 -0.397805 1.5 0 1.5 
z
" style="stroke: #d62728"/>
    </defs>
    <g clip-path="url(#pab2bf08c3a)">
     <use xlink:href="#m9500e47d02" x="67.354583" y="18.118365" style="fill: #d62728; stroke: #d62728"/>
     <use xlink:href="#m9500e47d02" x="77.590812" y="30.589193" style="fill: #d62728; stroke: #d62728"/>
     <use xlink:href="#m9500e47d02" x="87.82704" y="42.74005" style="fill: #d62728; stroke: #d62728"/>
     <use xlink:href="#m9500e47d02" x="98.063269" y="54.807801" style="fill: #d62728; stroke: #d62728"/>
     <use xlink:href="#m9500e47d02" x="108.299497" y="66.837023" style="fill: #d62728; stroke: #d62728"/>
     <use xlink:href="#m9500e47d02" x="118.535726" y="78.844061" style="fill: #d62728; stroke: #d62728"/>
     <use xlink:href="#m9500e47d02" x="128.771955" y="90.836602" style="fill: #d62728; stroke: #d62728"/>
     <use xlink:href="#m9500e47d02" x="139.008183" y="102.818951" style="fill: #d62728; stroke: #d62728"/>
     <use xlink:href="#m9500e47d02" x="149.244412" y="114.793792" style="fill: #d62728; stroke: #d62728"/>
     <use xlink:href="#m9500e47d02" x="159.48064" y="126.762708" style="fill: #d62728; stroke: #d62728"/>
     <use xlink:href="#m9500e47d02" x="169.716869" y="138.727112" style="fill: #d62728; stroke: #d62728"/>
     <use xlink:href="#m9500e47d02" x="179.953098" y="150.687713" style="fill: #d62728; stroke: #d62728"/>
     <use xlink:href="#m9500e47d02" x="190.189326" y="162.645189" style="fill: #d62728; stroke: #d62728"/>
     <use xlink:href="#m9500e47d02" x="200.425555" y="174.600002" style="fill: #d62728; stroke: #d62728"/>
     <use xlink:href="#m9500e47d02" x="210.661783" y="186.552578" style="fill: #d62728; stroke: #d62728"/>
     <use xlink:href="#m9500e47d02" x="220.898012" y="198.503187" style="fill: #d62728; stroke: #d62728"/>
     <use xlink:href="#m9500e47d02" x="231.134241" y="210.452206" style="fill: #d62728; stroke: #d62728"/>
     <use xlink:href="#m9500e47d02" x="241.370469" y="222.399603" style="fill: #d62728; stroke: #d62728"/>
     <use xlink:href="#m9500e47d02" x="251.606698" y="234.345722" style="fill: #d62728; stroke: #d62728"/>
     <use xlink:href="#m9500e47d02" x="261.842926" y="246.290599" style="fill: #d62728; stroke: #d62728"/>
     <use xlink:href="#m9500e47d02" x="272.079155" y="258.234498" style="fill: #d62728; stroke: #d62728"/>
     <use xlink:href="#m9500e47d02" x="282.315384" y="270.177395" style="fill: #d62728; stroke: #d62728"/>
     <use xlink:href="#m9500e47d02" x="292.551612" y="282.119419" style="fill: #d62728; stroke: #d62728"/>
     <use xlink:href="#m9500e47d02" x="302.787841" y="294.060607" style="fill: #d62728; stroke: #d62728"/>
     <use xlink:href="#m9500e47d02" x="313.024069" y="306.001153" style="fill: #d62728; stroke: #d62728"/>
     <use xlink:href="#m9500e47d02" x="323.260298" y="317.940961" style="fill: #d62728; stroke: #d62728"/>
     <use xlink:href="#m9500e47d02" x="333.496527" y="329.88017" style="fill: #d62728; stroke: #d62728"/>
     <use xlink:href="#m9500e47d02" x="343.732755" y="341.818813" style="fill: #d62728; stroke: #d62728"/>
     <use xlink:href="#m9500e47d02" x="353.968984" y="353.756932" style="fill: #d62728; stroke: #d62728"/>
     <use xlink:href="#m9500e47d02" x="364.205212" y="365.694509" style="fill: #d62728; stroke: #d62728"/>
     <use xlink:href="#m9500e47d02" x="374.441441" y="377.631687" style="fill: #d62728; stroke: #d62728"/>
    </g>
   </g>
   <g id="line2d_31">
    <path d="M 67.354583 18.118365 
M 77.590812 28.838839 
M 87.82704 39.239398 
M 98.063269 49.556891 
M 108.299497 59.835796 
M 118.535726 70.092526 
M 128.771955 80.334775 
M 139.008183 90.566796 
M 149.244412 100.791334 
M 159.48064 111.009977 
M 169.716869 121.224073 
M 179.953098 131.434346 
M 190.189326 141.641469 
M 200.425555 151.846049 
M 210.661783 162.048305 
M 220.898012 172.248613 
M 231.134241 182.447276 
M 241.370469 192.644405 
M 251.606698 202.840207 
M 261.842926 213.034815 
M 272.079155 223.228378 
M 282.315384 233.420969 
M 292.551612 243.612705 
M 302.787841 253.803589 
M 313.024069 263.993778 
M 323.260298 274.183337 
M 333.496527 284.372238 
M 343.732755 294.560554 
M 353.968984 304.748329 
M 364.205212 314.935639 
" clip-path="url(#pab2bf08c3a)" style="fill: none; stroke: #9467bd; stroke-width: 1.5; stroke-linecap: square"/>
    <defs>
     <path id="mebb6896cba" d="M 0 1.5 
C 0.397805 1.5 0.77937 1.341951 1.06066 1.06066 
C 1.341951 0.77937 1.5 0.397805 1.5 0 
C 1.5 -0.397805 1.341951 -0.77937 1.06066 -1.06066 
C 0.77937 -1.341951 0.397805 -1.5 0 -1.5 
C -0.397805 -1.5 -0.77937 -1.341951 -1.06066 -1.06066 
C -1.341951 -0.77937 -1.5 -0.397805 -1.5 0 
C -1.5 0.397805 -1.341951 0.77937 -1.06066 1.06066 
C -0.77937 1.341951 -0.397805 1.5 0 1.5 
z
" style="stroke: #9467bd"/>
    </defs>
    <g clip-path="url(#pab2bf08c3a)">
     <use xlink:href="#mebb6896cba" x="67.354583" y="18.118365" style="fill: #9467bd; stroke: #9467bd"/>
     <use xlink:href="#mebb6896cba" x="77.590812" y="28.838839" style="fill: #9467bd; stroke: #9467bd"/>
     <use xlink:href="#mebb6896cba" x="87.82704" y="39.239398" style="fill: #9467bd; stroke: #9467bd"/>
     <use xlink:href="#mebb6896cba" x="98.063269" y="49.556891" style="fill: #9467bd; stroke: #9467bd"/>
     <use xlink:href="#mebb6896cba" x="108.299497" y="59.835796" style="fill: #9467bd; stroke: #9467bd"/>
     <use xlink:href="#mebb6896cba" x="118.535726" y="70.092526" style="fill: #9467bd; stroke: #9467bd"/>
     <use xlink:href="#mebb6896cba" x="128.771955" y="80.334775" style="fill: #9467bd; stroke: #9467bd"/>
     <use xlink:href="#mebb6896cba" x="139.008183" y="90.566796" style="fill: #9467bd; stroke: #9467bd"/>
     <use xlink:href="#mebb6896cba" x="149.244412" y="100.791334" style="fill: #9467bd; stroke: #9467bd"/>
     <use xlink:href="#mebb6896cba" x="159.48064" y="111.009977" style="fill: #9467bd; stroke: #9467bd"/>
     <use xlink:href="#mebb6896cba" x="169.716869" y="121.224073" style="fill: #9467bd; stroke: #9467bd"/>
     <use xlink:href="#mebb6896cba" x="179.953098" y="131.434346" style="fill: #9467bd; stroke: #9467bd"/>
     <use xlink:href="#mebb6896cba" x="190.189326" y="141.641469" style="fill: #9467bd; stroke: #9467bd"/>
     <use xlink:href="#mebb6896cba" x="200.425555" y="151.846049" style="fill: #9467bd; stroke: #9467bd"/>
     <use xlink:href="#mebb6896cba" x="210.661783" y="162.048305" style="fill: #9467bd; stroke: #9467bd"/>
     <use xlink:href="#mebb6896cba" x="220.898012" y="172.248613" style="fill: #9467bd; stroke: #9467bd"/>
     <use xlink:href="#mebb6896cba" x="231.134241" y="182.447276" style="fill: #9467bd; stroke: #9467bd"/>
     <use xlink:href="#mebb6896cba" x="241.370469" y="192.644405" style="fill: #9467bd; stroke: #9467bd"/>
     <use xlink:href="#mebb6896cba" x="251.606698" y="202.840207" style="fill: #9467bd; stroke: #9467bd"/>
     <use xlink:href="#mebb6896cba" x="261.842926" y="213.034815" style="fill: #9467bd; stroke: #9467bd"/>
     <use xlink:href="#mebb6896cba" x="272.079155" y="223.228378" style="fill: #9467bd; stroke: #9467bd"/>
     <use xlink:href="#mebb6896cba" x="282.315384" y="233.420969" style="fill: #9467bd; stroke: #9467bd"/>
     <use xlink:href="#mebb6896cba" x="292.551612" y="243.612705" style="fill: #9467bd; stroke: #9467bd"/>
     <use xlink:href="#mebb6896cba" x="302.787841" y="253.803589" style="fill: #9467bd; stroke: #9467bd"/>
     <use xlink:href="#mebb6896cba" x="313.024069" y="263.993778" style="fill: #9467bd; stroke: #9467bd"/>
     <use xlink:href="#mebb6896cba" x="323.260298" y="274.183337" style="fill: #9467bd; stroke: #9467bd"/>
     <use xlink:href="#mebb6896cba" x="333.496527" y="284.372238" style="fill: #9467bd; stroke: #9467bd"/>
     <use xlink:href="#mebb6896cba" x="343.732755" y="294.560554" style="fill: #9467bd; stroke: #9467bd"/>
     <use xlink:href="#mebb6896cba" x="353.968984" y="304.748329" style="fill: #9467bd; stroke: #9467bd"/>
     <use xlink:href="#mebb6896cba" x="364.205212" y="314.935639" style="fill: #9467bd; stroke: #9467bd"/>
     <use xlink:href="#mebb6896cba" x="374.441441" y="325.122514" style="fill: #9467bd; stroke: #9467bd"/>
    </g>
   </g>
   <g id="line2d_32">
    <path d="M 67.354583 18.11846 
M 77.590812 25.181977 
M 87.82704 31.925503 
M 98.063269 38.585866 
M 108.299497 45.207778 
M 118.535726 51.807452 
M 128.771955 58.392643 
M 139.008183 64.967601 
M 149.244412 71.535084 
M 159.48064 78.096757 
M 169.716869 84.653768 
M 179.953098 91.207023 
M 190.189326 97.757086 
M 200.425555 104.304651 
M 210.661783 110.849876 
M 220.898012 117.393162 
M 231.134241 123.934747 
M 241.370469 130.474899 
M 251.606698 137.013626 
M 261.842926 143.55117 
M 272.079155 150.087712 
M 282.315384 156.623254 
M 292.551612 163.157917 
M 302.787841 169.691803 
M 313.024069 176.224962 
M 323.260298 182.757471 
M 333.496527 189.289325 
M 343.732755 195.820666 
M 353.968984 202.351356 
M 364.205212 208.88162 
M 374.441441 215.411426 
" clip-path="url(#pab2bf08c3a)" style="fill: none; stroke: #8c564b; stroke-width: 1.5; stroke-linecap: square"/>
    <defs>
     <path id="m8e893b46f0" d="M 0 1.5 
C 0.397805 1.5 0.77937 1.341951 1.06066 1.06066 
C 1.341951 0.77937 1.5 0.397805 1.5 0 
C 1.5 -0.397805 1.341951 -0.77937 1.06066 -1.06066 
C 0.77937 -1.341951 0.397805 -1.5 0 -1.5 
C -0.397805 -1.5 -0.77937 -1.341951 -1.06066 -1.06066 
C -1.341951 -0.77937 -1.5 -0.397805 -1.5 0 
C -1.5 0.397805 -1.341951 0.77937 -1.06066 1.06066 
C -0.77937 1.341951 -0.397805 1.5 0 1.5 
z
" style="stroke: #8c564b"/>
    </defs>
    <g clip-path="url(#pab2bf08c3a)">
     <use xlink:href="#m8e893b46f0" x="67.354583" y="18.11846" style="fill: #8c564b; stroke: #8c564b"/>
     <use xlink:href="#m8e893b46f0" x="77.590812" y="25.181977" style="fill: #8c564b; stroke: #8c564b"/>
     <use xlink:href="#m8e893b46f0" x="87.82704" y="31.925503" style="fill: #8c564b; stroke: #8c564b"/>
     <use xlink:href="#m8e893b46f0" x="98.063269" y="38.585866" style="fill: #8c564b; stroke: #8c564b"/>
     <use xlink:href="#m8e893b46f0" x="108.299497" y="45.207778" style="fill: #8c564b; stroke: #8c564b"/>
     <use xlink:href="#m8e893b46f0" x="118.535726" y="51.807452" style="fill: #8c564b; stroke: #8c564b"/>
     <use xlink:href="#m8e893b46f0" x="128.771955" y="58.392643" style="fill: #8c564b; stroke: #8c564b"/>
     <use xlink:href="#m8e893b46f0" x="139.008183" y="64.967601" style="fill: #8c564b; stroke: #8c564b"/>
     <use xlink:href="#m8e893b46f0" x="149.244412" y="71.535084" style="fill: #8c564b; stroke: #8c564b"/>
     <use xlink:href="#m8e893b46f0" x="159.48064" y="78.096757" style="fill: #8c564b; stroke: #8c564b"/>
     <use xlink:href="#m8e893b46f0" x="169.716869" y="84.653768" style="fill: #8c564b; stroke: #8c564b"/>
     <use xlink:href="#m8e893b46f0" x="179.953098" y="91.207023" style="fill: #8c564b; stroke: #8c564b"/>
     <use xlink:href="#m8e893b46f0" x="190.189326" y="97.757086" style="fill: #8c564b; stroke: #8c564b"/>
     <use xlink:href="#m8e893b46f0" x="200.425555" y="104.304651" style="fill: #8c564b; stroke: #8c564b"/>
     <use xlink:href="#m8e893b46f0" x="210.661783" y="110.849876" style="fill: #8c564b; stroke: #8c564b"/>
     <use xlink:href="#m8e893b46f0" x="220.898012" y="117.393162" style="fill: #8c564b; stroke: #8c564b"/>
     <use xlink:href="#m8e893b46f0" x="231.134241" y="123.934747" style="fill: #8c564b; stroke: #8c564b"/>
     <use xlink:href="#m8e893b46f0" x="241.370469" y="130.474899" style="fill: #8c564b; stroke: #8c564b"/>
     <use xlink:href="#m8e893b46f0" x="251.606698" y="137.013626" style="fill: #8c564b; stroke: #8c564b"/>
     <use xlink:href="#m8e893b46f0" x="261.842926" y="143.55117" style="fill: #8c564b; stroke: #8c564b"/>
     <use xlink:href="#m8e893b46f0" x="272.079155" y="150.087712" style="fill: #8c564b; stroke: #8c564b"/>
     <use xlink:href="#m8e893b46f0" x="282.315384" y="156.623254" style="fill: #8c564b; stroke: #8c564b"/>
     <use xlink:href="#m8e893b46f0" x="292.551612" y="163.157917" style="fill: #8c564b; stroke: #8c564b"/>
     <use xlink:href="#m8e893b46f0" x="302.787841" y="169.691803" style="fill: #8c564b; stroke: #8c564b"/>
     <use xlink:href="#m8e893b46f0" x="313.024069" y="176.224962" style="fill: #8c564b; stroke: #8c564b"/>
     <use xlink:href="#m8e893b46f0" x="323.260298" y="182.757471" style="fill: #8c564b; stroke: #8c564b"/>
     <use xlink:href="#m8e893b46f0" x="333.496527" y="189.289325" style="fill: #8c564b; stroke: #8c564b"/>
     <use xlink:href="#m8e893b46f0" x="343.732755" y="195.820666" style="fill: #8c564b; stroke: #8c564b"/>
     <use xlink:href="#m8e893b46f0" x="353.968984" y="202.351356" style="fill: #8c564b; stroke: #8c564b"/>
     <use xlink:href="#m8e893b46f0" x="364.205212" y="208.88162" style="fill: #8c564b; stroke: #8c564b"/>
     <use xlink:href="#m8e893b46f0" x="374.441441" y="215.411426" style="fill: #8c564b; stroke: #8c564b"/>
    </g>
   </g>
   <g id="line2d_33">
    <path d="M 67.354583 18.119281 
M 77.590812 23.452675 
M 87.82704 28.466117 
M 98.063269 33.396411 
M 108.299497 38.288243 
M 118.535726 43.157836 
M 128.771955 48.012917 
M 139.008183 52.857858 
M 149.244412 57.695214 
M 159.48064 62.526778 
M 169.716869 67.353725 
M 179.953098 72.176922 
M 190.189326 76.9969 
M 200.425555 81.814283 
M 210.661783 86.629456 
M 220.898012 91.442656 
M 231.134241 96.254151 
M 241.370469 101.064183 
M 251.606698 105.872857 
M 261.842926 110.680361 
M 272.079155 115.486798 
M 282.315384 120.29224 
M 292.551612 125.096823 
M 302.787841 129.900672 
M 313.024069 134.703687 
M 323.260298 139.506085 
M 333.496527 144.307887 
M 343.732755 149.109059 
M 353.968984 153.909743 
M 364.205212 158.709909 
M 374.441441 163.509617 
" clip-path="url(#pab2bf08c3a)" style="fill: none; stroke: #e377c2; stroke-width: 1.5; stroke-linecap: square"/>
    <defs>
     <path id="maf00b6baa7" d="M 0 1.5 
C 0.397805 1.5 0.77937 1.341951 1.06066 1.06066 
C 1.341951 0.77937 1.5 0.397805 1.5 0 
C 1.5 -0.397805 1.341951 -0.77937 1.06066 -1.06066 
C 0.77937 -1.341951 0.397805 -1.5 0 -1.5 
C -0.397805 -1.5 -0.77937 -1.341951 -1.06066 -1.06066 
C -1.341951 -0.77937 -1.5 -0.397805 -1.5 0 
C -1.5 0.397805 -1.341951 0.77937 -1.06066 1.06066 
C -0.77937 1.341951 -0.397805 1.5 0 1.5 
z
" style="stroke: #e377c2"/>
    </defs>
    <g clip-path="url(#pab2bf08c3a)">
     <use xlink:href="#maf00b6baa7" x="67.354583" y="18.119281" style="fill: #e377c2; stroke: #e377c2"/>
     <use xlink:href="#maf00b6baa7" x="77.590812" y="23.452675" style="fill: #e377c2; stroke: #e377c2"/>
     <use xlink:href="#maf00b6baa7" x="87.82704" y="28.466117" style="fill: #e377c2; stroke: #e377c2"/>
     <use xlink:href="#maf00b6baa7" x="98.063269" y="33.396411" style="fill: #e377c2; stroke: #e377c2"/>
     <use xlink:href="#maf00b6baa7" x="108.299497" y="38.288243" style="fill: #e377c2; stroke: #e377c2"/>
     <use xlink:href="#maf00b6baa7" x="118.535726" y="43.157836" style="fill: #e377c2; stroke: #e377c2"/>
     <use xlink:href="#maf00b6baa7" x="128.771955" y="48.012917" style="fill: #e377c2; stroke: #e377c2"/>
     <use xlink:href="#maf00b6baa7" x="139.008183" y="52.857858" style="fill: #e377c2; stroke: #e377c2"/>
     <use xlink:href="#maf00b6baa7" x="149.244412" y="57.695214" style="fill: #e377c2; stroke: #e377c2"/>
     <use xlink:href="#maf00b6baa7" x="159.48064" y="62.526778" style="fill: #e377c2; stroke: #e377c2"/>
     <use xlink:href="#maf00b6baa7" x="169.716869" y="67.353725" style="fill: #e377c2; stroke: #e377c2"/>
     <use xlink:href="#maf00b6baa7" x="179.953098" y="72.176922" style="fill: #e377c2; stroke: #e377c2"/>
     <use xlink:href="#maf00b6baa7" x="190.189326" y="76.9969" style="fill: #e377c2; stroke: #e377c2"/>
     <use xlink:href="#maf00b6baa7" x="200.425555" y="81.814283" style="fill: #e377c2; stroke: #e377c2"/>
     <use xlink:href="#maf00b6baa7" x="210.661783" y="86.629456" style="fill: #e377c2; stroke: #e377c2"/>
     <use xlink:href="#maf00b6baa7" x="220.898012" y="91.442656" style="fill: #e377c2; stroke: #e377c2"/>
     <use xlink:href="#maf00b6baa7" x="231.134241" y="96.254151" style="fill: #e377c2; stroke: #e377c2"/>
     <use xlink:href="#maf00b6baa7" x="241.370469" y="101.064183" style="fill: #e377c2; stroke: #e377c2"/>
     <use xlink:href="#maf00b6baa7" x="251.606698" y="105.872857" style="fill: #e377c2; stroke: #e377c2"/>
     <use xlink:href="#maf00b6baa7" x="261.842926" y="110.680361" style="fill: #e377c2; stroke: #e377c2"/>
     <use xlink:href="#maf00b6baa7" x="272.079155" y="115.486798" style="fill: #e377c2; stroke: #e377c2"/>
     <use xlink:href="#maf00b6baa7" x="282.315384" y="120.29224" style="fill: #e377c2; stroke: #e377c2"/>
     <use xlink:href="#maf00b6baa7" x="292.551612" y="125.096823" style="fill: #e377c2; stroke: #e377c2"/>
     <use xlink:href="#maf00b6baa7" x="302.787841" y="129.900672" style="fill: #e377c2; stroke: #e377c2"/>
     <use xlink:href="#maf00b6baa7" x="313.024069" y="134.703687" style="fill: #e377c2; stroke: #e377c2"/>
     <use xlink:href="#maf00b6baa7" x="323.260298" y="139.506085" style="fill: #e377c2; stroke: #e377c2"/>
     <use xlink:href="#maf00b6baa7" x="333.496527" y="144.307887" style="fill: #e377c2; stroke: #e377c2"/>
     <use xlink:href="#maf00b6baa7" x="343.732755" y="149.109059" style="fill: #e377c2; stroke: #e377c2"/>
     <use xlink:href="#maf00b6baa7" x="353.968984" y="153.909743" style="fill: #e377c2; stroke: #e377c2"/>
     <use xlink:href="#maf00b6baa7" x="364.205212" y="158.709909" style="fill: #e377c2; stroke: #e377c2"/>
     <use xlink:href="#maf00b6baa7" x="374.441441" y="163.509617" style="fill: #e377c2; stroke: #e377c2"/>
    </g>
   </g>
   <g id="patch_3">
    <path d="M 52.00024 290.64351 
L 52.00024 18.118365 
" style="fill: none; stroke: #000000; stroke-width: 0.8; stroke-linejoin: miter; stroke-linecap: square"/>
   </g>
   <g id="patch_4">
    <path d="M 389.795784 290.64351 
L 389.795784 18.118365 
" style="fill: none; stroke: #000000; stroke-width: 0.8; stroke-linejoin: miter; stroke-linecap: square"/>
   </g>
   <g id="patch_5">
    <path d="M 52.00024 290.64351 
L 389.795784 290.64351 
" style="fill: none; stroke: #000000; stroke-width: 0.8; stroke-linejoin: miter; stroke-linecap: square"/>
   </g>
   <g id="patch_6">
    <path d="M 52.00024 18.118365 
L 389.795784 18.118365 
" style="fill: none; stroke: #000000; stroke-width: 0.8; stroke-linejoin: miter; stroke-linecap: square"/>
   </g>
   <g id="text_16">
    <!-- SrOPh X-C b$_{1}$ -->
    <g transform="translate(181.478012 12.118365) scale(0.12 -0.12)">
     <defs>
      <path id="DejaVuSans-53" d="M 3425 4513 
L 3425 3897 
Q 3066 4069 2747 4153 
Q 2428 4238 2131 4238 
Q 1616 4238 1336 4038 
Q 1056 3838 1056 3469 
Q 1056 3159 1242 3001 
Q 1428 2844 1947 2747 
L 2328 2669 
Q 3034 2534 3370 2195 
Q 3706 1856 3706 1288 
Q 3706 609 3251 259 
Q 2797 -91 1919 -91 
Q 1588 -91 1214 -16 
Q 841 59 441 206 
L 441 856 
Q 825 641 1194 531 
Q 1563 422 1919 422 
Q 2459 422 2753 634 
Q 3047 847 3047 1241 
Q 3047 1584 2836 1778 
Q 2625 1972 2144 2069 
L 1759 2144 
Q 1053 2284 737 2584 
Q 422 2884 422 3419 
Q 422 4038 858 4394 
Q 1294 4750 2059 4750 
Q 2388 4750 2728 4690 
Q 3069 4631 3425 4513 
z
" transform="scale(0.015625)"/>
      <path id="DejaVuSans-72" d="M 2631 2963 
Q 2534 3019 2420 3045 
Q 2306 3072 2169 3072 
Q 1681 3072 1420 2755 
Q 1159 2438 1159 1844 
L 1159 0 
L 581 0 
L 581 3500 
L 1159 3500 
L 1159 2956 
Q 1341 3275 1631 3429 
Q 1922 3584 2338 3584 
Q 2397 3584 2469 3576 
Q 2541 3569 2628 3553 
L 2631 2963 
z
" transform="scale(0.015625)"/>
      <path id="DejaVuSans-4f" d="M 2522 4238 
Q 1834 4238 1429 3725 
Q 1025 3213 1025 2328 
Q 1025 1447 1429 934 
Q 1834 422 2522 422 
Q 3209 422 3611 934 
Q 4013 1447 4013 2328 
Q 4013 3213 3611 3725 
Q 3209 4238 2522 4238 
z
M 2522 4750 
Q 3503 4750 4090 4092 
Q 4678 3434 4678 2328 
Q 4678 1225 4090 567 
Q 3503 -91 2522 -91 
Q 1538 -91 948 565 
Q 359 1222 359 2328 
Q 359 3434 948 4092 
Q 1538 4750 2522 4750 
z
" transform="scale(0.015625)"/>
      <path id="DejaVuSans-50" d="M 1259 4147 
L 1259 2394 
L 2053 2394 
Q 2494 2394 2734 2622 
Q 2975 2850 2975 3272 
Q 2975 3691 2734 3919 
Q 2494 4147 2053 4147 
L 1259 4147 
z
M 628 4666 
L 2053 4666 
Q 2838 4666 3239 4311 
Q 3641 3956 3641 3272 
Q 3641 2581 3239 2228 
Q 2838 1875 2053 1875 
L 1259 1875 
L 1259 0 
L 628 0 
L 628 4666 
z
" transform="scale(0.015625)"/>
      <path id="DejaVuSans-68" d="M 3513 2113 
L 3513 0 
L 2938 0 
L 2938 2094 
Q 2938 2591 2744 2837 
Q 2550 3084 2163 3084 
Q 1697 3084 1428 2787 
Q 1159 2491 1159 1978 
L 1159 0 
L 581 0 
L 581 4863 
L 1159 4863 
L 1159 2956 
Q 1366 3272 1645 3428 
Q 1925 3584 2291 3584 
Q 2894 3584 3203 3211 
Q 3513 2838 3513 2113 
z
" transform="scale(0.015625)"/>
      <path id="DejaVuSans-20" transform="scale(0.015625)"/>
      <path id="DejaVuSans-58" d="M 403 4666 
L 1081 4666 
L 2241 2931 
L 3406 4666 
L 4084 4666 
L 2584 2425 
L 4184 0 
L 3506 0 
L 2194 1984 
L 872 0 
L 191 0 
L 1856 2491 
L 403 4666 
z
" transform="scale(0.015625)"/>
      <path id="DejaVuSans-2d" d="M 313 2009 
L 1997 2009 
L 1997 1497 
L 313 1497 
L 313 2009 
z
" transform="scale(0.015625)"/>
      <path id="DejaVuSans-43" d="M 4122 4306 
L 4122 3641 
Q 3803 3938 3442 4084 
Q 3081 4231 2675 4231 
Q 1875 4231 1450 3742 
Q 1025 3253 1025 2328 
Q 1025 1406 1450 917 
Q 1875 428 2675 428 
Q 3081 428 3442 575 
Q 3803 722 4122 1019 
L 4122 359 
Q 3791 134 3420 21 
Q 3050 -91 2638 -91 
Q 1578 -91 968 557 
Q 359 1206 359 2328 
Q 359 3453 968 4101 
Q 1578 4750 2638 4750 
Q 3056 4750 3426 4639 
Q 3797 4528 4122 4306 
z
" transform="scale(0.015625)"/>
      <path id="DejaVuSans-62" d="M 3116 1747 
Q 3116 2381 2855 2742 
Q 2594 3103 2138 3103 
Q 1681 3103 1420 2742 
Q 1159 2381 1159 1747 
Q 1159 1113 1420 752 
Q 1681 391 2138 391 
Q 2594 391 2855 752 
Q 3116 1113 3116 1747 
z
M 1159 2969 
Q 1341 3281 1617 3432 
Q 1894 3584 2278 3584 
Q 2916 3584 3314 3078 
Q 3713 2572 3713 1747 
Q 3713 922 3314 415 
Q 2916 -91 2278 -91 
Q 1894 -91 1617 61 
Q 1341 213 1159 525 
L 1159 0 
L 581 0 
L 581 4863 
L 1159 4863 
L 1159 2969 
z
" transform="scale(0.015625)"/>
     </defs>
     <use xlink:href="#DejaVuSans-53" transform="translate(0 0.015625)"/>
     <use xlink:href="#DejaVuSans-72" transform="translate(63.476562 0.015625)"/>
     <use xlink:href="#DejaVuSans-4f" transform="translate(104.589844 0.015625)"/>
     <use xlink:href="#DejaVuSans-50" transform="translate(183.300781 0.015625)"/>
     <use xlink:href="#DejaVuSans-68" transform="translate(243.603516 0.015625)"/>
     <use xlink:href="#DejaVuSans-20" transform="translate(306.982422 0.015625)"/>
     <use xlink:href="#DejaVuSans-58" transform="translate(338.769531 0.015625)"/>
     <use xlink:href="#DejaVuSans-2d" transform="translate(407.275391 0.015625)"/>
     <use xlink:href="#DejaVuSans-43" transform="translate(443.359375 0.015625)"/>
     <use xlink:href="#DejaVuSans-20" transform="translate(513.183594 0.015625)"/>
     <use xlink:href="#DejaVuSans-62" transform="translate(544.970703 0.015625)"/>
     <use xlink:href="#DejaVuSans-31" transform="translate(609.404297 -16.390625) scale(0.7)"/>
    </g>
   </g>
   <g id="legend_1">
    <g id="patch_7">
     <path d="M 413.685561 136.418365 
L 571.285561 136.418365 
Q 573.285561 136.418365 573.285561 134.418365 
L 573.285561 25.118365 
Q 573.285561 23.118365 571.285561 23.118365 
L 413.685561 23.118365 
Q 411.685561 23.118365 411.685561 25.118365 
L 411.685561 134.418365 
Q 411.685561 136.418365 413.685561 136.418365 
z
" style="fill: #ffffff; opacity: 0.8; stroke: #cccccc; stroke-linejoin: miter"/>
    </g>
    <g id="line2d_34">
     <path d="M 415.685561 32.338678 
L 423.185561 32.338678 
L 430.685561 32.338678 
" style="fill: none; stroke: #1f77b4; stroke-width: 1.5; stroke-linecap: square"/>
     <g>
      <use xlink:href="#m295b46a29d" x="423.185561" y="32.338678" style="fill: #1f77b4; stroke: #1f77b4"/>
     </g>
    </g>
    <g id="text_17">
     <!-- $\tilde{\nu}_{16}=$ 984cm$^{-1}$, $\Delta Q=$  +0 -->
     <g transform="translate(432.185561 35.838678) scale(0.1 -0.1)">
      <defs>
       <path id="DejaVuSans-303" d="M -1621 4281 
L -1799 4453 
Q -1867 4516 -1919 4545 
Q -1971 4575 -2011 4575 
Q -2130 4575 -2186 4461 
Q -2242 4347 -2249 4091 
L -2639 4091 
Q -2633 4513 -2473 4742 
Q -2314 4972 -2030 4972 
Q -1911 4972 -1811 4928 
Q -1711 4884 -1596 4781 
L -1417 4609 
Q -1349 4547 -1297 4517 
Q -1246 4488 -1205 4488 
Q -1086 4488 -1030 4602 
Q -974 4716 -967 4972 
L -577 4972 
Q -583 4550 -742 4320 
Q -902 4091 -1186 4091 
Q -1305 4091 -1405 4134 
Q -1505 4178 -1621 4281 
z
" transform="scale(0.015625)"/>
       <path id="DejaVuSans-Oblique-3bd" d="M 959 0 
L 572 3500 
L 1191 3500 
L 1522 563 
Q 1972 950 2391 1488 
Q 2706 1891 2788 2241 
Q 2825 2406 2809 2719 
Q 2794 3091 2544 3500 
L 3125 3500 
L 3125 3500 
Q 3288 3222 3353 2834 
Q 3416 2478 3369 2234 
Q 3250 1622 2719 1075 
Q 2025 363 1572 0 
L 959 0 
z
" transform="scale(0.015625)"/>
       <path id="DejaVuSans-3d" d="M 678 2906 
L 4684 2906 
L 4684 2381 
L 678 2381 
L 678 2906 
z
M 678 1631 
L 4684 1631 
L 4684 1100 
L 678 1100 
L 678 1631 
z
" transform="scale(0.015625)"/>
       <path id="DejaVuSansMono-20" transform="scale(0.015625)"/>
       <path id="DejaVuSansMono-39" d="M 1863 2069 
Q 2266 2069 2495 2359 
Q 2725 2650 2725 3163 
Q 2725 3675 2495 3965 
Q 2266 4256 1863 4256 
Q 1444 4256 1231 3979 
Q 1019 3703 1019 3163 
Q 1019 2619 1230 2344 
Q 1441 2069 1863 2069 
z
M 738 97 
L 738 678 
Q 934 563 1156 502 
Q 1378 441 1619 441 
Q 2219 441 2526 892 
Q 2834 1344 2834 2222 
Q 2688 1909 2422 1742 
Q 2156 1575 1813 1575 
Q 1138 1575 767 1990 
Q 397 2406 397 3169 
Q 397 3922 776 4336 
Q 1156 4750 1850 4750 
Q 2663 4750 3041 4165 
Q 3419 3581 3419 2328 
Q 3419 1150 2964 529 
Q 2509 -91 1644 -91 
Q 1416 -91 1184 -42 
Q 953 6 738 97 
z
" transform="scale(0.015625)"/>
       <path id="DejaVuSansMono-38" d="M 1925 2216 
Q 1503 2216 1273 1980 
Q 1044 1744 1044 1313 
Q 1044 881 1276 642 
Q 1509 403 1925 403 
Q 2350 403 2579 639 
Q 2809 875 2809 1313 
Q 2809 1741 2576 1978 
Q 2344 2216 1925 2216 
z
M 1375 2478 
Q 972 2581 745 2862 
Q 519 3144 519 3541 
Q 519 4097 897 4423 
Q 1275 4750 1925 4750 
Q 2578 4750 2956 4423 
Q 3334 4097 3334 3541 
Q 3334 3144 3107 2862 
Q 2881 2581 2478 2478 
Q 2947 2375 3195 2062 
Q 3444 1750 3444 1253 
Q 3444 622 3041 265 
Q 2638 -91 1925 -91 
Q 1213 -91 811 264 
Q 409 619 409 1247 
Q 409 1747 657 2061 
Q 906 2375 1375 2478 
z
M 1147 3481 
Q 1147 3106 1347 2909 
Q 1547 2713 1925 2713 
Q 2306 2713 2506 2909 
Q 2706 3106 2706 3481 
Q 2706 3863 2507 4063 
Q 2309 4263 1925 4263 
Q 1547 4263 1347 4061 
Q 1147 3859 1147 3481 
z
" transform="scale(0.015625)"/>
       <path id="DejaVuSansMono-34" d="M 2297 4091 
L 825 1625 
L 2297 1625 
L 2297 4091 
z
M 2194 4666 
L 2925 4666 
L 2925 1625 
L 3547 1625 
L 3547 1113 
L 2925 1113 
L 2925 0 
L 2297 0 
L 2297 1113 
L 319 1113 
L 319 1709 
L 2194 4666 
z
" transform="scale(0.015625)"/>
       <path id="DejaVuSansMono-63" d="M 3316 178 
Q 3084 44 2839 -23 
Q 2594 -91 2338 -91 
Q 1525 -91 1067 396 
Q 609 884 609 1747 
Q 609 2609 1067 3096 
Q 1525 3584 2338 3584 
Q 2591 3584 2831 3518 
Q 3072 3453 3316 3316 
L 3316 2713 
Q 3088 2916 2858 3006 
Q 2628 3097 2338 3097 
Q 1797 3097 1506 2747 
Q 1216 2397 1216 1747 
Q 1216 1100 1508 748 
Q 1800 397 2338 397 
Q 2638 397 2875 489 
Q 3113 581 3316 775 
L 3316 178 
z
" transform="scale(0.015625)"/>
       <path id="DejaVuSansMono-6d" d="M 2113 3144 
Q 2219 3369 2383 3476 
Q 2547 3584 2778 3584 
Q 3200 3584 3373 3257 
Q 3547 2931 3547 2028 
L 3547 0 
L 3022 0 
L 3022 2003 
Q 3022 2744 2939 2923 
Q 2856 3103 2638 3103 
Q 2388 3103 2295 2911 
Q 2203 2719 2203 2003 
L 2203 0 
L 1678 0 
L 1678 2003 
Q 1678 2753 1589 2928 
Q 1500 3103 1269 3103 
Q 1041 3103 952 2911 
Q 863 2719 863 2003 
L 863 0 
L 341 0 
L 341 3500 
L 863 3500 
L 863 3200 
Q 966 3388 1120 3486 
Q 1275 3584 1472 3584 
Q 1709 3584 1867 3475 
Q 2025 3366 2113 3144 
z
" transform="scale(0.015625)"/>
       <path id="DejaVuSansMono-2c" d="M 1569 947 
L 2356 947 
L 2356 300 
L 1741 -897 
L 1259 -897 
L 1569 300 
L 1569 947 
z
" transform="scale(0.015625)"/>
       <path id="DejaVuSans-394" d="M 2188 4044 
L 906 525 
L 3472 525 
L 2188 4044 
z
M 50 0 
L 1831 4666 
L 2547 4666 
L 4325 0 
L 50 0 
z
" transform="scale(0.015625)"/>
       <path id="DejaVuSans-Oblique-51" d="M 2309 -84 
Q 2275 -88 2237 -89 
Q 2200 -91 2125 -91 
Q 1250 -91 756 411 
Q 263 913 263 1797 
Q 263 2319 452 2844 
Q 641 3369 978 3788 
Q 1369 4269 1858 4509 
Q 2347 4750 2938 4750 
Q 3794 4750 4287 4245 
Q 4781 3741 4781 2869 
Q 4781 1928 4265 1147 
Q 3750 366 2919 44 
L 3553 -825 
L 2847 -825 
L 2309 -84 
z
M 2919 4238 
Q 2400 4238 2003 3986 
Q 1606 3734 1313 3219 
Q 1125 2891 1026 2522 
Q 928 2153 928 1778 
Q 928 1128 1239 775 
Q 1550 422 2119 422 
Q 2631 422 3032 676 
Q 3434 931 3719 1434 
Q 3909 1772 4009 2142 
Q 4109 2513 4109 2881 
Q 4109 3528 3796 3883 
Q 3484 4238 2919 4238 
z
" transform="scale(0.015625)"/>
       <path id="DejaVuSansMono-2b" d="M 2188 3659 
L 2188 2272 
L 3578 2272 
L 3578 1741 
L 2188 1741 
L 2188 353 
L 1663 353 
L 1663 1741 
L 275 1741 
L 275 2272 
L 1663 2272 
L 1663 3659 
L 2188 3659 
z
" transform="scale(0.015625)"/>
       <path id="DejaVuSansMono-30" d="M 1509 2344 
Q 1509 2516 1629 2641 
Q 1750 2766 1919 2766 
Q 2094 2766 2219 2641 
Q 2344 2516 2344 2344 
Q 2344 2169 2220 2047 
Q 2097 1925 1919 1925 
Q 1744 1925 1626 2044 
Q 1509 2163 1509 2344 
z
M 1925 4250 
Q 1484 4250 1267 3775 
Q 1050 3300 1050 2328 
Q 1050 1359 1267 884 
Q 1484 409 1925 409 
Q 2369 409 2586 884 
Q 2803 1359 2803 2328 
Q 2803 3300 2586 3775 
Q 2369 4250 1925 4250 
z
M 1925 4750 
Q 2672 4750 3055 4137 
Q 3438 3525 3438 2328 
Q 3438 1134 3055 521 
Q 2672 -91 1925 -91 
Q 1178 -91 797 521 
Q 416 1134 416 2328 
Q 416 3525 797 4137 
Q 1178 4750 1925 4750 
z
" transform="scale(0.015625)"/>
      </defs>
      <use xlink:href="#DejaVuSans-303" transform="translate(60.199219 3.95)"/>
      <use xlink:href="#DejaVuSans-Oblique-3bd" transform="translate(0 0.684375)"/>
      <use xlink:href="#DejaVuSans-31" transform="translate(56.816406 -15.721875) scale(0.7)"/>
      <use xlink:href="#DejaVuSans-36" transform="translate(101.352539 -15.721875) scale(0.7)"/>
      <use xlink:href="#DejaVuSans-3d" transform="translate(168.105469 0.684375)"/>
      <use xlink:href="#DejaVuSansMono-20" transform="translate(271.376953 0.684375)"/>
      <use xlink:href="#DejaVuSansMono-39" transform="translate(331.582031 0.684375)"/>
      <use xlink:href="#DejaVuSansMono-38" transform="translate(391.787109 0.684375)"/>
      <use xlink:href="#DejaVuSansMono-34" transform="translate(451.992188 0.684375)"/>
      <use xlink:href="#DejaVuSansMono-63" transform="translate(512.197266 0.684375)"/>
      <use xlink:href="#DejaVuSansMono-6d" transform="translate(572.402344 0.684375)"/>
      <use xlink:href="#DejaVuSans-2212" transform="translate(633.564453 38.965625) scale(0.7)"/>
      <use xlink:href="#DejaVuSans-31" transform="translate(692.216797 38.965625) scale(0.7)"/>
      <use xlink:href="#DejaVuSansMono-2c" transform="translate(739.487305 0.684375)"/>
      <use xlink:href="#DejaVuSansMono-20" transform="translate(799.692383 0.684375)"/>
      <use xlink:href="#DejaVuSans-394" transform="translate(859.897461 0.684375)"/>
      <use xlink:href="#DejaVuSans-Oblique-51" transform="translate(928.305664 0.684375)"/>
      <use xlink:href="#DejaVuSans-3d" transform="translate(1026.499023 0.684375)"/>
      <use xlink:href="#DejaVuSansMono-20" transform="translate(1129.770508 0.684375)"/>
      <use xlink:href="#DejaVuSansMono-20" transform="translate(1189.975586 0.684375)"/>
      <use xlink:href="#DejaVuSansMono-2b" transform="translate(1250.180664 0.684375)"/>
      <use xlink:href="#DejaVuSansMono-30" transform="translate(1310.385742 0.684375)"/>
     </g>
    </g>
    <g id="line2d_35">
     <path d="M 415.685561 48.038678 
L 423.185561 48.038678 
L 430.685561 48.038678 
" style="fill: none; stroke: #ff7f0e; stroke-width: 1.5; stroke-linecap: square"/>
     <g>
      <use xlink:href="#mc2bebbfe46" x="423.185561" y="48.038678" style="fill: #ff7f0e; stroke: #ff7f0e"/>
     </g>
    </g>
    <g id="text_18">
     <!-- $\tilde{\nu}_{17}=$ 903cm$^{-1}$, $\Delta Q=$  +0 -->
     <g transform="translate(432.185561 51.538678) scale(0.1 -0.1)">
      <defs>
       <path id="DejaVuSansMono-33" d="M 2425 2497 
Q 2884 2375 3128 2064 
Q 3372 1753 3372 1288 
Q 3372 644 2939 276 
Q 2506 -91 1741 -91 
Q 1419 -91 1084 -31 
Q 750 28 428 141 
L 428 769 
Q 747 603 1056 522 
Q 1366 441 1672 441 
Q 2191 441 2469 675 
Q 2747 909 2747 1350 
Q 2747 1756 2469 1995 
Q 2191 2234 1716 2234 
L 1234 2234 
L 1234 2753 
L 1716 2753 
Q 2150 2753 2394 2943 
Q 2638 3134 2638 3475 
Q 2638 3834 2411 4026 
Q 2184 4219 1766 4219 
Q 1488 4219 1191 4156 
Q 894 4094 569 3969 
L 569 4550 
Q 947 4650 1242 4700 
Q 1538 4750 1766 4750 
Q 2447 4750 2855 4408 
Q 3263 4066 3263 3500 
Q 3263 3116 3048 2859 
Q 2834 2603 2425 2497 
z
" transform="scale(0.015625)"/>
      </defs>
      <use xlink:href="#DejaVuSans-303" transform="translate(60.199219 3.95)"/>
      <use xlink:href="#DejaVuSans-Oblique-3bd" transform="translate(0 0.684375)"/>
      <use xlink:href="#DejaVuSans-31" transform="translate(56.816406 -15.721875) scale(0.7)"/>
      <use xlink:href="#DejaVuSans-37" transform="translate(101.352539 -15.721875) scale(0.7)"/>
      <use xlink:href="#DejaVuSans-3d" transform="translate(168.105469 0.684375)"/>
      <use xlink:href="#DejaVuSansMono-20" transform="translate(271.376953 0.684375)"/>
      <use xlink:href="#DejaVuSansMono-39" transform="translate(331.582031 0.684375)"/>
      <use xlink:href="#DejaVuSansMono-30" transform="translate(391.787109 0.684375)"/>
      <use xlink:href="#DejaVuSansMono-33" transform="translate(451.992188 0.684375)"/>
      <use xlink:href="#DejaVuSansMono-63" transform="translate(512.197266 0.684375)"/>
      <use xlink:href="#DejaVuSansMono-6d" transform="translate(572.402344 0.684375)"/>
      <use xlink:href="#DejaVuSans-2212" transform="translate(633.564453 38.965625) scale(0.7)"/>
      <use xlink:href="#DejaVuSans-31" transform="translate(692.216797 38.965625) scale(0.7)"/>
      <use xlink:href="#DejaVuSansMono-2c" transform="translate(739.487305 0.684375)"/>
      <use xlink:href="#DejaVuSansMono-20" transform="translate(799.692383 0.684375)"/>
      <use xlink:href="#DejaVuSans-394" transform="translate(859.897461 0.684375)"/>
      <use xlink:href="#DejaVuSans-Oblique-51" transform="translate(928.305664 0.684375)"/>
      <use xlink:href="#DejaVuSans-3d" transform="translate(1026.499023 0.684375)"/>
      <use xlink:href="#DejaVuSansMono-20" transform="translate(1129.770508 0.684375)"/>
      <use xlink:href="#DejaVuSansMono-20" transform="translate(1189.975586 0.684375)"/>
      <use xlink:href="#DejaVuSansMono-2b" transform="translate(1250.180664 0.684375)"/>
      <use xlink:href="#DejaVuSansMono-30" transform="translate(1310.385742 0.684375)"/>
     </g>
    </g>
    <g id="line2d_36">
     <path d="M 415.685561 63.838678 
L 423.185561 63.838678 
L 430.685561 63.838678 
" style="fill: none; stroke: #2ca02c; stroke-width: 1.5; stroke-linecap: square"/>
     <g>
      <use xlink:href="#mfa0b03bf74" x="423.185561" y="63.838678" style="fill: #2ca02c; stroke: #2ca02c"/>
     </g>
    </g>
    <g id="text_19">
     <!-- $\tilde{\nu}_{18}=$ 771cm$^{-1}$, $\Delta Q=$  +0 -->
     <g transform="translate(432.185561 67.338678) scale(0.1 -0.1)">
      <defs>
       <path id="DejaVuSans-38" d="M 2034 2216 
Q 1584 2216 1326 1975 
Q 1069 1734 1069 1313 
Q 1069 891 1326 650 
Q 1584 409 2034 409 
Q 2484 409 2743 651 
Q 3003 894 3003 1313 
Q 3003 1734 2745 1975 
Q 2488 2216 2034 2216 
z
M 1403 2484 
Q 997 2584 770 2862 
Q 544 3141 544 3541 
Q 544 4100 942 4425 
Q 1341 4750 2034 4750 
Q 2731 4750 3128 4425 
Q 3525 4100 3525 3541 
Q 3525 3141 3298 2862 
Q 3072 2584 2669 2484 
Q 3125 2378 3379 2068 
Q 3634 1759 3634 1313 
Q 3634 634 3220 271 
Q 2806 -91 2034 -91 
Q 1263 -91 848 271 
Q 434 634 434 1313 
Q 434 1759 690 2068 
Q 947 2378 1403 2484 
z
M 1172 3481 
Q 1172 3119 1398 2916 
Q 1625 2713 2034 2713 
Q 2441 2713 2670 2916 
Q 2900 3119 2900 3481 
Q 2900 3844 2670 4047 
Q 2441 4250 2034 4250 
Q 1625 4250 1398 4047 
Q 1172 3844 1172 3481 
z
" transform="scale(0.015625)"/>
       <path id="DejaVuSansMono-37" d="M 434 4666 
L 3372 4666 
L 3372 4397 
L 1703 0 
L 1044 0 
L 2669 4134 
L 434 4134 
L 434 4666 
z
" transform="scale(0.015625)"/>
       <path id="DejaVuSansMono-31" d="M 844 531 
L 1825 531 
L 1825 4097 
L 769 3859 
L 769 4434 
L 1819 4666 
L 2450 4666 
L 2450 531 
L 3419 531 
L 3419 0 
L 844 0 
L 844 531 
z
" transform="scale(0.015625)"/>
      </defs>
      <use xlink:href="#DejaVuSans-303" transform="translate(60.199219 3.95)"/>
      <use xlink:href="#DejaVuSans-Oblique-3bd" transform="translate(0 0.684375)"/>
      <use xlink:href="#DejaVuSans-31" transform="translate(56.816406 -15.721875) scale(0.7)"/>
      <use xlink:href="#DejaVuSans-38" transform="translate(101.352539 -15.721875) scale(0.7)"/>
      <use xlink:href="#DejaVuSans-3d" transform="translate(168.105469 0.684375)"/>
      <use xlink:href="#DejaVuSansMono-20" transform="translate(271.376953 0.684375)"/>
      <use xlink:href="#DejaVuSansMono-37" transform="translate(331.582031 0.684375)"/>
      <use xlink:href="#DejaVuSansMono-37" transform="translate(391.787109 0.684375)"/>
      <use xlink:href="#DejaVuSansMono-31" transform="translate(451.992188 0.684375)"/>
      <use xlink:href="#DejaVuSansMono-63" transform="translate(512.197266 0.684375)"/>
      <use xlink:href="#DejaVuSansMono-6d" transform="translate(572.402344 0.684375)"/>
      <use xlink:href="#DejaVuSans-2212" transform="translate(633.564453 38.965625) scale(0.7)"/>
      <use xlink:href="#DejaVuSans-31" transform="translate(692.216797 38.965625) scale(0.7)"/>
      <use xlink:href="#DejaVuSansMono-2c" transform="translate(739.487305 0.684375)"/>
      <use xlink:href="#DejaVuSansMono-20" transform="translate(799.692383 0.684375)"/>
      <use xlink:href="#DejaVuSans-394" transform="translate(859.897461 0.684375)"/>
      <use xlink:href="#DejaVuSans-Oblique-51" transform="translate(928.305664 0.684375)"/>
      <use xlink:href="#DejaVuSans-3d" transform="translate(1026.499023 0.684375)"/>
      <use xlink:href="#DejaVuSansMono-20" transform="translate(1129.770508 0.684375)"/>
      <use xlink:href="#DejaVuSansMono-20" transform="translate(1189.975586 0.684375)"/>
      <use xlink:href="#DejaVuSansMono-2b" transform="translate(1250.180664 0.684375)"/>
      <use xlink:href="#DejaVuSansMono-30" transform="translate(1310.385742 0.684375)"/>
     </g>
    </g>
    <g id="line2d_37">
     <path d="M 415.685561 79.638678 
L 423.185561 79.638678 
L 430.685561 79.638678 
" style="fill: none; stroke: #d62728; stroke-width: 1.5; stroke-linecap: square"/>
     <g>
      <use xlink:href="#m9500e47d02" x="423.185561" y="79.638678" style="fill: #d62728; stroke: #d62728"/>
     </g>
    </g>
    <g id="text_20">
     <!-- $\tilde{\nu}_{19}=$ 689cm$^{-1}$, $\Delta Q=$  +0 -->
     <g transform="translate(432.185561 83.138678) scale(0.1 -0.1)">
      <defs>
       <path id="DejaVuSans-39" d="M 703 97 
L 703 672 
Q 941 559 1184 500 
Q 1428 441 1663 441 
Q 2288 441 2617 861 
Q 2947 1281 2994 2138 
Q 2813 1869 2534 1725 
Q 2256 1581 1919 1581 
Q 1219 1581 811 2004 
Q 403 2428 403 3163 
Q 403 3881 828 4315 
Q 1253 4750 1959 4750 
Q 2769 4750 3195 4129 
Q 3622 3509 3622 2328 
Q 3622 1225 3098 567 
Q 2575 -91 1691 -91 
Q 1453 -91 1209 -44 
Q 966 3 703 97 
z
M 1959 2075 
Q 2384 2075 2632 2365 
Q 2881 2656 2881 3163 
Q 2881 3666 2632 3958 
Q 2384 4250 1959 4250 
Q 1534 4250 1286 3958 
Q 1038 3666 1038 3163 
Q 1038 2656 1286 2365 
Q 1534 2075 1959 2075 
z
" transform="scale(0.015625)"/>
       <path id="DejaVuSansMono-36" d="M 3097 4563 
L 3097 3981 
Q 2900 4097 2678 4158 
Q 2456 4219 2216 4219 
Q 1616 4219 1306 3767 
Q 997 3316 997 2438 
Q 1147 2750 1412 2917 
Q 1678 3084 2022 3084 
Q 2697 3084 3067 2670 
Q 3438 2256 3438 1497 
Q 3438 741 3056 325 
Q 2675 -91 1984 -91 
Q 1172 -91 794 492 
Q 416 1075 416 2328 
Q 416 3509 870 4129 
Q 1325 4750 2188 4750 
Q 2419 4750 2650 4701 
Q 2881 4653 3097 4563 
z
M 1972 2591 
Q 1569 2591 1337 2300 
Q 1106 2009 1106 1497 
Q 1106 984 1337 693 
Q 1569 403 1972 403 
Q 2391 403 2603 679 
Q 2816 956 2816 1497 
Q 2816 2041 2603 2316 
Q 2391 2591 1972 2591 
z
" transform="scale(0.015625)"/>
      </defs>
      <use xlink:href="#DejaVuSans-303" transform="translate(60.199219 3.95)"/>
      <use xlink:href="#DejaVuSans-Oblique-3bd" transform="translate(0 0.684375)"/>
      <use xlink:href="#DejaVuSans-31" transform="translate(56.816406 -15.721875) scale(0.7)"/>
      <use xlink:href="#DejaVuSans-39" transform="translate(101.352539 -15.721875) scale(0.7)"/>
      <use xlink:href="#DejaVuSans-3d" transform="translate(168.105469 0.684375)"/>
      <use xlink:href="#DejaVuSansMono-20" transform="translate(271.376953 0.684375)"/>
      <use xlink:href="#DejaVuSansMono-36" transform="translate(331.582031 0.684375)"/>
      <use xlink:href="#DejaVuSansMono-38" transform="translate(391.787109 0.684375)"/>
      <use xlink:href="#DejaVuSansMono-39" transform="translate(451.992188 0.684375)"/>
      <use xlink:href="#DejaVuSansMono-63" transform="translate(512.197266 0.684375)"/>
      <use xlink:href="#DejaVuSansMono-6d" transform="translate(572.402344 0.684375)"/>
      <use xlink:href="#DejaVuSans-2212" transform="translate(633.564453 38.965625) scale(0.7)"/>
      <use xlink:href="#DejaVuSans-31" transform="translate(692.216797 38.965625) scale(0.7)"/>
      <use xlink:href="#DejaVuSansMono-2c" transform="translate(739.487305 0.684375)"/>
      <use xlink:href="#DejaVuSansMono-20" transform="translate(799.692383 0.684375)"/>
      <use xlink:href="#DejaVuSans-394" transform="translate(859.897461 0.684375)"/>
      <use xlink:href="#DejaVuSans-Oblique-51" transform="translate(928.305664 0.684375)"/>
      <use xlink:href="#DejaVuSans-3d" transform="translate(1026.499023 0.684375)"/>
      <use xlink:href="#DejaVuSansMono-20" transform="translate(1129.770508 0.684375)"/>
      <use xlink:href="#DejaVuSansMono-20" transform="translate(1189.975586 0.684375)"/>
      <use xlink:href="#DejaVuSansMono-2b" transform="translate(1250.180664 0.684375)"/>
      <use xlink:href="#DejaVuSansMono-30" transform="translate(1310.385742 0.684375)"/>
     </g>
    </g>
    <g id="line2d_38">
     <path d="M 415.685561 95.438678 
L 423.185561 95.438678 
L 430.685561 95.438678 
" style="fill: none; stroke: #9467bd; stroke-width: 1.5; stroke-linecap: square"/>
     <g>
      <use xlink:href="#mebb6896cba" x="423.185561" y="95.438678" style="fill: #9467bd; stroke: #9467bd"/>
     </g>
    </g>
    <g id="text_21">
     <!-- $\tilde{\nu}_{20}=$ 532cm$^{-1}$, $\Delta Q=$  +0 -->
     <g transform="translate(432.185561 98.938678) scale(0.1 -0.1)">
      <defs>
       <path id="DejaVuSansMono-35" d="M 647 4666 
L 3009 4666 
L 3009 4134 
L 1222 4134 
L 1222 2988 
Q 1356 3038 1492 3061 
Q 1628 3084 1766 3084 
Q 2491 3084 2916 2656 
Q 3341 2228 3341 1497 
Q 3341 759 2895 334 
Q 2450 -91 1678 -91 
Q 1306 -91 998 -41 
Q 691 9 447 109 
L 447 750 
Q 734 594 1025 517 
Q 1316 441 1619 441 
Q 2141 441 2423 716 
Q 2706 991 2706 1497 
Q 2706 1997 2414 2275 
Q 2122 2553 1600 2553 
Q 1347 2553 1106 2495 
Q 866 2438 647 2322 
L 647 4666 
z
" transform="scale(0.015625)"/>
       <path id="DejaVuSansMono-32" d="M 1166 531 
L 3309 531 
L 3309 0 
L 475 0 
L 475 531 
Q 1059 1147 1496 1619 
Q 1934 2091 2100 2284 
Q 2413 2666 2522 2902 
Q 2631 3138 2631 3384 
Q 2631 3775 2401 3997 
Q 2172 4219 1772 4219 
Q 1488 4219 1175 4116 
Q 863 4013 513 3803 
L 513 4441 
Q 834 4594 1145 4672 
Q 1456 4750 1759 4750 
Q 2444 4750 2861 4386 
Q 3278 4022 3278 3431 
Q 3278 3131 3139 2831 
Q 3000 2531 2688 2169 
Q 2513 1966 2180 1606 
Q 1847 1247 1166 531 
z
" transform="scale(0.015625)"/>
      </defs>
      <use xlink:href="#DejaVuSans-303" transform="translate(60.199219 3.95)"/>
      <use xlink:href="#DejaVuSans-Oblique-3bd" transform="translate(0 0.684375)"/>
      <use xlink:href="#DejaVuSans-32" transform="translate(56.816406 -15.721875) scale(0.7)"/>
      <use xlink:href="#DejaVuSans-30" transform="translate(101.352539 -15.721875) scale(0.7)"/>
      <use xlink:href="#DejaVuSans-3d" transform="translate(168.105469 0.684375)"/>
      <use xlink:href="#DejaVuSansMono-20" transform="translate(271.376953 0.684375)"/>
      <use xlink:href="#DejaVuSansMono-35" transform="translate(331.582031 0.684375)"/>
      <use xlink:href="#DejaVuSansMono-33" transform="translate(391.787109 0.684375)"/>
      <use xlink:href="#DejaVuSansMono-32" transform="translate(451.992188 0.684375)"/>
      <use xlink:href="#DejaVuSansMono-63" transform="translate(512.197266 0.684375)"/>
      <use xlink:href="#DejaVuSansMono-6d" transform="translate(572.402344 0.684375)"/>
      <use xlink:href="#DejaVuSans-2212" transform="translate(633.564453 38.965625) scale(0.7)"/>
      <use xlink:href="#DejaVuSans-31" transform="translate(692.216797 38.965625) scale(0.7)"/>
      <use xlink:href="#DejaVuSansMono-2c" transform="translate(739.487305 0.684375)"/>
      <use xlink:href="#DejaVuSansMono-20" transform="translate(799.692383 0.684375)"/>
      <use xlink:href="#DejaVuSans-394" transform="translate(859.897461 0.684375)"/>
      <use xlink:href="#DejaVuSans-Oblique-51" transform="translate(928.305664 0.684375)"/>
      <use xlink:href="#DejaVuSans-3d" transform="translate(1026.499023 0.684375)"/>
      <use xlink:href="#DejaVuSansMono-20" transform="translate(1129.770508 0.684375)"/>
      <use xlink:href="#DejaVuSansMono-20" transform="translate(1189.975586 0.684375)"/>
      <use xlink:href="#DejaVuSansMono-2b" transform="translate(1250.180664 0.684375)"/>
      <use xlink:href="#DejaVuSansMono-30" transform="translate(1310.385742 0.684375)"/>
     </g>
    </g>
    <g id="line2d_39">
     <path d="M 415.685561 111.138678 
L 423.185561 111.138678 
L 430.685561 111.138678 
" style="fill: none; stroke: #8c564b; stroke-width: 1.5; stroke-linecap: square"/>
     <g>
      <use xlink:href="#m8e893b46f0" x="423.185561" y="111.138678" style="fill: #8c564b; stroke: #8c564b"/>
     </g>
    </g>
    <g id="text_22">
     <!-- $\tilde{\nu}_{21}=$ 273cm$^{-1}$, $\Delta Q=$  +0 -->
     <g transform="translate(432.185561 114.638678) scale(0.1 -0.1)">
      <use xlink:href="#DejaVuSans-303" transform="translate(60.199219 3.95)"/>
      <use xlink:href="#DejaVuSans-Oblique-3bd" transform="translate(0 0.684375)"/>
      <use xlink:href="#DejaVuSans-32" transform="translate(56.816406 -15.721875) scale(0.7)"/>
      <use xlink:href="#DejaVuSans-31" transform="translate(101.352539 -15.721875) scale(0.7)"/>
      <use xlink:href="#DejaVuSans-3d" transform="translate(168.105469 0.684375)"/>
      <use xlink:href="#DejaVuSansMono-20" transform="translate(271.376953 0.684375)"/>
      <use xlink:href="#DejaVuSansMono-32" transform="translate(331.582031 0.684375)"/>
      <use xlink:href="#DejaVuSansMono-37" transform="translate(391.787109 0.684375)"/>
      <use xlink:href="#DejaVuSansMono-33" transform="translate(451.992188 0.684375)"/>
      <use xlink:href="#DejaVuSansMono-63" transform="translate(512.197266 0.684375)"/>
      <use xlink:href="#DejaVuSansMono-6d" transform="translate(572.402344 0.684375)"/>
      <use xlink:href="#DejaVuSans-2212" transform="translate(633.564453 38.965625) scale(0.7)"/>
      <use xlink:href="#DejaVuSans-31" transform="translate(692.216797 38.965625) scale(0.7)"/>
      <use xlink:href="#DejaVuSansMono-2c" transform="translate(739.487305 0.684375)"/>
      <use xlink:href="#DejaVuSansMono-20" transform="translate(799.692383 0.684375)"/>
      <use xlink:href="#DejaVuSans-394" transform="translate(859.897461 0.684375)"/>
      <use xlink:href="#DejaVuSans-Oblique-51" transform="translate(928.305664 0.684375)"/>
      <use xlink:href="#DejaVuSans-3d" transform="translate(1026.499023 0.684375)"/>
      <use xlink:href="#DejaVuSansMono-20" transform="translate(1129.770508 0.684375)"/>
      <use xlink:href="#DejaVuSansMono-20" transform="translate(1189.975586 0.684375)"/>
      <use xlink:href="#DejaVuSansMono-2b" transform="translate(1250.180664 0.684375)"/>
      <use xlink:href="#DejaVuSansMono-30" transform="translate(1310.385742 0.684375)"/>
     </g>
    </g>
    <g id="line2d_40">
     <path d="M 415.685561 126.838678 
L 423.185561 126.838678 
L 430.685561 126.838678 
" style="fill: none; stroke: #e377c2; stroke-width: 1.5; stroke-linecap: square"/>
     <g>
      <use xlink:href="#maf00b6baa7" x="423.185561" y="126.838678" style="fill: #e377c2; stroke: #e377c2"/>
     </g>
    </g>
    <g id="text_23">
     <!-- $\tilde{\nu}_{22}=$  84cm$^{-1}$, $\Delta Q=$  +0 -->
     <g transform="translate(432.185561 130.338678) scale(0.1 -0.1)">
      <use xlink:href="#DejaVuSans-303" transform="translate(60.199219 3.95)"/>
      <use xlink:href="#DejaVuSans-Oblique-3bd" transform="translate(0 0.684375)"/>
      <use xlink:href="#DejaVuSans-32" transform="translate(56.816406 -15.721875) scale(0.7)"/>
      <use xlink:href="#DejaVuSans-32" transform="translate(101.352539 -15.721875) scale(0.7)"/>
      <use xlink:href="#DejaVuSans-3d" transform="translate(168.105469 0.684375)"/>
      <use xlink:href="#DejaVuSansMono-20" transform="translate(271.376953 0.684375)"/>
      <use xlink:href="#DejaVuSansMono-20" transform="translate(331.582031 0.684375)"/>
      <use xlink:href="#DejaVuSansMono-38" transform="translate(391.787109 0.684375)"/>
      <use xlink:href="#DejaVuSansMono-34" transform="translate(451.992188 0.684375)"/>
      <use xlink:href="#DejaVuSansMono-63" transform="translate(512.197266 0.684375)"/>
      <use xlink:href="#DejaVuSansMono-6d" transform="translate(572.402344 0.684375)"/>
      <use xlink:href="#DejaVuSans-2212" transform="translate(633.564453 38.965625) scale(0.7)"/>
      <use xlink:href="#DejaVuSans-31" transform="translate(692.216797 38.965625) scale(0.7)"/>
      <use xlink:href="#DejaVuSansMono-2c" transform="translate(739.487305 0.684375)"/>
      <use xlink:href="#DejaVuSansMono-20" transform="translate(799.692383 0.684375)"/>
      <use xlink:href="#DejaVuSans-394" transform="translate(859.897461 0.684375)"/>
      <use xlink:href="#DejaVuSans-Oblique-51" transform="translate(928.305664 0.684375)"/>
      <use xlink:href="#DejaVuSans-3d" transform="translate(1026.499023 0.684375)"/>
      <use xlink:href="#DejaVuSansMono-20" transform="translate(1129.770508 0.684375)"/>
      <use xlink:href="#DejaVuSansMono-20" transform="translate(1189.975586 0.684375)"/>
      <use xlink:href="#DejaVuSansMono-2b" transform="translate(1250.180664 0.684375)"/>
      <use xlink:href="#DejaVuSansMono-30" transform="translate(1310.385742 0.684375)"/>
     </g>
    </g>
   </g>
  </g>
 </g>
 <defs>
  <clipPath id="pab2bf08c3a">
   <rect x="52.00024" y="18.118365" width="337.795544" height="272.525145"/>
  </clipPath>
 </defs>
</svg>
