<?xml version="1.0" encoding="utf-8" standalone="no"?>
<!DOCTYPE svg PUBLIC "-//W3C//DTD SVG 1.1//EN"
  "http://www.w3.org/Graphics/SVG/1.1/DTD/svg11.dtd">
<svg xmlns:xlink="http://www.w3.org/1999/xlink" width="576pt" height="324pt" viewBox="0 0 576 324" xmlns="http://www.w3.org/2000/svg" version="1.1">
 <metadata>
  <rdf:RDF xmlns:dc="http://purl.org/dc/elements/1.1/" xmlns:cc="http://creativecommons.org/ns#" xmlns:rdf="http://www.w3.org/1999/02/22-rdf-syntax-ns#">
   <cc:Work>
    <dc:type rdf:resource="http://purl.org/dc/dcmitype/StillImage"/>
    <dc:date>2025-06-09T10:23:42.091923</dc:date>
    <dc:format>image/svg+xml</dc:format>
    <dc:creator>
     <cc:Agent>
      <dc:title>Matplotlib v3.10.3, https://matplotlib.org/</dc:title>
     </cc:Agent>
    </dc:creator>
   </cc:Work>
  </rdf:RDF>
 </metadata>
 <defs>
  <style type="text/css">*{stroke-linejoin: round; stroke-linecap: butt}</style>
 </defs>
 <g id="figure_1">
  <g id="patch_1">
   <path d="M 0 324 
L 576 324 
L 576 0 
L 0 0 
z
" style="fill: #ffffff"/>
  </g>
  <g id="axes_1">
   <g id="patch_2">
    <path d="M 52.00024 290.64351 
L 389.795784 290.64351 
L 389.795784 18.118365 
L 52.00024 18.118365 
z
" style="fill: #ffffff"/>
   </g>
   <g id="matplotlib.axis_1">
    <g id="xtick_1">
     <g id="line2d_1">
      <path d="M 67.354583 290.64351 
L 67.354583 18.118365 
" clip-path="url(#p85e13fc412)" style="fill: none; stroke: #b0b0b0; stroke-width: 0.8; stroke-linecap: square"/>
     </g>
     <g id="line2d_2">
      <defs>
       <path id="m88a9cd73a8" d="M 0 0 
L 0 3.5 
" style="stroke: #000000; stroke-width: 0.8"/>
      </defs>
      <g>
       <use xlink:href="#m88a9cd73a8" x="67.354583" y="290.64351" style="stroke: #000000; stroke-width: 0.8"/>
      </g>
     </g>
     <g id="text_1">
      <!-- 0 -->
      <g transform="translate(64.173333 305.241947) scale(0.1 -0.1)">
       <defs>
        <path id="DejaVuSans-30" d="M 2034 4250 
Q 1547 4250 1301 3770 
Q 1056 3291 1056 2328 
Q 1056 1369 1301 889 
Q 1547 409 2034 409 
Q 2525 409 2770 889 
Q 3016 1369 3016 2328 
Q 3016 3291 2770 3770 
Q 2525 4250 2034 4250 
z
M 2034 4750 
Q 2819 4750 3233 4129 
Q 3647 3509 3647 2328 
Q 3647 1150 3233 529 
Q 2819 -91 2034 -91 
Q 1250 -91 836 529 
Q 422 1150 422 2328 
Q 422 3509 836 4129 
Q 1250 4750 2034 4750 
z
" transform="scale(0.015625)"/>
       </defs>
       <use xlink:href="#DejaVuSans-30"/>
      </g>
     </g>
    </g>
    <g id="xtick_2">
     <g id="line2d_3">
      <path d="M 118.535726 290.64351 
L 118.535726 18.118365 
" clip-path="url(#p85e13fc412)" style="fill: none; stroke: #b0b0b0; stroke-width: 0.8; stroke-linecap: square"/>
     </g>
     <g id="line2d_4">
      <g>
       <use xlink:href="#m88a9cd73a8" x="118.535726" y="290.64351" style="stroke: #000000; stroke-width: 0.8"/>
      </g>
     </g>
     <g id="text_2">
      <!-- 10 -->
      <g transform="translate(112.173226 305.241947) scale(0.1 -0.1)">
       <defs>
        <path id="DejaVuSans-31" d="M 794 531 
L 1825 531 
L 1825 4091 
L 703 3866 
L 703 4441 
L 1819 4666 
L 2450 4666 
L 2450 531 
L 3481 531 
L 3481 0 
L 794 0 
L 794 531 
z
" transform="scale(0.015625)"/>
       </defs>
       <use xlink:href="#DejaVuSans-31"/>
       <use xlink:href="#DejaVuSans-30" transform="translate(63.623047 0)"/>
      </g>
     </g>
    </g>
    <g id="xtick_3">
     <g id="line2d_5">
      <path d="M 169.716869 290.64351 
L 169.716869 18.118365 
" clip-path="url(#p85e13fc412)" style="fill: none; stroke: #b0b0b0; stroke-width: 0.8; stroke-linecap: square"/>
     </g>
     <g id="line2d_6">
      <g>
       <use xlink:href="#m88a9cd73a8" x="169.716869" y="290.64351" style="stroke: #000000; stroke-width: 0.8"/>
      </g>
     </g>
     <g id="text_3">
      <!-- 20 -->
      <g transform="translate(163.354369 305.241947) scale(0.1 -0.1)">
       <defs>
        <path id="DejaVuSans-32" d="M 1228 531 
L 3431 531 
L 3431 0 
L 469 0 
L 469 531 
Q 828 903 1448 1529 
Q 2069 2156 2228 2338 
Q 2531 2678 2651 2914 
Q 2772 3150 2772 3378 
Q 2772 3750 2511 3984 
Q 2250 4219 1831 4219 
Q 1534 4219 1204 4116 
Q 875 4013 500 3803 
L 500 4441 
Q 881 4594 1212 4672 
Q 1544 4750 1819 4750 
Q 2544 4750 2975 4387 
Q 3406 4025 3406 3419 
Q 3406 3131 3298 2873 
Q 3191 2616 2906 2266 
Q 2828 2175 2409 1742 
Q 1991 1309 1228 531 
z
" transform="scale(0.015625)"/>
       </defs>
       <use xlink:href="#DejaVuSans-32"/>
       <use xlink:href="#DejaVuSans-30" transform="translate(63.623047 0)"/>
      </g>
     </g>
    </g>
    <g id="xtick_4">
     <g id="line2d_7">
      <path d="M 220.898012 290.64351 
L 220.898012 18.118365 
" clip-path="url(#p85e13fc412)" style="fill: none; stroke: #b0b0b0; stroke-width: 0.8; stroke-linecap: square"/>
     </g>
     <g id="line2d_8">
      <g>
       <use xlink:href="#m88a9cd73a8" x="220.898012" y="290.64351" style="stroke: #000000; stroke-width: 0.8"/>
      </g>
     </g>
     <g id="text_4">
      <!-- 30 -->
      <g transform="translate(214.535512 305.241947) scale(0.1 -0.1)">
       <defs>
        <path id="DejaVuSans-33" d="M 2597 2516 
Q 3050 2419 3304 2112 
Q 3559 1806 3559 1356 
Q 3559 666 3084 287 
Q 2609 -91 1734 -91 
Q 1441 -91 1130 -33 
Q 819 25 488 141 
L 488 750 
Q 750 597 1062 519 
Q 1375 441 1716 441 
Q 2309 441 2620 675 
Q 2931 909 2931 1356 
Q 2931 1769 2642 2001 
Q 2353 2234 1838 2234 
L 1294 2234 
L 1294 2753 
L 1863 2753 
Q 2328 2753 2575 2939 
Q 2822 3125 2822 3475 
Q 2822 3834 2567 4026 
Q 2313 4219 1838 4219 
Q 1578 4219 1281 4162 
Q 984 4106 628 3988 
L 628 4550 
Q 988 4650 1302 4700 
Q 1616 4750 1894 4750 
Q 2613 4750 3031 4423 
Q 3450 4097 3450 3541 
Q 3450 3153 3228 2886 
Q 3006 2619 2597 2516 
z
" transform="scale(0.015625)"/>
       </defs>
       <use xlink:href="#DejaVuSans-33"/>
       <use xlink:href="#DejaVuSans-30" transform="translate(63.623047 0)"/>
      </g>
     </g>
    </g>
    <g id="xtick_5">
     <g id="line2d_9">
      <path d="M 272.079155 290.64351 
L 272.079155 18.118365 
" clip-path="url(#p85e13fc412)" style="fill: none; stroke: #b0b0b0; stroke-width: 0.8; stroke-linecap: square"/>
     </g>
     <g id="line2d_10">
      <g>
       <use xlink:href="#m88a9cd73a8" x="272.079155" y="290.64351" style="stroke: #000000; stroke-width: 0.8"/>
      </g>
     </g>
     <g id="text_5">
      <!-- 40 -->
      <g transform="translate(265.716655 305.241947) scale(0.1 -0.1)">
       <defs>
        <path id="DejaVuSans-34" d="M 2419 4116 
L 825 1625 
L 2419 1625 
L 2419 4116 
z
M 2253 4666 
L 3047 4666 
L 3047 1625 
L 3713 1625 
L 3713 1100 
L 3047 1100 
L 3047 0 
L 2419 0 
L 2419 1100 
L 313 1100 
L 313 1709 
L 2253 4666 
z
" transform="scale(0.015625)"/>
       </defs>
       <use xlink:href="#DejaVuSans-34"/>
       <use xlink:href="#DejaVuSans-30" transform="translate(63.623047 0)"/>
      </g>
     </g>
    </g>
    <g id="xtick_6">
     <g id="line2d_11">
      <path d="M 323.260298 290.64351 
L 323.260298 18.118365 
" clip-path="url(#p85e13fc412)" style="fill: none; stroke: #b0b0b0; stroke-width: 0.8; stroke-linecap: square"/>
     </g>
     <g id="line2d_12">
      <g>
       <use xlink:href="#m88a9cd73a8" x="323.260298" y="290.64351" style="stroke: #000000; stroke-width: 0.8"/>
      </g>
     </g>
     <g id="text_6">
      <!-- 50 -->
      <g transform="translate(316.897798 305.241947) scale(0.1 -0.1)">
       <defs>
        <path id="DejaVuSans-35" d="M 691 4666 
L 3169 4666 
L 3169 4134 
L 1269 4134 
L 1269 2991 
Q 1406 3038 1543 3061 
Q 1681 3084 1819 3084 
Q 2600 3084 3056 2656 
Q 3513 2228 3513 1497 
Q 3513 744 3044 326 
Q 2575 -91 1722 -91 
Q 1428 -91 1123 -41 
Q 819 9 494 109 
L 494 744 
Q 775 591 1075 516 
Q 1375 441 1709 441 
Q 2250 441 2565 725 
Q 2881 1009 2881 1497 
Q 2881 1984 2565 2268 
Q 2250 2553 1709 2553 
Q 1456 2553 1204 2497 
Q 953 2441 691 2322 
L 691 4666 
z
" transform="scale(0.015625)"/>
       </defs>
       <use xlink:href="#DejaVuSans-35"/>
       <use xlink:href="#DejaVuSans-30" transform="translate(63.623047 0)"/>
      </g>
     </g>
    </g>
    <g id="xtick_7">
     <g id="line2d_13">
      <path d="M 374.441441 290.64351 
L 374.441441 18.118365 
" clip-path="url(#p85e13fc412)" style="fill: none; stroke: #b0b0b0; stroke-width: 0.8; stroke-linecap: square"/>
     </g>
     <g id="line2d_14">
      <g>
       <use xlink:href="#m88a9cd73a8" x="374.441441" y="290.64351" style="stroke: #000000; stroke-width: 0.8"/>
      </g>
     </g>
     <g id="text_7">
      <!-- 60 -->
      <g transform="translate(368.078941 305.241947) scale(0.1 -0.1)">
       <defs>
        <path id="DejaVuSans-36" d="M 2113 2584 
Q 1688 2584 1439 2293 
Q 1191 2003 1191 1497 
Q 1191 994 1439 701 
Q 1688 409 2113 409 
Q 2538 409 2786 701 
Q 3034 994 3034 1497 
Q 3034 2003 2786 2293 
Q 2538 2584 2113 2584 
z
M 3366 4563 
L 3366 3988 
Q 3128 4100 2886 4159 
Q 2644 4219 2406 4219 
Q 1781 4219 1451 3797 
Q 1122 3375 1075 2522 
Q 1259 2794 1537 2939 
Q 1816 3084 2150 3084 
Q 2853 3084 3261 2657 
Q 3669 2231 3669 1497 
Q 3669 778 3244 343 
Q 2819 -91 2113 -91 
Q 1303 -91 875 529 
Q 447 1150 447 2328 
Q 447 3434 972 4092 
Q 1497 4750 2381 4750 
Q 2619 4750 2861 4703 
Q 3103 4656 3366 4563 
z
" transform="scale(0.015625)"/>
       </defs>
       <use xlink:href="#DejaVuSans-36"/>
       <use xlink:href="#DejaVuSans-30" transform="translate(63.623047 0)"/>
      </g>
     </g>
    </g>
    <g id="text_8">
     <!-- $n_X$ -->
     <g transform="translate(215.148012 318.920073) scale(0.1 -0.1)">
      <defs>
       <path id="DejaVuSans-Oblique-6e" d="M 3566 2113 
L 3156 0 
L 2578 0 
L 2988 2091 
Q 3016 2238 3031 2350 
Q 3047 2463 3047 2528 
Q 3047 2791 2881 2937 
Q 2716 3084 2419 3084 
Q 1956 3084 1622 2776 
Q 1288 2469 1184 1941 
L 800 0 
L 225 0 
L 903 3500 
L 1478 3500 
L 1363 2950 
Q 1603 3253 1940 3418 
Q 2278 3584 2650 3584 
Q 3113 3584 3367 3334 
Q 3622 3084 3622 2631 
Q 3622 2519 3608 2391 
Q 3594 2263 3566 2113 
z
" transform="scale(0.015625)"/>
       <path id="DejaVuSans-Oblique-58" d="M 878 4666 
L 1516 4666 
L 2316 2981 
L 3763 4666 
L 4500 4666 
L 2578 2438 
L 3738 0 
L 3103 0 
L 2163 1966 
L 459 0 
L -275 0 
L 1906 2509 
L 878 4666 
z
" transform="scale(0.015625)"/>
      </defs>
      <use xlink:href="#DejaVuSans-Oblique-6e"/>
      <use xlink:href="#DejaVuSans-Oblique-58" transform="translate(63.378906 -16.40625) scale(0.7)"/>
     </g>
    </g>
   </g>
   <g id="matplotlib.axis_2">
    <g id="ytick_1">
     <g id="line2d_15">
      <path d="M 52.00024 18.118365 
L 389.795784 18.118365 
" clip-path="url(#p85e13fc412)" style="fill: none; stroke: #b0b0b0; stroke-width: 0.8; stroke-linecap: square"/>
     </g>
     <g id="line2d_16">
      <defs>
       <path id="mb1390dbf08" d="M 0 0 
L -3.5 0 
" style="stroke: #000000; stroke-width: 0.8"/>
      </defs>
      <g>
       <use xlink:href="#mb1390dbf08" x="52.00024" y="18.118365" style="stroke: #000000; stroke-width: 0.8"/>
      </g>
     </g>
     <g id="text_9">
      <!-- $\mathdefault{10^{0}}$ -->
      <g transform="translate(27.40024 21.917584) scale(0.1 -0.1)">
       <use xlink:href="#DejaVuSans-31" transform="translate(0 0.765625)"/>
       <use xlink:href="#DejaVuSans-30" transform="translate(63.623047 0.765625)"/>
       <use xlink:href="#DejaVuSans-30" transform="translate(128.203125 39.046875) scale(0.7)"/>
      </g>
     </g>
    </g>
    <g id="ytick_2">
     <g id="line2d_17">
      <path d="M 52.00024 72.623394 
L 389.795784 72.623394 
" clip-path="url(#p85e13fc412)" style="fill: none; stroke: #b0b0b0; stroke-width: 0.8; stroke-linecap: square"/>
     </g>
     <g id="line2d_18">
      <g>
       <use xlink:href="#mb1390dbf08" x="52.00024" y="72.623394" style="stroke: #000000; stroke-width: 0.8"/>
      </g>
     </g>
     <g id="text_10">
      <!-- $\mathdefault{10^{-15}}$ -->
      <g transform="translate(17.10024 76.422613) scale(0.1 -0.1)">
       <defs>
        <path id="DejaVuSans-2212" d="M 678 2272 
L 4684 2272 
L 4684 1741 
L 678 1741 
L 678 2272 
z
" transform="scale(0.015625)"/>
       </defs>
       <use xlink:href="#DejaVuSans-31" transform="translate(0 0.684375)"/>
       <use xlink:href="#DejaVuSans-30" transform="translate(63.623047 0.684375)"/>
       <use xlink:href="#DejaVuSans-2212" transform="translate(128.203125 38.965625) scale(0.7)"/>
       <use xlink:href="#DejaVuSans-31" transform="translate(186.855469 38.965625) scale(0.7)"/>
       <use xlink:href="#DejaVuSans-35" transform="translate(231.391602 38.965625) scale(0.7)"/>
      </g>
     </g>
    </g>
    <g id="ytick_3">
     <g id="line2d_19">
      <path d="M 52.00024 127.128423 
L 389.795784 127.128423 
" clip-path="url(#p85e13fc412)" style="fill: none; stroke: #b0b0b0; stroke-width: 0.8; stroke-linecap: square"/>
     </g>
     <g id="line2d_20">
      <g>
       <use xlink:href="#mb1390dbf08" x="52.00024" y="127.128423" style="stroke: #000000; stroke-width: 0.8"/>
      </g>
     </g>
     <g id="text_11">
      <!-- $\mathdefault{10^{-30}}$ -->
      <g transform="translate(17.10024 130.927642) scale(0.1 -0.1)">
       <use xlink:href="#DejaVuSans-31" transform="translate(0 0.765625)"/>
       <use xlink:href="#DejaVuSans-30" transform="translate(63.623047 0.765625)"/>
       <use xlink:href="#DejaVuSans-2212" transform="translate(128.203125 39.046875) scale(0.7)"/>
       <use xlink:href="#DejaVuSans-33" transform="translate(186.855469 39.046875) scale(0.7)"/>
       <use xlink:href="#DejaVuSans-30" transform="translate(231.391602 39.046875) scale(0.7)"/>
      </g>
     </g>
    </g>
    <g id="ytick_4">
     <g id="line2d_21">
      <path d="M 52.00024 181.633452 
L 389.795784 181.633452 
" clip-path="url(#p85e13fc412)" style="fill: none; stroke: #b0b0b0; stroke-width: 0.8; stroke-linecap: square"/>
     </g>
     <g id="line2d_22">
      <g>
       <use xlink:href="#mb1390dbf08" x="52.00024" y="181.633452" style="stroke: #000000; stroke-width: 0.8"/>
      </g>
     </g>
     <g id="text_12">
      <!-- $\mathdefault{10^{-45}}$ -->
      <g transform="translate(17.10024 185.432671) scale(0.1 -0.1)">
       <use xlink:href="#DejaVuSans-31" transform="translate(0 0.684375)"/>
       <use xlink:href="#DejaVuSans-30" transform="translate(63.623047 0.684375)"/>
       <use xlink:href="#DejaVuSans-2212" transform="translate(128.203125 38.965625) scale(0.7)"/>
       <use xlink:href="#DejaVuSans-34" transform="translate(186.855469 38.965625) scale(0.7)"/>
       <use xlink:href="#DejaVuSans-35" transform="translate(231.391602 38.965625) scale(0.7)"/>
      </g>
     </g>
    </g>
    <g id="ytick_5">
     <g id="line2d_23">
      <path d="M 52.00024 236.138481 
L 389.795784 236.138481 
" clip-path="url(#p85e13fc412)" style="fill: none; stroke: #b0b0b0; stroke-width: 0.8; stroke-linecap: square"/>
     </g>
     <g id="line2d_24">
      <g>
       <use xlink:href="#mb1390dbf08" x="52.00024" y="236.138481" style="stroke: #000000; stroke-width: 0.8"/>
      </g>
     </g>
     <g id="text_13">
      <!-- $\mathdefault{10^{-60}}$ -->
      <g transform="translate(17.10024 239.9377) scale(0.1 -0.1)">
       <use xlink:href="#DejaVuSans-31" transform="translate(0 0.765625)"/>
       <use xlink:href="#DejaVuSans-30" transform="translate(63.623047 0.765625)"/>
       <use xlink:href="#DejaVuSans-2212" transform="translate(128.203125 39.046875) scale(0.7)"/>
       <use xlink:href="#DejaVuSans-36" transform="translate(186.855469 39.046875) scale(0.7)"/>
       <use xlink:href="#DejaVuSans-30" transform="translate(231.391602 39.046875) scale(0.7)"/>
      </g>
     </g>
    </g>
    <g id="ytick_6">
     <g id="line2d_25">
      <path d="M 52.00024 290.64351 
L 389.795784 290.64351 
" clip-path="url(#p85e13fc412)" style="fill: none; stroke: #b0b0b0; stroke-width: 0.8; stroke-linecap: square"/>
     </g>
     <g id="line2d_26">
      <g>
       <use xlink:href="#mb1390dbf08" x="52.00024" y="290.64351" style="stroke: #000000; stroke-width: 0.8"/>
      </g>
     </g>
     <g id="text_14">
      <!-- $\mathdefault{10^{-75}}$ -->
      <g transform="translate(17.10024 294.442729) scale(0.1 -0.1)">
       <defs>
        <path id="DejaVuSans-37" d="M 525 4666 
L 3525 4666 
L 3525 4397 
L 1831 0 
L 1172 0 
L 2766 4134 
L 525 4134 
L 525 4666 
z
" transform="scale(0.015625)"/>
       </defs>
       <use xlink:href="#DejaVuSans-31" transform="translate(0 0.684375)"/>
       <use xlink:href="#DejaVuSans-30" transform="translate(63.623047 0.684375)"/>
       <use xlink:href="#DejaVuSans-2212" transform="translate(128.203125 38.965625) scale(0.7)"/>
       <use xlink:href="#DejaVuSans-37" transform="translate(186.855469 38.965625) scale(0.7)"/>
       <use xlink:href="#DejaVuSans-35" transform="translate(231.391602 38.965625) scale(0.7)"/>
      </g>
     </g>
    </g>
    <g id="text_15">
     <!-- $|\langle 0_{C}| n_{X} \rangle |$ -->
     <g transform="translate(10.70024 174.880938) rotate(-90) scale(0.1 -0.1)">
      <defs>
       <path id="DejaVuSans-7c" d="M 1344 4891 
L 1344 -1509 
L 813 -1509 
L 813 4891 
L 1344 4891 
z
" transform="scale(0.015625)"/>
       <path id="DejaVuSans-27e8" d="M 572 2006 
L 1453 4856 
L 1984 4856 
L 1103 2006 
L 1984 -844 
L 1453 -844 
L 572 2006 
z
" transform="scale(0.015625)"/>
       <path id="DejaVuSans-Oblique-43" d="M 4447 4306 
L 4319 3641 
Q 4019 3944 3683 4091 
Q 3347 4238 2956 4238 
Q 2422 4238 2017 3981 
Q 1613 3725 1319 3200 
Q 1131 2863 1032 2486 
Q 934 2109 934 1728 
Q 934 1091 1264 756 
Q 1594 422 2222 422 
Q 2656 422 3056 561 
Q 3456 700 3834 978 
L 3688 231 
Q 3316 72 2936 -9 
Q 2556 -91 2175 -91 
Q 1278 -91 773 396 
Q 269 884 269 1753 
Q 269 2309 461 2846 
Q 653 3384 1013 3828 
Q 1394 4300 1883 4525 
Q 2372 4750 3022 4750 
Q 3422 4750 3780 4639 
Q 4138 4528 4447 4306 
z
" transform="scale(0.015625)"/>
       <path id="DejaVuSans-27e9" d="M 1925 2006 
L 1044 -844 
L 513 -844 
L 1394 2006 
L 513 4856 
L 1044 4856 
L 1925 2006 
z
" transform="scale(0.015625)"/>
      </defs>
      <use xlink:href="#DejaVuSans-7c" transform="translate(0 0.578125)"/>
      <use xlink:href="#DejaVuSans-27e8" transform="translate(33.691406 0.578125)"/>
      <use xlink:href="#DejaVuSans-30" transform="translate(72.705078 0.578125)"/>
      <use xlink:href="#DejaVuSans-Oblique-43" transform="translate(137.285156 -15.828125) scale(0.7)"/>
      <use xlink:href="#DejaVuSans-7c" transform="translate(188.896484 0.578125)"/>
      <use xlink:href="#DejaVuSans-Oblique-6e" transform="translate(222.587891 0.578125)"/>
      <use xlink:href="#DejaVuSans-Oblique-58" transform="translate(285.966797 -15.828125) scale(0.7)"/>
      <use xlink:href="#DejaVuSans-27e9" transform="translate(336.655273 0.578125)"/>
      <use xlink:href="#DejaVuSans-7c" transform="translate(375.668945 0.578125)"/>
     </g>
    </g>
   </g>
   <g id="line2d_27">
    <path d="M 67.354583 18.118365 
M 77.590812 31.859145 
M 87.82704 45.279922 
M 98.063269 58.617571 
M 108.299497 71.916795 
M 118.535726 85.19369 
M 128.771955 98.456152 
M 139.008183 111.708466 
M 149.244412 124.953173 
M 159.48064 138.192088 
M 169.716869 151.426374 
M 179.953098 164.656899 
M 190.189326 177.884335 
M 200.425555 191.109061 
M 210.661783 204.331557 
M 220.898012 217.552105 
M 231.134241 230.770954 
M 241.370469 243.988325 
M 251.606698 257.20442 
M 261.842926 270.419235 
M 272.079155 283.633012 
M 282.315384 296.845829 
M 292.551612 310.05779 
M 302.787841 323.268931 
" clip-path="url(#p85e13fc412)" style="fill: none; stroke: #1f77b4; stroke-width: 1.5; stroke-linecap: square"/>
    <defs>
     <path id="m12453ee7cc" d="M 0 1.5 
C 0.397805 1.5 0.77937 1.341951 1.06066 1.06066 
C 1.341951 0.77937 1.5 0.397805 1.5 0 
C 1.5 -0.397805 1.341951 -0.77937 1.06066 -1.06066 
C 0.77937 -1.341951 0.397805 -1.5 0 -1.5 
C -0.397805 -1.5 -0.77937 -1.341951 -1.06066 -1.06066 
C -1.341951 -0.77937 -1.5 -0.397805 -1.5 0 
C -1.5 0.397805 -1.341951 0.77937 -1.06066 1.06066 
C -0.77937 1.341951 -0.397805 1.5 0 1.5 
z
" style="stroke: #1f77b4"/>
    </defs>
    <g clip-path="url(#p85e13fc412)">
     <use xlink:href="#m12453ee7cc" x="67.354583" y="18.118365" style="fill: #1f77b4; stroke: #1f77b4"/>
     <use xlink:href="#m12453ee7cc" x="77.590812" y="31.859145" style="fill: #1f77b4; stroke: #1f77b4"/>
     <use xlink:href="#m12453ee7cc" x="87.82704" y="45.279922" style="fill: #1f77b4; stroke: #1f77b4"/>
     <use xlink:href="#m12453ee7cc" x="98.063269" y="58.617571" style="fill: #1f77b4; stroke: #1f77b4"/>
     <use xlink:href="#m12453ee7cc" x="108.299497" y="71.916795" style="fill: #1f77b4; stroke: #1f77b4"/>
     <use xlink:href="#m12453ee7cc" x="118.535726" y="85.19369" style="fill: #1f77b4; stroke: #1f77b4"/>
     <use xlink:href="#m12453ee7cc" x="128.771955" y="98.456152" style="fill: #1f77b4; stroke: #1f77b4"/>
     <use xlink:href="#m12453ee7cc" x="139.008183" y="111.708466" style="fill: #1f77b4; stroke: #1f77b4"/>
     <use xlink:href="#m12453ee7cc" x="149.244412" y="124.953173" style="fill: #1f77b4; stroke: #1f77b4"/>
     <use xlink:href="#m12453ee7cc" x="159.48064" y="138.192088" style="fill: #1f77b4; stroke: #1f77b4"/>
     <use xlink:href="#m12453ee7cc" x="169.716869" y="151.426374" style="fill: #1f77b4; stroke: #1f77b4"/>
     <use xlink:href="#m12453ee7cc" x="179.953098" y="164.656899" style="fill: #1f77b4; stroke: #1f77b4"/>
     <use xlink:href="#m12453ee7cc" x="190.189326" y="177.884335" style="fill: #1f77b4; stroke: #1f77b4"/>
     <use xlink:href="#m12453ee7cc" x="200.425555" y="191.109061" style="fill: #1f77b4; stroke: #1f77b4"/>
     <use xlink:href="#m12453ee7cc" x="210.661783" y="204.331557" style="fill: #1f77b4; stroke: #1f77b4"/>
     <use xlink:href="#m12453ee7cc" x="220.898012" y="217.552105" style="fill: #1f77b4; stroke: #1f77b4"/>
     <use xlink:href="#m12453ee7cc" x="231.134241" y="230.770954" style="fill: #1f77b4; stroke: #1f77b4"/>
     <use xlink:href="#m12453ee7cc" x="241.370469" y="243.988325" style="fill: #1f77b4; stroke: #1f77b4"/>
     <use xlink:href="#m12453ee7cc" x="251.606698" y="257.20442" style="fill: #1f77b4; stroke: #1f77b4"/>
     <use xlink:href="#m12453ee7cc" x="261.842926" y="270.419235" style="fill: #1f77b4; stroke: #1f77b4"/>
     <use xlink:href="#m12453ee7cc" x="272.079155" y="283.633012" style="fill: #1f77b4; stroke: #1f77b4"/>
     <use xlink:href="#m12453ee7cc" x="282.315384" y="296.845829" style="fill: #1f77b4; stroke: #1f77b4"/>
     <use xlink:href="#m12453ee7cc" x="292.551612" y="310.05779" style="fill: #1f77b4; stroke: #1f77b4"/>
     <use xlink:href="#m12453ee7cc" x="302.787841" y="323.268931" style="fill: #1f77b4; stroke: #1f77b4"/>
     <use xlink:href="#m12453ee7cc" x="313.024069" y="336.479387" style="fill: #1f77b4; stroke: #1f77b4"/>
     <use xlink:href="#m12453ee7cc" x="323.260298" y="349.689114" style="fill: #1f77b4; stroke: #1f77b4"/>
     <use xlink:href="#m12453ee7cc" x="333.496527" y="362.898243" style="fill: #1f77b4; stroke: #1f77b4"/>
     <use xlink:href="#m12453ee7cc" x="343.732755" y="376.106796" style="fill: #1f77b4; stroke: #1f77b4"/>
     <use xlink:href="#m12453ee7cc" x="353.968984" y="389.314839" style="fill: #1f77b4; stroke: #1f77b4"/>
    </g>
   </g>
   <g id="line2d_28">
    <path d="M 67.354583 18.118365 
M 77.590812 34.206095 
M 87.82704 49.973829 
M 98.063269 65.658526 
M 108.299497 81.30469 
M 118.535726 96.928575 
M 128.771955 112.538089 
M 139.008183 128.137326 
M 149.244412 143.729041 
M 159.48064 159.314954 
M 169.716869 174.896203 
M 179.953098 190.473687 
M 190.189326 206.048033 
M 200.425555 221.61981 
M 210.661783 237.189298 
M 220.898012 252.756846 
M 231.134241 268.322739 
M 241.370469 283.887036 
M 251.606698 299.450073 
M 261.842926 315.011923 
" clip-path="url(#p85e13fc412)" style="fill: none; stroke: #ff7f0e; stroke-width: 1.5; stroke-linecap: square"/>
    <defs>
     <path id="m9f00656f3c" d="M 0 1.5 
C 0.397805 1.5 0.77937 1.341951 1.06066 1.06066 
C 1.341951 0.77937 1.5 0.397805 1.5 0 
C 1.5 -0.397805 1.341951 -0.77937 1.06066 -1.06066 
C 0.77937 -1.341951 0.397805 -1.5 0 -1.5 
C -0.397805 -1.5 -0.77937 -1.341951 -1.06066 -1.06066 
C -1.341951 -0.77937 -1.5 -0.397805 -1.5 0 
C -1.5 0.397805 -1.341951 0.77937 -1.06066 1.06066 
C -0.77937 1.341951 -0.397805 1.5 0 1.5 
z
" style="stroke: #ff7f0e"/>
    </defs>
    <g clip-path="url(#p85e13fc412)">
     <use xlink:href="#m9f00656f3c" x="67.354583" y="18.118365" style="fill: #ff7f0e; stroke: #ff7f0e"/>
     <use xlink:href="#m9f00656f3c" x="77.590812" y="34.206095" style="fill: #ff7f0e; stroke: #ff7f0e"/>
     <use xlink:href="#m9f00656f3c" x="87.82704" y="49.973829" style="fill: #ff7f0e; stroke: #ff7f0e"/>
     <use xlink:href="#m9f00656f3c" x="98.063269" y="65.658526" style="fill: #ff7f0e; stroke: #ff7f0e"/>
     <use xlink:href="#m9f00656f3c" x="108.299497" y="81.30469" style="fill: #ff7f0e; stroke: #ff7f0e"/>
     <use xlink:href="#m9f00656f3c" x="118.535726" y="96.928575" style="fill: #ff7f0e; stroke: #ff7f0e"/>
     <use xlink:href="#m9f00656f3c" x="128.771955" y="112.538089" style="fill: #ff7f0e; stroke: #ff7f0e"/>
     <use xlink:href="#m9f00656f3c" x="139.008183" y="128.137326" style="fill: #ff7f0e; stroke: #ff7f0e"/>
     <use xlink:href="#m9f00656f3c" x="149.244412" y="143.729041" style="fill: #ff7f0e; stroke: #ff7f0e"/>
     <use xlink:href="#m9f00656f3c" x="159.48064" y="159.314954" style="fill: #ff7f0e; stroke: #ff7f0e"/>
     <use xlink:href="#m9f00656f3c" x="169.716869" y="174.896203" style="fill: #ff7f0e; stroke: #ff7f0e"/>
     <use xlink:href="#m9f00656f3c" x="179.953098" y="190.473687" style="fill: #ff7f0e; stroke: #ff7f0e"/>
     <use xlink:href="#m9f00656f3c" x="190.189326" y="206.048033" style="fill: #ff7f0e; stroke: #ff7f0e"/>
     <use xlink:href="#m9f00656f3c" x="200.425555" y="221.61981" style="fill: #ff7f0e; stroke: #ff7f0e"/>
     <use xlink:href="#m9f00656f3c" x="210.661783" y="237.189298" style="fill: #ff7f0e; stroke: #ff7f0e"/>
     <use xlink:href="#m9f00656f3c" x="220.898012" y="252.756846" style="fill: #ff7f0e; stroke: #ff7f0e"/>
     <use xlink:href="#m9f00656f3c" x="231.134241" y="268.322739" style="fill: #ff7f0e; stroke: #ff7f0e"/>
     <use xlink:href="#m9f00656f3c" x="241.370469" y="283.887036" style="fill: #ff7f0e; stroke: #ff7f0e"/>
     <use xlink:href="#m9f00656f3c" x="251.606698" y="299.450073" style="fill: #ff7f0e; stroke: #ff7f0e"/>
     <use xlink:href="#m9f00656f3c" x="261.842926" y="315.011923" style="fill: #ff7f0e; stroke: #ff7f0e"/>
     <use xlink:href="#m9f00656f3c" x="272.079155" y="330.57259" style="fill: #ff7f0e; stroke: #ff7f0e"/>
     <use xlink:href="#m9f00656f3c" x="282.315384" y="346.132458" style="fill: #ff7f0e; stroke: #ff7f0e"/>
     <use xlink:href="#m9f00656f3c" x="292.551612" y="361.691382" style="fill: #ff7f0e; stroke: #ff7f0e"/>
     <use xlink:href="#m9f00656f3c" x="302.787841" y="377.249496" style="fill: #ff7f0e; stroke: #ff7f0e"/>
     <use xlink:href="#m9f00656f3c" x="313.024069" y="392.806946" style="fill: #ff7f0e; stroke: #ff7f0e"/>
    </g>
   </g>
   <g id="line2d_29">
    <path d="M 67.354583 18.118365 
M 77.590812 32.306338 
M 87.82704 46.1744 
M 98.063269 59.959347 
M 108.299497 73.70579 
M 118.535726 87.430022 
M 128.771955 101.139711 
M 139.008183 114.839294 
M 149.244412 128.531287 
M 159.48064 142.217461 
M 169.716869 155.899045 
M 179.953098 169.576785 
M 190.189326 183.251455 
M 200.425555 196.923474 
M 210.661783 210.59323 
M 220.898012 224.261042 
M 231.134241 237.927211 
M 241.370469 251.591824 
M 251.606698 265.255132 
M 261.842926 278.917243 
M 272.079155 292.578315 
M 282.315384 306.238397 
M 292.551612 319.89761 
" clip-path="url(#p85e13fc412)" style="fill: none; stroke: #2ca02c; stroke-width: 1.5; stroke-linecap: square"/>
    <defs>
     <path id="m5044baa828" d="M 0 1.5 
C 0.397805 1.5 0.77937 1.341951 1.06066 1.06066 
C 1.341951 0.77937 1.5 0.397805 1.5 0 
C 1.5 -0.397805 1.341951 -0.77937 1.06066 -1.06066 
C 0.77937 -1.341951 0.397805 -1.5 0 -1.5 
C -0.397805 -1.5 -0.77937 -1.341951 -1.06066 -1.06066 
C -1.341951 -0.77937 -1.5 -0.397805 -1.5 0 
C -1.5 0.397805 -1.341951 0.77937 -1.06066 1.06066 
C -0.77937 1.341951 -0.397805 1.5 0 1.5 
z
" style="stroke: #2ca02c"/>
    </defs>
    <g clip-path="url(#p85e13fc412)">
     <use xlink:href="#m5044baa828" x="67.354583" y="18.118365" style="fill: #2ca02c; stroke: #2ca02c"/>
     <use xlink:href="#m5044baa828" x="77.590812" y="32.306338" style="fill: #2ca02c; stroke: #2ca02c"/>
     <use xlink:href="#m5044baa828" x="87.82704" y="46.1744" style="fill: #2ca02c; stroke: #2ca02c"/>
     <use xlink:href="#m5044baa828" x="98.063269" y="59.959347" style="fill: #2ca02c; stroke: #2ca02c"/>
     <use xlink:href="#m5044baa828" x="108.299497" y="73.70579" style="fill: #2ca02c; stroke: #2ca02c"/>
     <use xlink:href="#m5044baa828" x="118.535726" y="87.430022" style="fill: #2ca02c; stroke: #2ca02c"/>
     <use xlink:href="#m5044baa828" x="128.771955" y="101.139711" style="fill: #2ca02c; stroke: #2ca02c"/>
     <use xlink:href="#m5044baa828" x="139.008183" y="114.839294" style="fill: #2ca02c; stroke: #2ca02c"/>
     <use xlink:href="#m5044baa828" x="149.244412" y="128.531287" style="fill: #2ca02c; stroke: #2ca02c"/>
     <use xlink:href="#m5044baa828" x="159.48064" y="142.217461" style="fill: #2ca02c; stroke: #2ca02c"/>
     <use xlink:href="#m5044baa828" x="169.716869" y="155.899045" style="fill: #2ca02c; stroke: #2ca02c"/>
     <use xlink:href="#m5044baa828" x="179.953098" y="169.576785" style="fill: #2ca02c; stroke: #2ca02c"/>
     <use xlink:href="#m5044baa828" x="190.189326" y="183.251455" style="fill: #2ca02c; stroke: #2ca02c"/>
     <use xlink:href="#m5044baa828" x="200.425555" y="196.923474" style="fill: #2ca02c; stroke: #2ca02c"/>
     <use xlink:href="#m5044baa828" x="210.661783" y="210.59323" style="fill: #2ca02c; stroke: #2ca02c"/>
     <use xlink:href="#m5044baa828" x="220.898012" y="224.261042" style="fill: #2ca02c; stroke: #2ca02c"/>
     <use xlink:href="#m5044baa828" x="231.134241" y="237.927211" style="fill: #2ca02c; stroke: #2ca02c"/>
     <use xlink:href="#m5044baa828" x="241.370469" y="251.591824" style="fill: #2ca02c; stroke: #2ca02c"/>
     <use xlink:href="#m5044baa828" x="251.606698" y="265.255132" style="fill: #2ca02c; stroke: #2ca02c"/>
     <use xlink:href="#m5044baa828" x="261.842926" y="278.917243" style="fill: #2ca02c; stroke: #2ca02c"/>
     <use xlink:href="#m5044baa828" x="272.079155" y="292.578315" style="fill: #2ca02c; stroke: #2ca02c"/>
     <use xlink:href="#m5044baa828" x="282.315384" y="306.238397" style="fill: #2ca02c; stroke: #2ca02c"/>
     <use xlink:href="#m5044baa828" x="292.551612" y="319.89761" style="fill: #2ca02c; stroke: #2ca02c"/>
     <use xlink:href="#m5044baa828" x="302.787841" y="333.556033" style="fill: #2ca02c; stroke: #2ca02c"/>
     <use xlink:href="#m5044baa828" x="313.024069" y="347.213723" style="fill: #2ca02c; stroke: #2ca02c"/>
     <use xlink:href="#m5044baa828" x="323.260298" y="360.870744" style="fill: #2ca02c; stroke: #2ca02c"/>
     <use xlink:href="#m5044baa828" x="333.496527" y="374.527139" style="fill: #2ca02c; stroke: #2ca02c"/>
     <use xlink:href="#m5044baa828" x="343.732755" y="388.182944" style="fill: #2ca02c; stroke: #2ca02c"/>
    </g>
   </g>
   <g id="patch_3">
    <path d="M 52.00024 290.64351 
L 52.00024 18.118365 
" style="fill: none; stroke: #000000; stroke-width: 0.8; stroke-linejoin: miter; stroke-linecap: square"/>
   </g>
   <g id="patch_4">
    <path d="M 389.795784 290.64351 
L 389.795784 18.118365 
" style="fill: none; stroke: #000000; stroke-width: 0.8; stroke-linejoin: miter; stroke-linecap: square"/>
   </g>
   <g id="patch_5">
    <path d="M 52.00024 290.64351 
L 389.795784 290.64351 
" style="fill: none; stroke: #000000; stroke-width: 0.8; stroke-linejoin: miter; stroke-linecap: square"/>
   </g>
   <g id="patch_6">
    <path d="M 52.00024 18.118365 
L 389.795784 18.118365 
" style="fill: none; stroke: #000000; stroke-width: 0.8; stroke-linejoin: miter; stroke-linecap: square"/>
   </g>
   <g id="text_16">
    <!-- SrOPh X-C a$_{2}$ -->
    <g transform="translate(181.598012 12.118365) scale(0.12 -0.12)">
     <defs>
      <path id="DejaVuSans-53" d="M 3425 4513 
L 3425 3897 
Q 3066 4069 2747 4153 
Q 2428 4238 2131 4238 
Q 1616 4238 1336 4038 
Q 1056 3838 1056 3469 
Q 1056 3159 1242 3001 
Q 1428 2844 1947 2747 
L 2328 2669 
Q 3034 2534 3370 2195 
Q 3706 1856 3706 1288 
Q 3706 609 3251 259 
Q 2797 -91 1919 -91 
Q 1588 -91 1214 -16 
Q 841 59 441 206 
L 441 856 
Q 825 641 1194 531 
Q 1563 422 1919 422 
Q 2459 422 2753 634 
Q 3047 847 3047 1241 
Q 3047 1584 2836 1778 
Q 2625 1972 2144 2069 
L 1759 2144 
Q 1053 2284 737 2584 
Q 422 2884 422 3419 
Q 422 4038 858 4394 
Q 1294 4750 2059 4750 
Q 2388 4750 2728 4690 
Q 3069 4631 3425 4513 
z
" transform="scale(0.015625)"/>
      <path id="DejaVuSans-72" d="M 2631 2963 
Q 2534 3019 2420 3045 
Q 2306 3072 2169 3072 
Q 1681 3072 1420 2755 
Q 1159 2438 1159 1844 
L 1159 0 
L 581 0 
L 581 3500 
L 1159 3500 
L 1159 2956 
Q 1341 3275 1631 3429 
Q 1922 3584 2338 3584 
Q 2397 3584 2469 3576 
Q 2541 3569 2628 3553 
L 2631 2963 
z
" transform="scale(0.015625)"/>
      <path id="DejaVuSans-4f" d="M 2522 4238 
Q 1834 4238 1429 3725 
Q 1025 3213 1025 2328 
Q 1025 1447 1429 934 
Q 1834 422 2522 422 
Q 3209 422 3611 934 
Q 4013 1447 4013 2328 
Q 4013 3213 3611 3725 
Q 3209 4238 2522 4238 
z
M 2522 4750 
Q 3503 4750 4090 4092 
Q 4678 3434 4678 2328 
Q 4678 1225 4090 567 
Q 3503 -91 2522 -91 
Q 1538 -91 948 565 
Q 359 1222 359 2328 
Q 359 3434 948 4092 
Q 1538 4750 2522 4750 
z
" transform="scale(0.015625)"/>
      <path id="DejaVuSans-50" d="M 1259 4147 
L 1259 2394 
L 2053 2394 
Q 2494 2394 2734 2622 
Q 2975 2850 2975 3272 
Q 2975 3691 2734 3919 
Q 2494 4147 2053 4147 
L 1259 4147 
z
M 628 4666 
L 2053 4666 
Q 2838 4666 3239 4311 
Q 3641 3956 3641 3272 
Q 3641 2581 3239 2228 
Q 2838 1875 2053 1875 
L 1259 1875 
L 1259 0 
L 628 0 
L 628 4666 
z
" transform="scale(0.015625)"/>
      <path id="DejaVuSans-68" d="M 3513 2113 
L 3513 0 
L 2938 0 
L 2938 2094 
Q 2938 2591 2744 2837 
Q 2550 3084 2163 3084 
Q 1697 3084 1428 2787 
Q 1159 2491 1159 1978 
L 1159 0 
L 581 0 
L 581 4863 
L 1159 4863 
L 1159 2956 
Q 1366 3272 1645 3428 
Q 1925 3584 2291 3584 
Q 2894 3584 3203 3211 
Q 3513 2838 3513 2113 
z
" transform="scale(0.015625)"/>
      <path id="DejaVuSans-20" transform="scale(0.015625)"/>
      <path id="DejaVuSans-58" d="M 403 4666 
L 1081 4666 
L 2241 2931 
L 3406 4666 
L 4084 4666 
L 2584 2425 
L 4184 0 
L 3506 0 
L 2194 1984 
L 872 0 
L 191 0 
L 1856 2491 
L 403 4666 
z
" transform="scale(0.015625)"/>
      <path id="DejaVuSans-2d" d="M 313 2009 
L 1997 2009 
L 1997 1497 
L 313 1497 
L 313 2009 
z
" transform="scale(0.015625)"/>
      <path id="DejaVuSans-43" d="M 4122 4306 
L 4122 3641 
Q 3803 3938 3442 4084 
Q 3081 4231 2675 4231 
Q 1875 4231 1450 3742 
Q 1025 3253 1025 2328 
Q 1025 1406 1450 917 
Q 1875 428 2675 428 
Q 3081 428 3442 575 
Q 3803 722 4122 1019 
L 4122 359 
Q 3791 134 3420 21 
Q 3050 -91 2638 -91 
Q 1578 -91 968 557 
Q 359 1206 359 2328 
Q 359 3453 968 4101 
Q 1578 4750 2638 4750 
Q 3056 4750 3426 4639 
Q 3797 4528 4122 4306 
z
" transform="scale(0.015625)"/>
      <path id="DejaVuSans-61" d="M 2194 1759 
Q 1497 1759 1228 1600 
Q 959 1441 959 1056 
Q 959 750 1161 570 
Q 1363 391 1709 391 
Q 2188 391 2477 730 
Q 2766 1069 2766 1631 
L 2766 1759 
L 2194 1759 
z
M 3341 1997 
L 3341 0 
L 2766 0 
L 2766 531 
Q 2569 213 2275 61 
Q 1981 -91 1556 -91 
Q 1019 -91 701 211 
Q 384 513 384 1019 
Q 384 1609 779 1909 
Q 1175 2209 1959 2209 
L 2766 2209 
L 2766 2266 
Q 2766 2663 2505 2880 
Q 2244 3097 1772 3097 
Q 1472 3097 1187 3025 
Q 903 2953 641 2809 
L 641 3341 
Q 956 3463 1253 3523 
Q 1550 3584 1831 3584 
Q 2591 3584 2966 3190 
Q 3341 2797 3341 1997 
z
" transform="scale(0.015625)"/>
     </defs>
     <use xlink:href="#DejaVuSans-53" transform="translate(0 0.015625)"/>
     <use xlink:href="#DejaVuSans-72" transform="translate(63.476562 0.015625)"/>
     <use xlink:href="#DejaVuSans-4f" transform="translate(104.589844 0.015625)"/>
     <use xlink:href="#DejaVuSans-50" transform="translate(183.300781 0.015625)"/>
     <use xlink:href="#DejaVuSans-68" transform="translate(243.603516 0.015625)"/>
     <use xlink:href="#DejaVuSans-20" transform="translate(306.982422 0.015625)"/>
     <use xlink:href="#DejaVuSans-58" transform="translate(338.769531 0.015625)"/>
     <use xlink:href="#DejaVuSans-2d" transform="translate(407.275391 0.015625)"/>
     <use xlink:href="#DejaVuSans-43" transform="translate(443.359375 0.015625)"/>
     <use xlink:href="#DejaVuSans-20" transform="translate(513.183594 0.015625)"/>
     <use xlink:href="#DejaVuSans-61" transform="translate(544.970703 0.015625)"/>
     <use xlink:href="#DejaVuSans-32" transform="translate(607.207031 -16.390625) scale(0.7)"/>
    </g>
   </g>
   <g id="legend_1">
    <g id="patch_7">
     <path d="M 413.685561 73.418365 
L 571.285561 73.418365 
Q 573.285561 73.418365 573.285561 71.418365 
L 573.285561 25.118365 
Q 573.285561 23.118365 571.285561 23.118365 
L 413.685561 23.118365 
Q 411.685561 23.118365 411.685561 25.118365 
L 411.685561 71.418365 
Q 411.685561 73.418365 413.685561 73.418365 
z
" style="fill: #ffffff; opacity: 0.8; stroke: #cccccc; stroke-linejoin: miter"/>
    </g>
    <g id="line2d_30">
     <path d="M 415.685561 32.338678 
L 423.185561 32.338678 
L 430.685561 32.338678 
" style="fill: none; stroke: #1f77b4; stroke-width: 1.5; stroke-linecap: square"/>
     <g>
      <use xlink:href="#m12453ee7cc" x="423.185561" y="32.338678" style="fill: #1f77b4; stroke: #1f77b4"/>
     </g>
    </g>
    <g id="text_17">
     <!-- $\tilde{\nu}_{13}=$ 983cm$^{-1}$, $\Delta Q=$  +0 -->
     <g transform="translate(432.185561 35.838678) scale(0.1 -0.1)">
      <defs>
       <path id="DejaVuSans-303" d="M -1621 4281 
L -1799 4453 
Q -1867 4516 -1919 4545 
Q -1971 4575 -2011 4575 
Q -2130 4575 -2186 4461 
Q -2242 4347 -2249 4091 
L -2639 4091 
Q -2633 4513 -2473 4742 
Q -2314 4972 -2030 4972 
Q -1911 4972 -1811 4928 
Q -1711 4884 -1596 4781 
L -1417 4609 
Q -1349 4547 -1297 4517 
Q -1246 4488 -1205 4488 
Q -1086 4488 -1030 4602 
Q -974 4716 -967 4972 
L -577 4972 
Q -583 4550 -742 4320 
Q -902 4091 -1186 4091 
Q -1305 4091 -1405 4134 
Q -1505 4178 -1621 4281 
z
" transform="scale(0.015625)"/>
       <path id="DejaVuSans-Oblique-3bd" d="M 959 0 
L 572 3500 
L 1191 3500 
L 1522 563 
Q 1972 950 2391 1488 
Q 2706 1891 2788 2241 
Q 2825 2406 2809 2719 
Q 2794 3091 2544 3500 
L 3125 3500 
L 3125 3500 
Q 3288 3222 3353 2834 
Q 3416 2478 3369 2234 
Q 3250 1622 2719 1075 
Q 2025 363 1572 0 
L 959 0 
z
" transform="scale(0.015625)"/>
       <path id="DejaVuSans-3d" d="M 678 2906 
L 4684 2906 
L 4684 2381 
L 678 2381 
L 678 2906 
z
M 678 1631 
L 4684 1631 
L 4684 1100 
L 678 1100 
L 678 1631 
z
" transform="scale(0.015625)"/>
       <path id="DejaVuSansMono-20" transform="scale(0.015625)"/>
       <path id="DejaVuSansMono-39" d="M 1863 2069 
Q 2266 2069 2495 2359 
Q 2725 2650 2725 3163 
Q 2725 3675 2495 3965 
Q 2266 4256 1863 4256 
Q 1444 4256 1231 3979 
Q 1019 3703 1019 3163 
Q 1019 2619 1230 2344 
Q 1441 2069 1863 2069 
z
M 738 97 
L 738 678 
Q 934 563 1156 502 
Q 1378 441 1619 441 
Q 2219 441 2526 892 
Q 2834 1344 2834 2222 
Q 2688 1909 2422 1742 
Q 2156 1575 1813 1575 
Q 1138 1575 767 1990 
Q 397 2406 397 3169 
Q 397 3922 776 4336 
Q 1156 4750 1850 4750 
Q 2663 4750 3041 4165 
Q 3419 3581 3419 2328 
Q 3419 1150 2964 529 
Q 2509 -91 1644 -91 
Q 1416 -91 1184 -42 
Q 953 6 738 97 
z
" transform="scale(0.015625)"/>
       <path id="DejaVuSansMono-38" d="M 1925 2216 
Q 1503 2216 1273 1980 
Q 1044 1744 1044 1313 
Q 1044 881 1276 642 
Q 1509 403 1925 403 
Q 2350 403 2579 639 
Q 2809 875 2809 1313 
Q 2809 1741 2576 1978 
Q 2344 2216 1925 2216 
z
M 1375 2478 
Q 972 2581 745 2862 
Q 519 3144 519 3541 
Q 519 4097 897 4423 
Q 1275 4750 1925 4750 
Q 2578 4750 2956 4423 
Q 3334 4097 3334 3541 
Q 3334 3144 3107 2862 
Q 2881 2581 2478 2478 
Q 2947 2375 3195 2062 
Q 3444 1750 3444 1253 
Q 3444 622 3041 265 
Q 2638 -91 1925 -91 
Q 1213 -91 811 264 
Q 409 619 409 1247 
Q 409 1747 657 2061 
Q 906 2375 1375 2478 
z
M 1147 3481 
Q 1147 3106 1347 2909 
Q 1547 2713 1925 2713 
Q 2306 2713 2506 2909 
Q 2706 3106 2706 3481 
Q 2706 3863 2507 4063 
Q 2309 4263 1925 4263 
Q 1547 4263 1347 4061 
Q 1147 3859 1147 3481 
z
" transform="scale(0.015625)"/>
       <path id="DejaVuSansMono-33" d="M 2425 2497 
Q 2884 2375 3128 2064 
Q 3372 1753 3372 1288 
Q 3372 644 2939 276 
Q 2506 -91 1741 -91 
Q 1419 -91 1084 -31 
Q 750 28 428 141 
L 428 769 
Q 747 603 1056 522 
Q 1366 441 1672 441 
Q 2191 441 2469 675 
Q 2747 909 2747 1350 
Q 2747 1756 2469 1995 
Q 2191 2234 1716 2234 
L 1234 2234 
L 1234 2753 
L 1716 2753 
Q 2150 2753 2394 2943 
Q 2638 3134 2638 3475 
Q 2638 3834 2411 4026 
Q 2184 4219 1766 4219 
Q 1488 4219 1191 4156 
Q 894 4094 569 3969 
L 569 4550 
Q 947 4650 1242 4700 
Q 1538 4750 1766 4750 
Q 2447 4750 2855 4408 
Q 3263 4066 3263 3500 
Q 3263 3116 3048 2859 
Q 2834 2603 2425 2497 
z
" transform="scale(0.015625)"/>
       <path id="DejaVuSansMono-63" d="M 3316 178 
Q 3084 44 2839 -23 
Q 2594 -91 2338 -91 
Q 1525 -91 1067 396 
Q 609 884 609 1747 
Q 609 2609 1067 3096 
Q 1525 3584 2338 3584 
Q 2591 3584 2831 3518 
Q 3072 3453 3316 3316 
L 3316 2713 
Q 3088 2916 2858 3006 
Q 2628 3097 2338 3097 
Q 1797 3097 1506 2747 
Q 1216 2397 1216 1747 
Q 1216 1100 1508 748 
Q 1800 397 2338 397 
Q 2638 397 2875 489 
Q 3113 581 3316 775 
L 3316 178 
z
" transform="scale(0.015625)"/>
       <path id="DejaVuSansMono-6d" d="M 2113 3144 
Q 2219 3369 2383 3476 
Q 2547 3584 2778 3584 
Q 3200 3584 3373 3257 
Q 3547 2931 3547 2028 
L 3547 0 
L 3022 0 
L 3022 2003 
Q 3022 2744 2939 2923 
Q 2856 3103 2638 3103 
Q 2388 3103 2295 2911 
Q 2203 2719 2203 2003 
L 2203 0 
L 1678 0 
L 1678 2003 
Q 1678 2753 1589 2928 
Q 1500 3103 1269 3103 
Q 1041 3103 952 2911 
Q 863 2719 863 2003 
L 863 0 
L 341 0 
L 341 3500 
L 863 3500 
L 863 3200 
Q 966 3388 1120 3486 
Q 1275 3584 1472 3584 
Q 1709 3584 1867 3475 
Q 2025 3366 2113 3144 
z
" transform="scale(0.015625)"/>
       <path id="DejaVuSansMono-2c" d="M 1569 947 
L 2356 947 
L 2356 300 
L 1741 -897 
L 1259 -897 
L 1569 300 
L 1569 947 
z
" transform="scale(0.015625)"/>
       <path id="DejaVuSans-394" d="M 2188 4044 
L 906 525 
L 3472 525 
L 2188 4044 
z
M 50 0 
L 1831 4666 
L 2547 4666 
L 4325 0 
L 50 0 
z
" transform="scale(0.015625)"/>
       <path id="DejaVuSans-Oblique-51" d="M 2309 -84 
Q 2275 -88 2237 -89 
Q 2200 -91 2125 -91 
Q 1250 -91 756 411 
Q 263 913 263 1797 
Q 263 2319 452 2844 
Q 641 3369 978 3788 
Q 1369 4269 1858 4509 
Q 2347 4750 2938 4750 
Q 3794 4750 4287 4245 
Q 4781 3741 4781 2869 
Q 4781 1928 4265 1147 
Q 3750 366 2919 44 
L 3553 -825 
L 2847 -825 
L 2309 -84 
z
M 2919 4238 
Q 2400 4238 2003 3986 
Q 1606 3734 1313 3219 
Q 1125 2891 1026 2522 
Q 928 2153 928 1778 
Q 928 1128 1239 775 
Q 1550 422 2119 422 
Q 2631 422 3032 676 
Q 3434 931 3719 1434 
Q 3909 1772 4009 2142 
Q 4109 2513 4109 2881 
Q 4109 3528 3796 3883 
Q 3484 4238 2919 4238 
z
" transform="scale(0.015625)"/>
       <path id="DejaVuSansMono-2b" d="M 2188 3659 
L 2188 2272 
L 3578 2272 
L 3578 1741 
L 2188 1741 
L 2188 353 
L 1663 353 
L 1663 1741 
L 275 1741 
L 275 2272 
L 1663 2272 
L 1663 3659 
L 2188 3659 
z
" transform="scale(0.015625)"/>
       <path id="DejaVuSansMono-30" d="M 1509 2344 
Q 1509 2516 1629 2641 
Q 1750 2766 1919 2766 
Q 2094 2766 2219 2641 
Q 2344 2516 2344 2344 
Q 2344 2169 2220 2047 
Q 2097 1925 1919 1925 
Q 1744 1925 1626 2044 
Q 1509 2163 1509 2344 
z
M 1925 4250 
Q 1484 4250 1267 3775 
Q 1050 3300 1050 2328 
Q 1050 1359 1267 884 
Q 1484 409 1925 409 
Q 2369 409 2586 884 
Q 2803 1359 2803 2328 
Q 2803 3300 2586 3775 
Q 2369 4250 1925 4250 
z
M 1925 4750 
Q 2672 4750 3055 4137 
Q 3438 3525 3438 2328 
Q 3438 1134 3055 521 
Q 2672 -91 1925 -91 
Q 1178 -91 797 521 
Q 416 1134 416 2328 
Q 416 3525 797 4137 
Q 1178 4750 1925 4750 
z
" transform="scale(0.015625)"/>
      </defs>
      <use xlink:href="#DejaVuSans-303" transform="translate(60.199219 3.95)"/>
      <use xlink:href="#DejaVuSans-Oblique-3bd" transform="translate(0 0.684375)"/>
      <use xlink:href="#DejaVuSans-31" transform="translate(56.816406 -15.721875) scale(0.7)"/>
      <use xlink:href="#DejaVuSans-33" transform="translate(101.352539 -15.721875) scale(0.7)"/>
      <use xlink:href="#DejaVuSans-3d" transform="translate(168.105469 0.684375)"/>
      <use xlink:href="#DejaVuSansMono-20" transform="translate(271.376953 0.684375)"/>
      <use xlink:href="#DejaVuSansMono-39" transform="translate(331.582031 0.684375)"/>
      <use xlink:href="#DejaVuSansMono-38" transform="translate(391.787109 0.684375)"/>
      <use xlink:href="#DejaVuSansMono-33" transform="translate(451.992188 0.684375)"/>
      <use xlink:href="#DejaVuSansMono-63" transform="translate(512.197266 0.684375)"/>
      <use xlink:href="#DejaVuSansMono-6d" transform="translate(572.402344 0.684375)"/>
      <use xlink:href="#DejaVuSans-2212" transform="translate(633.564453 38.965625) scale(0.7)"/>
      <use xlink:href="#DejaVuSans-31" transform="translate(692.216797 38.965625) scale(0.7)"/>
      <use xlink:href="#DejaVuSansMono-2c" transform="translate(739.487305 0.684375)"/>
      <use xlink:href="#DejaVuSansMono-20" transform="translate(799.692383 0.684375)"/>
      <use xlink:href="#DejaVuSans-394" transform="translate(859.897461 0.684375)"/>
      <use xlink:href="#DejaVuSans-Oblique-51" transform="translate(928.305664 0.684375)"/>
      <use xlink:href="#DejaVuSans-3d" transform="translate(1026.499023 0.684375)"/>
      <use xlink:href="#DejaVuSansMono-20" transform="translate(1129.770508 0.684375)"/>
      <use xlink:href="#DejaVuSansMono-20" transform="translate(1189.975586 0.684375)"/>
      <use xlink:href="#DejaVuSansMono-2b" transform="translate(1250.180664 0.684375)"/>
      <use xlink:href="#DejaVuSansMono-30" transform="translate(1310.385742 0.684375)"/>
     </g>
    </g>
    <g id="line2d_31">
     <path d="M 415.685561 48.038678 
L 423.185561 48.038678 
L 430.685561 48.038678 
" style="fill: none; stroke: #ff7f0e; stroke-width: 1.5; stroke-linecap: square"/>
     <g>
      <use xlink:href="#m9f00656f3c" x="423.185561" y="48.038678" style="fill: #ff7f0e; stroke: #ff7f0e"/>
     </g>
    </g>
    <g id="text_18">
     <!-- $\tilde{\nu}_{14}=$ 851cm$^{-1}$, $\Delta Q=$  +0 -->
     <g transform="translate(432.185561 51.538678) scale(0.1 -0.1)">
      <defs>
       <path id="DejaVuSansMono-35" d="M 647 4666 
L 3009 4666 
L 3009 4134 
L 1222 4134 
L 1222 2988 
Q 1356 3038 1492 3061 
Q 1628 3084 1766 3084 
Q 2491 3084 2916 2656 
Q 3341 2228 3341 1497 
Q 3341 759 2895 334 
Q 2450 -91 1678 -91 
Q 1306 -91 998 -41 
Q 691 9 447 109 
L 447 750 
Q 734 594 1025 517 
Q 1316 441 1619 441 
Q 2141 441 2423 716 
Q 2706 991 2706 1497 
Q 2706 1997 2414 2275 
Q 2122 2553 1600 2553 
Q 1347 2553 1106 2495 
Q 866 2438 647 2322 
L 647 4666 
z
" transform="scale(0.015625)"/>
       <path id="DejaVuSansMono-31" d="M 844 531 
L 1825 531 
L 1825 4097 
L 769 3859 
L 769 4434 
L 1819 4666 
L 2450 4666 
L 2450 531 
L 3419 531 
L 3419 0 
L 844 0 
L 844 531 
z
" transform="scale(0.015625)"/>
      </defs>
      <use xlink:href="#DejaVuSans-303" transform="translate(60.199219 3.95)"/>
      <use xlink:href="#DejaVuSans-Oblique-3bd" transform="translate(0 0.684375)"/>
      <use xlink:href="#DejaVuSans-31" transform="translate(56.816406 -15.721875) scale(0.7)"/>
      <use xlink:href="#DejaVuSans-34" transform="translate(101.352539 -15.721875) scale(0.7)"/>
      <use xlink:href="#DejaVuSans-3d" transform="translate(168.105469 0.684375)"/>
      <use xlink:href="#DejaVuSansMono-20" transform="translate(271.376953 0.684375)"/>
      <use xlink:href="#DejaVuSansMono-38" transform="translate(331.582031 0.684375)"/>
      <use xlink:href="#DejaVuSansMono-35" transform="translate(391.787109 0.684375)"/>
      <use xlink:href="#DejaVuSansMono-31" transform="translate(451.992188 0.684375)"/>
      <use xlink:href="#DejaVuSansMono-63" transform="translate(512.197266 0.684375)"/>
      <use xlink:href="#DejaVuSansMono-6d" transform="translate(572.402344 0.684375)"/>
      <use xlink:href="#DejaVuSans-2212" transform="translate(633.564453 38.965625) scale(0.7)"/>
      <use xlink:href="#DejaVuSans-31" transform="translate(692.216797 38.965625) scale(0.7)"/>
      <use xlink:href="#DejaVuSansMono-2c" transform="translate(739.487305 0.684375)"/>
      <use xlink:href="#DejaVuSansMono-20" transform="translate(799.692383 0.684375)"/>
      <use xlink:href="#DejaVuSans-394" transform="translate(859.897461 0.684375)"/>
      <use xlink:href="#DejaVuSans-Oblique-51" transform="translate(928.305664 0.684375)"/>
      <use xlink:href="#DejaVuSans-3d" transform="translate(1026.499023 0.684375)"/>
      <use xlink:href="#DejaVuSansMono-20" transform="translate(1129.770508 0.684375)"/>
      <use xlink:href="#DejaVuSansMono-20" transform="translate(1189.975586 0.684375)"/>
      <use xlink:href="#DejaVuSansMono-2b" transform="translate(1250.180664 0.684375)"/>
      <use xlink:href="#DejaVuSansMono-30" transform="translate(1310.385742 0.684375)"/>
     </g>
    </g>
    <g id="line2d_32">
     <path d="M 415.685561 63.838678 
L 423.185561 63.838678 
L 430.685561 63.838678 
" style="fill: none; stroke: #2ca02c; stroke-width: 1.5; stroke-linecap: square"/>
     <g>
      <use xlink:href="#m5044baa828" x="423.185561" y="63.838678" style="fill: #2ca02c; stroke: #2ca02c"/>
     </g>
    </g>
    <g id="text_19">
     <!-- $\tilde{\nu}_{15}=$ 426cm$^{-1}$, $\Delta Q=$  +0 -->
     <g transform="translate(432.185561 67.338678) scale(0.1 -0.1)">
      <defs>
       <path id="DejaVuSansMono-34" d="M 2297 4091 
L 825 1625 
L 2297 1625 
L 2297 4091 
z
M 2194 4666 
L 2925 4666 
L 2925 1625 
L 3547 1625 
L 3547 1113 
L 2925 1113 
L 2925 0 
L 2297 0 
L 2297 1113 
L 319 1113 
L 319 1709 
L 2194 4666 
z
" transform="scale(0.015625)"/>
       <path id="DejaVuSansMono-32" d="M 1166 531 
L 3309 531 
L 3309 0 
L 475 0 
L 475 531 
Q 1059 1147 1496 1619 
Q 1934 2091 2100 2284 
Q 2413 2666 2522 2902 
Q 2631 3138 2631 3384 
Q 2631 3775 2401 3997 
Q 2172 4219 1772 4219 
Q 1488 4219 1175 4116 
Q 863 4013 513 3803 
L 513 4441 
Q 834 4594 1145 4672 
Q 1456 4750 1759 4750 
Q 2444 4750 2861 4386 
Q 3278 4022 3278 3431 
Q 3278 3131 3139 2831 
Q 3000 2531 2688 2169 
Q 2513 1966 2180 1606 
Q 1847 1247 1166 531 
z
" transform="scale(0.015625)"/>
       <path id="DejaVuSansMono-36" d="M 3097 4563 
L 3097 3981 
Q 2900 4097 2678 4158 
Q 2456 4219 2216 4219 
Q 1616 4219 1306 3767 
Q 997 3316 997 2438 
Q 1147 2750 1412 2917 
Q 1678 3084 2022 3084 
Q 2697 3084 3067 2670 
Q 3438 2256 3438 1497 
Q 3438 741 3056 325 
Q 2675 -91 1984 -91 
Q 1172 -91 794 492 
Q 416 1075 416 2328 
Q 416 3509 870 4129 
Q 1325 4750 2188 4750 
Q 2419 4750 2650 4701 
Q 2881 4653 3097 4563 
z
M 1972 2591 
Q 1569 2591 1337 2300 
Q 1106 2009 1106 1497 
Q 1106 984 1337 693 
Q 1569 403 1972 403 
Q 2391 403 2603 679 
Q 2816 956 2816 1497 
Q 2816 2041 2603 2316 
Q 2391 2591 1972 2591 
z
" transform="scale(0.015625)"/>
      </defs>
      <use xlink:href="#DejaVuSans-303" transform="translate(60.199219 3.95)"/>
      <use xlink:href="#DejaVuSans-Oblique-3bd" transform="translate(0 0.684375)"/>
      <use xlink:href="#DejaVuSans-31" transform="translate(56.816406 -15.721875) scale(0.7)"/>
      <use xlink:href="#DejaVuSans-35" transform="translate(101.352539 -15.721875) scale(0.7)"/>
      <use xlink:href="#DejaVuSans-3d" transform="translate(168.105469 0.684375)"/>
      <use xlink:href="#DejaVuSansMono-20" transform="translate(271.376953 0.684375)"/>
      <use xlink:href="#DejaVuSansMono-34" transform="translate(331.582031 0.684375)"/>
      <use xlink:href="#DejaVuSansMono-32" transform="translate(391.787109 0.684375)"/>
      <use xlink:href="#DejaVuSansMono-36" transform="translate(451.992188 0.684375)"/>
      <use xlink:href="#DejaVuSansMono-63" transform="translate(512.197266 0.684375)"/>
      <use xlink:href="#DejaVuSansMono-6d" transform="translate(572.402344 0.684375)"/>
      <use xlink:href="#DejaVuSans-2212" transform="translate(633.564453 38.965625) scale(0.7)"/>
      <use xlink:href="#DejaVuSans-31" transform="translate(692.216797 38.965625) scale(0.7)"/>
      <use xlink:href="#DejaVuSansMono-2c" transform="translate(739.487305 0.684375)"/>
      <use xlink:href="#DejaVuSansMono-20" transform="translate(799.692383 0.684375)"/>
      <use xlink:href="#DejaVuSans-394" transform="translate(859.897461 0.684375)"/>
      <use xlink:href="#DejaVuSans-Oblique-51" transform="translate(928.305664 0.684375)"/>
      <use xlink:href="#DejaVuSans-3d" transform="translate(1026.499023 0.684375)"/>
      <use xlink:href="#DejaVuSansMono-20" transform="translate(1129.770508 0.684375)"/>
      <use xlink:href="#DejaVuSansMono-20" transform="translate(1189.975586 0.684375)"/>
      <use xlink:href="#DejaVuSansMono-2b" transform="translate(1250.180664 0.684375)"/>
      <use xlink:href="#DejaVuSansMono-30" transform="translate(1310.385742 0.684375)"/>
     </g>
    </g>
   </g>
  </g>
 </g>
 <defs>
  <clipPath id="p85e13fc412">
   <rect x="52.00024" y="18.118365" width="337.795544" height="272.525145"/>
  </clipPath>
 </defs>
</svg>
