<?xml version="1.0" encoding="utf-8" standalone="no"?>
<!DOCTYPE svg PUBLIC "-//W3C//DTD SVG 1.1//EN"
  "http://www.w3.org/Graphics/SVG/1.1/DTD/svg11.dtd">
<svg xmlns:xlink="http://www.w3.org/1999/xlink" width="576pt" height="324pt" viewBox="0 0 576 324" xmlns="http://www.w3.org/2000/svg" version="1.1">
 <metadata>
  <rdf:RDF xmlns:dc="http://purl.org/dc/elements/1.1/" xmlns:cc="http://creativecommons.org/ns#" xmlns:rdf="http://www.w3.org/1999/02/22-rdf-syntax-ns#">
   <cc:Work>
    <dc:type rdf:resource="http://purl.org/dc/dcmitype/StillImage"/>
    <dc:date>2025-06-07T18:14:59.339376</dc:date>
    <dc:format>image/svg+xml</dc:format>
    <dc:creator>
     <cc:Agent>
      <dc:title>Matplotlib v3.10.3, https://matplotlib.org/</dc:title>
     </cc:Agent>
    </dc:creator>
   </cc:Work>
  </rdf:RDF>
 </metadata>
 <defs>
  <style type="text/css">*{stroke-linejoin: round; stroke-linecap: butt}</style>
 </defs>
 <g id="figure_1">
  <g id="patch_1">
   <path d="M 0 324 
L 576 324 
L 576 0 
L 0 0 
z
" style="fill: #ffffff"/>
  </g>
  <g id="axes_1">
   <g id="patch_2">
    <path d="M 52.00024 290.64351 
L 387.420784 290.64351 
L 387.420784 18.118365 
L 52.00024 18.118365 
z
" style="fill: #ffffff"/>
   </g>
   <g id="matplotlib.axis_1">
    <g id="xtick_1">
     <g id="line2d_1">
      <path d="M 67.246628 290.64351 
L 67.246628 18.118365 
" clip-path="url(#p1fcf920d3a)" style="fill: none; stroke: #b0b0b0; stroke-width: 0.8; stroke-linecap: square"/>
     </g>
     <g id="line2d_2">
      <defs>
       <path id="m5e90134cb7" d="M 0 0 
L 0 3.5 
" style="stroke: #000000; stroke-width: 0.8"/>
      </defs>
      <g>
       <use xlink:href="#m5e90134cb7" x="67.246628" y="290.64351" style="stroke: #000000; stroke-width: 0.8"/>
      </g>
     </g>
     <g id="text_1">
      <!-- 0 -->
      <g transform="translate(64.065378 305.241947) scale(0.1 -0.1)">
       <defs>
        <path id="DejaVuSans-30" d="M 2034 4250 
Q 1547 4250 1301 3770 
Q 1056 3291 1056 2328 
Q 1056 1369 1301 889 
Q 1547 409 2034 409 
Q 2525 409 2770 889 
Q 3016 1369 3016 2328 
Q 3016 3291 2770 3770 
Q 2525 4250 2034 4250 
z
M 2034 4750 
Q 2819 4750 3233 4129 
Q 3647 3509 3647 2328 
Q 3647 1150 3233 529 
Q 2819 -91 2034 -91 
Q 1250 -91 836 529 
Q 422 1150 422 2328 
Q 422 3509 836 4129 
Q 1250 4750 2034 4750 
z
" transform="scale(0.015625)"/>
       </defs>
       <use xlink:href="#DejaVuSans-30"/>
      </g>
     </g>
    </g>
    <g id="xtick_2">
     <g id="line2d_3">
      <path d="M 118.067923 290.64351 
L 118.067923 18.118365 
" clip-path="url(#p1fcf920d3a)" style="fill: none; stroke: #b0b0b0; stroke-width: 0.8; stroke-linecap: square"/>
     </g>
     <g id="line2d_4">
      <g>
       <use xlink:href="#m5e90134cb7" x="118.067923" y="290.64351" style="stroke: #000000; stroke-width: 0.8"/>
      </g>
     </g>
     <g id="text_2">
      <!-- 10 -->
      <g transform="translate(111.705423 305.241947) scale(0.1 -0.1)">
       <defs>
        <path id="DejaVuSans-31" d="M 794 531 
L 1825 531 
L 1825 4091 
L 703 3866 
L 703 4441 
L 1819 4666 
L 2450 4666 
L 2450 531 
L 3481 531 
L 3481 0 
L 794 0 
L 794 531 
z
" transform="scale(0.015625)"/>
       </defs>
       <use xlink:href="#DejaVuSans-31"/>
       <use xlink:href="#DejaVuSans-30" transform="translate(63.623047 0)"/>
      </g>
     </g>
    </g>
    <g id="xtick_3">
     <g id="line2d_5">
      <path d="M 168.889217 290.64351 
L 168.889217 18.118365 
" clip-path="url(#p1fcf920d3a)" style="fill: none; stroke: #b0b0b0; stroke-width: 0.8; stroke-linecap: square"/>
     </g>
     <g id="line2d_6">
      <g>
       <use xlink:href="#m5e90134cb7" x="168.889217" y="290.64351" style="stroke: #000000; stroke-width: 0.8"/>
      </g>
     </g>
     <g id="text_3">
      <!-- 20 -->
      <g transform="translate(162.526717 305.241947) scale(0.1 -0.1)">
       <defs>
        <path id="DejaVuSans-32" d="M 1228 531 
L 3431 531 
L 3431 0 
L 469 0 
L 469 531 
Q 828 903 1448 1529 
Q 2069 2156 2228 2338 
Q 2531 2678 2651 2914 
Q 2772 3150 2772 3378 
Q 2772 3750 2511 3984 
Q 2250 4219 1831 4219 
Q 1534 4219 1204 4116 
Q 875 4013 500 3803 
L 500 4441 
Q 881 4594 1212 4672 
Q 1544 4750 1819 4750 
Q 2544 4750 2975 4387 
Q 3406 4025 3406 3419 
Q 3406 3131 3298 2873 
Q 3191 2616 2906 2266 
Q 2828 2175 2409 1742 
Q 1991 1309 1228 531 
z
" transform="scale(0.015625)"/>
       </defs>
       <use xlink:href="#DejaVuSans-32"/>
       <use xlink:href="#DejaVuSans-30" transform="translate(63.623047 0)"/>
      </g>
     </g>
    </g>
    <g id="xtick_4">
     <g id="line2d_7">
      <path d="M 219.710512 290.64351 
L 219.710512 18.118365 
" clip-path="url(#p1fcf920d3a)" style="fill: none; stroke: #b0b0b0; stroke-width: 0.8; stroke-linecap: square"/>
     </g>
     <g id="line2d_8">
      <g>
       <use xlink:href="#m5e90134cb7" x="219.710512" y="290.64351" style="stroke: #000000; stroke-width: 0.8"/>
      </g>
     </g>
     <g id="text_4">
      <!-- 30 -->
      <g transform="translate(213.348012 305.241947) scale(0.1 -0.1)">
       <defs>
        <path id="DejaVuSans-33" d="M 2597 2516 
Q 3050 2419 3304 2112 
Q 3559 1806 3559 1356 
Q 3559 666 3084 287 
Q 2609 -91 1734 -91 
Q 1441 -91 1130 -33 
Q 819 25 488 141 
L 488 750 
Q 750 597 1062 519 
Q 1375 441 1716 441 
Q 2309 441 2620 675 
Q 2931 909 2931 1356 
Q 2931 1769 2642 2001 
Q 2353 2234 1838 2234 
L 1294 2234 
L 1294 2753 
L 1863 2753 
Q 2328 2753 2575 2939 
Q 2822 3125 2822 3475 
Q 2822 3834 2567 4026 
Q 2313 4219 1838 4219 
Q 1578 4219 1281 4162 
Q 984 4106 628 3988 
L 628 4550 
Q 988 4650 1302 4700 
Q 1616 4750 1894 4750 
Q 2613 4750 3031 4423 
Q 3450 4097 3450 3541 
Q 3450 3153 3228 2886 
Q 3006 2619 2597 2516 
z
" transform="scale(0.015625)"/>
       </defs>
       <use xlink:href="#DejaVuSans-33"/>
       <use xlink:href="#DejaVuSans-30" transform="translate(63.623047 0)"/>
      </g>
     </g>
    </g>
    <g id="xtick_5">
     <g id="line2d_9">
      <path d="M 270.531807 290.64351 
L 270.531807 18.118365 
" clip-path="url(#p1fcf920d3a)" style="fill: none; stroke: #b0b0b0; stroke-width: 0.8; stroke-linecap: square"/>
     </g>
     <g id="line2d_10">
      <g>
       <use xlink:href="#m5e90134cb7" x="270.531807" y="290.64351" style="stroke: #000000; stroke-width: 0.8"/>
      </g>
     </g>
     <g id="text_5">
      <!-- 40 -->
      <g transform="translate(264.169307 305.241947) scale(0.1 -0.1)">
       <defs>
        <path id="DejaVuSans-34" d="M 2419 4116 
L 825 1625 
L 2419 1625 
L 2419 4116 
z
M 2253 4666 
L 3047 4666 
L 3047 1625 
L 3713 1625 
L 3713 1100 
L 3047 1100 
L 3047 0 
L 2419 0 
L 2419 1100 
L 313 1100 
L 313 1709 
L 2253 4666 
z
" transform="scale(0.015625)"/>
       </defs>
       <use xlink:href="#DejaVuSans-34"/>
       <use xlink:href="#DejaVuSans-30" transform="translate(63.623047 0)"/>
      </g>
     </g>
    </g>
    <g id="xtick_6">
     <g id="line2d_11">
      <path d="M 321.353101 290.64351 
L 321.353101 18.118365 
" clip-path="url(#p1fcf920d3a)" style="fill: none; stroke: #b0b0b0; stroke-width: 0.8; stroke-linecap: square"/>
     </g>
     <g id="line2d_12">
      <g>
       <use xlink:href="#m5e90134cb7" x="321.353101" y="290.64351" style="stroke: #000000; stroke-width: 0.8"/>
      </g>
     </g>
     <g id="text_6">
      <!-- 50 -->
      <g transform="translate(314.990601 305.241947) scale(0.1 -0.1)">
       <defs>
        <path id="DejaVuSans-35" d="M 691 4666 
L 3169 4666 
L 3169 4134 
L 1269 4134 
L 1269 2991 
Q 1406 3038 1543 3061 
Q 1681 3084 1819 3084 
Q 2600 3084 3056 2656 
Q 3513 2228 3513 1497 
Q 3513 744 3044 326 
Q 2575 -91 1722 -91 
Q 1428 -91 1123 -41 
Q 819 9 494 109 
L 494 744 
Q 775 591 1075 516 
Q 1375 441 1709 441 
Q 2250 441 2565 725 
Q 2881 1009 2881 1497 
Q 2881 1984 2565 2268 
Q 2250 2553 1709 2553 
Q 1456 2553 1204 2497 
Q 953 2441 691 2322 
L 691 4666 
z
" transform="scale(0.015625)"/>
       </defs>
       <use xlink:href="#DejaVuSans-35"/>
       <use xlink:href="#DejaVuSans-30" transform="translate(63.623047 0)"/>
      </g>
     </g>
    </g>
    <g id="xtick_7">
     <g id="line2d_13">
      <path d="M 372.174396 290.64351 
L 372.174396 18.118365 
" clip-path="url(#p1fcf920d3a)" style="fill: none; stroke: #b0b0b0; stroke-width: 0.8; stroke-linecap: square"/>
     </g>
     <g id="line2d_14">
      <g>
       <use xlink:href="#m5e90134cb7" x="372.174396" y="290.64351" style="stroke: #000000; stroke-width: 0.8"/>
      </g>
     </g>
     <g id="text_7">
      <!-- 60 -->
      <g transform="translate(365.811896 305.241947) scale(0.1 -0.1)">
       <defs>
        <path id="DejaVuSans-36" d="M 2113 2584 
Q 1688 2584 1439 2293 
Q 1191 2003 1191 1497 
Q 1191 994 1439 701 
Q 1688 409 2113 409 
Q 2538 409 2786 701 
Q 3034 994 3034 1497 
Q 3034 2003 2786 2293 
Q 2538 2584 2113 2584 
z
M 3366 4563 
L 3366 3988 
Q 3128 4100 2886 4159 
Q 2644 4219 2406 4219 
Q 1781 4219 1451 3797 
Q 1122 3375 1075 2522 
Q 1259 2794 1537 2939 
Q 1816 3084 2150 3084 
Q 2853 3084 3261 2657 
Q 3669 2231 3669 1497 
Q 3669 778 3244 343 
Q 2819 -91 2113 -91 
Q 1303 -91 875 529 
Q 447 1150 447 2328 
Q 447 3434 972 4092 
Q 1497 4750 2381 4750 
Q 2619 4750 2861 4703 
Q 3103 4656 3366 4563 
z
" transform="scale(0.015625)"/>
       </defs>
       <use xlink:href="#DejaVuSans-36"/>
       <use xlink:href="#DejaVuSans-30" transform="translate(63.623047 0)"/>
      </g>
     </g>
    </g>
    <g id="text_8">
     <!-- $n_X$ -->
     <g transform="translate(213.960512 318.920073) scale(0.1 -0.1)">
      <defs>
       <path id="DejaVuSans-Oblique-6e" d="M 3566 2113 
L 3156 0 
L 2578 0 
L 2988 2091 
Q 3016 2238 3031 2350 
Q 3047 2463 3047 2528 
Q 3047 2791 2881 2937 
Q 2716 3084 2419 3084 
Q 1956 3084 1622 2776 
Q 1288 2469 1184 1941 
L 800 0 
L 225 0 
L 903 3500 
L 1478 3500 
L 1363 2950 
Q 1603 3253 1940 3418 
Q 2278 3584 2650 3584 
Q 3113 3584 3367 3334 
Q 3622 3084 3622 2631 
Q 3622 2519 3608 2391 
Q 3594 2263 3566 2113 
z
" transform="scale(0.015625)"/>
       <path id="DejaVuSans-Oblique-58" d="M 878 4666 
L 1516 4666 
L 2316 2981 
L 3763 4666 
L 4500 4666 
L 2578 2438 
L 3738 0 
L 3103 0 
L 2163 1966 
L 459 0 
L -275 0 
L 1906 2509 
L 878 4666 
z
" transform="scale(0.015625)"/>
      </defs>
      <use xlink:href="#DejaVuSans-Oblique-6e"/>
      <use xlink:href="#DejaVuSans-Oblique-58" transform="translate(63.378906 -16.40625) scale(0.7)"/>
     </g>
    </g>
   </g>
   <g id="matplotlib.axis_2">
    <g id="ytick_1">
     <g id="line2d_15">
      <path d="M 52.00024 18.118365 
L 387.420784 18.118365 
" clip-path="url(#p1fcf920d3a)" style="fill: none; stroke: #b0b0b0; stroke-width: 0.8; stroke-linecap: square"/>
     </g>
     <g id="line2d_16">
      <defs>
       <path id="m7f673fa0ea" d="M 0 0 
L -3.5 0 
" style="stroke: #000000; stroke-width: 0.8"/>
      </defs>
      <g>
       <use xlink:href="#m7f673fa0ea" x="52.00024" y="18.118365" style="stroke: #000000; stroke-width: 0.8"/>
      </g>
     </g>
     <g id="text_9">
      <!-- $\mathdefault{10^{0}}$ -->
      <g transform="translate(27.40024 21.917584) scale(0.1 -0.1)">
       <use xlink:href="#DejaVuSans-31" transform="translate(0 0.765625)"/>
       <use xlink:href="#DejaVuSans-30" transform="translate(63.623047 0.765625)"/>
       <use xlink:href="#DejaVuSans-30" transform="translate(128.203125 39.046875) scale(0.7)"/>
      </g>
     </g>
    </g>
    <g id="ytick_2">
     <g id="line2d_17">
      <path d="M 52.00024 72.623394 
L 387.420784 72.623394 
" clip-path="url(#p1fcf920d3a)" style="fill: none; stroke: #b0b0b0; stroke-width: 0.8; stroke-linecap: square"/>
     </g>
     <g id="line2d_18">
      <g>
       <use xlink:href="#m7f673fa0ea" x="52.00024" y="72.623394" style="stroke: #000000; stroke-width: 0.8"/>
      </g>
     </g>
     <g id="text_10">
      <!-- $\mathdefault{10^{-15}}$ -->
      <g transform="translate(17.10024 76.422613) scale(0.1 -0.1)">
       <defs>
        <path id="DejaVuSans-2212" d="M 678 2272 
L 4684 2272 
L 4684 1741 
L 678 1741 
L 678 2272 
z
" transform="scale(0.015625)"/>
       </defs>
       <use xlink:href="#DejaVuSans-31" transform="translate(0 0.684375)"/>
       <use xlink:href="#DejaVuSans-30" transform="translate(63.623047 0.684375)"/>
       <use xlink:href="#DejaVuSans-2212" transform="translate(128.203125 38.965625) scale(0.7)"/>
       <use xlink:href="#DejaVuSans-31" transform="translate(186.855469 38.965625) scale(0.7)"/>
       <use xlink:href="#DejaVuSans-35" transform="translate(231.391602 38.965625) scale(0.7)"/>
      </g>
     </g>
    </g>
    <g id="ytick_3">
     <g id="line2d_19">
      <path d="M 52.00024 127.128423 
L 387.420784 127.128423 
" clip-path="url(#p1fcf920d3a)" style="fill: none; stroke: #b0b0b0; stroke-width: 0.8; stroke-linecap: square"/>
     </g>
     <g id="line2d_20">
      <g>
       <use xlink:href="#m7f673fa0ea" x="52.00024" y="127.128423" style="stroke: #000000; stroke-width: 0.8"/>
      </g>
     </g>
     <g id="text_11">
      <!-- $\mathdefault{10^{-30}}$ -->
      <g transform="translate(17.10024 130.927642) scale(0.1 -0.1)">
       <use xlink:href="#DejaVuSans-31" transform="translate(0 0.765625)"/>
       <use xlink:href="#DejaVuSans-30" transform="translate(63.623047 0.765625)"/>
       <use xlink:href="#DejaVuSans-2212" transform="translate(128.203125 39.046875) scale(0.7)"/>
       <use xlink:href="#DejaVuSans-33" transform="translate(186.855469 39.046875) scale(0.7)"/>
       <use xlink:href="#DejaVuSans-30" transform="translate(231.391602 39.046875) scale(0.7)"/>
      </g>
     </g>
    </g>
    <g id="ytick_4">
     <g id="line2d_21">
      <path d="M 52.00024 181.633452 
L 387.420784 181.633452 
" clip-path="url(#p1fcf920d3a)" style="fill: none; stroke: #b0b0b0; stroke-width: 0.8; stroke-linecap: square"/>
     </g>
     <g id="line2d_22">
      <g>
       <use xlink:href="#m7f673fa0ea" x="52.00024" y="181.633452" style="stroke: #000000; stroke-width: 0.8"/>
      </g>
     </g>
     <g id="text_12">
      <!-- $\mathdefault{10^{-45}}$ -->
      <g transform="translate(17.10024 185.432671) scale(0.1 -0.1)">
       <use xlink:href="#DejaVuSans-31" transform="translate(0 0.684375)"/>
       <use xlink:href="#DejaVuSans-30" transform="translate(63.623047 0.684375)"/>
       <use xlink:href="#DejaVuSans-2212" transform="translate(128.203125 38.965625) scale(0.7)"/>
       <use xlink:href="#DejaVuSans-34" transform="translate(186.855469 38.965625) scale(0.7)"/>
       <use xlink:href="#DejaVuSans-35" transform="translate(231.391602 38.965625) scale(0.7)"/>
      </g>
     </g>
    </g>
    <g id="ytick_5">
     <g id="line2d_23">
      <path d="M 52.00024 236.138481 
L 387.420784 236.138481 
" clip-path="url(#p1fcf920d3a)" style="fill: none; stroke: #b0b0b0; stroke-width: 0.8; stroke-linecap: square"/>
     </g>
     <g id="line2d_24">
      <g>
       <use xlink:href="#m7f673fa0ea" x="52.00024" y="236.138481" style="stroke: #000000; stroke-width: 0.8"/>
      </g>
     </g>
     <g id="text_13">
      <!-- $\mathdefault{10^{-60}}$ -->
      <g transform="translate(17.10024 239.9377) scale(0.1 -0.1)">
       <use xlink:href="#DejaVuSans-31" transform="translate(0 0.765625)"/>
       <use xlink:href="#DejaVuSans-30" transform="translate(63.623047 0.765625)"/>
       <use xlink:href="#DejaVuSans-2212" transform="translate(128.203125 39.046875) scale(0.7)"/>
       <use xlink:href="#DejaVuSans-36" transform="translate(186.855469 39.046875) scale(0.7)"/>
       <use xlink:href="#DejaVuSans-30" transform="translate(231.391602 39.046875) scale(0.7)"/>
      </g>
     </g>
    </g>
    <g id="ytick_6">
     <g id="line2d_25">
      <path d="M 52.00024 290.64351 
L 387.420784 290.64351 
" clip-path="url(#p1fcf920d3a)" style="fill: none; stroke: #b0b0b0; stroke-width: 0.8; stroke-linecap: square"/>
     </g>
     <g id="line2d_26">
      <g>
       <use xlink:href="#m7f673fa0ea" x="52.00024" y="290.64351" style="stroke: #000000; stroke-width: 0.8"/>
      </g>
     </g>
     <g id="text_14">
      <!-- $\mathdefault{10^{-75}}$ -->
      <g transform="translate(17.10024 294.442729) scale(0.1 -0.1)">
       <defs>
        <path id="DejaVuSans-37" d="M 525 4666 
L 3525 4666 
L 3525 4397 
L 1831 0 
L 1172 0 
L 2766 4134 
L 525 4134 
L 525 4666 
z
" transform="scale(0.015625)"/>
       </defs>
       <use xlink:href="#DejaVuSans-31" transform="translate(0 0.684375)"/>
       <use xlink:href="#DejaVuSans-30" transform="translate(63.623047 0.684375)"/>
       <use xlink:href="#DejaVuSans-2212" transform="translate(128.203125 38.965625) scale(0.7)"/>
       <use xlink:href="#DejaVuSans-37" transform="translate(186.855469 38.965625) scale(0.7)"/>
       <use xlink:href="#DejaVuSans-35" transform="translate(231.391602 38.965625) scale(0.7)"/>
      </g>
     </g>
    </g>
    <g id="text_15">
     <!-- $|\langle 0_{C}| n_{X} \rangle |$ -->
     <g transform="translate(10.70024 174.880938) rotate(-90) scale(0.1 -0.1)">
      <defs>
       <path id="DejaVuSans-7c" d="M 1344 4891 
L 1344 -1509 
L 813 -1509 
L 813 4891 
L 1344 4891 
z
" transform="scale(0.015625)"/>
       <path id="DejaVuSans-27e8" d="M 572 2006 
L 1453 4856 
L 1984 4856 
L 1103 2006 
L 1984 -844 
L 1453 -844 
L 572 2006 
z
" transform="scale(0.015625)"/>
       <path id="DejaVuSans-Oblique-43" d="M 4447 4306 
L 4319 3641 
Q 4019 3944 3683 4091 
Q 3347 4238 2956 4238 
Q 2422 4238 2017 3981 
Q 1613 3725 1319 3200 
Q 1131 2863 1032 2486 
Q 934 2109 934 1728 
Q 934 1091 1264 756 
Q 1594 422 2222 422 
Q 2656 422 3056 561 
Q 3456 700 3834 978 
L 3688 231 
Q 3316 72 2936 -9 
Q 2556 -91 2175 -91 
Q 1278 -91 773 396 
Q 269 884 269 1753 
Q 269 2309 461 2846 
Q 653 3384 1013 3828 
Q 1394 4300 1883 4525 
Q 2372 4750 3022 4750 
Q 3422 4750 3780 4639 
Q 4138 4528 4447 4306 
z
" transform="scale(0.015625)"/>
       <path id="DejaVuSans-27e9" d="M 1925 2006 
L 1044 -844 
L 513 -844 
L 1394 2006 
L 513 4856 
L 1044 4856 
L 1925 2006 
z
" transform="scale(0.015625)"/>
      </defs>
      <use xlink:href="#DejaVuSans-7c" transform="translate(0 0.578125)"/>
      <use xlink:href="#DejaVuSans-27e8" transform="translate(33.691406 0.578125)"/>
      <use xlink:href="#DejaVuSans-30" transform="translate(72.705078 0.578125)"/>
      <use xlink:href="#DejaVuSans-Oblique-43" transform="translate(137.285156 -15.828125) scale(0.7)"/>
      <use xlink:href="#DejaVuSans-7c" transform="translate(188.896484 0.578125)"/>
      <use xlink:href="#DejaVuSans-Oblique-6e" transform="translate(222.587891 0.578125)"/>
      <use xlink:href="#DejaVuSans-Oblique-58" transform="translate(285.966797 -15.828125) scale(0.7)"/>
      <use xlink:href="#DejaVuSans-27e9" transform="translate(336.655273 0.578125)"/>
      <use xlink:href="#DejaVuSans-7c" transform="translate(375.668945 0.578125)"/>
     </g>
    </g>
   </g>
   <g id="line2d_27">
    <path d="M 67.246628 18.118365 
M 77.410887 32.869165 
M 87.575146 47.300066 
M 97.739405 61.6478 
M 107.903664 75.957161 
M 118.067923 90.244273 
M 128.232182 104.51685 
M 138.396441 118.779282 
M 148.5607 133.034182 
M 158.724959 147.283337 
M 168.889217 161.527822 
M 179.053476 175.768595 
M 189.217735 190.006226 
M 199.381994 204.241247 
M 209.546253 218.474036 
M 219.710512 232.704877 
M 229.874771 246.934044 
M 240.03903 261.161708 
M 250.203289 275.388081 
M 260.367548 289.613348 
" clip-path="url(#p1fcf920d3a)" style="fill: none; stroke: #1f77b4; stroke-width: 1.5; stroke-linecap: square"/>
    <defs>
     <path id="m3d31f346f8" d="M 0 1.5 
C 0.397805 1.5 0.77937 1.341951 1.06066 1.06066 
C 1.341951 0.77937 1.5 0.397805 1.5 0 
C 1.5 -0.397805 1.341951 -0.77937 1.06066 -1.06066 
C 0.77937 -1.341951 0.397805 -1.5 0 -1.5 
C -0.397805 -1.5 -0.77937 -1.341951 -1.06066 -1.06066 
C -1.341951 -0.77937 -1.5 -0.397805 -1.5 0 
C -1.5 0.397805 -1.341951 0.77937 -1.06066 1.06066 
C -0.77937 1.341951 -0.397805 1.5 0 1.5 
z
" style="stroke: #1f77b4"/>
    </defs>
    <g clip-path="url(#p1fcf920d3a)">
     <use xlink:href="#m3d31f346f8" x="67.246628" y="18.118365" style="fill: #1f77b4; stroke: #1f77b4"/>
     <use xlink:href="#m3d31f346f8" x="77.410887" y="32.869165" style="fill: #1f77b4; stroke: #1f77b4"/>
     <use xlink:href="#m3d31f346f8" x="87.575146" y="47.300066" style="fill: #1f77b4; stroke: #1f77b4"/>
     <use xlink:href="#m3d31f346f8" x="97.739405" y="61.6478" style="fill: #1f77b4; stroke: #1f77b4"/>
     <use xlink:href="#m3d31f346f8" x="107.903664" y="75.957161" style="fill: #1f77b4; stroke: #1f77b4"/>
     <use xlink:href="#m3d31f346f8" x="118.067923" y="90.244273" style="fill: #1f77b4; stroke: #1f77b4"/>
     <use xlink:href="#m3d31f346f8" x="128.232182" y="104.51685" style="fill: #1f77b4; stroke: #1f77b4"/>
     <use xlink:href="#m3d31f346f8" x="138.396441" y="118.779282" style="fill: #1f77b4; stroke: #1f77b4"/>
     <use xlink:href="#m3d31f346f8" x="148.5607" y="133.034182" style="fill: #1f77b4; stroke: #1f77b4"/>
     <use xlink:href="#m3d31f346f8" x="158.724959" y="147.283337" style="fill: #1f77b4; stroke: #1f77b4"/>
     <use xlink:href="#m3d31f346f8" x="168.889217" y="161.527822" style="fill: #1f77b4; stroke: #1f77b4"/>
     <use xlink:href="#m3d31f346f8" x="179.053476" y="175.768595" style="fill: #1f77b4; stroke: #1f77b4"/>
     <use xlink:href="#m3d31f346f8" x="189.217735" y="190.006226" style="fill: #1f77b4; stroke: #1f77b4"/>
     <use xlink:href="#m3d31f346f8" x="199.381994" y="204.241247" style="fill: #1f77b4; stroke: #1f77b4"/>
     <use xlink:href="#m3d31f346f8" x="209.546253" y="218.474036" style="fill: #1f77b4; stroke: #1f77b4"/>
     <use xlink:href="#m3d31f346f8" x="219.710512" y="232.704877" style="fill: #1f77b4; stroke: #1f77b4"/>
     <use xlink:href="#m3d31f346f8" x="229.874771" y="246.934044" style="fill: #1f77b4; stroke: #1f77b4"/>
     <use xlink:href="#m3d31f346f8" x="240.03903" y="261.161708" style="fill: #1f77b4; stroke: #1f77b4"/>
     <use xlink:href="#m3d31f346f8" x="250.203289" y="275.388081" style="fill: #1f77b4; stroke: #1f77b4"/>
     <use xlink:href="#m3d31f346f8" x="260.367548" y="289.613348" style="fill: #1f77b4; stroke: #1f77b4"/>
    </g>
   </g>
   <g id="line2d_28">
    <path d="M 67.246628 18.118365 
L 72.328758 71.501165 
L 77.410887 37.585155 
L 82.493017 90.101153 
L 87.575146 56.73201 
L 92.657276 108.844925 
L 97.739405 75.795677 
L 102.821535 127.64313 
L 107.903664 94.820901 
L 112.985793 146.470027 
L 118.067923 113.823882 
L 123.150052 165.314656 
L 128.232182 132.812393 
L 133.314311 184.171385 
L 138.396441 151.790762 
L 143.47857 203.036801 
L 148.5607 170.761496 
L 153.642829 221.908801 
L 158.724959 189.726445 
L 163.807088 240.785995 
L 168.889217 208.686783 
L 173.971347 259.667359 
L 179.053476 227.643333 
L 184.135606 278.552099 
L 189.217735 246.596705 
M 199.381994 265.547551 
M 209.546253 284.496079 
" clip-path="url(#p1fcf920d3a)" style="fill: none; stroke: #ff7f0e; stroke-width: 1.5; stroke-linecap: square"/>
    <defs>
     <path id="m8cf5e02253" d="M 0 1.5 
C 0.397805 1.5 0.77937 1.341951 1.06066 1.06066 
C 1.341951 0.77937 1.5 0.397805 1.5 0 
C 1.5 -0.397805 1.341951 -0.77937 1.06066 -1.06066 
C 0.77937 -1.341951 0.397805 -1.5 0 -1.5 
C -0.397805 -1.5 -0.77937 -1.341951 -1.06066 -1.06066 
C -1.341951 -0.77937 -1.5 -0.397805 -1.5 0 
C -1.5 0.397805 -1.341951 0.77937 -1.06066 1.06066 
C -0.77937 1.341951 -0.397805 1.5 0 1.5 
z
" style="stroke: #ff7f0e"/>
    </defs>
    <g clip-path="url(#p1fcf920d3a)">
     <use xlink:href="#m8cf5e02253" x="67.246628" y="18.118365" style="fill: #ff7f0e; stroke: #ff7f0e"/>
     <use xlink:href="#m8cf5e02253" x="72.328758" y="71.501165" style="fill: #ff7f0e; stroke: #ff7f0e"/>
     <use xlink:href="#m8cf5e02253" x="77.410887" y="37.585155" style="fill: #ff7f0e; stroke: #ff7f0e"/>
     <use xlink:href="#m8cf5e02253" x="82.493017" y="90.101153" style="fill: #ff7f0e; stroke: #ff7f0e"/>
     <use xlink:href="#m8cf5e02253" x="87.575146" y="56.73201" style="fill: #ff7f0e; stroke: #ff7f0e"/>
     <use xlink:href="#m8cf5e02253" x="92.657276" y="108.844925" style="fill: #ff7f0e; stroke: #ff7f0e"/>
     <use xlink:href="#m8cf5e02253" x="97.739405" y="75.795677" style="fill: #ff7f0e; stroke: #ff7f0e"/>
     <use xlink:href="#m8cf5e02253" x="102.821535" y="127.64313" style="fill: #ff7f0e; stroke: #ff7f0e"/>
     <use xlink:href="#m8cf5e02253" x="107.903664" y="94.820901" style="fill: #ff7f0e; stroke: #ff7f0e"/>
     <use xlink:href="#m8cf5e02253" x="112.985793" y="146.470027" style="fill: #ff7f0e; stroke: #ff7f0e"/>
     <use xlink:href="#m8cf5e02253" x="118.067923" y="113.823882" style="fill: #ff7f0e; stroke: #ff7f0e"/>
     <use xlink:href="#m8cf5e02253" x="123.150052" y="165.314656" style="fill: #ff7f0e; stroke: #ff7f0e"/>
     <use xlink:href="#m8cf5e02253" x="128.232182" y="132.812393" style="fill: #ff7f0e; stroke: #ff7f0e"/>
     <use xlink:href="#m8cf5e02253" x="133.314311" y="184.171385" style="fill: #ff7f0e; stroke: #ff7f0e"/>
     <use xlink:href="#m8cf5e02253" x="138.396441" y="151.790762" style="fill: #ff7f0e; stroke: #ff7f0e"/>
     <use xlink:href="#m8cf5e02253" x="143.47857" y="203.036801" style="fill: #ff7f0e; stroke: #ff7f0e"/>
     <use xlink:href="#m8cf5e02253" x="148.5607" y="170.761496" style="fill: #ff7f0e; stroke: #ff7f0e"/>
     <use xlink:href="#m8cf5e02253" x="153.642829" y="221.908801" style="fill: #ff7f0e; stroke: #ff7f0e"/>
     <use xlink:href="#m8cf5e02253" x="158.724959" y="189.726445" style="fill: #ff7f0e; stroke: #ff7f0e"/>
     <use xlink:href="#m8cf5e02253" x="163.807088" y="240.785995" style="fill: #ff7f0e; stroke: #ff7f0e"/>
     <use xlink:href="#m8cf5e02253" x="168.889217" y="208.686783" style="fill: #ff7f0e; stroke: #ff7f0e"/>
     <use xlink:href="#m8cf5e02253" x="173.971347" y="259.667359" style="fill: #ff7f0e; stroke: #ff7f0e"/>
     <use xlink:href="#m8cf5e02253" x="179.053476" y="227.643333" style="fill: #ff7f0e; stroke: #ff7f0e"/>
     <use xlink:href="#m8cf5e02253" x="184.135606" y="278.552099" style="fill: #ff7f0e; stroke: #ff7f0e"/>
     <use xlink:href="#m8cf5e02253" x="189.217735" y="246.596705" style="fill: #ff7f0e; stroke: #ff7f0e"/>
     <use xlink:href="#m8cf5e02253" x="199.381994" y="265.547551" style="fill: #ff7f0e; stroke: #ff7f0e"/>
     <use xlink:href="#m8cf5e02253" x="209.546253" y="284.496079" style="fill: #ff7f0e; stroke: #ff7f0e"/>
    </g>
   </g>
   <g id="line2d_29">
    <path d="M 67.246628 18.118365 
M 77.410887 33.830854 
M 87.575146 49.223502 
M 97.739405 64.533136 
M 107.903664 79.804296 
M 118.067923 95.053299 
M 128.232182 110.287939 
M 138.396441 125.512472 
M 148.5607 140.729484 
M 158.724959 155.940728 
M 168.889217 171.147506 
M 179.053476 186.350551 
M 189.217735 201.550543 
M 199.381994 216.747918 
M 209.546253 231.943134 
M 219.710512 247.136544 
M 229.874771 262.328261 
M 240.03903 277.518547 
" clip-path="url(#p1fcf920d3a)" style="fill: none; stroke: #2ca02c; stroke-width: 1.5; stroke-linecap: square"/>
    <defs>
     <path id="md4474e5d11" d="M 0 1.5 
C 0.397805 1.5 0.77937 1.341951 1.06066 1.06066 
C 1.341951 0.77937 1.5 0.397805 1.5 0 
C 1.5 -0.397805 1.341951 -0.77937 1.06066 -1.06066 
C 0.77937 -1.341951 0.397805 -1.5 0 -1.5 
C -0.397805 -1.5 -0.77937 -1.341951 -1.06066 -1.06066 
C -1.341951 -0.77937 -1.5 -0.397805 -1.5 0 
C -1.5 0.397805 -1.341951 0.77937 -1.06066 1.06066 
C -0.77937 1.341951 -0.397805 1.5 0 1.5 
z
" style="stroke: #2ca02c"/>
    </defs>
    <g clip-path="url(#p1fcf920d3a)">
     <use xlink:href="#md4474e5d11" x="67.246628" y="18.118365" style="fill: #2ca02c; stroke: #2ca02c"/>
     <use xlink:href="#md4474e5d11" x="77.410887" y="33.830854" style="fill: #2ca02c; stroke: #2ca02c"/>
     <use xlink:href="#md4474e5d11" x="87.575146" y="49.223502" style="fill: #2ca02c; stroke: #2ca02c"/>
     <use xlink:href="#md4474e5d11" x="97.739405" y="64.533136" style="fill: #2ca02c; stroke: #2ca02c"/>
     <use xlink:href="#md4474e5d11" x="107.903664" y="79.804296" style="fill: #2ca02c; stroke: #2ca02c"/>
     <use xlink:href="#md4474e5d11" x="118.067923" y="95.053299" style="fill: #2ca02c; stroke: #2ca02c"/>
     <use xlink:href="#md4474e5d11" x="128.232182" y="110.287939" style="fill: #2ca02c; stroke: #2ca02c"/>
     <use xlink:href="#md4474e5d11" x="138.396441" y="125.512472" style="fill: #2ca02c; stroke: #2ca02c"/>
     <use xlink:href="#md4474e5d11" x="148.5607" y="140.729484" style="fill: #2ca02c; stroke: #2ca02c"/>
     <use xlink:href="#md4474e5d11" x="158.724959" y="155.940728" style="fill: #2ca02c; stroke: #2ca02c"/>
     <use xlink:href="#md4474e5d11" x="168.889217" y="171.147506" style="fill: #2ca02c; stroke: #2ca02c"/>
     <use xlink:href="#md4474e5d11" x="179.053476" y="186.350551" style="fill: #2ca02c; stroke: #2ca02c"/>
     <use xlink:href="#md4474e5d11" x="189.217735" y="201.550543" style="fill: #2ca02c; stroke: #2ca02c"/>
     <use xlink:href="#md4474e5d11" x="199.381994" y="216.747918" style="fill: #2ca02c; stroke: #2ca02c"/>
     <use xlink:href="#md4474e5d11" x="209.546253" y="231.943134" style="fill: #2ca02c; stroke: #2ca02c"/>
     <use xlink:href="#md4474e5d11" x="219.710512" y="247.136544" style="fill: #2ca02c; stroke: #2ca02c"/>
     <use xlink:href="#md4474e5d11" x="229.874771" y="262.328261" style="fill: #2ca02c; stroke: #2ca02c"/>
     <use xlink:href="#md4474e5d11" x="240.03903" y="277.518547" style="fill: #2ca02c; stroke: #2ca02c"/>
    </g>
   </g>
   <g id="patch_3">
    <path d="M 52.00024 290.64351 
L 52.00024 18.118365 
" style="fill: none; stroke: #000000; stroke-width: 0.8; stroke-linejoin: miter; stroke-linecap: square"/>
   </g>
   <g id="patch_4">
    <path d="M 387.420784 290.64351 
L 387.420784 18.118365 
" style="fill: none; stroke: #000000; stroke-width: 0.8; stroke-linejoin: miter; stroke-linecap: square"/>
   </g>
   <g id="patch_5">
    <path d="M 52.00024 290.64351 
L 387.420784 290.64351 
" style="fill: none; stroke: #000000; stroke-width: 0.8; stroke-linejoin: miter; stroke-linecap: square"/>
   </g>
   <g id="patch_6">
    <path d="M 52.00024 18.118365 
L 387.420784 18.118365 
" style="fill: none; stroke: #000000; stroke-width: 0.8; stroke-linejoin: miter; stroke-linecap: square"/>
   </g>
   <g id="text_16">
    <!-- SrOPh X-C -->
    <g transform="translate(189.2202 12.118365) scale(0.12 -0.12)">
     <defs>
      <path id="DejaVuSans-53" d="M 3425 4513 
L 3425 3897 
Q 3066 4069 2747 4153 
Q 2428 4238 2131 4238 
Q 1616 4238 1336 4038 
Q 1056 3838 1056 3469 
Q 1056 3159 1242 3001 
Q 1428 2844 1947 2747 
L 2328 2669 
Q 3034 2534 3370 2195 
Q 3706 1856 3706 1288 
Q 3706 609 3251 259 
Q 2797 -91 1919 -91 
Q 1588 -91 1214 -16 
Q 841 59 441 206 
L 441 856 
Q 825 641 1194 531 
Q 1563 422 1919 422 
Q 2459 422 2753 634 
Q 3047 847 3047 1241 
Q 3047 1584 2836 1778 
Q 2625 1972 2144 2069 
L 1759 2144 
Q 1053 2284 737 2584 
Q 422 2884 422 3419 
Q 422 4038 858 4394 
Q 1294 4750 2059 4750 
Q 2388 4750 2728 4690 
Q 3069 4631 3425 4513 
z
" transform="scale(0.015625)"/>
      <path id="DejaVuSans-72" d="M 2631 2963 
Q 2534 3019 2420 3045 
Q 2306 3072 2169 3072 
Q 1681 3072 1420 2755 
Q 1159 2438 1159 1844 
L 1159 0 
L 581 0 
L 581 3500 
L 1159 3500 
L 1159 2956 
Q 1341 3275 1631 3429 
Q 1922 3584 2338 3584 
Q 2397 3584 2469 3576 
Q 2541 3569 2628 3553 
L 2631 2963 
z
" transform="scale(0.015625)"/>
      <path id="DejaVuSans-4f" d="M 2522 4238 
Q 1834 4238 1429 3725 
Q 1025 3213 1025 2328 
Q 1025 1447 1429 934 
Q 1834 422 2522 422 
Q 3209 422 3611 934 
Q 4013 1447 4013 2328 
Q 4013 3213 3611 3725 
Q 3209 4238 2522 4238 
z
M 2522 4750 
Q 3503 4750 4090 4092 
Q 4678 3434 4678 2328 
Q 4678 1225 4090 567 
Q 3503 -91 2522 -91 
Q 1538 -91 948 565 
Q 359 1222 359 2328 
Q 359 3434 948 4092 
Q 1538 4750 2522 4750 
z
" transform="scale(0.015625)"/>
      <path id="DejaVuSans-50" d="M 1259 4147 
L 1259 2394 
L 2053 2394 
Q 2494 2394 2734 2622 
Q 2975 2850 2975 3272 
Q 2975 3691 2734 3919 
Q 2494 4147 2053 4147 
L 1259 4147 
z
M 628 4666 
L 2053 4666 
Q 2838 4666 3239 4311 
Q 3641 3956 3641 3272 
Q 3641 2581 3239 2228 
Q 2838 1875 2053 1875 
L 1259 1875 
L 1259 0 
L 628 0 
L 628 4666 
z
" transform="scale(0.015625)"/>
      <path id="DejaVuSans-68" d="M 3513 2113 
L 3513 0 
L 2938 0 
L 2938 2094 
Q 2938 2591 2744 2837 
Q 2550 3084 2163 3084 
Q 1697 3084 1428 2787 
Q 1159 2491 1159 1978 
L 1159 0 
L 581 0 
L 581 4863 
L 1159 4863 
L 1159 2956 
Q 1366 3272 1645 3428 
Q 1925 3584 2291 3584 
Q 2894 3584 3203 3211 
Q 3513 2838 3513 2113 
z
" transform="scale(0.015625)"/>
      <path id="DejaVuSans-20" transform="scale(0.015625)"/>
      <path id="DejaVuSans-58" d="M 403 4666 
L 1081 4666 
L 2241 2931 
L 3406 4666 
L 4084 4666 
L 2584 2425 
L 4184 0 
L 3506 0 
L 2194 1984 
L 872 0 
L 191 0 
L 1856 2491 
L 403 4666 
z
" transform="scale(0.015625)"/>
      <path id="DejaVuSans-2d" d="M 313 2009 
L 1997 2009 
L 1997 1497 
L 313 1497 
L 313 2009 
z
" transform="scale(0.015625)"/>
      <path id="DejaVuSans-43" d="M 4122 4306 
L 4122 3641 
Q 3803 3938 3442 4084 
Q 3081 4231 2675 4231 
Q 1875 4231 1450 3742 
Q 1025 3253 1025 2328 
Q 1025 1406 1450 917 
Q 1875 428 2675 428 
Q 3081 428 3442 575 
Q 3803 722 4122 1019 
L 4122 359 
Q 3791 134 3420 21 
Q 3050 -91 2638 -91 
Q 1578 -91 968 557 
Q 359 1206 359 2328 
Q 359 3453 968 4101 
Q 1578 4750 2638 4750 
Q 3056 4750 3426 4639 
Q 3797 4528 4122 4306 
z
" transform="scale(0.015625)"/>
     </defs>
     <use xlink:href="#DejaVuSans-53"/>
     <use xlink:href="#DejaVuSans-72" transform="translate(63.476562 0)"/>
     <use xlink:href="#DejaVuSans-4f" transform="translate(104.589844 0)"/>
     <use xlink:href="#DejaVuSans-50" transform="translate(183.300781 0)"/>
     <use xlink:href="#DejaVuSans-68" transform="translate(243.603516 0)"/>
     <use xlink:href="#DejaVuSans-20" transform="translate(306.982422 0)"/>
     <use xlink:href="#DejaVuSans-58" transform="translate(338.769531 0)"/>
     <use xlink:href="#DejaVuSans-2d" transform="translate(402.275391 0)"/>
     <use xlink:href="#DejaVuSans-43" transform="translate(438.359375 0)"/>
    </g>
   </g>
   <g id="legend_1">
    <g id="patch_7">
     <path d="M 411.191811 72.018365 
L 571.291811 72.018365 
Q 573.291811 72.018365 573.291811 70.018365 
L 573.291811 25.118365 
Q 573.291811 23.118365 571.291811 23.118365 
L 411.191811 23.118365 
Q 409.191811 23.118365 409.191811 25.118365 
L 409.191811 70.018365 
Q 409.191811 72.018365 411.191811 72.018365 
z
" style="fill: #ffffff; opacity: 0.8; stroke: #cccccc; stroke-linejoin: miter"/>
    </g>
    <g id="line2d_30">
     <path d="M 413.191811 31.838678 
L 420.691811 31.838678 
L 428.191811 31.838678 
" style="fill: none; stroke: #1f77b4; stroke-width: 1.5; stroke-linecap: square"/>
     <g>
      <use xlink:href="#m3d31f346f8" x="420.691811" y="31.838678" style="fill: #1f77b4; stroke: #1f77b4"/>
     </g>
    </g>
    <g id="text_17">
     <!-- $\tilde{\nu}=3216$cm$^{-1}$, $\Delta Q=+0.000$ -->
     <g transform="translate(429.691811 35.338678) scale(0.1 -0.1)">
      <defs>
       <path id="DejaVuSans-303" d="M -1621 4281 
L -1799 4453 
Q -1867 4516 -1919 4545 
Q -1971 4575 -2011 4575 
Q -2130 4575 -2186 4461 
Q -2242 4347 -2249 4091 
L -2639 4091 
Q -2633 4513 -2473 4742 
Q -2314 4972 -2030 4972 
Q -1911 4972 -1811 4928 
Q -1711 4884 -1596 4781 
L -1417 4609 
Q -1349 4547 -1297 4517 
Q -1246 4488 -1205 4488 
Q -1086 4488 -1030 4602 
Q -974 4716 -967 4972 
L -577 4972 
Q -583 4550 -742 4320 
Q -902 4091 -1186 4091 
Q -1305 4091 -1405 4134 
Q -1505 4178 -1621 4281 
z
" transform="scale(0.015625)"/>
       <path id="DejaVuSans-Oblique-3bd" d="M 959 0 
L 572 3500 
L 1191 3500 
L 1522 563 
Q 1972 950 2391 1488 
Q 2706 1891 2788 2241 
Q 2825 2406 2809 2719 
Q 2794 3091 2544 3500 
L 3125 3500 
L 3125 3500 
Q 3288 3222 3353 2834 
Q 3416 2478 3369 2234 
Q 3250 1622 2719 1075 
Q 2025 363 1572 0 
L 959 0 
z
" transform="scale(0.015625)"/>
       <path id="DejaVuSans-3d" d="M 678 2906 
L 4684 2906 
L 4684 2381 
L 678 2381 
L 678 2906 
z
M 678 1631 
L 4684 1631 
L 4684 1100 
L 678 1100 
L 678 1631 
z
" transform="scale(0.015625)"/>
       <path id="DejaVuSans-63" d="M 3122 3366 
L 3122 2828 
Q 2878 2963 2633 3030 
Q 2388 3097 2138 3097 
Q 1578 3097 1268 2742 
Q 959 2388 959 1747 
Q 959 1106 1268 751 
Q 1578 397 2138 397 
Q 2388 397 2633 464 
Q 2878 531 3122 666 
L 3122 134 
Q 2881 22 2623 -34 
Q 2366 -91 2075 -91 
Q 1284 -91 818 406 
Q 353 903 353 1747 
Q 353 2603 823 3093 
Q 1294 3584 2113 3584 
Q 2378 3584 2631 3529 
Q 2884 3475 3122 3366 
z
" transform="scale(0.015625)"/>
       <path id="DejaVuSans-6d" d="M 3328 2828 
Q 3544 3216 3844 3400 
Q 4144 3584 4550 3584 
Q 5097 3584 5394 3201 
Q 5691 2819 5691 2113 
L 5691 0 
L 5113 0 
L 5113 2094 
Q 5113 2597 4934 2840 
Q 4756 3084 4391 3084 
Q 3944 3084 3684 2787 
Q 3425 2491 3425 1978 
L 3425 0 
L 2847 0 
L 2847 2094 
Q 2847 2600 2669 2842 
Q 2491 3084 2119 3084 
Q 1678 3084 1418 2786 
Q 1159 2488 1159 1978 
L 1159 0 
L 581 0 
L 581 3500 
L 1159 3500 
L 1159 2956 
Q 1356 3278 1631 3431 
Q 1906 3584 2284 3584 
Q 2666 3584 2933 3390 
Q 3200 3197 3328 2828 
z
" transform="scale(0.015625)"/>
       <path id="DejaVuSans-2c" d="M 750 794 
L 1409 794 
L 1409 256 
L 897 -744 
L 494 -744 
L 750 256 
L 750 794 
z
" transform="scale(0.015625)"/>
       <path id="DejaVuSans-394" d="M 2188 4044 
L 906 525 
L 3472 525 
L 2188 4044 
z
M 50 0 
L 1831 4666 
L 2547 4666 
L 4325 0 
L 50 0 
z
" transform="scale(0.015625)"/>
       <path id="DejaVuSans-Oblique-51" d="M 2309 -84 
Q 2275 -88 2237 -89 
Q 2200 -91 2125 -91 
Q 1250 -91 756 411 
Q 263 913 263 1797 
Q 263 2319 452 2844 
Q 641 3369 978 3788 
Q 1369 4269 1858 4509 
Q 2347 4750 2938 4750 
Q 3794 4750 4287 4245 
Q 4781 3741 4781 2869 
Q 4781 1928 4265 1147 
Q 3750 366 2919 44 
L 3553 -825 
L 2847 -825 
L 2309 -84 
z
M 2919 4238 
Q 2400 4238 2003 3986 
Q 1606 3734 1313 3219 
Q 1125 2891 1026 2522 
Q 928 2153 928 1778 
Q 928 1128 1239 775 
Q 1550 422 2119 422 
Q 2631 422 3032 676 
Q 3434 931 3719 1434 
Q 3909 1772 4009 2142 
Q 4109 2513 4109 2881 
Q 4109 3528 3796 3883 
Q 3484 4238 2919 4238 
z
" transform="scale(0.015625)"/>
       <path id="DejaVuSans-2b" d="M 2944 4013 
L 2944 2272 
L 4684 2272 
L 4684 1741 
L 2944 1741 
L 2944 0 
L 2419 0 
L 2419 1741 
L 678 1741 
L 678 2272 
L 2419 2272 
L 2419 4013 
L 2944 4013 
z
" transform="scale(0.015625)"/>
       <path id="DejaVuSans-2e" d="M 684 794 
L 1344 794 
L 1344 0 
L 684 0 
L 684 794 
z
" transform="scale(0.015625)"/>
      </defs>
      <use xlink:href="#DejaVuSans-303" transform="translate(60.199219 3.95)"/>
      <use xlink:href="#DejaVuSans-Oblique-3bd" transform="translate(0 0.684375)"/>
      <use xlink:href="#DejaVuSans-3d" transform="translate(75.341797 0.684375)"/>
      <use xlink:href="#DejaVuSans-33" transform="translate(178.613281 0.684375)"/>
      <use xlink:href="#DejaVuSans-32" transform="translate(242.236328 0.684375)"/>
      <use xlink:href="#DejaVuSans-31" transform="translate(305.859375 0.684375)"/>
      <use xlink:href="#DejaVuSans-36" transform="translate(369.482422 0.684375)"/>
      <use xlink:href="#DejaVuSans-63" transform="translate(433.105469 0.684375)"/>
      <use xlink:href="#DejaVuSans-6d" transform="translate(488.085938 0.684375)"/>
      <use xlink:href="#DejaVuSans-2212" transform="translate(586.455078 38.965625) scale(0.7)"/>
      <use xlink:href="#DejaVuSans-31" transform="translate(645.107422 38.965625) scale(0.7)"/>
      <use xlink:href="#DejaVuSans-2c" transform="translate(692.37793 0.684375)"/>
      <use xlink:href="#DejaVuSans-20" transform="translate(724.165039 0.684375)"/>
      <use xlink:href="#DejaVuSans-394" transform="translate(755.952148 0.684375)"/>
      <use xlink:href="#DejaVuSans-Oblique-51" transform="translate(824.360352 0.684375)"/>
      <use xlink:href="#DejaVuSans-3d" transform="translate(922.553711 0.684375)"/>
      <use xlink:href="#DejaVuSans-2b" transform="translate(1025.825195 0.684375)"/>
      <use xlink:href="#DejaVuSans-30" transform="translate(1109.614258 0.684375)"/>
      <use xlink:href="#DejaVuSans-2e" transform="translate(1173.237305 0.684375)"/>
      <use xlink:href="#DejaVuSans-30" transform="translate(1205.024414 0.684375)"/>
      <use xlink:href="#DejaVuSans-30" transform="translate(1268.647461 0.684375)"/>
      <use xlink:href="#DejaVuSans-30" transform="translate(1332.270508 0.684375)"/>
     </g>
    </g>
    <g id="line2d_31">
     <path d="M 413.191811 47.138678 
L 420.691811 47.138678 
L 428.191811 47.138678 
" style="fill: none; stroke: #ff7f0e; stroke-width: 1.5; stroke-linecap: square"/>
     <g>
      <use xlink:href="#m8cf5e02253" x="420.691811" y="47.138678" style="fill: #ff7f0e; stroke: #ff7f0e"/>
     </g>
    </g>
    <g id="text_18">
     <!-- $\tilde{\nu}=3220$cm$^{-1}$, $\Delta Q=-0.000$ -->
     <g transform="translate(429.691811 50.638678) scale(0.1 -0.1)">
      <use xlink:href="#DejaVuSans-303" transform="translate(60.199219 3.95)"/>
      <use xlink:href="#DejaVuSans-Oblique-3bd" transform="translate(0 0.684375)"/>
      <use xlink:href="#DejaVuSans-3d" transform="translate(75.341797 0.684375)"/>
      <use xlink:href="#DejaVuSans-33" transform="translate(178.613281 0.684375)"/>
      <use xlink:href="#DejaVuSans-32" transform="translate(242.236328 0.684375)"/>
      <use xlink:href="#DejaVuSans-32" transform="translate(305.859375 0.684375)"/>
      <use xlink:href="#DejaVuSans-30" transform="translate(369.482422 0.684375)"/>
      <use xlink:href="#DejaVuSans-63" transform="translate(433.105469 0.684375)"/>
      <use xlink:href="#DejaVuSans-6d" transform="translate(488.085938 0.684375)"/>
      <use xlink:href="#DejaVuSans-2212" transform="translate(586.455078 38.965625) scale(0.7)"/>
      <use xlink:href="#DejaVuSans-31" transform="translate(645.107422 38.965625) scale(0.7)"/>
      <use xlink:href="#DejaVuSans-2c" transform="translate(692.37793 0.684375)"/>
      <use xlink:href="#DejaVuSans-20" transform="translate(724.165039 0.684375)"/>
      <use xlink:href="#DejaVuSans-394" transform="translate(755.952148 0.684375)"/>
      <use xlink:href="#DejaVuSans-Oblique-51" transform="translate(824.360352 0.684375)"/>
      <use xlink:href="#DejaVuSans-3d" transform="translate(922.553711 0.684375)"/>
      <use xlink:href="#DejaVuSans-2212" transform="translate(1025.825195 0.684375)"/>
      <use xlink:href="#DejaVuSans-30" transform="translate(1109.614258 0.684375)"/>
      <use xlink:href="#DejaVuSans-2e" transform="translate(1173.237305 0.684375)"/>
      <use xlink:href="#DejaVuSans-30" transform="translate(1205.024414 0.684375)"/>
      <use xlink:href="#DejaVuSans-30" transform="translate(1268.647461 0.684375)"/>
      <use xlink:href="#DejaVuSans-30" transform="translate(1332.270508 0.684375)"/>
     </g>
    </g>
    <g id="line2d_32">
     <path d="M 413.191811 62.438678 
L 420.691811 62.438678 
L 428.191811 62.438678 
" style="fill: none; stroke: #2ca02c; stroke-width: 1.5; stroke-linecap: square"/>
     <g>
      <use xlink:href="#md4474e5d11" x="420.691811" y="62.438678" style="fill: #2ca02c; stroke: #2ca02c"/>
     </g>
    </g>
    <g id="text_19">
     <!-- $\tilde{\nu}=3235$cm$^{-1}$, $\Delta Q=+0.000$ -->
     <g transform="translate(429.691811 65.938678) scale(0.1 -0.1)">
      <use xlink:href="#DejaVuSans-303" transform="translate(60.199219 3.95)"/>
      <use xlink:href="#DejaVuSans-Oblique-3bd" transform="translate(0 0.684375)"/>
      <use xlink:href="#DejaVuSans-3d" transform="translate(75.341797 0.684375)"/>
      <use xlink:href="#DejaVuSans-33" transform="translate(178.613281 0.684375)"/>
      <use xlink:href="#DejaVuSans-32" transform="translate(242.236328 0.684375)"/>
      <use xlink:href="#DejaVuSans-33" transform="translate(305.859375 0.684375)"/>
      <use xlink:href="#DejaVuSans-35" transform="translate(369.482422 0.684375)"/>
      <use xlink:href="#DejaVuSans-63" transform="translate(433.105469 0.684375)"/>
      <use xlink:href="#DejaVuSans-6d" transform="translate(488.085938 0.684375)"/>
      <use xlink:href="#DejaVuSans-2212" transform="translate(586.455078 38.965625) scale(0.7)"/>
      <use xlink:href="#DejaVuSans-31" transform="translate(645.107422 38.965625) scale(0.7)"/>
      <use xlink:href="#DejaVuSans-2c" transform="translate(692.37793 0.684375)"/>
      <use xlink:href="#DejaVuSans-20" transform="translate(724.165039 0.684375)"/>
      <use xlink:href="#DejaVuSans-394" transform="translate(755.952148 0.684375)"/>
      <use xlink:href="#DejaVuSans-Oblique-51" transform="translate(824.360352 0.684375)"/>
      <use xlink:href="#DejaVuSans-3d" transform="translate(922.553711 0.684375)"/>
      <use xlink:href="#DejaVuSans-2b" transform="translate(1025.825195 0.684375)"/>
      <use xlink:href="#DejaVuSans-30" transform="translate(1109.614258 0.684375)"/>
      <use xlink:href="#DejaVuSans-2e" transform="translate(1173.237305 0.684375)"/>
      <use xlink:href="#DejaVuSans-30" transform="translate(1205.024414 0.684375)"/>
      <use xlink:href="#DejaVuSans-30" transform="translate(1268.647461 0.684375)"/>
      <use xlink:href="#DejaVuSans-30" transform="translate(1332.270508 0.684375)"/>
     </g>
    </g>
   </g>
  </g>
 </g>
 <defs>
  <clipPath id="p1fcf920d3a">
   <rect x="52.00024" y="18.118365" width="335.420544" height="272.525145"/>
  </clipPath>
 </defs>
</svg>
