<?xml version="1.0" encoding="utf-8" standalone="no"?>
<!DOCTYPE svg PUBLIC "-//W3C//DTD SVG 1.1//EN"
  "http://www.w3.org/Graphics/SVG/1.1/DTD/svg11.dtd">
<svg xmlns:xlink="http://www.w3.org/1999/xlink" width="576pt" height="324pt" viewBox="0 0 576 324" xmlns="http://www.w3.org/2000/svg" version="1.1">
 <metadata>
  <rdf:RDF xmlns:dc="http://purl.org/dc/elements/1.1/" xmlns:cc="http://creativecommons.org/ns#" xmlns:rdf="http://www.w3.org/1999/02/22-rdf-syntax-ns#">
   <cc:Work>
    <dc:type rdf:resource="http://purl.org/dc/dcmitype/StillImage"/>
    <dc:date>2025-06-09T10:12:02.932967</dc:date>
    <dc:format>image/svg+xml</dc:format>
    <dc:creator>
     <cc:Agent>
      <dc:title>Matplotlib v3.10.3, https://matplotlib.org/</dc:title>
     </cc:Agent>
    </dc:creator>
   </cc:Work>
  </rdf:RDF>
 </metadata>
 <defs>
  <style type="text/css">*{stroke-linejoin: round; stroke-linecap: butt}</style>
 </defs>
 <g id="figure_1">
  <g id="patch_1">
   <path d="M 0 324 
L 576 324 
L 576 0 
L 0 0 
z
" style="fill: #ffffff"/>
  </g>
  <g id="axes_1">
   <g id="patch_2">
    <path d="M 52.00024 290.64351 
L 387.420784 290.64351 
L 387.420784 18.118365 
L 52.00024 18.118365 
z
" style="fill: #ffffff"/>
   </g>
   <g id="matplotlib.axis_1">
    <g id="xtick_1">
     <g id="line2d_1">
      <path d="M 67.246628 290.64351 
L 67.246628 18.118365 
" clip-path="url(#p941e0ff20f)" style="fill: none; stroke: #b0b0b0; stroke-width: 0.8; stroke-linecap: square"/>
     </g>
     <g id="line2d_2">
      <defs>
       <path id="m3ce9a311db" d="M 0 0 
L 0 3.5 
" style="stroke: #000000; stroke-width: 0.8"/>
      </defs>
      <g>
       <use xlink:href="#m3ce9a311db" x="67.246628" y="290.64351" style="stroke: #000000; stroke-width: 0.8"/>
      </g>
     </g>
     <g id="text_1">
      <!-- 0 -->
      <g transform="translate(64.065378 305.241947) scale(0.1 -0.1)">
       <defs>
        <path id="DejaVuSans-30" d="M 2034 4250 
Q 1547 4250 1301 3770 
Q 1056 3291 1056 2328 
Q 1056 1369 1301 889 
Q 1547 409 2034 409 
Q 2525 409 2770 889 
Q 3016 1369 3016 2328 
Q 3016 3291 2770 3770 
Q 2525 4250 2034 4250 
z
M 2034 4750 
Q 2819 4750 3233 4129 
Q 3647 3509 3647 2328 
Q 3647 1150 3233 529 
Q 2819 -91 2034 -91 
Q 1250 -91 836 529 
Q 422 1150 422 2328 
Q 422 3509 836 4129 
Q 1250 4750 2034 4750 
z
" transform="scale(0.015625)"/>
       </defs>
       <use xlink:href="#DejaVuSans-30"/>
      </g>
     </g>
    </g>
    <g id="xtick_2">
     <g id="line2d_3">
      <path d="M 118.067923 290.64351 
L 118.067923 18.118365 
" clip-path="url(#p941e0ff20f)" style="fill: none; stroke: #b0b0b0; stroke-width: 0.8; stroke-linecap: square"/>
     </g>
     <g id="line2d_4">
      <g>
       <use xlink:href="#m3ce9a311db" x="118.067923" y="290.64351" style="stroke: #000000; stroke-width: 0.8"/>
      </g>
     </g>
     <g id="text_2">
      <!-- 10 -->
      <g transform="translate(111.705423 305.241947) scale(0.1 -0.1)">
       <defs>
        <path id="DejaVuSans-31" d="M 794 531 
L 1825 531 
L 1825 4091 
L 703 3866 
L 703 4441 
L 1819 4666 
L 2450 4666 
L 2450 531 
L 3481 531 
L 3481 0 
L 794 0 
L 794 531 
z
" transform="scale(0.015625)"/>
       </defs>
       <use xlink:href="#DejaVuSans-31"/>
       <use xlink:href="#DejaVuSans-30" transform="translate(63.623047 0)"/>
      </g>
     </g>
    </g>
    <g id="xtick_3">
     <g id="line2d_5">
      <path d="M 168.889217 290.64351 
L 168.889217 18.118365 
" clip-path="url(#p941e0ff20f)" style="fill: none; stroke: #b0b0b0; stroke-width: 0.8; stroke-linecap: square"/>
     </g>
     <g id="line2d_6">
      <g>
       <use xlink:href="#m3ce9a311db" x="168.889217" y="290.64351" style="stroke: #000000; stroke-width: 0.8"/>
      </g>
     </g>
     <g id="text_3">
      <!-- 20 -->
      <g transform="translate(162.526717 305.241947) scale(0.1 -0.1)">
       <defs>
        <path id="DejaVuSans-32" d="M 1228 531 
L 3431 531 
L 3431 0 
L 469 0 
L 469 531 
Q 828 903 1448 1529 
Q 2069 2156 2228 2338 
Q 2531 2678 2651 2914 
Q 2772 3150 2772 3378 
Q 2772 3750 2511 3984 
Q 2250 4219 1831 4219 
Q 1534 4219 1204 4116 
Q 875 4013 500 3803 
L 500 4441 
Q 881 4594 1212 4672 
Q 1544 4750 1819 4750 
Q 2544 4750 2975 4387 
Q 3406 4025 3406 3419 
Q 3406 3131 3298 2873 
Q 3191 2616 2906 2266 
Q 2828 2175 2409 1742 
Q 1991 1309 1228 531 
z
" transform="scale(0.015625)"/>
       </defs>
       <use xlink:href="#DejaVuSans-32"/>
       <use xlink:href="#DejaVuSans-30" transform="translate(63.623047 0)"/>
      </g>
     </g>
    </g>
    <g id="xtick_4">
     <g id="line2d_7">
      <path d="M 219.710512 290.64351 
L 219.710512 18.118365 
" clip-path="url(#p941e0ff20f)" style="fill: none; stroke: #b0b0b0; stroke-width: 0.8; stroke-linecap: square"/>
     </g>
     <g id="line2d_8">
      <g>
       <use xlink:href="#m3ce9a311db" x="219.710512" y="290.64351" style="stroke: #000000; stroke-width: 0.8"/>
      </g>
     </g>
     <g id="text_4">
      <!-- 30 -->
      <g transform="translate(213.348012 305.241947) scale(0.1 -0.1)">
       <defs>
        <path id="DejaVuSans-33" d="M 2597 2516 
Q 3050 2419 3304 2112 
Q 3559 1806 3559 1356 
Q 3559 666 3084 287 
Q 2609 -91 1734 -91 
Q 1441 -91 1130 -33 
Q 819 25 488 141 
L 488 750 
Q 750 597 1062 519 
Q 1375 441 1716 441 
Q 2309 441 2620 675 
Q 2931 909 2931 1356 
Q 2931 1769 2642 2001 
Q 2353 2234 1838 2234 
L 1294 2234 
L 1294 2753 
L 1863 2753 
Q 2328 2753 2575 2939 
Q 2822 3125 2822 3475 
Q 2822 3834 2567 4026 
Q 2313 4219 1838 4219 
Q 1578 4219 1281 4162 
Q 984 4106 628 3988 
L 628 4550 
Q 988 4650 1302 4700 
Q 1616 4750 1894 4750 
Q 2613 4750 3031 4423 
Q 3450 4097 3450 3541 
Q 3450 3153 3228 2886 
Q 3006 2619 2597 2516 
z
" transform="scale(0.015625)"/>
       </defs>
       <use xlink:href="#DejaVuSans-33"/>
       <use xlink:href="#DejaVuSans-30" transform="translate(63.623047 0)"/>
      </g>
     </g>
    </g>
    <g id="xtick_5">
     <g id="line2d_9">
      <path d="M 270.531807 290.64351 
L 270.531807 18.118365 
" clip-path="url(#p941e0ff20f)" style="fill: none; stroke: #b0b0b0; stroke-width: 0.8; stroke-linecap: square"/>
     </g>
     <g id="line2d_10">
      <g>
       <use xlink:href="#m3ce9a311db" x="270.531807" y="290.64351" style="stroke: #000000; stroke-width: 0.8"/>
      </g>
     </g>
     <g id="text_5">
      <!-- 40 -->
      <g transform="translate(264.169307 305.241947) scale(0.1 -0.1)">
       <defs>
        <path id="DejaVuSans-34" d="M 2419 4116 
L 825 1625 
L 2419 1625 
L 2419 4116 
z
M 2253 4666 
L 3047 4666 
L 3047 1625 
L 3713 1625 
L 3713 1100 
L 3047 1100 
L 3047 0 
L 2419 0 
L 2419 1100 
L 313 1100 
L 313 1709 
L 2253 4666 
z
" transform="scale(0.015625)"/>
       </defs>
       <use xlink:href="#DejaVuSans-34"/>
       <use xlink:href="#DejaVuSans-30" transform="translate(63.623047 0)"/>
      </g>
     </g>
    </g>
    <g id="xtick_6">
     <g id="line2d_11">
      <path d="M 321.353101 290.64351 
L 321.353101 18.118365 
" clip-path="url(#p941e0ff20f)" style="fill: none; stroke: #b0b0b0; stroke-width: 0.8; stroke-linecap: square"/>
     </g>
     <g id="line2d_12">
      <g>
       <use xlink:href="#m3ce9a311db" x="321.353101" y="290.64351" style="stroke: #000000; stroke-width: 0.8"/>
      </g>
     </g>
     <g id="text_6">
      <!-- 50 -->
      <g transform="translate(314.990601 305.241947) scale(0.1 -0.1)">
       <defs>
        <path id="DejaVuSans-35" d="M 691 4666 
L 3169 4666 
L 3169 4134 
L 1269 4134 
L 1269 2991 
Q 1406 3038 1543 3061 
Q 1681 3084 1819 3084 
Q 2600 3084 3056 2656 
Q 3513 2228 3513 1497 
Q 3513 744 3044 326 
Q 2575 -91 1722 -91 
Q 1428 -91 1123 -41 
Q 819 9 494 109 
L 494 744 
Q 775 591 1075 516 
Q 1375 441 1709 441 
Q 2250 441 2565 725 
Q 2881 1009 2881 1497 
Q 2881 1984 2565 2268 
Q 2250 2553 1709 2553 
Q 1456 2553 1204 2497 
Q 953 2441 691 2322 
L 691 4666 
z
" transform="scale(0.015625)"/>
       </defs>
       <use xlink:href="#DejaVuSans-35"/>
       <use xlink:href="#DejaVuSans-30" transform="translate(63.623047 0)"/>
      </g>
     </g>
    </g>
    <g id="xtick_7">
     <g id="line2d_13">
      <path d="M 372.174396 290.64351 
L 372.174396 18.118365 
" clip-path="url(#p941e0ff20f)" style="fill: none; stroke: #b0b0b0; stroke-width: 0.8; stroke-linecap: square"/>
     </g>
     <g id="line2d_14">
      <g>
       <use xlink:href="#m3ce9a311db" x="372.174396" y="290.64351" style="stroke: #000000; stroke-width: 0.8"/>
      </g>
     </g>
     <g id="text_7">
      <!-- 60 -->
      <g transform="translate(365.811896 305.241947) scale(0.1 -0.1)">
       <defs>
        <path id="DejaVuSans-36" d="M 2113 2584 
Q 1688 2584 1439 2293 
Q 1191 2003 1191 1497 
Q 1191 994 1439 701 
Q 1688 409 2113 409 
Q 2538 409 2786 701 
Q 3034 994 3034 1497 
Q 3034 2003 2786 2293 
Q 2538 2584 2113 2584 
z
M 3366 4563 
L 3366 3988 
Q 3128 4100 2886 4159 
Q 2644 4219 2406 4219 
Q 1781 4219 1451 3797 
Q 1122 3375 1075 2522 
Q 1259 2794 1537 2939 
Q 1816 3084 2150 3084 
Q 2853 3084 3261 2657 
Q 3669 2231 3669 1497 
Q 3669 778 3244 343 
Q 2819 -91 2113 -91 
Q 1303 -91 875 529 
Q 447 1150 447 2328 
Q 447 3434 972 4092 
Q 1497 4750 2381 4750 
Q 2619 4750 2861 4703 
Q 3103 4656 3366 4563 
z
" transform="scale(0.015625)"/>
       </defs>
       <use xlink:href="#DejaVuSans-36"/>
       <use xlink:href="#DejaVuSans-30" transform="translate(63.623047 0)"/>
      </g>
     </g>
    </g>
    <g id="text_8">
     <!-- $n_X$ -->
     <g transform="translate(213.960512 318.920073) scale(0.1 -0.1)">
      <defs>
       <path id="DejaVuSans-Oblique-6e" d="M 3566 2113 
L 3156 0 
L 2578 0 
L 2988 2091 
Q 3016 2238 3031 2350 
Q 3047 2463 3047 2528 
Q 3047 2791 2881 2937 
Q 2716 3084 2419 3084 
Q 1956 3084 1622 2776 
Q 1288 2469 1184 1941 
L 800 0 
L 225 0 
L 903 3500 
L 1478 3500 
L 1363 2950 
Q 1603 3253 1940 3418 
Q 2278 3584 2650 3584 
Q 3113 3584 3367 3334 
Q 3622 3084 3622 2631 
Q 3622 2519 3608 2391 
Q 3594 2263 3566 2113 
z
" transform="scale(0.015625)"/>
       <path id="DejaVuSans-Oblique-58" d="M 878 4666 
L 1516 4666 
L 2316 2981 
L 3763 4666 
L 4500 4666 
L 2578 2438 
L 3738 0 
L 3103 0 
L 2163 1966 
L 459 0 
L -275 0 
L 1906 2509 
L 878 4666 
z
" transform="scale(0.015625)"/>
      </defs>
      <use xlink:href="#DejaVuSans-Oblique-6e"/>
      <use xlink:href="#DejaVuSans-Oblique-58" transform="translate(63.378906 -16.40625) scale(0.7)"/>
     </g>
    </g>
   </g>
   <g id="matplotlib.axis_2">
    <g id="ytick_1">
     <g id="line2d_15">
      <path d="M 52.00024 18.118365 
L 387.420784 18.118365 
" clip-path="url(#p941e0ff20f)" style="fill: none; stroke: #b0b0b0; stroke-width: 0.8; stroke-linecap: square"/>
     </g>
     <g id="line2d_16">
      <defs>
       <path id="m7e5d23ae9a" d="M 0 0 
L -3.5 0 
" style="stroke: #000000; stroke-width: 0.8"/>
      </defs>
      <g>
       <use xlink:href="#m7e5d23ae9a" x="52.00024" y="18.118365" style="stroke: #000000; stroke-width: 0.8"/>
      </g>
     </g>
     <g id="text_9">
      <!-- $\mathdefault{10^{0}}$ -->
      <g transform="translate(27.40024 21.917584) scale(0.1 -0.1)">
       <use xlink:href="#DejaVuSans-31" transform="translate(0 0.765625)"/>
       <use xlink:href="#DejaVuSans-30" transform="translate(63.623047 0.765625)"/>
       <use xlink:href="#DejaVuSans-30" transform="translate(128.203125 39.046875) scale(0.7)"/>
      </g>
     </g>
    </g>
    <g id="ytick_2">
     <g id="line2d_17">
      <path d="M 52.00024 72.623394 
L 387.420784 72.623394 
" clip-path="url(#p941e0ff20f)" style="fill: none; stroke: #b0b0b0; stroke-width: 0.8; stroke-linecap: square"/>
     </g>
     <g id="line2d_18">
      <g>
       <use xlink:href="#m7e5d23ae9a" x="52.00024" y="72.623394" style="stroke: #000000; stroke-width: 0.8"/>
      </g>
     </g>
     <g id="text_10">
      <!-- $\mathdefault{10^{-15}}$ -->
      <g transform="translate(17.10024 76.422613) scale(0.1 -0.1)">
       <defs>
        <path id="DejaVuSans-2212" d="M 678 2272 
L 4684 2272 
L 4684 1741 
L 678 1741 
L 678 2272 
z
" transform="scale(0.015625)"/>
       </defs>
       <use xlink:href="#DejaVuSans-31" transform="translate(0 0.684375)"/>
       <use xlink:href="#DejaVuSans-30" transform="translate(63.623047 0.684375)"/>
       <use xlink:href="#DejaVuSans-2212" transform="translate(128.203125 38.965625) scale(0.7)"/>
       <use xlink:href="#DejaVuSans-31" transform="translate(186.855469 38.965625) scale(0.7)"/>
       <use xlink:href="#DejaVuSans-35" transform="translate(231.391602 38.965625) scale(0.7)"/>
      </g>
     </g>
    </g>
    <g id="ytick_3">
     <g id="line2d_19">
      <path d="M 52.00024 127.128423 
L 387.420784 127.128423 
" clip-path="url(#p941e0ff20f)" style="fill: none; stroke: #b0b0b0; stroke-width: 0.8; stroke-linecap: square"/>
     </g>
     <g id="line2d_20">
      <g>
       <use xlink:href="#m7e5d23ae9a" x="52.00024" y="127.128423" style="stroke: #000000; stroke-width: 0.8"/>
      </g>
     </g>
     <g id="text_11">
      <!-- $\mathdefault{10^{-30}}$ -->
      <g transform="translate(17.10024 130.927642) scale(0.1 -0.1)">
       <use xlink:href="#DejaVuSans-31" transform="translate(0 0.765625)"/>
       <use xlink:href="#DejaVuSans-30" transform="translate(63.623047 0.765625)"/>
       <use xlink:href="#DejaVuSans-2212" transform="translate(128.203125 39.046875) scale(0.7)"/>
       <use xlink:href="#DejaVuSans-33" transform="translate(186.855469 39.046875) scale(0.7)"/>
       <use xlink:href="#DejaVuSans-30" transform="translate(231.391602 39.046875) scale(0.7)"/>
      </g>
     </g>
    </g>
    <g id="ytick_4">
     <g id="line2d_21">
      <path d="M 52.00024 181.633452 
L 387.420784 181.633452 
" clip-path="url(#p941e0ff20f)" style="fill: none; stroke: #b0b0b0; stroke-width: 0.8; stroke-linecap: square"/>
     </g>
     <g id="line2d_22">
      <g>
       <use xlink:href="#m7e5d23ae9a" x="52.00024" y="181.633452" style="stroke: #000000; stroke-width: 0.8"/>
      </g>
     </g>
     <g id="text_12">
      <!-- $\mathdefault{10^{-45}}$ -->
      <g transform="translate(17.10024 185.432671) scale(0.1 -0.1)">
       <use xlink:href="#DejaVuSans-31" transform="translate(0 0.684375)"/>
       <use xlink:href="#DejaVuSans-30" transform="translate(63.623047 0.684375)"/>
       <use xlink:href="#DejaVuSans-2212" transform="translate(128.203125 38.965625) scale(0.7)"/>
       <use xlink:href="#DejaVuSans-34" transform="translate(186.855469 38.965625) scale(0.7)"/>
       <use xlink:href="#DejaVuSans-35" transform="translate(231.391602 38.965625) scale(0.7)"/>
      </g>
     </g>
    </g>
    <g id="ytick_5">
     <g id="line2d_23">
      <path d="M 52.00024 236.138481 
L 387.420784 236.138481 
" clip-path="url(#p941e0ff20f)" style="fill: none; stroke: #b0b0b0; stroke-width: 0.8; stroke-linecap: square"/>
     </g>
     <g id="line2d_24">
      <g>
       <use xlink:href="#m7e5d23ae9a" x="52.00024" y="236.138481" style="stroke: #000000; stroke-width: 0.8"/>
      </g>
     </g>
     <g id="text_13">
      <!-- $\mathdefault{10^{-60}}$ -->
      <g transform="translate(17.10024 239.9377) scale(0.1 -0.1)">
       <use xlink:href="#DejaVuSans-31" transform="translate(0 0.765625)"/>
       <use xlink:href="#DejaVuSans-30" transform="translate(63.623047 0.765625)"/>
       <use xlink:href="#DejaVuSans-2212" transform="translate(128.203125 39.046875) scale(0.7)"/>
       <use xlink:href="#DejaVuSans-36" transform="translate(186.855469 39.046875) scale(0.7)"/>
       <use xlink:href="#DejaVuSans-30" transform="translate(231.391602 39.046875) scale(0.7)"/>
      </g>
     </g>
    </g>
    <g id="ytick_6">
     <g id="line2d_25">
      <path d="M 52.00024 290.64351 
L 387.420784 290.64351 
" clip-path="url(#p941e0ff20f)" style="fill: none; stroke: #b0b0b0; stroke-width: 0.8; stroke-linecap: square"/>
     </g>
     <g id="line2d_26">
      <g>
       <use xlink:href="#m7e5d23ae9a" x="52.00024" y="290.64351" style="stroke: #000000; stroke-width: 0.8"/>
      </g>
     </g>
     <g id="text_14">
      <!-- $\mathdefault{10^{-75}}$ -->
      <g transform="translate(17.10024 294.442729) scale(0.1 -0.1)">
       <defs>
        <path id="DejaVuSans-37" d="M 525 4666 
L 3525 4666 
L 3525 4397 
L 1831 0 
L 1172 0 
L 2766 4134 
L 525 4134 
L 525 4666 
z
" transform="scale(0.015625)"/>
       </defs>
       <use xlink:href="#DejaVuSans-31" transform="translate(0 0.684375)"/>
       <use xlink:href="#DejaVuSans-30" transform="translate(63.623047 0.684375)"/>
       <use xlink:href="#DejaVuSans-2212" transform="translate(128.203125 38.965625) scale(0.7)"/>
       <use xlink:href="#DejaVuSans-37" transform="translate(186.855469 38.965625) scale(0.7)"/>
       <use xlink:href="#DejaVuSans-35" transform="translate(231.391602 38.965625) scale(0.7)"/>
      </g>
     </g>
    </g>
    <g id="text_15">
     <!-- $|\langle 0_{C}| n_{X} \rangle |$ -->
     <g transform="translate(10.70024 174.880938) rotate(-90) scale(0.1 -0.1)">
      <defs>
       <path id="DejaVuSans-7c" d="M 1344 4891 
L 1344 -1509 
L 813 -1509 
L 813 4891 
L 1344 4891 
z
" transform="scale(0.015625)"/>
       <path id="DejaVuSans-27e8" d="M 572 2006 
L 1453 4856 
L 1984 4856 
L 1103 2006 
L 1984 -844 
L 1453 -844 
L 572 2006 
z
" transform="scale(0.015625)"/>
       <path id="DejaVuSans-Oblique-43" d="M 4447 4306 
L 4319 3641 
Q 4019 3944 3683 4091 
Q 3347 4238 2956 4238 
Q 2422 4238 2017 3981 
Q 1613 3725 1319 3200 
Q 1131 2863 1032 2486 
Q 934 2109 934 1728 
Q 934 1091 1264 756 
Q 1594 422 2222 422 
Q 2656 422 3056 561 
Q 3456 700 3834 978 
L 3688 231 
Q 3316 72 2936 -9 
Q 2556 -91 2175 -91 
Q 1278 -91 773 396 
Q 269 884 269 1753 
Q 269 2309 461 2846 
Q 653 3384 1013 3828 
Q 1394 4300 1883 4525 
Q 2372 4750 3022 4750 
Q 3422 4750 3780 4639 
Q 4138 4528 4447 4306 
z
" transform="scale(0.015625)"/>
       <path id="DejaVuSans-27e9" d="M 1925 2006 
L 1044 -844 
L 513 -844 
L 1394 2006 
L 513 4856 
L 1044 4856 
L 1925 2006 
z
" transform="scale(0.015625)"/>
      </defs>
      <use xlink:href="#DejaVuSans-7c" transform="translate(0 0.578125)"/>
      <use xlink:href="#DejaVuSans-27e8" transform="translate(33.691406 0.578125)"/>
      <use xlink:href="#DejaVuSans-30" transform="translate(72.705078 0.578125)"/>
      <use xlink:href="#DejaVuSans-Oblique-43" transform="translate(137.285156 -15.828125) scale(0.7)"/>
      <use xlink:href="#DejaVuSans-7c" transform="translate(188.896484 0.578125)"/>
      <use xlink:href="#DejaVuSans-Oblique-6e" transform="translate(222.587891 0.578125)"/>
      <use xlink:href="#DejaVuSans-Oblique-58" transform="translate(285.966797 -15.828125) scale(0.7)"/>
      <use xlink:href="#DejaVuSans-27e9" transform="translate(336.655273 0.578125)"/>
      <use xlink:href="#DejaVuSans-7c" transform="translate(375.668945 0.578125)"/>
     </g>
    </g>
   </g>
   <g id="line2d_27">
    <path d="M 67.246628 18.118365 
M 77.410887 32.375347 
M 87.575146 46.312459 
M 97.739405 60.166335 
M 107.903664 73.981784 
M 118.067923 87.774982 
M 128.232182 101.55371 
M 138.396441 115.322269 
M 148.5607 129.083252 
M 158.724959 142.838417 
M 168.889217 156.588974 
M 179.053476 170.335746 
M 189.217735 184.07939 
M 199.381994 197.82042 
M 209.546253 211.559191 
M 219.710512 225.296005 
M 229.874771 239.031136 
M 240.03903 252.764785 
M 250.203289 266.497069 
M 260.367548 280.228178 
" clip-path="url(#p941e0ff20f)" style="fill: none; stroke: #1f77b4; stroke-width: 1.5; stroke-linecap: square"/>
    <defs>
     <path id="mae56e555b3" d="M 0 1.5 
C 0.397805 1.5 0.77937 1.341951 1.06066 1.06066 
C 1.341951 0.77937 1.5 0.397805 1.5 0 
C 1.5 -0.397805 1.341951 -0.77937 1.06066 -1.06066 
C 0.77937 -1.341951 0.397805 -1.5 0 -1.5 
C -0.397805 -1.5 -0.77937 -1.341951 -1.06066 -1.06066 
C -1.341951 -0.77937 -1.5 -0.397805 -1.5 0 
C -1.5 0.397805 -1.341951 0.77937 -1.06066 1.06066 
C -0.77937 1.341951 -0.397805 1.5 0 1.5 
z
" style="stroke: #1f77b4"/>
    </defs>
    <g clip-path="url(#p941e0ff20f)">
     <use xlink:href="#mae56e555b3" x="67.246628" y="18.118365" style="fill: #1f77b4; stroke: #1f77b4"/>
     <use xlink:href="#mae56e555b3" x="77.410887" y="32.375347" style="fill: #1f77b4; stroke: #1f77b4"/>
     <use xlink:href="#mae56e555b3" x="87.575146" y="46.312459" style="fill: #1f77b4; stroke: #1f77b4"/>
     <use xlink:href="#mae56e555b3" x="97.739405" y="60.166335" style="fill: #1f77b4; stroke: #1f77b4"/>
     <use xlink:href="#mae56e555b3" x="107.903664" y="73.981784" style="fill: #1f77b4; stroke: #1f77b4"/>
     <use xlink:href="#mae56e555b3" x="118.067923" y="87.774982" style="fill: #1f77b4; stroke: #1f77b4"/>
     <use xlink:href="#mae56e555b3" x="128.232182" y="101.55371" style="fill: #1f77b4; stroke: #1f77b4"/>
     <use xlink:href="#mae56e555b3" x="138.396441" y="115.322269" style="fill: #1f77b4; stroke: #1f77b4"/>
     <use xlink:href="#mae56e555b3" x="148.5607" y="129.083252" style="fill: #1f77b4; stroke: #1f77b4"/>
     <use xlink:href="#mae56e555b3" x="158.724959" y="142.838417" style="fill: #1f77b4; stroke: #1f77b4"/>
     <use xlink:href="#mae56e555b3" x="168.889217" y="156.588974" style="fill: #1f77b4; stroke: #1f77b4"/>
     <use xlink:href="#mae56e555b3" x="179.053476" y="170.335746" style="fill: #1f77b4; stroke: #1f77b4"/>
     <use xlink:href="#mae56e555b3" x="189.217735" y="184.07939" style="fill: #1f77b4; stroke: #1f77b4"/>
     <use xlink:href="#mae56e555b3" x="199.381994" y="197.82042" style="fill: #1f77b4; stroke: #1f77b4"/>
     <use xlink:href="#mae56e555b3" x="209.546253" y="211.559191" style="fill: #1f77b4; stroke: #1f77b4"/>
     <use xlink:href="#mae56e555b3" x="219.710512" y="225.296005" style="fill: #1f77b4; stroke: #1f77b4"/>
     <use xlink:href="#mae56e555b3" x="229.874771" y="239.031136" style="fill: #1f77b4; stroke: #1f77b4"/>
     <use xlink:href="#mae56e555b3" x="240.03903" y="252.764785" style="fill: #1f77b4; stroke: #1f77b4"/>
     <use xlink:href="#mae56e555b3" x="250.203289" y="266.497069" style="fill: #1f77b4; stroke: #1f77b4"/>
     <use xlink:href="#mae56e555b3" x="260.367548" y="280.228178" style="fill: #1f77b4; stroke: #1f77b4"/>
    </g>
   </g>
   <g id="line2d_28">
    <path d="M 67.246628 18.118365 
M 77.410887 34.206095 
M 87.575146 49.973829 
M 97.739405 65.658526 
M 107.903664 81.30469 
M 118.067923 96.928575 
M 128.232182 112.538089 
M 138.396441 128.137326 
M 148.5607 143.729041 
M 158.724959 159.314954 
M 168.889217 174.896203 
M 179.053476 190.473687 
M 189.217735 206.048033 
M 199.381994 221.61981 
M 209.546253 237.189298 
M 219.710512 252.756846 
M 229.874771 268.322739 
M 240.03903 283.887036 
" clip-path="url(#p941e0ff20f)" style="fill: none; stroke: #ff7f0e; stroke-width: 1.5; stroke-linecap: square"/>
    <defs>
     <path id="m12ce172e87" d="M 0 1.5 
C 0.397805 1.5 0.77937 1.341951 1.06066 1.06066 
C 1.341951 0.77937 1.5 0.397805 1.5 0 
C 1.5 -0.397805 1.341951 -0.77937 1.06066 -1.06066 
C 0.77937 -1.341951 0.397805 -1.5 0 -1.5 
C -0.397805 -1.5 -0.77937 -1.341951 -1.06066 -1.06066 
C -1.341951 -0.77937 -1.5 -0.397805 -1.5 0 
C -1.5 0.397805 -1.341951 0.77937 -1.06066 1.06066 
C -0.77937 1.341951 -0.397805 1.5 0 1.5 
z
" style="stroke: #ff7f0e"/>
    </defs>
    <g clip-path="url(#p941e0ff20f)">
     <use xlink:href="#m12ce172e87" x="67.246628" y="18.118365" style="fill: #ff7f0e; stroke: #ff7f0e"/>
     <use xlink:href="#m12ce172e87" x="77.410887" y="34.206095" style="fill: #ff7f0e; stroke: #ff7f0e"/>
     <use xlink:href="#m12ce172e87" x="87.575146" y="49.973829" style="fill: #ff7f0e; stroke: #ff7f0e"/>
     <use xlink:href="#m12ce172e87" x="97.739405" y="65.658526" style="fill: #ff7f0e; stroke: #ff7f0e"/>
     <use xlink:href="#m12ce172e87" x="107.903664" y="81.30469" style="fill: #ff7f0e; stroke: #ff7f0e"/>
     <use xlink:href="#m12ce172e87" x="118.067923" y="96.928575" style="fill: #ff7f0e; stroke: #ff7f0e"/>
     <use xlink:href="#m12ce172e87" x="128.232182" y="112.538089" style="fill: #ff7f0e; stroke: #ff7f0e"/>
     <use xlink:href="#m12ce172e87" x="138.396441" y="128.137326" style="fill: #ff7f0e; stroke: #ff7f0e"/>
     <use xlink:href="#m12ce172e87" x="148.5607" y="143.729041" style="fill: #ff7f0e; stroke: #ff7f0e"/>
     <use xlink:href="#m12ce172e87" x="158.724959" y="159.314954" style="fill: #ff7f0e; stroke: #ff7f0e"/>
     <use xlink:href="#m12ce172e87" x="168.889217" y="174.896203" style="fill: #ff7f0e; stroke: #ff7f0e"/>
     <use xlink:href="#m12ce172e87" x="179.053476" y="190.473687" style="fill: #ff7f0e; stroke: #ff7f0e"/>
     <use xlink:href="#m12ce172e87" x="189.217735" y="206.048033" style="fill: #ff7f0e; stroke: #ff7f0e"/>
     <use xlink:href="#m12ce172e87" x="199.381994" y="221.61981" style="fill: #ff7f0e; stroke: #ff7f0e"/>
     <use xlink:href="#m12ce172e87" x="209.546253" y="237.189298" style="fill: #ff7f0e; stroke: #ff7f0e"/>
     <use xlink:href="#m12ce172e87" x="219.710512" y="252.756846" style="fill: #ff7f0e; stroke: #ff7f0e"/>
     <use xlink:href="#m12ce172e87" x="229.874771" y="268.322739" style="fill: #ff7f0e; stroke: #ff7f0e"/>
     <use xlink:href="#m12ce172e87" x="240.03903" y="283.887036" style="fill: #ff7f0e; stroke: #ff7f0e"/>
    </g>
   </g>
   <g id="line2d_29">
    <path d="M 67.246628 18.119786 
L 72.328758 23.102122 
L 77.410887 29.770928 
L 82.493017 35.444698 
L 87.575146 40.152179 
L 92.657276 49.554485 
L 97.739405 51.395784 
L 102.821535 57.662956 
L 107.903664 63.136888 
L 112.985793 68.126479 
L 118.067923 75.869347 
L 123.150052 79.0554 
L 128.232182 87.246189 
L 133.314311 90.25311 
L 138.396441 96.646327 
L 143.47857 101.698719 
L 148.5607 107.092412 
L 153.642829 113.501272 
L 158.724959 117.875759 
L 163.807088 126.325205 
L 168.889217 128.85397 
L 173.971347 137.288316 
L 179.053476 139.981754 
L 184.135606 146.730722 
L 189.217735 151.253482 
L 194.299865 157.104762 
L 199.381994 162.699132 
L 204.464124 167.785474 
L 209.546253 174.422583 
L 214.628383 178.636086 
L 219.710512 186.861803 
L 224.792641 189.605881 
L 229.874771 199.187819 
L 234.9569 200.67393 
L 240.03903 207.997832 
L 245.121159 211.83498 
L 250.203289 218.216299 
L 255.285418 223.096921 
L 260.367548 228.788448 
L 265.449677 234.486113 
L 270.531807 239.537523 
L 275.613936 246.069697 
L 280.696065 250.400633 
L 285.778195 258.055388 
L 290.860324 261.349083 
L 295.942454 272.130621 
L 301.024583 272.368986 
L 306.106713 280.688208 
L 311.188842 283.454645 
L 316.270972 290.515789 
" clip-path="url(#p941e0ff20f)" style="fill: none; stroke: #2ca02c; stroke-width: 1.5; stroke-linecap: square"/>
    <defs>
     <path id="m9b054ba609" d="M 0 1.5 
C 0.397805 1.5 0.77937 1.341951 1.06066 1.06066 
C 1.341951 0.77937 1.5 0.397805 1.5 0 
C 1.5 -0.397805 1.341951 -0.77937 1.06066 -1.06066 
C 0.77937 -1.341951 0.397805 -1.5 0 -1.5 
C -0.397805 -1.5 -0.77937 -1.341951 -1.06066 -1.06066 
C -1.341951 -0.77937 -1.5 -0.397805 -1.5 0 
C -1.5 0.397805 -1.341951 0.77937 -1.06066 1.06066 
C -0.77937 1.341951 -0.397805 1.5 0 1.5 
z
" style="stroke: #2ca02c"/>
    </defs>
    <g clip-path="url(#p941e0ff20f)">
     <use xlink:href="#m9b054ba609" x="67.246628" y="18.119786" style="fill: #2ca02c; stroke: #2ca02c"/>
     <use xlink:href="#m9b054ba609" x="72.328758" y="23.102122" style="fill: #2ca02c; stroke: #2ca02c"/>
     <use xlink:href="#m9b054ba609" x="77.410887" y="29.770928" style="fill: #2ca02c; stroke: #2ca02c"/>
     <use xlink:href="#m9b054ba609" x="82.493017" y="35.444698" style="fill: #2ca02c; stroke: #2ca02c"/>
     <use xlink:href="#m9b054ba609" x="87.575146" y="40.152179" style="fill: #2ca02c; stroke: #2ca02c"/>
     <use xlink:href="#m9b054ba609" x="92.657276" y="49.554485" style="fill: #2ca02c; stroke: #2ca02c"/>
     <use xlink:href="#m9b054ba609" x="97.739405" y="51.395784" style="fill: #2ca02c; stroke: #2ca02c"/>
     <use xlink:href="#m9b054ba609" x="102.821535" y="57.662956" style="fill: #2ca02c; stroke: #2ca02c"/>
     <use xlink:href="#m9b054ba609" x="107.903664" y="63.136888" style="fill: #2ca02c; stroke: #2ca02c"/>
     <use xlink:href="#m9b054ba609" x="112.985793" y="68.126479" style="fill: #2ca02c; stroke: #2ca02c"/>
     <use xlink:href="#m9b054ba609" x="118.067923" y="75.869347" style="fill: #2ca02c; stroke: #2ca02c"/>
     <use xlink:href="#m9b054ba609" x="123.150052" y="79.0554" style="fill: #2ca02c; stroke: #2ca02c"/>
     <use xlink:href="#m9b054ba609" x="128.232182" y="87.246189" style="fill: #2ca02c; stroke: #2ca02c"/>
     <use xlink:href="#m9b054ba609" x="133.314311" y="90.25311" style="fill: #2ca02c; stroke: #2ca02c"/>
     <use xlink:href="#m9b054ba609" x="138.396441" y="96.646327" style="fill: #2ca02c; stroke: #2ca02c"/>
     <use xlink:href="#m9b054ba609" x="143.47857" y="101.698719" style="fill: #2ca02c; stroke: #2ca02c"/>
     <use xlink:href="#m9b054ba609" x="148.5607" y="107.092412" style="fill: #2ca02c; stroke: #2ca02c"/>
     <use xlink:href="#m9b054ba609" x="153.642829" y="113.501272" style="fill: #2ca02c; stroke: #2ca02c"/>
     <use xlink:href="#m9b054ba609" x="158.724959" y="117.875759" style="fill: #2ca02c; stroke: #2ca02c"/>
     <use xlink:href="#m9b054ba609" x="163.807088" y="126.325205" style="fill: #2ca02c; stroke: #2ca02c"/>
     <use xlink:href="#m9b054ba609" x="168.889217" y="128.85397" style="fill: #2ca02c; stroke: #2ca02c"/>
     <use xlink:href="#m9b054ba609" x="173.971347" y="137.288316" style="fill: #2ca02c; stroke: #2ca02c"/>
     <use xlink:href="#m9b054ba609" x="179.053476" y="139.981754" style="fill: #2ca02c; stroke: #2ca02c"/>
     <use xlink:href="#m9b054ba609" x="184.135606" y="146.730722" style="fill: #2ca02c; stroke: #2ca02c"/>
     <use xlink:href="#m9b054ba609" x="189.217735" y="151.253482" style="fill: #2ca02c; stroke: #2ca02c"/>
     <use xlink:href="#m9b054ba609" x="194.299865" y="157.104762" style="fill: #2ca02c; stroke: #2ca02c"/>
     <use xlink:href="#m9b054ba609" x="199.381994" y="162.699132" style="fill: #2ca02c; stroke: #2ca02c"/>
     <use xlink:href="#m9b054ba609" x="204.464124" y="167.785474" style="fill: #2ca02c; stroke: #2ca02c"/>
     <use xlink:href="#m9b054ba609" x="209.546253" y="174.422583" style="fill: #2ca02c; stroke: #2ca02c"/>
     <use xlink:href="#m9b054ba609" x="214.628383" y="178.636086" style="fill: #2ca02c; stroke: #2ca02c"/>
     <use xlink:href="#m9b054ba609" x="219.710512" y="186.861803" style="fill: #2ca02c; stroke: #2ca02c"/>
     <use xlink:href="#m9b054ba609" x="224.792641" y="189.605881" style="fill: #2ca02c; stroke: #2ca02c"/>
     <use xlink:href="#m9b054ba609" x="229.874771" y="199.187819" style="fill: #2ca02c; stroke: #2ca02c"/>
     <use xlink:href="#m9b054ba609" x="234.9569" y="200.67393" style="fill: #2ca02c; stroke: #2ca02c"/>
     <use xlink:href="#m9b054ba609" x="240.03903" y="207.997832" style="fill: #2ca02c; stroke: #2ca02c"/>
     <use xlink:href="#m9b054ba609" x="245.121159" y="211.83498" style="fill: #2ca02c; stroke: #2ca02c"/>
     <use xlink:href="#m9b054ba609" x="250.203289" y="218.216299" style="fill: #2ca02c; stroke: #2ca02c"/>
     <use xlink:href="#m9b054ba609" x="255.285418" y="223.096921" style="fill: #2ca02c; stroke: #2ca02c"/>
     <use xlink:href="#m9b054ba609" x="260.367548" y="228.788448" style="fill: #2ca02c; stroke: #2ca02c"/>
     <use xlink:href="#m9b054ba609" x="265.449677" y="234.486113" style="fill: #2ca02c; stroke: #2ca02c"/>
     <use xlink:href="#m9b054ba609" x="270.531807" y="239.537523" style="fill: #2ca02c; stroke: #2ca02c"/>
     <use xlink:href="#m9b054ba609" x="275.613936" y="246.069697" style="fill: #2ca02c; stroke: #2ca02c"/>
     <use xlink:href="#m9b054ba609" x="280.696065" y="250.400633" style="fill: #2ca02c; stroke: #2ca02c"/>
     <use xlink:href="#m9b054ba609" x="285.778195" y="258.055388" style="fill: #2ca02c; stroke: #2ca02c"/>
     <use xlink:href="#m9b054ba609" x="290.860324" y="261.349083" style="fill: #2ca02c; stroke: #2ca02c"/>
     <use xlink:href="#m9b054ba609" x="295.942454" y="272.130621" style="fill: #2ca02c; stroke: #2ca02c"/>
     <use xlink:href="#m9b054ba609" x="301.024583" y="272.368986" style="fill: #2ca02c; stroke: #2ca02c"/>
     <use xlink:href="#m9b054ba609" x="306.106713" y="280.688208" style="fill: #2ca02c; stroke: #2ca02c"/>
     <use xlink:href="#m9b054ba609" x="311.188842" y="283.454645" style="fill: #2ca02c; stroke: #2ca02c"/>
     <use xlink:href="#m9b054ba609" x="316.270972" y="290.515789" style="fill: #2ca02c; stroke: #2ca02c"/>
    </g>
   </g>
   <g id="line2d_30">
    <path d="M 67.246628 18.118365 
M 77.410887 29.52201 
M 87.575146 40.605708 
M 97.739405 51.606268 
M 107.903664 62.568359 
M 118.067923 73.508195 
M 128.232182 84.433579 
M 138.396441 95.348742 
M 148.5607 106.256391 
M 158.724959 117.158193 
M 168.889217 128.05539 
M 179.053476 138.948804 
M 189.217735 149.839108 
M 199.381994 160.726754 
M 209.546253 171.612169 
M 219.710512 182.495636 
M 229.874771 193.377383 
M 240.03903 204.257661 
M 250.203289 215.136609 
M 260.367548 226.014362 
M 270.531807 236.891055 
M 280.696065 247.766764 
M 290.860324 258.641617 
M 301.024583 269.515687 
M 311.188842 280.388995 
" clip-path="url(#p941e0ff20f)" style="fill: none; stroke: #d62728; stroke-width: 1.5; stroke-linecap: square"/>
    <defs>
     <path id="md9e574999c" d="M 0 1.5 
C 0.397805 1.5 0.77937 1.341951 1.06066 1.06066 
C 1.341951 0.77937 1.5 0.397805 1.5 0 
C 1.5 -0.397805 1.341951 -0.77937 1.06066 -1.06066 
C 0.77937 -1.341951 0.397805 -1.5 0 -1.5 
C -0.397805 -1.5 -0.77937 -1.341951 -1.06066 -1.06066 
C -1.341951 -0.77937 -1.5 -0.397805 -1.5 0 
C -1.5 0.397805 -1.341951 0.77937 -1.06066 1.06066 
C -0.77937 1.341951 -0.397805 1.5 0 1.5 
z
" style="stroke: #d62728"/>
    </defs>
    <g clip-path="url(#p941e0ff20f)">
     <use xlink:href="#md9e574999c" x="67.246628" y="18.118365" style="fill: #d62728; stroke: #d62728"/>
     <use xlink:href="#md9e574999c" x="77.410887" y="29.52201" style="fill: #d62728; stroke: #d62728"/>
     <use xlink:href="#md9e574999c" x="87.575146" y="40.605708" style="fill: #d62728; stroke: #d62728"/>
     <use xlink:href="#md9e574999c" x="97.739405" y="51.606268" style="fill: #d62728; stroke: #d62728"/>
     <use xlink:href="#md9e574999c" x="107.903664" y="62.568359" style="fill: #d62728; stroke: #d62728"/>
     <use xlink:href="#md9e574999c" x="118.067923" y="73.508195" style="fill: #d62728; stroke: #d62728"/>
     <use xlink:href="#md9e574999c" x="128.232182" y="84.433579" style="fill: #d62728; stroke: #d62728"/>
     <use xlink:href="#md9e574999c" x="138.396441" y="95.348742" style="fill: #d62728; stroke: #d62728"/>
     <use xlink:href="#md9e574999c" x="148.5607" y="106.256391" style="fill: #d62728; stroke: #d62728"/>
     <use xlink:href="#md9e574999c" x="158.724959" y="117.158193" style="fill: #d62728; stroke: #d62728"/>
     <use xlink:href="#md9e574999c" x="168.889217" y="128.05539" style="fill: #d62728; stroke: #d62728"/>
     <use xlink:href="#md9e574999c" x="179.053476" y="138.948804" style="fill: #d62728; stroke: #d62728"/>
     <use xlink:href="#md9e574999c" x="189.217735" y="149.839108" style="fill: #d62728; stroke: #d62728"/>
     <use xlink:href="#md9e574999c" x="199.381994" y="160.726754" style="fill: #d62728; stroke: #d62728"/>
     <use xlink:href="#md9e574999c" x="209.546253" y="171.612169" style="fill: #d62728; stroke: #d62728"/>
     <use xlink:href="#md9e574999c" x="219.710512" y="182.495636" style="fill: #d62728; stroke: #d62728"/>
     <use xlink:href="#md9e574999c" x="229.874771" y="193.377383" style="fill: #d62728; stroke: #d62728"/>
     <use xlink:href="#md9e574999c" x="240.03903" y="204.257661" style="fill: #d62728; stroke: #d62728"/>
     <use xlink:href="#md9e574999c" x="250.203289" y="215.136609" style="fill: #d62728; stroke: #d62728"/>
     <use xlink:href="#md9e574999c" x="260.367548" y="226.014362" style="fill: #d62728; stroke: #d62728"/>
     <use xlink:href="#md9e574999c" x="270.531807" y="236.891055" style="fill: #d62728; stroke: #d62728"/>
     <use xlink:href="#md9e574999c" x="280.696065" y="247.766764" style="fill: #d62728; stroke: #d62728"/>
     <use xlink:href="#md9e574999c" x="290.860324" y="258.641617" style="fill: #d62728; stroke: #d62728"/>
     <use xlink:href="#md9e574999c" x="301.024583" y="269.515687" style="fill: #d62728; stroke: #d62728"/>
     <use xlink:href="#md9e574999c" x="311.188842" y="280.388995" style="fill: #d62728; stroke: #d62728"/>
    </g>
   </g>
   <g id="line2d_31">
    <path d="M 67.246628 18.118365 
M 77.410887 31.859145 
M 87.575146 45.279922 
M 97.739405 58.617571 
M 107.903664 71.916795 
M 118.067923 85.19369 
M 128.232182 98.456152 
M 138.396441 111.708466 
M 148.5607 124.953173 
M 158.724959 138.192088 
M 168.889217 151.426374 
M 179.053476 164.656899 
M 189.217735 177.884335 
M 199.381994 191.109061 
M 209.546253 204.331557 
M 219.710512 217.552105 
M 229.874771 230.770954 
M 240.03903 243.988325 
M 250.203289 257.20442 
M 260.367548 270.419235 
M 270.531807 283.633012 
" clip-path="url(#p941e0ff20f)" style="fill: none; stroke: #9467bd; stroke-width: 1.5; stroke-linecap: square"/>
    <defs>
     <path id="m949589b17c" d="M 0 1.5 
C 0.397805 1.5 0.77937 1.341951 1.06066 1.06066 
C 1.341951 0.77937 1.5 0.397805 1.5 0 
C 1.5 -0.397805 1.341951 -0.77937 1.06066 -1.06066 
C 0.77937 -1.341951 0.397805 -1.5 0 -1.5 
C -0.397805 -1.5 -0.77937 -1.341951 -1.06066 -1.06066 
C -1.341951 -0.77937 -1.5 -0.397805 -1.5 0 
C -1.5 0.397805 -1.341951 0.77937 -1.06066 1.06066 
C -0.77937 1.341951 -0.397805 1.5 0 1.5 
z
" style="stroke: #9467bd"/>
    </defs>
    <g clip-path="url(#p941e0ff20f)">
     <use xlink:href="#m949589b17c" x="67.246628" y="18.118365" style="fill: #9467bd; stroke: #9467bd"/>
     <use xlink:href="#m949589b17c" x="77.410887" y="31.859145" style="fill: #9467bd; stroke: #9467bd"/>
     <use xlink:href="#m949589b17c" x="87.575146" y="45.279922" style="fill: #9467bd; stroke: #9467bd"/>
     <use xlink:href="#m949589b17c" x="97.739405" y="58.617571" style="fill: #9467bd; stroke: #9467bd"/>
     <use xlink:href="#m949589b17c" x="107.903664" y="71.916795" style="fill: #9467bd; stroke: #9467bd"/>
     <use xlink:href="#m949589b17c" x="118.067923" y="85.19369" style="fill: #9467bd; stroke: #9467bd"/>
     <use xlink:href="#m949589b17c" x="128.232182" y="98.456152" style="fill: #9467bd; stroke: #9467bd"/>
     <use xlink:href="#m949589b17c" x="138.396441" y="111.708466" style="fill: #9467bd; stroke: #9467bd"/>
     <use xlink:href="#m949589b17c" x="148.5607" y="124.953173" style="fill: #9467bd; stroke: #9467bd"/>
     <use xlink:href="#m949589b17c" x="158.724959" y="138.192088" style="fill: #9467bd; stroke: #9467bd"/>
     <use xlink:href="#m949589b17c" x="168.889217" y="151.426374" style="fill: #9467bd; stroke: #9467bd"/>
     <use xlink:href="#m949589b17c" x="179.053476" y="164.656899" style="fill: #9467bd; stroke: #9467bd"/>
     <use xlink:href="#m949589b17c" x="189.217735" y="177.884335" style="fill: #9467bd; stroke: #9467bd"/>
     <use xlink:href="#m949589b17c" x="199.381994" y="191.109061" style="fill: #9467bd; stroke: #9467bd"/>
     <use xlink:href="#m949589b17c" x="209.546253" y="204.331557" style="fill: #9467bd; stroke: #9467bd"/>
     <use xlink:href="#m949589b17c" x="219.710512" y="217.552105" style="fill: #9467bd; stroke: #9467bd"/>
     <use xlink:href="#m949589b17c" x="229.874771" y="230.770954" style="fill: #9467bd; stroke: #9467bd"/>
     <use xlink:href="#m949589b17c" x="240.03903" y="243.988325" style="fill: #9467bd; stroke: #9467bd"/>
     <use xlink:href="#m949589b17c" x="250.203289" y="257.20442" style="fill: #9467bd; stroke: #9467bd"/>
     <use xlink:href="#m949589b17c" x="260.367548" y="270.419235" style="fill: #9467bd; stroke: #9467bd"/>
     <use xlink:href="#m949589b17c" x="270.531807" y="283.633012" style="fill: #9467bd; stroke: #9467bd"/>
    </g>
   </g>
   <g id="line2d_32">
    <path d="M 67.246628 18.118365 
M 77.410887 32.383973 
M 87.575146 46.329681 
M 97.739405 60.192214 
M 107.903664 74.01627 
M 118.067923 87.818096 
M 128.232182 101.605412 
M 138.396441 115.382633 
M 148.5607 129.152217 
M 158.724959 142.916001 
M 168.889217 156.675181 
M 179.053476 170.430589 
M 189.217735 184.182854 
M 199.381994 197.932485 
M 209.546253 211.679876 
M 219.710512 225.425316 
M 229.874771 239.169012 
M 240.03903 252.911319 
M 250.203289 266.652235 
M 260.367548 280.39197 
" clip-path="url(#p941e0ff20f)" style="fill: none; stroke: #8c564b; stroke-width: 1.5; stroke-linecap: square"/>
    <defs>
     <path id="m25a10c7b5b" d="M 0 1.5 
C 0.397805 1.5 0.77937 1.341951 1.06066 1.06066 
C 1.341951 0.77937 1.5 0.397805 1.5 0 
C 1.5 -0.397805 1.341951 -0.77937 1.06066 -1.06066 
C 0.77937 -1.341951 0.397805 -1.5 0 -1.5 
C -0.397805 -1.5 -0.77937 -1.341951 -1.06066 -1.06066 
C -1.341951 -0.77937 -1.5 -0.397805 -1.5 0 
C -1.5 0.397805 -1.341951 0.77937 -1.06066 1.06066 
C -0.77937 1.341951 -0.397805 1.5 0 1.5 
z
" style="stroke: #8c564b"/>
    </defs>
    <g clip-path="url(#p941e0ff20f)">
     <use xlink:href="#m25a10c7b5b" x="67.246628" y="18.118365" style="fill: #8c564b; stroke: #8c564b"/>
     <use xlink:href="#m25a10c7b5b" x="77.410887" y="32.383973" style="fill: #8c564b; stroke: #8c564b"/>
     <use xlink:href="#m25a10c7b5b" x="87.575146" y="46.329681" style="fill: #8c564b; stroke: #8c564b"/>
     <use xlink:href="#m25a10c7b5b" x="97.739405" y="60.192214" style="fill: #8c564b; stroke: #8c564b"/>
     <use xlink:href="#m25a10c7b5b" x="107.903664" y="74.01627" style="fill: #8c564b; stroke: #8c564b"/>
     <use xlink:href="#m25a10c7b5b" x="118.067923" y="87.818096" style="fill: #8c564b; stroke: #8c564b"/>
     <use xlink:href="#m25a10c7b5b" x="128.232182" y="101.605412" style="fill: #8c564b; stroke: #8c564b"/>
     <use xlink:href="#m25a10c7b5b" x="138.396441" y="115.382633" style="fill: #8c564b; stroke: #8c564b"/>
     <use xlink:href="#m25a10c7b5b" x="148.5607" y="129.152217" style="fill: #8c564b; stroke: #8c564b"/>
     <use xlink:href="#m25a10c7b5b" x="158.724959" y="142.916001" style="fill: #8c564b; stroke: #8c564b"/>
     <use xlink:href="#m25a10c7b5b" x="168.889217" y="156.675181" style="fill: #8c564b; stroke: #8c564b"/>
     <use xlink:href="#m25a10c7b5b" x="179.053476" y="170.430589" style="fill: #8c564b; stroke: #8c564b"/>
     <use xlink:href="#m25a10c7b5b" x="189.217735" y="184.182854" style="fill: #8c564b; stroke: #8c564b"/>
     <use xlink:href="#m25a10c7b5b" x="199.381994" y="197.932485" style="fill: #8c564b; stroke: #8c564b"/>
     <use xlink:href="#m25a10c7b5b" x="209.546253" y="211.679876" style="fill: #8c564b; stroke: #8c564b"/>
     <use xlink:href="#m25a10c7b5b" x="219.710512" y="225.425316" style="fill: #8c564b; stroke: #8c564b"/>
     <use xlink:href="#m25a10c7b5b" x="229.874771" y="239.169012" style="fill: #8c564b; stroke: #8c564b"/>
     <use xlink:href="#m25a10c7b5b" x="240.03903" y="252.911319" style="fill: #8c564b; stroke: #8c564b"/>
     <use xlink:href="#m25a10c7b5b" x="250.203289" y="266.652235" style="fill: #8c564b; stroke: #8c564b"/>
     <use xlink:href="#m25a10c7b5b" x="260.367548" y="280.39197" style="fill: #8c564b; stroke: #8c564b"/>
    </g>
   </g>
   <g id="line2d_33">
    <path d="M 67.246628 18.118381 
L 72.328758 27.068778 
L 77.410887 32.500195 
L 82.493017 40.505625 
L 87.575146 46.56808 
L 92.657276 54.08671 
L 97.739405 60.559762 
L 102.821535 67.722616 
L 107.903664 74.520839 
L 112.985793 81.38763 
L 118.067923 88.468888 
L 123.150052 95.070756 
L 128.232182 102.413155 
L 133.314311 108.766373 
L 138.396441 116.35991 
L 143.47857 122.471013 
L 148.5607 130.314431 
L 153.642829 136.182824 
L 158.724959 144.281959 
L 163.807088 149.900199 
L 168.889217 158.268456 
L 173.971347 163.622233 
L 179.053476 172.28196 
L 184.135606 177.348187 
L 189.217735 186.333928 
L 194.299865 191.077468 
L 199.381994 200.442544 
L 204.464124 204.809682 
L 209.546253 214.640699 
L 214.628383 218.544517 
L 219.710512 228.998136 
L 224.792641 232.281788 
L 229.874771 243.715664 
L 234.9569 246.021116 
L 240.03903 260.247392 
L 245.121159 259.762464 
L 250.203289 271.916255 
L 255.285418 273.505721 
L 260.367548 284.388938 
L 265.449677 287.250717 
" clip-path="url(#p941e0ff20f)" style="fill: none; stroke: #e377c2; stroke-width: 1.5; stroke-linecap: square"/>
    <defs>
     <path id="m3ea4cc4436" d="M 0 1.5 
C 0.397805 1.5 0.77937 1.341951 1.06066 1.06066 
C 1.341951 0.77937 1.5 0.397805 1.5 0 
C 1.5 -0.397805 1.341951 -0.77937 1.06066 -1.06066 
C 0.77937 -1.341951 0.397805 -1.5 0 -1.5 
C -0.397805 -1.5 -0.77937 -1.341951 -1.06066 -1.06066 
C -1.341951 -0.77937 -1.5 -0.397805 -1.5 0 
C -1.5 0.397805 -1.341951 0.77937 -1.06066 1.06066 
C -0.77937 1.341951 -0.397805 1.5 0 1.5 
z
" style="stroke: #e377c2"/>
    </defs>
    <g clip-path="url(#p941e0ff20f)">
     <use xlink:href="#m3ea4cc4436" x="67.246628" y="18.118381" style="fill: #e377c2; stroke: #e377c2"/>
     <use xlink:href="#m3ea4cc4436" x="72.328758" y="27.068778" style="fill: #e377c2; stroke: #e377c2"/>
     <use xlink:href="#m3ea4cc4436" x="77.410887" y="32.500195" style="fill: #e377c2; stroke: #e377c2"/>
     <use xlink:href="#m3ea4cc4436" x="82.493017" y="40.505625" style="fill: #e377c2; stroke: #e377c2"/>
     <use xlink:href="#m3ea4cc4436" x="87.575146" y="46.56808" style="fill: #e377c2; stroke: #e377c2"/>
     <use xlink:href="#m3ea4cc4436" x="92.657276" y="54.08671" style="fill: #e377c2; stroke: #e377c2"/>
     <use xlink:href="#m3ea4cc4436" x="97.739405" y="60.559762" style="fill: #e377c2; stroke: #e377c2"/>
     <use xlink:href="#m3ea4cc4436" x="102.821535" y="67.722616" style="fill: #e377c2; stroke: #e377c2"/>
     <use xlink:href="#m3ea4cc4436" x="107.903664" y="74.520839" style="fill: #e377c2; stroke: #e377c2"/>
     <use xlink:href="#m3ea4cc4436" x="112.985793" y="81.38763" style="fill: #e377c2; stroke: #e377c2"/>
     <use xlink:href="#m3ea4cc4436" x="118.067923" y="88.468888" style="fill: #e377c2; stroke: #e377c2"/>
     <use xlink:href="#m3ea4cc4436" x="123.150052" y="95.070756" style="fill: #e377c2; stroke: #e377c2"/>
     <use xlink:href="#m3ea4cc4436" x="128.232182" y="102.413155" style="fill: #e377c2; stroke: #e377c2"/>
     <use xlink:href="#m3ea4cc4436" x="133.314311" y="108.766373" style="fill: #e377c2; stroke: #e377c2"/>
     <use xlink:href="#m3ea4cc4436" x="138.396441" y="116.35991" style="fill: #e377c2; stroke: #e377c2"/>
     <use xlink:href="#m3ea4cc4436" x="143.47857" y="122.471013" style="fill: #e377c2; stroke: #e377c2"/>
     <use xlink:href="#m3ea4cc4436" x="148.5607" y="130.314431" style="fill: #e377c2; stroke: #e377c2"/>
     <use xlink:href="#m3ea4cc4436" x="153.642829" y="136.182824" style="fill: #e377c2; stroke: #e377c2"/>
     <use xlink:href="#m3ea4cc4436" x="158.724959" y="144.281959" style="fill: #e377c2; stroke: #e377c2"/>
     <use xlink:href="#m3ea4cc4436" x="163.807088" y="149.900199" style="fill: #e377c2; stroke: #e377c2"/>
     <use xlink:href="#m3ea4cc4436" x="168.889217" y="158.268456" style="fill: #e377c2; stroke: #e377c2"/>
     <use xlink:href="#m3ea4cc4436" x="173.971347" y="163.622233" style="fill: #e377c2; stroke: #e377c2"/>
     <use xlink:href="#m3ea4cc4436" x="179.053476" y="172.28196" style="fill: #e377c2; stroke: #e377c2"/>
     <use xlink:href="#m3ea4cc4436" x="184.135606" y="177.348187" style="fill: #e377c2; stroke: #e377c2"/>
     <use xlink:href="#m3ea4cc4436" x="189.217735" y="186.333928" style="fill: #e377c2; stroke: #e377c2"/>
     <use xlink:href="#m3ea4cc4436" x="194.299865" y="191.077468" style="fill: #e377c2; stroke: #e377c2"/>
     <use xlink:href="#m3ea4cc4436" x="199.381994" y="200.442544" style="fill: #e377c2; stroke: #e377c2"/>
     <use xlink:href="#m3ea4cc4436" x="204.464124" y="204.809682" style="fill: #e377c2; stroke: #e377c2"/>
     <use xlink:href="#m3ea4cc4436" x="209.546253" y="214.640699" style="fill: #e377c2; stroke: #e377c2"/>
     <use xlink:href="#m3ea4cc4436" x="214.628383" y="218.544517" style="fill: #e377c2; stroke: #e377c2"/>
     <use xlink:href="#m3ea4cc4436" x="219.710512" y="228.998136" style="fill: #e377c2; stroke: #e377c2"/>
     <use xlink:href="#m3ea4cc4436" x="224.792641" y="232.281788" style="fill: #e377c2; stroke: #e377c2"/>
     <use xlink:href="#m3ea4cc4436" x="229.874771" y="243.715664" style="fill: #e377c2; stroke: #e377c2"/>
     <use xlink:href="#m3ea4cc4436" x="234.9569" y="246.021116" style="fill: #e377c2; stroke: #e377c2"/>
     <use xlink:href="#m3ea4cc4436" x="240.03903" y="260.247392" style="fill: #e377c2; stroke: #e377c2"/>
     <use xlink:href="#m3ea4cc4436" x="245.121159" y="259.762464" style="fill: #e377c2; stroke: #e377c2"/>
     <use xlink:href="#m3ea4cc4436" x="250.203289" y="271.916255" style="fill: #e377c2; stroke: #e377c2"/>
     <use xlink:href="#m3ea4cc4436" x="255.285418" y="273.505721" style="fill: #e377c2; stroke: #e377c2"/>
     <use xlink:href="#m3ea4cc4436" x="260.367548" y="284.388938" style="fill: #e377c2; stroke: #e377c2"/>
     <use xlink:href="#m3ea4cc4436" x="265.449677" y="287.250717" style="fill: #e377c2; stroke: #e377c2"/>
    </g>
   </g>
   <g id="line2d_34">
    <path d="M 67.246628 18.118381 
L 72.328758 26.869091 
L 77.410887 31.677371 
L 82.493017 39.62361 
L 87.575146 44.919954 
L 92.657276 52.522209 
L 97.739405 58.082734 
L 102.821535 65.475525 
L 107.903664 71.209873 
L 112.985793 78.457806 
L 118.067923 84.317611 
L 123.150052 91.458034 
L 128.232182 97.413441 
L 133.314311 104.470579 
L 138.396441 110.501358 
L 143.47857 117.491988 
L 148.5607 123.583927 
L 153.642829 130.520273 
L 158.724959 136.662731 
L 163.807088 143.553991 
L 168.889217 149.738797 
L 173.971347 156.592031 
L 179.053476 162.812886 
L 184.135606 169.633718 
L 189.217735 175.885502 
L 194.299865 182.678506 
L 199.381994 188.957061 
L 204.464124 195.725941 
L 209.546253 202.027882 
L 214.628383 208.775579 
L 219.710512 215.098094 
L 224.792641 221.827278 
L 229.874771 228.167977 
L 234.9569 234.880802 
L 240.03903 241.237583 
L 245.121159 247.935859 
L 250.203289 254.307077 
L 255.285418 260.992381 
L 260.367548 267.376505 
L 265.449677 274.050204 
L 270.531807 280.445944 
L 275.613936 287.109199 
" clip-path="url(#p941e0ff20f)" style="fill: none; stroke: #7f7f7f; stroke-width: 1.5; stroke-linecap: square"/>
    <defs>
     <path id="m37495e86ee" d="M 0 1.5 
C 0.397805 1.5 0.77937 1.341951 1.06066 1.06066 
C 1.341951 0.77937 1.5 0.397805 1.5 0 
C 1.5 -0.397805 1.341951 -0.77937 1.06066 -1.06066 
C 0.77937 -1.341951 0.397805 -1.5 0 -1.5 
C -0.397805 -1.5 -0.77937 -1.341951 -1.06066 -1.06066 
C -1.341951 -0.77937 -1.5 -0.397805 -1.5 0 
C -1.5 0.397805 -1.341951 0.77937 -1.06066 1.06066 
C -0.77937 1.341951 -0.397805 1.5 0 1.5 
z
" style="stroke: #7f7f7f"/>
    </defs>
    <g clip-path="url(#p941e0ff20f)">
     <use xlink:href="#m37495e86ee" x="67.246628" y="18.118381" style="fill: #7f7f7f; stroke: #7f7f7f"/>
     <use xlink:href="#m37495e86ee" x="72.328758" y="26.869091" style="fill: #7f7f7f; stroke: #7f7f7f"/>
     <use xlink:href="#m37495e86ee" x="77.410887" y="31.677371" style="fill: #7f7f7f; stroke: #7f7f7f"/>
     <use xlink:href="#m37495e86ee" x="82.493017" y="39.62361" style="fill: #7f7f7f; stroke: #7f7f7f"/>
     <use xlink:href="#m37495e86ee" x="87.575146" y="44.919954" style="fill: #7f7f7f; stroke: #7f7f7f"/>
     <use xlink:href="#m37495e86ee" x="92.657276" y="52.522209" style="fill: #7f7f7f; stroke: #7f7f7f"/>
     <use xlink:href="#m37495e86ee" x="97.739405" y="58.082734" style="fill: #7f7f7f; stroke: #7f7f7f"/>
     <use xlink:href="#m37495e86ee" x="102.821535" y="65.475525" style="fill: #7f7f7f; stroke: #7f7f7f"/>
     <use xlink:href="#m37495e86ee" x="107.903664" y="71.209873" style="fill: #7f7f7f; stroke: #7f7f7f"/>
     <use xlink:href="#m37495e86ee" x="112.985793" y="78.457806" style="fill: #7f7f7f; stroke: #7f7f7f"/>
     <use xlink:href="#m37495e86ee" x="118.067923" y="84.317611" style="fill: #7f7f7f; stroke: #7f7f7f"/>
     <use xlink:href="#m37495e86ee" x="123.150052" y="91.458034" style="fill: #7f7f7f; stroke: #7f7f7f"/>
     <use xlink:href="#m37495e86ee" x="128.232182" y="97.413441" style="fill: #7f7f7f; stroke: #7f7f7f"/>
     <use xlink:href="#m37495e86ee" x="133.314311" y="104.470579" style="fill: #7f7f7f; stroke: #7f7f7f"/>
     <use xlink:href="#m37495e86ee" x="138.396441" y="110.501358" style="fill: #7f7f7f; stroke: #7f7f7f"/>
     <use xlink:href="#m37495e86ee" x="143.47857" y="117.491988" style="fill: #7f7f7f; stroke: #7f7f7f"/>
     <use xlink:href="#m37495e86ee" x="148.5607" y="123.583927" style="fill: #7f7f7f; stroke: #7f7f7f"/>
     <use xlink:href="#m37495e86ee" x="153.642829" y="130.520273" style="fill: #7f7f7f; stroke: #7f7f7f"/>
     <use xlink:href="#m37495e86ee" x="158.724959" y="136.662731" style="fill: #7f7f7f; stroke: #7f7f7f"/>
     <use xlink:href="#m37495e86ee" x="163.807088" y="143.553991" style="fill: #7f7f7f; stroke: #7f7f7f"/>
     <use xlink:href="#m37495e86ee" x="168.889217" y="149.738797" style="fill: #7f7f7f; stroke: #7f7f7f"/>
     <use xlink:href="#m37495e86ee" x="173.971347" y="156.592031" style="fill: #7f7f7f; stroke: #7f7f7f"/>
     <use xlink:href="#m37495e86ee" x="179.053476" y="162.812886" style="fill: #7f7f7f; stroke: #7f7f7f"/>
     <use xlink:href="#m37495e86ee" x="184.135606" y="169.633718" style="fill: #7f7f7f; stroke: #7f7f7f"/>
     <use xlink:href="#m37495e86ee" x="189.217735" y="175.885502" style="fill: #7f7f7f; stroke: #7f7f7f"/>
     <use xlink:href="#m37495e86ee" x="194.299865" y="182.678506" style="fill: #7f7f7f; stroke: #7f7f7f"/>
     <use xlink:href="#m37495e86ee" x="199.381994" y="188.957061" style="fill: #7f7f7f; stroke: #7f7f7f"/>
     <use xlink:href="#m37495e86ee" x="204.464124" y="195.725941" style="fill: #7f7f7f; stroke: #7f7f7f"/>
     <use xlink:href="#m37495e86ee" x="209.546253" y="202.027882" style="fill: #7f7f7f; stroke: #7f7f7f"/>
     <use xlink:href="#m37495e86ee" x="214.628383" y="208.775579" style="fill: #7f7f7f; stroke: #7f7f7f"/>
     <use xlink:href="#m37495e86ee" x="219.710512" y="215.098094" style="fill: #7f7f7f; stroke: #7f7f7f"/>
     <use xlink:href="#m37495e86ee" x="224.792641" y="221.827278" style="fill: #7f7f7f; stroke: #7f7f7f"/>
     <use xlink:href="#m37495e86ee" x="229.874771" y="228.167977" style="fill: #7f7f7f; stroke: #7f7f7f"/>
     <use xlink:href="#m37495e86ee" x="234.9569" y="234.880802" style="fill: #7f7f7f; stroke: #7f7f7f"/>
     <use xlink:href="#m37495e86ee" x="240.03903" y="241.237583" style="fill: #7f7f7f; stroke: #7f7f7f"/>
     <use xlink:href="#m37495e86ee" x="245.121159" y="247.935859" style="fill: #7f7f7f; stroke: #7f7f7f"/>
     <use xlink:href="#m37495e86ee" x="250.203289" y="254.307077" style="fill: #7f7f7f; stroke: #7f7f7f"/>
     <use xlink:href="#m37495e86ee" x="255.285418" y="260.992381" style="fill: #7f7f7f; stroke: #7f7f7f"/>
     <use xlink:href="#m37495e86ee" x="260.367548" y="267.376505" style="fill: #7f7f7f; stroke: #7f7f7f"/>
     <use xlink:href="#m37495e86ee" x="265.449677" y="274.050204" style="fill: #7f7f7f; stroke: #7f7f7f"/>
     <use xlink:href="#m37495e86ee" x="270.531807" y="280.445944" style="fill: #7f7f7f; stroke: #7f7f7f"/>
     <use xlink:href="#m37495e86ee" x="275.613936" y="287.109199" style="fill: #7f7f7f; stroke: #7f7f7f"/>
    </g>
   </g>
   <g id="line2d_35">
    <path d="M 67.246628 18.118365 
L 72.328758 71.015 
L 77.410887 124.458491 
L 82.493017 178.221965 
L 87.575146 232.212367 
L 92.657276 286.378952 
" clip-path="url(#p941e0ff20f)" style="fill: none; stroke: #bcbd22; stroke-width: 1.5; stroke-linecap: square"/>
    <defs>
     <path id="m9ea287e040" d="M 0 1.5 
C 0.397805 1.5 0.77937 1.341951 1.06066 1.06066 
C 1.341951 0.77937 1.5 0.397805 1.5 0 
C 1.5 -0.397805 1.341951 -0.77937 1.06066 -1.06066 
C 0.77937 -1.341951 0.397805 -1.5 0 -1.5 
C -0.397805 -1.5 -0.77937 -1.341951 -1.06066 -1.06066 
C -1.341951 -0.77937 -1.5 -0.397805 -1.5 0 
C -1.5 0.397805 -1.341951 0.77937 -1.06066 1.06066 
C -0.77937 1.341951 -0.397805 1.5 0 1.5 
z
" style="stroke: #bcbd22"/>
    </defs>
    <g clip-path="url(#p941e0ff20f)">
     <use xlink:href="#m9ea287e040" x="67.246628" y="18.118365" style="fill: #bcbd22; stroke: #bcbd22"/>
     <use xlink:href="#m9ea287e040" x="72.328758" y="71.015" style="fill: #bcbd22; stroke: #bcbd22"/>
     <use xlink:href="#m9ea287e040" x="77.410887" y="124.458491" style="fill: #bcbd22; stroke: #bcbd22"/>
     <use xlink:href="#m9ea287e040" x="82.493017" y="178.221965" style="fill: #bcbd22; stroke: #bcbd22"/>
     <use xlink:href="#m9ea287e040" x="87.575146" y="232.212367" style="fill: #bcbd22; stroke: #bcbd22"/>
     <use xlink:href="#m9ea287e040" x="92.657276" y="286.378952" style="fill: #bcbd22; stroke: #bcbd22"/>
    </g>
   </g>
   <g id="line2d_36">
    <path d="M 67.246628 18.118365 
L 72.328758 70.674866 
L 77.410887 36.432731 
L 82.493017 88.122357 
L 87.575146 54.427208 
L 92.657276 105.713716 
L 97.739405 72.33844 
L 102.821535 123.359483 
L 107.903664 90.211267 
L 112.985793 141.034008 
L 118.067923 108.061794 
L 123.150052 158.726276 
L 128.232182 125.897933 
L 133.314311 176.43054 
L 138.396441 143.723849 
L 143.47857 194.143554 
L 148.5607 161.542174 
L 153.642829 211.86317 
L 158.724959 179.354743 
L 163.807088 229.587923 
L 168.889217 197.16265 
L 173.971347 247.316868 
L 179.053476 214.966785 
L 184.135606 265.049266 
L 189.217735 232.767811 
L 194.299865 282.784491 
L 199.381994 250.566237 
M 209.546253 268.362308 
M 219.710512 286.156488 
" clip-path="url(#p941e0ff20f)" style="fill: none; stroke: #17becf; stroke-width: 1.5; stroke-linecap: square"/>
    <defs>
     <path id="mb657568e07" d="M 0 1.5 
C 0.397805 1.5 0.77937 1.341951 1.06066 1.06066 
C 1.341951 0.77937 1.5 0.397805 1.5 0 
C 1.5 -0.397805 1.341951 -0.77937 1.06066 -1.06066 
C 0.77937 -1.341951 0.397805 -1.5 0 -1.5 
C -0.397805 -1.5 -0.77937 -1.341951 -1.06066 -1.06066 
C -1.341951 -0.77937 -1.5 -0.397805 -1.5 0 
C -1.5 0.397805 -1.341951 0.77937 -1.06066 1.06066 
C -0.77937 1.341951 -0.397805 1.5 0 1.5 
z
" style="stroke: #17becf"/>
    </defs>
    <g clip-path="url(#p941e0ff20f)">
     <use xlink:href="#mb657568e07" x="67.246628" y="18.118365" style="fill: #17becf; stroke: #17becf"/>
     <use xlink:href="#mb657568e07" x="72.328758" y="70.674866" style="fill: #17becf; stroke: #17becf"/>
     <use xlink:href="#mb657568e07" x="77.410887" y="36.432731" style="fill: #17becf; stroke: #17becf"/>
     <use xlink:href="#mb657568e07" x="82.493017" y="88.122357" style="fill: #17becf; stroke: #17becf"/>
     <use xlink:href="#mb657568e07" x="87.575146" y="54.427208" style="fill: #17becf; stroke: #17becf"/>
     <use xlink:href="#mb657568e07" x="92.657276" y="105.713716" style="fill: #17becf; stroke: #17becf"/>
     <use xlink:href="#mb657568e07" x="97.739405" y="72.33844" style="fill: #17becf; stroke: #17becf"/>
     <use xlink:href="#mb657568e07" x="102.821535" y="123.359483" style="fill: #17becf; stroke: #17becf"/>
     <use xlink:href="#mb657568e07" x="107.903664" y="90.211267" style="fill: #17becf; stroke: #17becf"/>
     <use xlink:href="#mb657568e07" x="112.985793" y="141.034008" style="fill: #17becf; stroke: #17becf"/>
     <use xlink:href="#mb657568e07" x="118.067923" y="108.061794" style="fill: #17becf; stroke: #17becf"/>
     <use xlink:href="#mb657568e07" x="123.150052" y="158.726276" style="fill: #17becf; stroke: #17becf"/>
     <use xlink:href="#mb657568e07" x="128.232182" y="125.897933" style="fill: #17becf; stroke: #17becf"/>
     <use xlink:href="#mb657568e07" x="133.314311" y="176.43054" style="fill: #17becf; stroke: #17becf"/>
     <use xlink:href="#mb657568e07" x="138.396441" y="143.723849" style="fill: #17becf; stroke: #17becf"/>
     <use xlink:href="#mb657568e07" x="143.47857" y="194.143554" style="fill: #17becf; stroke: #17becf"/>
     <use xlink:href="#mb657568e07" x="148.5607" y="161.542174" style="fill: #17becf; stroke: #17becf"/>
     <use xlink:href="#mb657568e07" x="153.642829" y="211.86317" style="fill: #17becf; stroke: #17becf"/>
     <use xlink:href="#mb657568e07" x="158.724959" y="179.354743" style="fill: #17becf; stroke: #17becf"/>
     <use xlink:href="#mb657568e07" x="163.807088" y="229.587923" style="fill: #17becf; stroke: #17becf"/>
     <use xlink:href="#mb657568e07" x="168.889217" y="197.16265" style="fill: #17becf; stroke: #17becf"/>
     <use xlink:href="#mb657568e07" x="173.971347" y="247.316868" style="fill: #17becf; stroke: #17becf"/>
     <use xlink:href="#mb657568e07" x="179.053476" y="214.966785" style="fill: #17becf; stroke: #17becf"/>
     <use xlink:href="#mb657568e07" x="184.135606" y="265.049266" style="fill: #17becf; stroke: #17becf"/>
     <use xlink:href="#mb657568e07" x="189.217735" y="232.767811" style="fill: #17becf; stroke: #17becf"/>
     <use xlink:href="#mb657568e07" x="194.299865" y="282.784491" style="fill: #17becf; stroke: #17becf"/>
     <use xlink:href="#mb657568e07" x="199.381994" y="250.566237" style="fill: #17becf; stroke: #17becf"/>
     <use xlink:href="#mb657568e07" x="209.546253" y="268.362308" style="fill: #17becf; stroke: #17becf"/>
     <use xlink:href="#mb657568e07" x="219.710512" y="286.156488" style="fill: #17becf; stroke: #17becf"/>
    </g>
   </g>
   <g id="patch_3">
    <path d="M 52.00024 290.64351 
L 52.00024 18.118365 
" style="fill: none; stroke: #000000; stroke-width: 0.8; stroke-linejoin: miter; stroke-linecap: square"/>
   </g>
   <g id="patch_4">
    <path d="M 387.420784 290.64351 
L 387.420784 18.118365 
" style="fill: none; stroke: #000000; stroke-width: 0.8; stroke-linejoin: miter; stroke-linecap: square"/>
   </g>
   <g id="patch_5">
    <path d="M 52.00024 290.64351 
L 387.420784 290.64351 
" style="fill: none; stroke: #000000; stroke-width: 0.8; stroke-linejoin: miter; stroke-linecap: square"/>
   </g>
   <g id="patch_6">
    <path d="M 52.00024 18.118365 
L 387.420784 18.118365 
" style="fill: none; stroke: #000000; stroke-width: 0.8; stroke-linejoin: miter; stroke-linecap: square"/>
   </g>
   <g id="text_16">
    <!-- SrOPh X-C -->
    <g transform="translate(189.2202 12.118365) scale(0.12 -0.12)">
     <defs>
      <path id="DejaVuSans-53" d="M 3425 4513 
L 3425 3897 
Q 3066 4069 2747 4153 
Q 2428 4238 2131 4238 
Q 1616 4238 1336 4038 
Q 1056 3838 1056 3469 
Q 1056 3159 1242 3001 
Q 1428 2844 1947 2747 
L 2328 2669 
Q 3034 2534 3370 2195 
Q 3706 1856 3706 1288 
Q 3706 609 3251 259 
Q 2797 -91 1919 -91 
Q 1588 -91 1214 -16 
Q 841 59 441 206 
L 441 856 
Q 825 641 1194 531 
Q 1563 422 1919 422 
Q 2459 422 2753 634 
Q 3047 847 3047 1241 
Q 3047 1584 2836 1778 
Q 2625 1972 2144 2069 
L 1759 2144 
Q 1053 2284 737 2584 
Q 422 2884 422 3419 
Q 422 4038 858 4394 
Q 1294 4750 2059 4750 
Q 2388 4750 2728 4690 
Q 3069 4631 3425 4513 
z
" transform="scale(0.015625)"/>
      <path id="DejaVuSans-72" d="M 2631 2963 
Q 2534 3019 2420 3045 
Q 2306 3072 2169 3072 
Q 1681 3072 1420 2755 
Q 1159 2438 1159 1844 
L 1159 0 
L 581 0 
L 581 3500 
L 1159 3500 
L 1159 2956 
Q 1341 3275 1631 3429 
Q 1922 3584 2338 3584 
Q 2397 3584 2469 3576 
Q 2541 3569 2628 3553 
L 2631 2963 
z
" transform="scale(0.015625)"/>
      <path id="DejaVuSans-4f" d="M 2522 4238 
Q 1834 4238 1429 3725 
Q 1025 3213 1025 2328 
Q 1025 1447 1429 934 
Q 1834 422 2522 422 
Q 3209 422 3611 934 
Q 4013 1447 4013 2328 
Q 4013 3213 3611 3725 
Q 3209 4238 2522 4238 
z
M 2522 4750 
Q 3503 4750 4090 4092 
Q 4678 3434 4678 2328 
Q 4678 1225 4090 567 
Q 3503 -91 2522 -91 
Q 1538 -91 948 565 
Q 359 1222 359 2328 
Q 359 3434 948 4092 
Q 1538 4750 2522 4750 
z
" transform="scale(0.015625)"/>
      <path id="DejaVuSans-50" d="M 1259 4147 
L 1259 2394 
L 2053 2394 
Q 2494 2394 2734 2622 
Q 2975 2850 2975 3272 
Q 2975 3691 2734 3919 
Q 2494 4147 2053 4147 
L 1259 4147 
z
M 628 4666 
L 2053 4666 
Q 2838 4666 3239 4311 
Q 3641 3956 3641 3272 
Q 3641 2581 3239 2228 
Q 2838 1875 2053 1875 
L 1259 1875 
L 1259 0 
L 628 0 
L 628 4666 
z
" transform="scale(0.015625)"/>
      <path id="DejaVuSans-68" d="M 3513 2113 
L 3513 0 
L 2938 0 
L 2938 2094 
Q 2938 2591 2744 2837 
Q 2550 3084 2163 3084 
Q 1697 3084 1428 2787 
Q 1159 2491 1159 1978 
L 1159 0 
L 581 0 
L 581 4863 
L 1159 4863 
L 1159 2956 
Q 1366 3272 1645 3428 
Q 1925 3584 2291 3584 
Q 2894 3584 3203 3211 
Q 3513 2838 3513 2113 
z
" transform="scale(0.015625)"/>
      <path id="DejaVuSans-20" transform="scale(0.015625)"/>
      <path id="DejaVuSans-58" d="M 403 4666 
L 1081 4666 
L 2241 2931 
L 3406 4666 
L 4084 4666 
L 2584 2425 
L 4184 0 
L 3506 0 
L 2194 1984 
L 872 0 
L 191 0 
L 1856 2491 
L 403 4666 
z
" transform="scale(0.015625)"/>
      <path id="DejaVuSans-2d" d="M 313 2009 
L 1997 2009 
L 1997 1497 
L 313 1497 
L 313 2009 
z
" transform="scale(0.015625)"/>
      <path id="DejaVuSans-43" d="M 4122 4306 
L 4122 3641 
Q 3803 3938 3442 4084 
Q 3081 4231 2675 4231 
Q 1875 4231 1450 3742 
Q 1025 3253 1025 2328 
Q 1025 1406 1450 917 
Q 1875 428 2675 428 
Q 3081 428 3442 575 
Q 3803 722 4122 1019 
L 4122 359 
Q 3791 134 3420 21 
Q 3050 -91 2638 -91 
Q 1578 -91 968 557 
Q 359 1206 359 2328 
Q 359 3453 968 4101 
Q 1578 4750 2638 4750 
Q 3056 4750 3426 4639 
Q 3797 4528 4122 4306 
z
" transform="scale(0.015625)"/>
     </defs>
     <use xlink:href="#DejaVuSans-53"/>
     <use xlink:href="#DejaVuSans-72" transform="translate(63.476562 0)"/>
     <use xlink:href="#DejaVuSans-4f" transform="translate(104.589844 0)"/>
     <use xlink:href="#DejaVuSans-50" transform="translate(183.300781 0)"/>
     <use xlink:href="#DejaVuSans-68" transform="translate(243.603516 0)"/>
     <use xlink:href="#DejaVuSans-20" transform="translate(306.982422 0)"/>
     <use xlink:href="#DejaVuSans-58" transform="translate(338.769531 0)"/>
     <use xlink:href="#DejaVuSans-2d" transform="translate(402.275391 0)"/>
     <use xlink:href="#DejaVuSans-43" transform="translate(438.359375 0)"/>
    </g>
   </g>
   <g id="legend_1">
    <g id="patch_7">
     <path d="M 411.191811 179.118365 
L 571.291811 179.118365 
Q 573.291811 179.118365 573.291811 177.118365 
L 573.291811 25.118365 
Q 573.291811 23.118365 571.291811 23.118365 
L 411.191811 23.118365 
Q 409.191811 23.118365 409.191811 25.118365 
L 409.191811 177.118365 
Q 409.191811 179.118365 411.191811 179.118365 
z
" style="fill: #ffffff; opacity: 0.8; stroke: #cccccc; stroke-linejoin: miter"/>
    </g>
    <g id="line2d_37">
     <path d="M 413.191811 31.838678 
L 420.691811 31.838678 
L 428.191811 31.838678 
" style="fill: none; stroke: #1f77b4; stroke-width: 1.5; stroke-linecap: square"/>
     <g>
      <use xlink:href="#mae56e555b3" x="420.691811" y="31.838678" style="fill: #1f77b4; stroke: #1f77b4"/>
     </g>
    </g>
    <g id="text_17">
     <!-- $\tilde{\nu}=771$cm$^{-1}$, $\Delta Q=+0.000$ -->
     <g transform="translate(429.691811 35.338678) scale(0.1 -0.1)">
      <defs>
       <path id="DejaVuSans-303" d="M -1621 4281 
L -1799 4453 
Q -1867 4516 -1919 4545 
Q -1971 4575 -2011 4575 
Q -2130 4575 -2186 4461 
Q -2242 4347 -2249 4091 
L -2639 4091 
Q -2633 4513 -2473 4742 
Q -2314 4972 -2030 4972 
Q -1911 4972 -1811 4928 
Q -1711 4884 -1596 4781 
L -1417 4609 
Q -1349 4547 -1297 4517 
Q -1246 4488 -1205 4488 
Q -1086 4488 -1030 4602 
Q -974 4716 -967 4972 
L -577 4972 
Q -583 4550 -742 4320 
Q -902 4091 -1186 4091 
Q -1305 4091 -1405 4134 
Q -1505 4178 -1621 4281 
z
" transform="scale(0.015625)"/>
       <path id="DejaVuSans-Oblique-3bd" d="M 959 0 
L 572 3500 
L 1191 3500 
L 1522 563 
Q 1972 950 2391 1488 
Q 2706 1891 2788 2241 
Q 2825 2406 2809 2719 
Q 2794 3091 2544 3500 
L 3125 3500 
L 3125 3500 
Q 3288 3222 3353 2834 
Q 3416 2478 3369 2234 
Q 3250 1622 2719 1075 
Q 2025 363 1572 0 
L 959 0 
z
" transform="scale(0.015625)"/>
       <path id="DejaVuSans-3d" d="M 678 2906 
L 4684 2906 
L 4684 2381 
L 678 2381 
L 678 2906 
z
M 678 1631 
L 4684 1631 
L 4684 1100 
L 678 1100 
L 678 1631 
z
" transform="scale(0.015625)"/>
       <path id="DejaVuSans-63" d="M 3122 3366 
L 3122 2828 
Q 2878 2963 2633 3030 
Q 2388 3097 2138 3097 
Q 1578 3097 1268 2742 
Q 959 2388 959 1747 
Q 959 1106 1268 751 
Q 1578 397 2138 397 
Q 2388 397 2633 464 
Q 2878 531 3122 666 
L 3122 134 
Q 2881 22 2623 -34 
Q 2366 -91 2075 -91 
Q 1284 -91 818 406 
Q 353 903 353 1747 
Q 353 2603 823 3093 
Q 1294 3584 2113 3584 
Q 2378 3584 2631 3529 
Q 2884 3475 3122 3366 
z
" transform="scale(0.015625)"/>
       <path id="DejaVuSans-6d" d="M 3328 2828 
Q 3544 3216 3844 3400 
Q 4144 3584 4550 3584 
Q 5097 3584 5394 3201 
Q 5691 2819 5691 2113 
L 5691 0 
L 5113 0 
L 5113 2094 
Q 5113 2597 4934 2840 
Q 4756 3084 4391 3084 
Q 3944 3084 3684 2787 
Q 3425 2491 3425 1978 
L 3425 0 
L 2847 0 
L 2847 2094 
Q 2847 2600 2669 2842 
Q 2491 3084 2119 3084 
Q 1678 3084 1418 2786 
Q 1159 2488 1159 1978 
L 1159 0 
L 581 0 
L 581 3500 
L 1159 3500 
L 1159 2956 
Q 1356 3278 1631 3431 
Q 1906 3584 2284 3584 
Q 2666 3584 2933 3390 
Q 3200 3197 3328 2828 
z
" transform="scale(0.015625)"/>
       <path id="DejaVuSans-2c" d="M 750 794 
L 1409 794 
L 1409 256 
L 897 -744 
L 494 -744 
L 750 256 
L 750 794 
z
" transform="scale(0.015625)"/>
       <path id="DejaVuSans-394" d="M 2188 4044 
L 906 525 
L 3472 525 
L 2188 4044 
z
M 50 0 
L 1831 4666 
L 2547 4666 
L 4325 0 
L 50 0 
z
" transform="scale(0.015625)"/>
       <path id="DejaVuSans-Oblique-51" d="M 2309 -84 
Q 2275 -88 2237 -89 
Q 2200 -91 2125 -91 
Q 1250 -91 756 411 
Q 263 913 263 1797 
Q 263 2319 452 2844 
Q 641 3369 978 3788 
Q 1369 4269 1858 4509 
Q 2347 4750 2938 4750 
Q 3794 4750 4287 4245 
Q 4781 3741 4781 2869 
Q 4781 1928 4265 1147 
Q 3750 366 2919 44 
L 3553 -825 
L 2847 -825 
L 2309 -84 
z
M 2919 4238 
Q 2400 4238 2003 3986 
Q 1606 3734 1313 3219 
Q 1125 2891 1026 2522 
Q 928 2153 928 1778 
Q 928 1128 1239 775 
Q 1550 422 2119 422 
Q 2631 422 3032 676 
Q 3434 931 3719 1434 
Q 3909 1772 4009 2142 
Q 4109 2513 4109 2881 
Q 4109 3528 3796 3883 
Q 3484 4238 2919 4238 
z
" transform="scale(0.015625)"/>
       <path id="DejaVuSans-2b" d="M 2944 4013 
L 2944 2272 
L 4684 2272 
L 4684 1741 
L 2944 1741 
L 2944 0 
L 2419 0 
L 2419 1741 
L 678 1741 
L 678 2272 
L 2419 2272 
L 2419 4013 
L 2944 4013 
z
" transform="scale(0.015625)"/>
       <path id="DejaVuSans-2e" d="M 684 794 
L 1344 794 
L 1344 0 
L 684 0 
L 684 794 
z
" transform="scale(0.015625)"/>
      </defs>
      <use xlink:href="#DejaVuSans-303" transform="translate(60.199219 3.95)"/>
      <use xlink:href="#DejaVuSans-Oblique-3bd" transform="translate(0 0.684375)"/>
      <use xlink:href="#DejaVuSans-3d" transform="translate(75.341797 0.684375)"/>
      <use xlink:href="#DejaVuSans-37" transform="translate(178.613281 0.684375)"/>
      <use xlink:href="#DejaVuSans-37" transform="translate(240.486328 0.684375)"/>
      <use xlink:href="#DejaVuSans-31" transform="translate(304.109375 0.684375)"/>
      <use xlink:href="#DejaVuSans-63" transform="translate(367.732422 0.684375)"/>
      <use xlink:href="#DejaVuSans-6d" transform="translate(422.712891 0.684375)"/>
      <use xlink:href="#DejaVuSans-2212" transform="translate(521.082031 38.965625) scale(0.7)"/>
      <use xlink:href="#DejaVuSans-31" transform="translate(579.734375 38.965625) scale(0.7)"/>
      <use xlink:href="#DejaVuSans-2c" transform="translate(627.004883 0.684375)"/>
      <use xlink:href="#DejaVuSans-20" transform="translate(658.791992 0.684375)"/>
      <use xlink:href="#DejaVuSans-394" transform="translate(690.579102 0.684375)"/>
      <use xlink:href="#DejaVuSans-Oblique-51" transform="translate(758.987305 0.684375)"/>
      <use xlink:href="#DejaVuSans-3d" transform="translate(857.180664 0.684375)"/>
      <use xlink:href="#DejaVuSans-2b" transform="translate(960.452148 0.684375)"/>
      <use xlink:href="#DejaVuSans-30" transform="translate(1044.241211 0.684375)"/>
      <use xlink:href="#DejaVuSans-2e" transform="translate(1107.864258 0.684375)"/>
      <use xlink:href="#DejaVuSans-30" transform="translate(1139.651367 0.684375)"/>
      <use xlink:href="#DejaVuSans-30" transform="translate(1203.274414 0.684375)"/>
      <use xlink:href="#DejaVuSans-30" transform="translate(1266.897461 0.684375)"/>
     </g>
    </g>
    <g id="line2d_38">
     <path d="M 413.191811 47.138678 
L 420.691811 47.138678 
L 428.191811 47.138678 
" style="fill: none; stroke: #ff7f0e; stroke-width: 1.5; stroke-linecap: square"/>
     <g>
      <use xlink:href="#m12ce172e87" x="420.691811" y="47.138678" style="fill: #ff7f0e; stroke: #ff7f0e"/>
     </g>
    </g>
    <g id="text_18">
     <!-- $\tilde{\nu}=851$cm$^{-1}$, $\Delta Q=+0.000$ -->
     <g transform="translate(429.691811 50.638678) scale(0.1 -0.1)">
      <defs>
       <path id="DejaVuSans-38" d="M 2034 2216 
Q 1584 2216 1326 1975 
Q 1069 1734 1069 1313 
Q 1069 891 1326 650 
Q 1584 409 2034 409 
Q 2484 409 2743 651 
Q 3003 894 3003 1313 
Q 3003 1734 2745 1975 
Q 2488 2216 2034 2216 
z
M 1403 2484 
Q 997 2584 770 2862 
Q 544 3141 544 3541 
Q 544 4100 942 4425 
Q 1341 4750 2034 4750 
Q 2731 4750 3128 4425 
Q 3525 4100 3525 3541 
Q 3525 3141 3298 2862 
Q 3072 2584 2669 2484 
Q 3125 2378 3379 2068 
Q 3634 1759 3634 1313 
Q 3634 634 3220 271 
Q 2806 -91 2034 -91 
Q 1263 -91 848 271 
Q 434 634 434 1313 
Q 434 1759 690 2068 
Q 947 2378 1403 2484 
z
M 1172 3481 
Q 1172 3119 1398 2916 
Q 1625 2713 2034 2713 
Q 2441 2713 2670 2916 
Q 2900 3119 2900 3481 
Q 2900 3844 2670 4047 
Q 2441 4250 2034 4250 
Q 1625 4250 1398 4047 
Q 1172 3844 1172 3481 
z
" transform="scale(0.015625)"/>
      </defs>
      <use xlink:href="#DejaVuSans-303" transform="translate(60.199219 3.95)"/>
      <use xlink:href="#DejaVuSans-Oblique-3bd" transform="translate(0 0.684375)"/>
      <use xlink:href="#DejaVuSans-3d" transform="translate(75.341797 0.684375)"/>
      <use xlink:href="#DejaVuSans-38" transform="translate(178.613281 0.684375)"/>
      <use xlink:href="#DejaVuSans-35" transform="translate(242.236328 0.684375)"/>
      <use xlink:href="#DejaVuSans-31" transform="translate(305.859375 0.684375)"/>
      <use xlink:href="#DejaVuSans-63" transform="translate(369.482422 0.684375)"/>
      <use xlink:href="#DejaVuSans-6d" transform="translate(424.462891 0.684375)"/>
      <use xlink:href="#DejaVuSans-2212" transform="translate(522.832031 38.965625) scale(0.7)"/>
      <use xlink:href="#DejaVuSans-31" transform="translate(581.484375 38.965625) scale(0.7)"/>
      <use xlink:href="#DejaVuSans-2c" transform="translate(628.754883 0.684375)"/>
      <use xlink:href="#DejaVuSans-20" transform="translate(660.541992 0.684375)"/>
      <use xlink:href="#DejaVuSans-394" transform="translate(692.329102 0.684375)"/>
      <use xlink:href="#DejaVuSans-Oblique-51" transform="translate(760.737305 0.684375)"/>
      <use xlink:href="#DejaVuSans-3d" transform="translate(858.930664 0.684375)"/>
      <use xlink:href="#DejaVuSans-2b" transform="translate(962.202148 0.684375)"/>
      <use xlink:href="#DejaVuSans-30" transform="translate(1045.991211 0.684375)"/>
      <use xlink:href="#DejaVuSans-2e" transform="translate(1109.614258 0.684375)"/>
      <use xlink:href="#DejaVuSans-30" transform="translate(1141.401367 0.684375)"/>
      <use xlink:href="#DejaVuSans-30" transform="translate(1205.024414 0.684375)"/>
      <use xlink:href="#DejaVuSans-30" transform="translate(1268.647461 0.684375)"/>
     </g>
    </g>
    <g id="line2d_39">
     <path d="M 413.191811 62.438678 
L 420.691811 62.438678 
L 428.191811 62.438678 
" style="fill: none; stroke: #2ca02c; stroke-width: 1.5; stroke-linecap: square"/>
     <g>
      <use xlink:href="#m9b054ba609" x="420.691811" y="62.438678" style="fill: #2ca02c; stroke: #2ca02c"/>
     </g>
    </g>
    <g id="text_19">
     <!-- $\tilde{\nu}=885$cm$^{-1}$, $\Delta Q=-0.012$ -->
     <g transform="translate(429.691811 65.938678) scale(0.1 -0.1)">
      <use xlink:href="#DejaVuSans-303" transform="translate(60.199219 3.95)"/>
      <use xlink:href="#DejaVuSans-Oblique-3bd" transform="translate(0 0.684375)"/>
      <use xlink:href="#DejaVuSans-3d" transform="translate(75.341797 0.684375)"/>
      <use xlink:href="#DejaVuSans-38" transform="translate(178.613281 0.684375)"/>
      <use xlink:href="#DejaVuSans-38" transform="translate(242.236328 0.684375)"/>
      <use xlink:href="#DejaVuSans-35" transform="translate(305.859375 0.684375)"/>
      <use xlink:href="#DejaVuSans-63" transform="translate(369.482422 0.684375)"/>
      <use xlink:href="#DejaVuSans-6d" transform="translate(424.462891 0.684375)"/>
      <use xlink:href="#DejaVuSans-2212" transform="translate(522.832031 38.965625) scale(0.7)"/>
      <use xlink:href="#DejaVuSans-31" transform="translate(581.484375 38.965625) scale(0.7)"/>
      <use xlink:href="#DejaVuSans-2c" transform="translate(628.754883 0.684375)"/>
      <use xlink:href="#DejaVuSans-20" transform="translate(660.541992 0.684375)"/>
      <use xlink:href="#DejaVuSans-394" transform="translate(692.329102 0.684375)"/>
      <use xlink:href="#DejaVuSans-Oblique-51" transform="translate(760.737305 0.684375)"/>
      <use xlink:href="#DejaVuSans-3d" transform="translate(858.930664 0.684375)"/>
      <use xlink:href="#DejaVuSans-2212" transform="translate(962.202148 0.684375)"/>
      <use xlink:href="#DejaVuSans-30" transform="translate(1045.991211 0.684375)"/>
      <use xlink:href="#DejaVuSans-2e" transform="translate(1109.614258 0.684375)"/>
      <use xlink:href="#DejaVuSans-30" transform="translate(1141.401367 0.684375)"/>
      <use xlink:href="#DejaVuSans-31" transform="translate(1205.024414 0.684375)"/>
      <use xlink:href="#DejaVuSans-32" transform="translate(1268.647461 0.684375)"/>
     </g>
    </g>
    <g id="line2d_40">
     <path d="M 413.191811 77.738678 
L 420.691811 77.738678 
L 428.191811 77.738678 
" style="fill: none; stroke: #d62728; stroke-width: 1.5; stroke-linecap: square"/>
     <g>
      <use xlink:href="#md9e574999c" x="420.691811" y="77.738678" style="fill: #d62728; stroke: #d62728"/>
     </g>
    </g>
    <g id="text_20">
     <!-- $\tilde{\nu}=903$cm$^{-1}$, $\Delta Q=+0.000$ -->
     <g transform="translate(429.691811 81.238678) scale(0.1 -0.1)">
      <defs>
       <path id="DejaVuSans-39" d="M 703 97 
L 703 672 
Q 941 559 1184 500 
Q 1428 441 1663 441 
Q 2288 441 2617 861 
Q 2947 1281 2994 2138 
Q 2813 1869 2534 1725 
Q 2256 1581 1919 1581 
Q 1219 1581 811 2004 
Q 403 2428 403 3163 
Q 403 3881 828 4315 
Q 1253 4750 1959 4750 
Q 2769 4750 3195 4129 
Q 3622 3509 3622 2328 
Q 3622 1225 3098 567 
Q 2575 -91 1691 -91 
Q 1453 -91 1209 -44 
Q 966 3 703 97 
z
M 1959 2075 
Q 2384 2075 2632 2365 
Q 2881 2656 2881 3163 
Q 2881 3666 2632 3958 
Q 2384 4250 1959 4250 
Q 1534 4250 1286 3958 
Q 1038 3666 1038 3163 
Q 1038 2656 1286 2365 
Q 1534 2075 1959 2075 
z
" transform="scale(0.015625)"/>
      </defs>
      <use xlink:href="#DejaVuSans-303" transform="translate(60.199219 3.95)"/>
      <use xlink:href="#DejaVuSans-Oblique-3bd" transform="translate(0 0.684375)"/>
      <use xlink:href="#DejaVuSans-3d" transform="translate(75.341797 0.684375)"/>
      <use xlink:href="#DejaVuSans-39" transform="translate(178.613281 0.684375)"/>
      <use xlink:href="#DejaVuSans-30" transform="translate(242.236328 0.684375)"/>
      <use xlink:href="#DejaVuSans-33" transform="translate(305.859375 0.684375)"/>
      <use xlink:href="#DejaVuSans-63" transform="translate(369.482422 0.684375)"/>
      <use xlink:href="#DejaVuSans-6d" transform="translate(424.462891 0.684375)"/>
      <use xlink:href="#DejaVuSans-2212" transform="translate(522.832031 38.965625) scale(0.7)"/>
      <use xlink:href="#DejaVuSans-31" transform="translate(581.484375 38.965625) scale(0.7)"/>
      <use xlink:href="#DejaVuSans-2c" transform="translate(628.754883 0.684375)"/>
      <use xlink:href="#DejaVuSans-20" transform="translate(660.541992 0.684375)"/>
      <use xlink:href="#DejaVuSans-394" transform="translate(692.329102 0.684375)"/>
      <use xlink:href="#DejaVuSans-Oblique-51" transform="translate(760.737305 0.684375)"/>
      <use xlink:href="#DejaVuSans-3d" transform="translate(858.930664 0.684375)"/>
      <use xlink:href="#DejaVuSans-2b" transform="translate(962.202148 0.684375)"/>
      <use xlink:href="#DejaVuSans-30" transform="translate(1045.991211 0.684375)"/>
      <use xlink:href="#DejaVuSans-2e" transform="translate(1109.614258 0.684375)"/>
      <use xlink:href="#DejaVuSans-30" transform="translate(1141.401367 0.684375)"/>
      <use xlink:href="#DejaVuSans-30" transform="translate(1205.024414 0.684375)"/>
      <use xlink:href="#DejaVuSans-30" transform="translate(1268.647461 0.684375)"/>
     </g>
    </g>
    <g id="line2d_41">
     <path d="M 413.191811 93.038678 
L 420.691811 93.038678 
L 428.191811 93.038678 
" style="fill: none; stroke: #9467bd; stroke-width: 1.5; stroke-linecap: square"/>
     <g>
      <use xlink:href="#m949589b17c" x="420.691811" y="93.038678" style="fill: #9467bd; stroke: #9467bd"/>
     </g>
    </g>
    <g id="text_21">
     <!-- $\tilde{\nu}=983$cm$^{-1}$, $\Delta Q=+0.000$ -->
     <g transform="translate(429.691811 96.538678) scale(0.1 -0.1)">
      <use xlink:href="#DejaVuSans-303" transform="translate(60.199219 3.95)"/>
      <use xlink:href="#DejaVuSans-Oblique-3bd" transform="translate(0 0.684375)"/>
      <use xlink:href="#DejaVuSans-3d" transform="translate(75.341797 0.684375)"/>
      <use xlink:href="#DejaVuSans-39" transform="translate(178.613281 0.684375)"/>
      <use xlink:href="#DejaVuSans-38" transform="translate(242.236328 0.684375)"/>
      <use xlink:href="#DejaVuSans-33" transform="translate(305.859375 0.684375)"/>
      <use xlink:href="#DejaVuSans-63" transform="translate(369.482422 0.684375)"/>
      <use xlink:href="#DejaVuSans-6d" transform="translate(424.462891 0.684375)"/>
      <use xlink:href="#DejaVuSans-2212" transform="translate(522.832031 38.965625) scale(0.7)"/>
      <use xlink:href="#DejaVuSans-31" transform="translate(581.484375 38.965625) scale(0.7)"/>
      <use xlink:href="#DejaVuSans-2c" transform="translate(628.754883 0.684375)"/>
      <use xlink:href="#DejaVuSans-20" transform="translate(660.541992 0.684375)"/>
      <use xlink:href="#DejaVuSans-394" transform="translate(692.329102 0.684375)"/>
      <use xlink:href="#DejaVuSans-Oblique-51" transform="translate(760.737305 0.684375)"/>
      <use xlink:href="#DejaVuSans-3d" transform="translate(858.930664 0.684375)"/>
      <use xlink:href="#DejaVuSans-2b" transform="translate(962.202148 0.684375)"/>
      <use xlink:href="#DejaVuSans-30" transform="translate(1045.991211 0.684375)"/>
      <use xlink:href="#DejaVuSans-2e" transform="translate(1109.614258 0.684375)"/>
      <use xlink:href="#DejaVuSans-30" transform="translate(1141.401367 0.684375)"/>
      <use xlink:href="#DejaVuSans-30" transform="translate(1205.024414 0.684375)"/>
      <use xlink:href="#DejaVuSans-30" transform="translate(1268.647461 0.684375)"/>
     </g>
    </g>
    <g id="line2d_42">
     <path d="M 413.191811 108.338678 
L 420.691811 108.338678 
L 428.191811 108.338678 
" style="fill: none; stroke: #8c564b; stroke-width: 1.5; stroke-linecap: square"/>
     <g>
      <use xlink:href="#m25a10c7b5b" x="420.691811" y="108.338678" style="fill: #8c564b; stroke: #8c564b"/>
     </g>
    </g>
    <g id="text_22">
     <!-- $\tilde{\nu}=984$cm$^{-1}$, $\Delta Q=+0.000$ -->
     <g transform="translate(429.691811 111.838678) scale(0.1 -0.1)">
      <use xlink:href="#DejaVuSans-303" transform="translate(60.199219 3.95)"/>
      <use xlink:href="#DejaVuSans-Oblique-3bd" transform="translate(0 0.684375)"/>
      <use xlink:href="#DejaVuSans-3d" transform="translate(75.341797 0.684375)"/>
      <use xlink:href="#DejaVuSans-39" transform="translate(178.613281 0.684375)"/>
      <use xlink:href="#DejaVuSans-38" transform="translate(242.236328 0.684375)"/>
      <use xlink:href="#DejaVuSans-34" transform="translate(305.859375 0.684375)"/>
      <use xlink:href="#DejaVuSans-63" transform="translate(369.482422 0.684375)"/>
      <use xlink:href="#DejaVuSans-6d" transform="translate(424.462891 0.684375)"/>
      <use xlink:href="#DejaVuSans-2212" transform="translate(522.832031 38.965625) scale(0.7)"/>
      <use xlink:href="#DejaVuSans-31" transform="translate(581.484375 38.965625) scale(0.7)"/>
      <use xlink:href="#DejaVuSans-2c" transform="translate(628.754883 0.684375)"/>
      <use xlink:href="#DejaVuSans-20" transform="translate(660.541992 0.684375)"/>
      <use xlink:href="#DejaVuSans-394" transform="translate(692.329102 0.684375)"/>
      <use xlink:href="#DejaVuSans-Oblique-51" transform="translate(760.737305 0.684375)"/>
      <use xlink:href="#DejaVuSans-3d" transform="translate(858.930664 0.684375)"/>
      <use xlink:href="#DejaVuSans-2b" transform="translate(962.202148 0.684375)"/>
      <use xlink:href="#DejaVuSans-30" transform="translate(1045.991211 0.684375)"/>
      <use xlink:href="#DejaVuSans-2e" transform="translate(1109.614258 0.684375)"/>
      <use xlink:href="#DejaVuSans-30" transform="translate(1141.401367 0.684375)"/>
      <use xlink:href="#DejaVuSans-30" transform="translate(1205.024414 0.684375)"/>
      <use xlink:href="#DejaVuSans-30" transform="translate(1268.647461 0.684375)"/>
     </g>
    </g>
    <g id="line2d_43">
     <path d="M 413.191811 123.638678 
L 420.691811 123.638678 
L 428.191811 123.638678 
" style="fill: none; stroke: #e377c2; stroke-width: 1.5; stroke-linecap: square"/>
     <g>
      <use xlink:href="#m3ea4cc4436" x="420.691811" y="123.638678" style="fill: #e377c2; stroke: #e377c2"/>
     </g>
    </g>
    <g id="text_23">
     <!-- $\tilde{\nu}=1014$cm$^{-1}$, $\Delta Q=-0.001$ -->
     <g transform="translate(429.691811 127.138678) scale(0.1 -0.1)">
      <use xlink:href="#DejaVuSans-303" transform="translate(60.199219 3.95)"/>
      <use xlink:href="#DejaVuSans-Oblique-3bd" transform="translate(0 0.684375)"/>
      <use xlink:href="#DejaVuSans-3d" transform="translate(75.341797 0.684375)"/>
      <use xlink:href="#DejaVuSans-31" transform="translate(178.613281 0.684375)"/>
      <use xlink:href="#DejaVuSans-30" transform="translate(242.236328 0.684375)"/>
      <use xlink:href="#DejaVuSans-31" transform="translate(305.859375 0.684375)"/>
      <use xlink:href="#DejaVuSans-34" transform="translate(369.482422 0.684375)"/>
      <use xlink:href="#DejaVuSans-63" transform="translate(433.105469 0.684375)"/>
      <use xlink:href="#DejaVuSans-6d" transform="translate(488.085938 0.684375)"/>
      <use xlink:href="#DejaVuSans-2212" transform="translate(586.455078 38.965625) scale(0.7)"/>
      <use xlink:href="#DejaVuSans-31" transform="translate(645.107422 38.965625) scale(0.7)"/>
      <use xlink:href="#DejaVuSans-2c" transform="translate(692.37793 0.684375)"/>
      <use xlink:href="#DejaVuSans-20" transform="translate(724.165039 0.684375)"/>
      <use xlink:href="#DejaVuSans-394" transform="translate(755.952148 0.684375)"/>
      <use xlink:href="#DejaVuSans-Oblique-51" transform="translate(824.360352 0.684375)"/>
      <use xlink:href="#DejaVuSans-3d" transform="translate(922.553711 0.684375)"/>
      <use xlink:href="#DejaVuSans-2212" transform="translate(1025.825195 0.684375)"/>
      <use xlink:href="#DejaVuSans-30" transform="translate(1109.614258 0.684375)"/>
      <use xlink:href="#DejaVuSans-2e" transform="translate(1173.237305 0.684375)"/>
      <use xlink:href="#DejaVuSans-30" transform="translate(1205.024414 0.684375)"/>
      <use xlink:href="#DejaVuSans-30" transform="translate(1268.647461 0.684375)"/>
      <use xlink:href="#DejaVuSans-31" transform="translate(1332.270508 0.684375)"/>
     </g>
    </g>
    <g id="line2d_44">
     <path d="M 413.191811 138.938678 
L 420.691811 138.938678 
L 428.191811 138.938678 
" style="fill: none; stroke: #7f7f7f; stroke-width: 1.5; stroke-linecap: square"/>
     <g>
      <use xlink:href="#m37495e86ee" x="420.691811" y="138.938678" style="fill: #7f7f7f; stroke: #7f7f7f"/>
     </g>
    </g>
    <g id="text_24">
     <!-- $\tilde{\nu}=1052$cm$^{-1}$, $\Delta Q=+0.001$ -->
     <g transform="translate(429.691811 142.438678) scale(0.1 -0.1)">
      <use xlink:href="#DejaVuSans-303" transform="translate(60.199219 3.95)"/>
      <use xlink:href="#DejaVuSans-Oblique-3bd" transform="translate(0 0.684375)"/>
      <use xlink:href="#DejaVuSans-3d" transform="translate(75.341797 0.684375)"/>
      <use xlink:href="#DejaVuSans-31" transform="translate(178.613281 0.684375)"/>
      <use xlink:href="#DejaVuSans-30" transform="translate(242.236328 0.684375)"/>
      <use xlink:href="#DejaVuSans-35" transform="translate(305.859375 0.684375)"/>
      <use xlink:href="#DejaVuSans-32" transform="translate(369.482422 0.684375)"/>
      <use xlink:href="#DejaVuSans-63" transform="translate(433.105469 0.684375)"/>
      <use xlink:href="#DejaVuSans-6d" transform="translate(488.085938 0.684375)"/>
      <use xlink:href="#DejaVuSans-2212" transform="translate(586.455078 38.965625) scale(0.7)"/>
      <use xlink:href="#DejaVuSans-31" transform="translate(645.107422 38.965625) scale(0.7)"/>
      <use xlink:href="#DejaVuSans-2c" transform="translate(692.37793 0.684375)"/>
      <use xlink:href="#DejaVuSans-20" transform="translate(724.165039 0.684375)"/>
      <use xlink:href="#DejaVuSans-394" transform="translate(755.952148 0.684375)"/>
      <use xlink:href="#DejaVuSans-Oblique-51" transform="translate(824.360352 0.684375)"/>
      <use xlink:href="#DejaVuSans-3d" transform="translate(922.553711 0.684375)"/>
      <use xlink:href="#DejaVuSans-2b" transform="translate(1025.825195 0.684375)"/>
      <use xlink:href="#DejaVuSans-30" transform="translate(1109.614258 0.684375)"/>
      <use xlink:href="#DejaVuSans-2e" transform="translate(1173.237305 0.684375)"/>
      <use xlink:href="#DejaVuSans-30" transform="translate(1205.024414 0.684375)"/>
      <use xlink:href="#DejaVuSans-30" transform="translate(1268.647461 0.684375)"/>
      <use xlink:href="#DejaVuSans-31" transform="translate(1332.270508 0.684375)"/>
     </g>
    </g>
    <g id="line2d_45">
     <path d="M 413.191811 154.238677 
L 420.691811 154.238677 
L 428.191811 154.238677 
" style="fill: none; stroke: #bcbd22; stroke-width: 1.5; stroke-linecap: square"/>
     <g>
      <use xlink:href="#m9ea287e040" x="420.691811" y="154.238677" style="fill: #bcbd22; stroke: #bcbd22"/>
     </g>
    </g>
    <g id="text_25">
     <!-- $\tilde{\nu}=1093$cm$^{-1}$, $\Delta Q=-0.000$ -->
     <g transform="translate(429.691811 157.738677) scale(0.1 -0.1)">
      <use xlink:href="#DejaVuSans-303" transform="translate(60.199219 3.95)"/>
      <use xlink:href="#DejaVuSans-Oblique-3bd" transform="translate(0 0.684375)"/>
      <use xlink:href="#DejaVuSans-3d" transform="translate(75.341797 0.684375)"/>
      <use xlink:href="#DejaVuSans-31" transform="translate(178.613281 0.684375)"/>
      <use xlink:href="#DejaVuSans-30" transform="translate(242.236328 0.684375)"/>
      <use xlink:href="#DejaVuSans-39" transform="translate(305.859375 0.684375)"/>
      <use xlink:href="#DejaVuSans-33" transform="translate(369.482422 0.684375)"/>
      <use xlink:href="#DejaVuSans-63" transform="translate(433.105469 0.684375)"/>
      <use xlink:href="#DejaVuSans-6d" transform="translate(488.085938 0.684375)"/>
      <use xlink:href="#DejaVuSans-2212" transform="translate(586.455078 38.965625) scale(0.7)"/>
      <use xlink:href="#DejaVuSans-31" transform="translate(645.107422 38.965625) scale(0.7)"/>
      <use xlink:href="#DejaVuSans-2c" transform="translate(692.37793 0.684375)"/>
      <use xlink:href="#DejaVuSans-20" transform="translate(724.165039 0.684375)"/>
      <use xlink:href="#DejaVuSans-394" transform="translate(755.952148 0.684375)"/>
      <use xlink:href="#DejaVuSans-Oblique-51" transform="translate(824.360352 0.684375)"/>
      <use xlink:href="#DejaVuSans-3d" transform="translate(922.553711 0.684375)"/>
      <use xlink:href="#DejaVuSans-2212" transform="translate(1025.825195 0.684375)"/>
      <use xlink:href="#DejaVuSans-30" transform="translate(1109.614258 0.684375)"/>
      <use xlink:href="#DejaVuSans-2e" transform="translate(1173.237305 0.684375)"/>
      <use xlink:href="#DejaVuSans-30" transform="translate(1205.024414 0.684375)"/>
      <use xlink:href="#DejaVuSans-30" transform="translate(1268.647461 0.684375)"/>
      <use xlink:href="#DejaVuSans-30" transform="translate(1332.270508 0.684375)"/>
     </g>
    </g>
    <g id="line2d_46">
     <path d="M 413.191811 169.538678 
L 420.691811 169.538678 
L 428.191811 169.538678 
" style="fill: none; stroke: #17becf; stroke-width: 1.5; stroke-linecap: square"/>
     <g>
      <use xlink:href="#mb657568e07" x="420.691811" y="169.538678" style="fill: #17becf; stroke: #17becf"/>
     </g>
    </g>
    <g id="text_26">
     <!-- $\tilde{\nu}=1164$cm$^{-1}$, $\Delta Q=-0.000$ -->
     <g transform="translate(429.691811 173.038678) scale(0.1 -0.1)">
      <use xlink:href="#DejaVuSans-303" transform="translate(60.199219 3.95)"/>
      <use xlink:href="#DejaVuSans-Oblique-3bd" transform="translate(0 0.684375)"/>
      <use xlink:href="#DejaVuSans-3d" transform="translate(75.341797 0.684375)"/>
      <use xlink:href="#DejaVuSans-31" transform="translate(178.613281 0.684375)"/>
      <use xlink:href="#DejaVuSans-31" transform="translate(242.236328 0.684375)"/>
      <use xlink:href="#DejaVuSans-36" transform="translate(305.859375 0.684375)"/>
      <use xlink:href="#DejaVuSans-34" transform="translate(369.482422 0.684375)"/>
      <use xlink:href="#DejaVuSans-63" transform="translate(433.105469 0.684375)"/>
      <use xlink:href="#DejaVuSans-6d" transform="translate(488.085938 0.684375)"/>
      <use xlink:href="#DejaVuSans-2212" transform="translate(586.455078 38.965625) scale(0.7)"/>
      <use xlink:href="#DejaVuSans-31" transform="translate(645.107422 38.965625) scale(0.7)"/>
      <use xlink:href="#DejaVuSans-2c" transform="translate(692.37793 0.684375)"/>
      <use xlink:href="#DejaVuSans-20" transform="translate(724.165039 0.684375)"/>
      <use xlink:href="#DejaVuSans-394" transform="translate(755.952148 0.684375)"/>
      <use xlink:href="#DejaVuSans-Oblique-51" transform="translate(824.360352 0.684375)"/>
      <use xlink:href="#DejaVuSans-3d" transform="translate(922.553711 0.684375)"/>
      <use xlink:href="#DejaVuSans-2212" transform="translate(1025.825195 0.684375)"/>
      <use xlink:href="#DejaVuSans-30" transform="translate(1109.614258 0.684375)"/>
      <use xlink:href="#DejaVuSans-2e" transform="translate(1173.237305 0.684375)"/>
      <use xlink:href="#DejaVuSans-30" transform="translate(1205.024414 0.684375)"/>
      <use xlink:href="#DejaVuSans-30" transform="translate(1268.647461 0.684375)"/>
      <use xlink:href="#DejaVuSans-30" transform="translate(1332.270508 0.684375)"/>
     </g>
    </g>
   </g>
  </g>
 </g>
 <defs>
  <clipPath id="p941e0ff20f">
   <rect x="52.00024" y="18.118365" width="335.420544" height="272.525145"/>
  </clipPath>
 </defs>
</svg>
