<?xml version="1.0" encoding="utf-8" standalone="no"?>
<!DOCTYPE svg PUBLIC "-//W3C//DTD SVG 1.1//EN"
  "http://www.w3.org/Graphics/SVG/1.1/DTD/svg11.dtd">
<svg xmlns:xlink="http://www.w3.org/1999/xlink" width="512pt" height="288pt" viewBox="0 0 512 288" xmlns="http://www.w3.org/2000/svg" version="1.1">
 <metadata>
  <rdf:RDF xmlns:dc="http://purl.org/dc/elements/1.1/" xmlns:cc="http://creativecommons.org/ns#" xmlns:rdf="http://www.w3.org/1999/02/22-rdf-syntax-ns#">
   <cc:Work>
    <dc:type rdf:resource="http://purl.org/dc/dcmitype/StillImage"/>
    <dc:date>2025-06-07T15:53:39.482475</dc:date>
    <dc:format>image/svg+xml</dc:format>
    <dc:creator>
     <cc:Agent>
      <dc:title>Matplotlib v3.10.3, https://matplotlib.org/</dc:title>
     </cc:Agent>
    </dc:creator>
   </cc:Work>
  </rdf:RDF>
 </metadata>
 <defs>
  <style type="text/css">*{stroke-linejoin: round; stroke-linecap: butt}</style>
 </defs>
 <g id="figure_1">
  <g id="patch_1">
   <path d="M 0 288 
L 512 288 
L 512 0 
L 0 0 
z
" style="fill: #ffffff"/>
  </g>
  <g id="axes_1">
   <g id="patch_2">
    <path d="M 56.50024 254.64351 
L 508.99976 254.64351 
L 508.99976 18.118365 
L 56.50024 18.118365 
z
" style="fill: #ffffff"/>
   </g>
   <g id="matplotlib.axis_1">
    <g id="xtick_1">
     <g id="line2d_1">
      <path d="M 77.0684 254.64351 
L 77.0684 18.118365 
" clip-path="url(#p54e442500f)" style="fill: none; stroke: #b0b0b0; stroke-width: 0.8; stroke-linecap: square"/>
     </g>
     <g id="line2d_2">
      <defs>
       <path id="md0789388c0" d="M 0 0 
L 0 3.5 
" style="stroke: #000000; stroke-width: 0.8"/>
      </defs>
      <g>
       <use xlink:href="#md0789388c0" x="77.0684" y="254.64351" style="stroke: #000000; stroke-width: 0.8"/>
      </g>
     </g>
     <g id="text_1">
      <!-- 0 -->
      <g transform="translate(73.88715 269.241947) scale(0.1 -0.1)">
       <defs>
        <path id="DejaVuSans-30" d="M 2034 4250 
Q 1547 4250 1301 3770 
Q 1056 3291 1056 2328 
Q 1056 1369 1301 889 
Q 1547 409 2034 409 
Q 2525 409 2770 889 
Q 3016 1369 3016 2328 
Q 3016 3291 2770 3770 
Q 2525 4250 2034 4250 
z
M 2034 4750 
Q 2819 4750 3233 4129 
Q 3647 3509 3647 2328 
Q 3647 1150 3233 529 
Q 2819 -91 2034 -91 
Q 1250 -91 836 529 
Q 422 1150 422 2328 
Q 422 3509 836 4129 
Q 1250 4750 2034 4750 
z
" transform="scale(0.015625)"/>
       </defs>
       <use xlink:href="#DejaVuSans-30"/>
      </g>
     </g>
    </g>
    <g id="xtick_2">
     <g id="line2d_3">
      <path d="M 145.628933 254.64351 
L 145.628933 18.118365 
" clip-path="url(#p54e442500f)" style="fill: none; stroke: #b0b0b0; stroke-width: 0.8; stroke-linecap: square"/>
     </g>
     <g id="line2d_4">
      <g>
       <use xlink:href="#md0789388c0" x="145.628933" y="254.64351" style="stroke: #000000; stroke-width: 0.8"/>
      </g>
     </g>
     <g id="text_2">
      <!-- 10 -->
      <g transform="translate(139.266433 269.241947) scale(0.1 -0.1)">
       <defs>
        <path id="DejaVuSans-31" d="M 794 531 
L 1825 531 
L 1825 4091 
L 703 3866 
L 703 4441 
L 1819 4666 
L 2450 4666 
L 2450 531 
L 3481 531 
L 3481 0 
L 794 0 
L 794 531 
z
" transform="scale(0.015625)"/>
       </defs>
       <use xlink:href="#DejaVuSans-31"/>
       <use xlink:href="#DejaVuSans-30" transform="translate(63.623047 0)"/>
      </g>
     </g>
    </g>
    <g id="xtick_3">
     <g id="line2d_5">
      <path d="M 214.189467 254.64351 
L 214.189467 18.118365 
" clip-path="url(#p54e442500f)" style="fill: none; stroke: #b0b0b0; stroke-width: 0.8; stroke-linecap: square"/>
     </g>
     <g id="line2d_6">
      <g>
       <use xlink:href="#md0789388c0" x="214.189467" y="254.64351" style="stroke: #000000; stroke-width: 0.8"/>
      </g>
     </g>
     <g id="text_3">
      <!-- 20 -->
      <g transform="translate(207.826967 269.241947) scale(0.1 -0.1)">
       <defs>
        <path id="DejaVuSans-32" d="M 1228 531 
L 3431 531 
L 3431 0 
L 469 0 
L 469 531 
Q 828 903 1448 1529 
Q 2069 2156 2228 2338 
Q 2531 2678 2651 2914 
Q 2772 3150 2772 3378 
Q 2772 3750 2511 3984 
Q 2250 4219 1831 4219 
Q 1534 4219 1204 4116 
Q 875 4013 500 3803 
L 500 4441 
Q 881 4594 1212 4672 
Q 1544 4750 1819 4750 
Q 2544 4750 2975 4387 
Q 3406 4025 3406 3419 
Q 3406 3131 3298 2873 
Q 3191 2616 2906 2266 
Q 2828 2175 2409 1742 
Q 1991 1309 1228 531 
z
" transform="scale(0.015625)"/>
       </defs>
       <use xlink:href="#DejaVuSans-32"/>
       <use xlink:href="#DejaVuSans-30" transform="translate(63.623047 0)"/>
      </g>
     </g>
    </g>
    <g id="xtick_4">
     <g id="line2d_7">
      <path d="M 282.75 254.64351 
L 282.75 18.118365 
" clip-path="url(#p54e442500f)" style="fill: none; stroke: #b0b0b0; stroke-width: 0.8; stroke-linecap: square"/>
     </g>
     <g id="line2d_8">
      <g>
       <use xlink:href="#md0789388c0" x="282.75" y="254.64351" style="stroke: #000000; stroke-width: 0.8"/>
      </g>
     </g>
     <g id="text_4">
      <!-- 30 -->
      <g transform="translate(276.3875 269.241947) scale(0.1 -0.1)">
       <defs>
        <path id="DejaVuSans-33" d="M 2597 2516 
Q 3050 2419 3304 2112 
Q 3559 1806 3559 1356 
Q 3559 666 3084 287 
Q 2609 -91 1734 -91 
Q 1441 -91 1130 -33 
Q 819 25 488 141 
L 488 750 
Q 750 597 1062 519 
Q 1375 441 1716 441 
Q 2309 441 2620 675 
Q 2931 909 2931 1356 
Q 2931 1769 2642 2001 
Q 2353 2234 1838 2234 
L 1294 2234 
L 1294 2753 
L 1863 2753 
Q 2328 2753 2575 2939 
Q 2822 3125 2822 3475 
Q 2822 3834 2567 4026 
Q 2313 4219 1838 4219 
Q 1578 4219 1281 4162 
Q 984 4106 628 3988 
L 628 4550 
Q 988 4650 1302 4700 
Q 1616 4750 1894 4750 
Q 2613 4750 3031 4423 
Q 3450 4097 3450 3541 
Q 3450 3153 3228 2886 
Q 3006 2619 2597 2516 
z
" transform="scale(0.015625)"/>
       </defs>
       <use xlink:href="#DejaVuSans-33"/>
       <use xlink:href="#DejaVuSans-30" transform="translate(63.623047 0)"/>
      </g>
     </g>
    </g>
    <g id="xtick_5">
     <g id="line2d_9">
      <path d="M 351.310533 254.64351 
L 351.310533 18.118365 
" clip-path="url(#p54e442500f)" style="fill: none; stroke: #b0b0b0; stroke-width: 0.8; stroke-linecap: square"/>
     </g>
     <g id="line2d_10">
      <g>
       <use xlink:href="#md0789388c0" x="351.310533" y="254.64351" style="stroke: #000000; stroke-width: 0.8"/>
      </g>
     </g>
     <g id="text_5">
      <!-- 40 -->
      <g transform="translate(344.948033 269.241947) scale(0.1 -0.1)">
       <defs>
        <path id="DejaVuSans-34" d="M 2419 4116 
L 825 1625 
L 2419 1625 
L 2419 4116 
z
M 2253 4666 
L 3047 4666 
L 3047 1625 
L 3713 1625 
L 3713 1100 
L 3047 1100 
L 3047 0 
L 2419 0 
L 2419 1100 
L 313 1100 
L 313 1709 
L 2253 4666 
z
" transform="scale(0.015625)"/>
       </defs>
       <use xlink:href="#DejaVuSans-34"/>
       <use xlink:href="#DejaVuSans-30" transform="translate(63.623047 0)"/>
      </g>
     </g>
    </g>
    <g id="xtick_6">
     <g id="line2d_11">
      <path d="M 419.871067 254.64351 
L 419.871067 18.118365 
" clip-path="url(#p54e442500f)" style="fill: none; stroke: #b0b0b0; stroke-width: 0.8; stroke-linecap: square"/>
     </g>
     <g id="line2d_12">
      <g>
       <use xlink:href="#md0789388c0" x="419.871067" y="254.64351" style="stroke: #000000; stroke-width: 0.8"/>
      </g>
     </g>
     <g id="text_6">
      <!-- 50 -->
      <g transform="translate(413.508567 269.241947) scale(0.1 -0.1)">
       <defs>
        <path id="DejaVuSans-35" d="M 691 4666 
L 3169 4666 
L 3169 4134 
L 1269 4134 
L 1269 2991 
Q 1406 3038 1543 3061 
Q 1681 3084 1819 3084 
Q 2600 3084 3056 2656 
Q 3513 2228 3513 1497 
Q 3513 744 3044 326 
Q 2575 -91 1722 -91 
Q 1428 -91 1123 -41 
Q 819 9 494 109 
L 494 744 
Q 775 591 1075 516 
Q 1375 441 1709 441 
Q 2250 441 2565 725 
Q 2881 1009 2881 1497 
Q 2881 1984 2565 2268 
Q 2250 2553 1709 2553 
Q 1456 2553 1204 2497 
Q 953 2441 691 2322 
L 691 4666 
z
" transform="scale(0.015625)"/>
       </defs>
       <use xlink:href="#DejaVuSans-35"/>
       <use xlink:href="#DejaVuSans-30" transform="translate(63.623047 0)"/>
      </g>
     </g>
    </g>
    <g id="xtick_7">
     <g id="line2d_13">
      <path d="M 488.4316 254.64351 
L 488.4316 18.118365 
" clip-path="url(#p54e442500f)" style="fill: none; stroke: #b0b0b0; stroke-width: 0.8; stroke-linecap: square"/>
     </g>
     <g id="line2d_14">
      <g>
       <use xlink:href="#md0789388c0" x="488.4316" y="254.64351" style="stroke: #000000; stroke-width: 0.8"/>
      </g>
     </g>
     <g id="text_7">
      <!-- 60 -->
      <g transform="translate(482.0691 269.241947) scale(0.1 -0.1)">
       <defs>
        <path id="DejaVuSans-36" d="M 2113 2584 
Q 1688 2584 1439 2293 
Q 1191 2003 1191 1497 
Q 1191 994 1439 701 
Q 1688 409 2113 409 
Q 2538 409 2786 701 
Q 3034 994 3034 1497 
Q 3034 2003 2786 2293 
Q 2538 2584 2113 2584 
z
M 3366 4563 
L 3366 3988 
Q 3128 4100 2886 4159 
Q 2644 4219 2406 4219 
Q 1781 4219 1451 3797 
Q 1122 3375 1075 2522 
Q 1259 2794 1537 2939 
Q 1816 3084 2150 3084 
Q 2853 3084 3261 2657 
Q 3669 2231 3669 1497 
Q 3669 778 3244 343 
Q 2819 -91 2113 -91 
Q 1303 -91 875 529 
Q 447 1150 447 2328 
Q 447 3434 972 4092 
Q 1497 4750 2381 4750 
Q 2619 4750 2861 4703 
Q 3103 4656 3366 4563 
z
" transform="scale(0.015625)"/>
       </defs>
       <use xlink:href="#DejaVuSans-36"/>
       <use xlink:href="#DejaVuSans-30" transform="translate(63.623047 0)"/>
      </g>
     </g>
    </g>
    <g id="text_8">
     <!-- $n_X$ -->
     <g transform="translate(277 282.920073) scale(0.1 -0.1)">
      <defs>
       <path id="DejaVuSans-Oblique-6e" d="M 3566 2113 
L 3156 0 
L 2578 0 
L 2988 2091 
Q 3016 2238 3031 2350 
Q 3047 2463 3047 2528 
Q 3047 2791 2881 2937 
Q 2716 3084 2419 3084 
Q 1956 3084 1622 2776 
Q 1288 2469 1184 1941 
L 800 0 
L 225 0 
L 903 3500 
L 1478 3500 
L 1363 2950 
Q 1603 3253 1940 3418 
Q 2278 3584 2650 3584 
Q 3113 3584 3367 3334 
Q 3622 3084 3622 2631 
Q 3622 2519 3608 2391 
Q 3594 2263 3566 2113 
z
" transform="scale(0.015625)"/>
       <path id="DejaVuSans-Oblique-58" d="M 878 4666 
L 1516 4666 
L 2316 2981 
L 3763 4666 
L 4500 4666 
L 2578 2438 
L 3738 0 
L 3103 0 
L 2163 1966 
L 459 0 
L -275 0 
L 1906 2509 
L 878 4666 
z
" transform="scale(0.015625)"/>
      </defs>
      <use xlink:href="#DejaVuSans-Oblique-6e"/>
      <use xlink:href="#DejaVuSans-Oblique-58" transform="translate(63.378906 -16.40625) scale(0.7)"/>
     </g>
    </g>
   </g>
   <g id="matplotlib.axis_2">
    <g id="ytick_1">
     <g id="line2d_15">
      <path d="M 56.50024 254.64351 
L 508.99976 254.64351 
" clip-path="url(#p54e442500f)" style="fill: none; stroke: #b0b0b0; stroke-width: 0.8; stroke-linecap: square"/>
     </g>
     <g id="line2d_16">
      <defs>
       <path id="m00648f5f42" d="M 0 0 
L -3.5 0 
" style="stroke: #000000; stroke-width: 0.8"/>
      </defs>
      <g>
       <use xlink:href="#m00648f5f42" x="56.50024" y="254.64351" style="stroke: #000000; stroke-width: 0.8"/>
      </g>
     </g>
     <g id="text_9">
      <!-- $\mathdefault{10^{-100}}$ -->
      <g transform="translate(17.10024 258.442729) scale(0.1 -0.1)">
       <defs>
        <path id="DejaVuSans-2212" d="M 678 2272 
L 4684 2272 
L 4684 1741 
L 678 1741 
L 678 2272 
z
" transform="scale(0.015625)"/>
       </defs>
       <use xlink:href="#DejaVuSans-31" transform="translate(0 0.765625)"/>
       <use xlink:href="#DejaVuSans-30" transform="translate(63.623047 0.765625)"/>
       <use xlink:href="#DejaVuSans-2212" transform="translate(128.203125 39.046875) scale(0.7)"/>
       <use xlink:href="#DejaVuSans-31" transform="translate(186.855469 39.046875) scale(0.7)"/>
       <use xlink:href="#DejaVuSans-30" transform="translate(231.391602 39.046875) scale(0.7)"/>
       <use xlink:href="#DejaVuSans-30" transform="translate(275.927734 39.046875) scale(0.7)"/>
      </g>
     </g>
    </g>
    <g id="ytick_2">
     <g id="line2d_17">
      <path d="M 56.50024 226.260493 
L 508.99976 226.260493 
" clip-path="url(#p54e442500f)" style="fill: none; stroke: #b0b0b0; stroke-width: 0.8; stroke-linecap: square"/>
     </g>
     <g id="line2d_18">
      <g>
       <use xlink:href="#m00648f5f42" x="56.50024" y="226.260493" style="stroke: #000000; stroke-width: 0.8"/>
      </g>
     </g>
     <g id="text_10">
      <!-- $\mathdefault{10^{-88}}$ -->
      <g transform="translate(21.60024 230.059711) scale(0.1 -0.1)">
       <defs>
        <path id="DejaVuSans-38" d="M 2034 2216 
Q 1584 2216 1326 1975 
Q 1069 1734 1069 1313 
Q 1069 891 1326 650 
Q 1584 409 2034 409 
Q 2484 409 2743 651 
Q 3003 894 3003 1313 
Q 3003 1734 2745 1975 
Q 2488 2216 2034 2216 
z
M 1403 2484 
Q 997 2584 770 2862 
Q 544 3141 544 3541 
Q 544 4100 942 4425 
Q 1341 4750 2034 4750 
Q 2731 4750 3128 4425 
Q 3525 4100 3525 3541 
Q 3525 3141 3298 2862 
Q 3072 2584 2669 2484 
Q 3125 2378 3379 2068 
Q 3634 1759 3634 1313 
Q 3634 634 3220 271 
Q 2806 -91 2034 -91 
Q 1263 -91 848 271 
Q 434 634 434 1313 
Q 434 1759 690 2068 
Q 947 2378 1403 2484 
z
M 1172 3481 
Q 1172 3119 1398 2916 
Q 1625 2713 2034 2713 
Q 2441 2713 2670 2916 
Q 2900 3119 2900 3481 
Q 2900 3844 2670 4047 
Q 2441 4250 2034 4250 
Q 1625 4250 1398 4047 
Q 1172 3844 1172 3481 
z
" transform="scale(0.015625)"/>
       </defs>
       <use xlink:href="#DejaVuSans-31" transform="translate(0 0.765625)"/>
       <use xlink:href="#DejaVuSans-30" transform="translate(63.623047 0.765625)"/>
       <use xlink:href="#DejaVuSans-2212" transform="translate(128.203125 39.046875) scale(0.7)"/>
       <use xlink:href="#DejaVuSans-38" transform="translate(186.855469 39.046875) scale(0.7)"/>
       <use xlink:href="#DejaVuSans-38" transform="translate(231.391602 39.046875) scale(0.7)"/>
      </g>
     </g>
    </g>
    <g id="ytick_3">
     <g id="line2d_19">
      <path d="M 56.50024 197.877475 
L 508.99976 197.877475 
" clip-path="url(#p54e442500f)" style="fill: none; stroke: #b0b0b0; stroke-width: 0.8; stroke-linecap: square"/>
     </g>
     <g id="line2d_20">
      <g>
       <use xlink:href="#m00648f5f42" x="56.50024" y="197.877475" style="stroke: #000000; stroke-width: 0.8"/>
      </g>
     </g>
     <g id="text_11">
      <!-- $\mathdefault{10^{-76}}$ -->
      <g transform="translate(21.60024 201.676694) scale(0.1 -0.1)">
       <defs>
        <path id="DejaVuSans-37" d="M 525 4666 
L 3525 4666 
L 3525 4397 
L 1831 0 
L 1172 0 
L 2766 4134 
L 525 4134 
L 525 4666 
z
" transform="scale(0.015625)"/>
       </defs>
       <use xlink:href="#DejaVuSans-31" transform="translate(0 0.765625)"/>
       <use xlink:href="#DejaVuSans-30" transform="translate(63.623047 0.765625)"/>
       <use xlink:href="#DejaVuSans-2212" transform="translate(128.203125 39.046875) scale(0.7)"/>
       <use xlink:href="#DejaVuSans-37" transform="translate(186.855469 39.046875) scale(0.7)"/>
       <use xlink:href="#DejaVuSans-36" transform="translate(231.391602 39.046875) scale(0.7)"/>
      </g>
     </g>
    </g>
    <g id="ytick_4">
     <g id="line2d_21">
      <path d="M 56.50024 169.494458 
L 508.99976 169.494458 
" clip-path="url(#p54e442500f)" style="fill: none; stroke: #b0b0b0; stroke-width: 0.8; stroke-linecap: square"/>
     </g>
     <g id="line2d_22">
      <g>
       <use xlink:href="#m00648f5f42" x="56.50024" y="169.494458" style="stroke: #000000; stroke-width: 0.8"/>
      </g>
     </g>
     <g id="text_12">
      <!-- $\mathdefault{10^{-64}}$ -->
      <g transform="translate(21.60024 173.293677) scale(0.1 -0.1)">
       <use xlink:href="#DejaVuSans-31" transform="translate(0 0.765625)"/>
       <use xlink:href="#DejaVuSans-30" transform="translate(63.623047 0.765625)"/>
       <use xlink:href="#DejaVuSans-2212" transform="translate(128.203125 39.046875) scale(0.7)"/>
       <use xlink:href="#DejaVuSans-36" transform="translate(186.855469 39.046875) scale(0.7)"/>
       <use xlink:href="#DejaVuSans-34" transform="translate(231.391602 39.046875) scale(0.7)"/>
      </g>
     </g>
    </g>
    <g id="ytick_5">
     <g id="line2d_23">
      <path d="M 56.50024 141.11144 
L 508.99976 141.11144 
" clip-path="url(#p54e442500f)" style="fill: none; stroke: #b0b0b0; stroke-width: 0.8; stroke-linecap: square"/>
     </g>
     <g id="line2d_24">
      <g>
       <use xlink:href="#m00648f5f42" x="56.50024" y="141.11144" style="stroke: #000000; stroke-width: 0.8"/>
      </g>
     </g>
     <g id="text_13">
      <!-- $\mathdefault{10^{-52}}$ -->
      <g transform="translate(21.60024 144.910659) scale(0.1 -0.1)">
       <use xlink:href="#DejaVuSans-31" transform="translate(0 0.765625)"/>
       <use xlink:href="#DejaVuSans-30" transform="translate(63.623047 0.765625)"/>
       <use xlink:href="#DejaVuSans-2212" transform="translate(128.203125 39.046875) scale(0.7)"/>
       <use xlink:href="#DejaVuSans-35" transform="translate(186.855469 39.046875) scale(0.7)"/>
       <use xlink:href="#DejaVuSans-32" transform="translate(231.391602 39.046875) scale(0.7)"/>
      </g>
     </g>
    </g>
    <g id="ytick_6">
     <g id="line2d_25">
      <path d="M 56.50024 112.728423 
L 508.99976 112.728423 
" clip-path="url(#p54e442500f)" style="fill: none; stroke: #b0b0b0; stroke-width: 0.8; stroke-linecap: square"/>
     </g>
     <g id="line2d_26">
      <g>
       <use xlink:href="#m00648f5f42" x="56.50024" y="112.728423" style="stroke: #000000; stroke-width: 0.8"/>
      </g>
     </g>
     <g id="text_14">
      <!-- $\mathdefault{10^{-40}}$ -->
      <g transform="translate(21.60024 116.527642) scale(0.1 -0.1)">
       <use xlink:href="#DejaVuSans-31" transform="translate(0 0.765625)"/>
       <use xlink:href="#DejaVuSans-30" transform="translate(63.623047 0.765625)"/>
       <use xlink:href="#DejaVuSans-2212" transform="translate(128.203125 39.046875) scale(0.7)"/>
       <use xlink:href="#DejaVuSans-34" transform="translate(186.855469 39.046875) scale(0.7)"/>
       <use xlink:href="#DejaVuSans-30" transform="translate(231.391602 39.046875) scale(0.7)"/>
      </g>
     </g>
    </g>
    <g id="ytick_7">
     <g id="line2d_27">
      <path d="M 56.50024 84.345406 
L 508.99976 84.345406 
" clip-path="url(#p54e442500f)" style="fill: none; stroke: #b0b0b0; stroke-width: 0.8; stroke-linecap: square"/>
     </g>
     <g id="line2d_28">
      <g>
       <use xlink:href="#m00648f5f42" x="56.50024" y="84.345406" style="stroke: #000000; stroke-width: 0.8"/>
      </g>
     </g>
     <g id="text_15">
      <!-- $\mathdefault{10^{-28}}$ -->
      <g transform="translate(21.60024 88.144624) scale(0.1 -0.1)">
       <use xlink:href="#DejaVuSans-31" transform="translate(0 0.765625)"/>
       <use xlink:href="#DejaVuSans-30" transform="translate(63.623047 0.765625)"/>
       <use xlink:href="#DejaVuSans-2212" transform="translate(128.203125 39.046875) scale(0.7)"/>
       <use xlink:href="#DejaVuSans-32" transform="translate(186.855469 39.046875) scale(0.7)"/>
       <use xlink:href="#DejaVuSans-38" transform="translate(231.391602 39.046875) scale(0.7)"/>
      </g>
     </g>
    </g>
    <g id="ytick_8">
     <g id="line2d_29">
      <path d="M 56.50024 55.962388 
L 508.99976 55.962388 
" clip-path="url(#p54e442500f)" style="fill: none; stroke: #b0b0b0; stroke-width: 0.8; stroke-linecap: square"/>
     </g>
     <g id="line2d_30">
      <g>
       <use xlink:href="#m00648f5f42" x="56.50024" y="55.962388" style="stroke: #000000; stroke-width: 0.8"/>
      </g>
     </g>
     <g id="text_16">
      <!-- $\mathdefault{10^{-16}}$ -->
      <g transform="translate(21.60024 59.761607) scale(0.1 -0.1)">
       <use xlink:href="#DejaVuSans-31" transform="translate(0 0.765625)"/>
       <use xlink:href="#DejaVuSans-30" transform="translate(63.623047 0.765625)"/>
       <use xlink:href="#DejaVuSans-2212" transform="translate(128.203125 39.046875) scale(0.7)"/>
       <use xlink:href="#DejaVuSans-31" transform="translate(186.855469 39.046875) scale(0.7)"/>
       <use xlink:href="#DejaVuSans-36" transform="translate(231.391602 39.046875) scale(0.7)"/>
      </g>
     </g>
    </g>
    <g id="ytick_9">
     <g id="line2d_31">
      <path d="M 56.50024 27.579371 
L 508.99976 27.579371 
" clip-path="url(#p54e442500f)" style="fill: none; stroke: #b0b0b0; stroke-width: 0.8; stroke-linecap: square"/>
     </g>
     <g id="line2d_32">
      <g>
       <use xlink:href="#m00648f5f42" x="56.50024" y="27.579371" style="stroke: #000000; stroke-width: 0.8"/>
      </g>
     </g>
     <g id="text_17">
      <!-- $\mathdefault{10^{-4}}$ -->
      <g transform="translate(26.00024 31.37859) scale(0.1 -0.1)">
       <use xlink:href="#DejaVuSans-31" transform="translate(0 0.684375)"/>
       <use xlink:href="#DejaVuSans-30" transform="translate(63.623047 0.684375)"/>
       <use xlink:href="#DejaVuSans-2212" transform="translate(128.203125 38.965625) scale(0.7)"/>
       <use xlink:href="#DejaVuSans-34" transform="translate(186.855469 38.965625) scale(0.7)"/>
      </g>
     </g>
    </g>
    <g id="text_18">
     <!-- $|\langle 0_{C}| n_{X} \rangle |$ -->
     <g transform="translate(10.70024 156.880937) rotate(-90) scale(0.1 -0.1)">
      <defs>
       <path id="DejaVuSans-7c" d="M 1344 4891 
L 1344 -1509 
L 813 -1509 
L 813 4891 
L 1344 4891 
z
" transform="scale(0.015625)"/>
       <path id="DejaVuSans-27e8" d="M 572 2006 
L 1453 4856 
L 1984 4856 
L 1103 2006 
L 1984 -844 
L 1453 -844 
L 572 2006 
z
" transform="scale(0.015625)"/>
       <path id="DejaVuSans-Oblique-43" d="M 4447 4306 
L 4319 3641 
Q 4019 3944 3683 4091 
Q 3347 4238 2956 4238 
Q 2422 4238 2017 3981 
Q 1613 3725 1319 3200 
Q 1131 2863 1032 2486 
Q 934 2109 934 1728 
Q 934 1091 1264 756 
Q 1594 422 2222 422 
Q 2656 422 3056 561 
Q 3456 700 3834 978 
L 3688 231 
Q 3316 72 2936 -9 
Q 2556 -91 2175 -91 
Q 1278 -91 773 396 
Q 269 884 269 1753 
Q 269 2309 461 2846 
Q 653 3384 1013 3828 
Q 1394 4300 1883 4525 
Q 2372 4750 3022 4750 
Q 3422 4750 3780 4639 
Q 4138 4528 4447 4306 
z
" transform="scale(0.015625)"/>
       <path id="DejaVuSans-27e9" d="M 1925 2006 
L 1044 -844 
L 513 -844 
L 1394 2006 
L 513 4856 
L 1044 4856 
L 1925 2006 
z
" transform="scale(0.015625)"/>
      </defs>
      <use xlink:href="#DejaVuSans-7c" transform="translate(0 0.578125)"/>
      <use xlink:href="#DejaVuSans-27e8" transform="translate(33.691406 0.578125)"/>
      <use xlink:href="#DejaVuSans-30" transform="translate(72.705078 0.578125)"/>
      <use xlink:href="#DejaVuSans-Oblique-43" transform="translate(137.285156 -15.828125) scale(0.7)"/>
      <use xlink:href="#DejaVuSans-7c" transform="translate(188.896484 0.578125)"/>
      <use xlink:href="#DejaVuSans-Oblique-6e" transform="translate(222.587891 0.578125)"/>
      <use xlink:href="#DejaVuSans-Oblique-58" transform="translate(285.966797 -15.828125) scale(0.7)"/>
      <use xlink:href="#DejaVuSans-27e9" transform="translate(336.655273 0.578125)"/>
      <use xlink:href="#DejaVuSans-7c" transform="translate(375.668945 0.578125)"/>
     </g>
    </g>
   </g>
   <g id="line2d_33">
    <path d="M 77.0684 18.144382 
L 83.924453 19.671602 
L 90.780507 21.792328 
L 97.63656 24.638393 
L 104.492613 28.145408 
L 111.348667 29.117942 
L 118.20472 31.887297 
L 125.060773 34.788433 
L 131.916827 36.227849 
L 138.77288 39.672493 
L 145.628933 41.252127 
L 152.484987 43.473732 
L 159.34104 47.3672 
L 166.197093 48.055645 
L 173.053147 51.348065 
L 179.9092 53.037547 
L 186.765253 55.309955 
L 193.621307 58.65024 
L 200.47736 59.826209 
L 207.333413 63.865565 
L 214.189467 64.631661 
L 221.04552 67.347917 
L 227.901573 69.745371 
L 234.757627 71.669394 
L 241.61368 75.633477 
L 248.469733 76.274873 
L 255.325787 80.063321 
L 262.18184 81.08343 
L 269.037893 83.804696 
L 275.893947 86.122978 
L 282.75 88.139623 
L 289.606053 91.633316 
L 296.462107 92.707037 
L 303.31816 97.458284 
L 310.174213 97.43571 
L 317.030267 100.54646 
L 323.88632 102.323194 
L 330.742373 104.731748 
L 337.598427 107.435178 
L 344.45448 109.190921 
L 351.310533 113.119744 
L 358.166587 113.805438 
L 365.02264 118.149972 
L 371.878693 118.543295 
L 378.734747 121.633241 
L 385.5908 123.408449 
L 392.446853 125.85808 
L 399.302907 128.447764 
L 406.15896 130.313822 
L 413.015013 133.851078 
L 419.871067 134.903451 
L 426.72712 141.037534 
L 433.583173 139.596423 
L 440.439227 143.081154 
L 447.29528 144.388155 
L 454.151333 147.152346 
L 461.007387 149.296476 
L 467.86344 151.524439 
L 474.719493 154.383228 
L 481.575547 156.043541 
L 488.4316 159.896338 
" clip-path="url(#p54e442500f)" style="fill: none; stroke: #1f77b4; stroke-width: 1.5; stroke-linecap: square"/>
   </g>
   <g id="line2d_34">
    <path d="M 77.0684 18.120329 
L 83.924453 20.977948 
L 90.780507 27.233668 
L 97.63656 26.984413 
L 104.492613 30.475188 
L 111.348667 33.212964 
L 118.20472 35.901813 
L 125.060773 39.78928 
L 131.916827 41.59999 
L 138.77288 49.119963 
L 145.628933 47.427747 
L 152.484987 51.480872 
L 159.34104 53.349675 
L 166.197093 56.689633 
L 173.053147 59.365012 
L 179.9092 62.196864 
L 186.765253 65.504266 
L 193.621307 67.836405 
L 200.47736 71.874747 
L 207.333413 73.556098 
L 214.189467 79.138225 
L 221.04552 79.334004 
L 227.901573 84.183866 
L 234.757627 85.160431 
L 241.61368 89.088102 
L 248.469733 91.032358 
L 255.325787 94.452558 
L 262.18184 96.952383 
L 269.037893 99.981439 
L 275.893947 102.929964 
L 282.75 105.599318 
L 289.606053 108.986741 
L 296.462107 111.275359 
L 303.31816 115.175158 
L 310.174213 116.994332 
L 317.030267 121.66579 
L 323.88632 122.747724 
L 330.742373 132.184449 
L 337.598427 128.530959 
L 344.45448 133.280868 
L 351.310533 134.341611 
L 358.166587 138.372692 
L 365.02264 140.17925 
L 371.878693 143.770985 
L 378.734747 146.045044 
L 385.5908 149.298287 
L 392.446853 151.942329 
L 399.302907 154.899197 
L 406.15896 157.877466 
L 413.015013 160.549214 
L 419.871067 163.86218 
L 426.72712 166.235275 
L 433.583173 169.919338 
L 440.439227 171.94978 
L 447.29528 176.101081 
L 454.151333 177.688012 
L 461.007387 182.571694 
L 467.86344 183.446936 
L 474.719493 191.713975 
L 481.575547 189.224794 
L 488.4316 194.227217 
" clip-path="url(#p54e442500f)" style="fill: none; stroke: #ff7f0e; stroke-width: 1.5; stroke-linecap: square"/>
   </g>
   <g id="line2d_35">
    <path d="M 77.0684 18.11929 
L 83.924453 21.362425 
L 90.780507 25.703328 
L 97.63656 29.396536 
L 104.492613 32.46076 
L 111.348667 38.580971 
L 118.20472 39.779522 
L 125.060773 43.85899 
L 131.916827 47.422118 
L 138.77288 50.669975 
L 145.628933 55.710014 
L 152.484987 57.7839 
L 159.34104 63.115503 
L 166.197093 65.072787 
L 173.053147 69.234302 
L 179.9092 72.523039 
L 186.765253 76.033937 
L 193.621307 80.205634 
L 200.47736 83.053103 
L 207.333413 88.553072 
L 214.189467 90.199113 
L 221.04552 95.689253 
L 227.901573 97.442483 
L 234.757627 101.835566 
L 241.61368 104.779551 
L 248.469733 108.588304 
L 255.325787 112.229828 
L 262.18184 115.540664 
L 269.037893 119.860934 
L 275.893947 122.603615 
L 282.75 127.957953 
L 289.606053 129.744146 
L 296.462107 135.981284 
L 303.31816 136.948633 
L 310.174213 141.715956 
L 317.030267 144.213657 
L 323.88632 148.367427 
L 330.742373 151.544354 
L 337.598427 155.24912 
L 344.45448 158.957882 
L 351.310533 162.245978 
L 358.166587 166.497945 
L 365.02264 169.317066 
L 371.878693 174.299749 
L 378.734747 176.443703 
L 385.5908 183.461692 
L 392.446853 183.616851 
L 399.302907 189.032053 
L 406.15896 190.8328 
L 413.015013 195.429086 
L 419.871067 198.091955 
L 426.72712 202.203325 
L 433.583173 205.399042 
L 440.439227 209.126951 
L 447.29528 212.765216 
L 454.151333 216.135633 
L 461.007387 220.21448 
L 467.86344 223.202097 
L 474.719493 227.804637 
L 481.575547 230.312658 
L 488.4316 235.731864 
" clip-path="url(#p54e442500f)" style="fill: none; stroke: #2ca02c; stroke-width: 1.5; stroke-linecap: square"/>
   </g>
   <g id="line2d_36">
    <path d="M 77.0684 18.118375 
L 83.924453 23.944427 
L 90.780507 27.47988 
L 97.63656 32.690828 
L 104.492613 36.63704 
L 111.348667 41.531116 
L 118.20472 45.744598 
L 125.060773 50.40709 
L 131.916827 54.832234 
L 138.77288 59.302011 
L 145.628933 63.91139 
L 152.484987 68.208721 
L 159.34104 72.988084 
L 166.197093 77.123562 
L 173.053147 82.066397 
L 179.9092 86.044277 
L 186.765253 91.149766 
L 193.621307 94.969659 
L 200.47736 100.241601 
L 207.333413 103.898663 
L 214.189467 109.345783 
L 221.04552 112.830699 
L 227.901573 118.467545 
L 234.757627 121.765287 
L 241.61368 127.614345 
L 248.469733 130.702041 
L 255.325787 136.798018 
L 262.18184 139.640704 
L 269.037893 146.039974 
L 275.893947 148.581073 
L 282.75 155.385612 
L 289.606053 157.523028 
L 296.462107 164.965642 
L 303.31816 166.466322 
L 310.174213 175.726583 
L 317.030267 175.41093 
L 323.88632 183.322156 
L 330.742373 184.356782 
L 337.598427 191.440957 
L 344.45448 193.303765 
L 351.310533 199.943166 
L 358.166587 202.251837 
L 365.02264 208.586029 
L 371.878693 211.200933 
L 378.734747 217.302481 
L 385.5908 220.151088 
L 392.446853 226.06426 
L 399.302907 229.102182 
L 406.15896 234.856718 
L 413.015013 238.054195 
L 419.871067 243.671302 
L 426.72712 247.007228 
L 433.583173 252.502658 
L 440.439227 255.961185 
L 447.29528 261.347087 
L 454.151333 264.916072 
L 461.007387 270.201982 
L 467.86344 273.871883 
L 474.719493 279.065516 
L 481.575547 282.828599 
L 488.4316 287.936214 
" clip-path="url(#p54e442500f)" style="fill: none; stroke: #d62728; stroke-width: 1.5; stroke-linecap: square"/>
   </g>
   <g id="line2d_37">
    <path d="M 77.0684 18.118375 
L 83.924453 23.814445 
L 90.780507 26.944282 
L 97.63656 32.116701 
L 104.492613 35.564232 
L 111.348667 40.512741 
L 118.20472 44.132235 
L 125.060773 48.944399 
L 131.916827 52.677039 
L 138.77288 57.394911 
L 145.628933 61.209213 
L 152.484987 65.857105 
L 159.34104 69.733637 
L 166.197093 74.327316 
L 173.053147 78.25291 
L 179.9092 82.803297 
L 186.765253 86.768702 
L 193.621307 91.283754 
L 200.47736 95.282043 
L 207.333413 99.767747 
L 214.189467 103.793602 
L 221.04552 108.254554 
L 227.901573 112.303874 
L 234.757627 116.743735 
L 241.61368 120.813187 
L 248.469733 125.234933 
L 255.325787 129.321812 
L 262.18184 133.727856 
L 269.037893 137.829957 
L 275.893947 142.222212 
L 282.75 146.337705 
L 289.606053 150.71791 
L 296.462107 154.845239 
L 303.31816 159.214796 
L 310.174213 163.352593 
L 317.030267 167.712679 
L 323.88632 171.859874 
L 330.742373 176.211516 
L 337.598427 180.367112 
L 344.45448 184.7112 
L 351.310533 188.874357 
L 358.166587 193.211647 
L 365.02264 197.381666 
L 371.878693 201.7128 
L 378.734747 205.888993 
L 385.5908 210.214635 
L 392.446853 214.396419 
L 399.302907 218.717077 
L 406.15896 222.903973 
L 413.015013 227.220039 
L 419.871067 231.411628 
L 426.72712 235.723565 
L 433.583173 239.919394 
L 440.439227 244.227562 
L 447.29528 248.427338 
L 454.151333 252.732032 
L 461.007387 256.935429 
L 467.86344 261.236946 
L 474.719493 265.443641 
L 481.575547 269.74225 
L 488.4316 273.951998 
" clip-path="url(#p54e442500f)" style="fill: none; stroke: #9467bd; stroke-width: 1.5; stroke-linecap: square"/>
   </g>
   <g id="line2d_38">
    <path d="M 77.0684 18.118416 
L 83.924453 22.806508 
L 90.780507 26.110403 
L 97.63656 30.368447 
L 104.492613 33.917506 
L 111.348667 38.026082 
L 118.20472 41.688311 
L 125.060773 45.720975 
L 131.916827 49.44806 
L 138.77288 53.436299 
L 145.628933 57.20469 
L 152.484987 61.164782 
L 159.34104 64.96122 
L 166.197093 68.902602 
L 173.053147 72.719074 
L 179.9092 76.647467 
L 186.765253 80.478741 
L 193.621307 84.397998 
L 200.47736 88.240446 
L 207.333413 92.15313 
L 214.189467 96.004259 
L 221.04552 99.912112 
L 227.901573 103.770177 
L 234.757627 107.674467 
L 241.61368 111.538056 
L 248.469733 115.439715 
L 255.325787 119.307845 
L 262.18184 123.207553 
L 269.037893 127.07942 
L 275.893947 130.977684 
L 282.75 134.85268 
L 289.606053 138.749904 
L 296.462107 142.627566 
L 303.31816 146.524011 
L 310.174213 150.403908 
L 317.030267 154.299852 
L 323.88632 158.181759 
L 330.742373 162.077276 
L 337.598427 165.9609 
L 344.45448 169.856228 
L 351.310533 173.741331 
L 358.166587 177.636534 
L 365.02264 181.522952 
L 371.878693 185.418124 
L 378.734747 189.305722 
L 385.5908 193.200906 
L 392.446853 197.089551 
L 399.302907 200.984841 
L 406.15896 204.874392 
L 413.015013 208.769803 
L 419.871067 212.660281 
L 426.72712 216.555827 
L 433.583173 220.447055 
L 440.439227 224.34277 
L 447.29528 228.234689 
L 454.151333 232.13061 
L 461.007387 236.023233 
L 467.86344 239.919333 
L 474.719493 243.81255 
L 481.575547 247.708877 
L 488.4316 251.602684 
" clip-path="url(#p54e442500f)" style="fill: none; stroke: #8c564b; stroke-width: 1.5; stroke-linecap: square"/>
   </g>
   <g id="line2d_39">
    <path d="M 77.0684 18.119053 
L 83.924453 21.522371 
L 90.780507 24.008996 
L 97.63656 27.068521 
L 104.492613 29.749833 
L 111.348667 32.714146 
L 118.20472 35.475493 
L 125.060773 38.400406 
L 131.916827 41.203811 
L 138.77288 44.109965 
L 145.628933 46.938452 
L 152.484987 49.835187 
L 159.34104 52.679979 
L 166.197093 55.571895 
L 173.053147 58.428045 
L 179.9092 61.3177 
L 186.765253 64.182022 
L 193.621307 67.070846 
L 200.47736 69.941332 
L 207.333413 72.830129 
L 214.189467 75.70553 
L 221.04552 78.594733 
L 227.901573 81.474001 
L 234.757627 84.363917 
L 241.61368 87.246401 
L 248.469733 90.137188 
L 255.325787 93.022359 
L 262.18184 95.91408 
L 269.037893 98.801544 
L 275.893947 101.694261 
L 282.75 104.583722 
L 289.606053 107.477433 
L 296.462107 110.368641 
L 303.31816 113.263319 
L 310.174213 116.156081 
L 317.030267 119.051681 
L 323.88632 121.94585 
L 330.742373 124.842401 
L 337.598427 127.737823 
L 344.45448 130.635223 
L 351.310533 133.5318 
L 358.166587 136.430086 
L 365.02264 139.327723 
L 371.878693 142.226796 
L 378.734747 145.125422 
L 385.5908 148.025232 
L 392.446853 150.924793 
L 399.302907 153.825389 
L 406.15896 156.72574 
L 413.015013 159.627068 
L 419.871067 162.528208 
L 426.72712 165.430201 
L 433.583173 168.332098 
L 440.439227 171.234745 
L 447.29528 174.137286 
L 454.151333 177.040572 
L 461.007387 179.943828 
L 467.86344 182.847684 
L 474.719493 185.75158 
L 481.575547 188.655984 
L 488.4316 191.560466 
" clip-path="url(#p54e442500f)" style="fill: none; stroke: #e377c2; stroke-width: 1.5; stroke-linecap: square"/>
   </g>
   <g id="line2d_40">
    <path d="M 77.0684 18.118478 
L 83.924453 22.432847 
L 90.780507 25.540623 
L 97.63656 29.452433 
L 104.492613 32.787734 
L 111.348667 36.568619 
L 118.20472 40.004791 
L 125.060773 43.722992 
L 131.916827 47.21508 
L 138.77288 50.898508 
L 145.628933 54.425305 
L 152.484987 58.087877 
L 159.34104 61.637772 
L 166.197093 65.287179 
L 173.053147 68.853308 
L 179.9092 72.494084 
L 186.765253 76.072033 
L 193.621307 79.707174 
L 200.47736 83.293983 
L 207.333413 86.925301 
L 214.189467 90.518967 
L 221.04552 94.14773 
L 227.901573 97.746799 
L 234.757627 101.373861 
L 241.61368 104.977246 
L 248.469733 108.603268 
L 255.325787 112.210228 
L 262.18184 115.835577 
L 269.037893 119.445481 
L 275.893947 123.070487 
L 282.75 126.682856 
L 289.606053 130.307745 
L 296.462107 133.922274 
L 303.31816 137.547154 
L 310.174213 141.163503 
L 317.030267 144.788567 
L 323.88632 148.406484 
L 330.742373 152.031747 
L 337.598427 155.651107 
L 344.45448 159.276668 
L 351.310533 162.897265 
L 358.166587 166.523143 
L 365.02264 170.144853 
L 371.878693 173.771074 
L 378.734747 177.393809 
L 385.5908 181.020387 
L 392.446853 184.64405 
L 399.302907 188.27103 
L 406.15896 191.895496 
L 413.015013 195.522869 
L 419.871067 199.148119 
L 426.72712 202.775875 
L 433.583173 206.401824 
L 440.439227 210.029968 
L 447.29528 213.656571 
L 454.151333 217.285096 
L 461.007387 220.912319 
L 467.86344 224.541215 
L 474.719493 228.169022 
L 481.575547 231.798283 
L 488.4316 235.426629 
" clip-path="url(#p54e442500f)" style="fill: none; stroke: #7f7f7f; stroke-width: 1.5; stroke-linecap: square"/>
   </g>
   <g id="line2d_41">
    <path d="M 77.0684 18.118406 
L 83.924453 23.032022 
L 90.780507 26.599594 
L 97.63656 31.088638 
L 104.492613 34.897725 
L 111.348667 39.24102 
L 118.20472 43.160757 
L 125.060773 47.430941 
L 131.916827 51.413543 
L 138.77288 55.641337 
L 145.628933 59.663819 
L 152.484987 63.865069 
L 159.34104 67.914509 
L 166.197093 72.098207 
L 173.053147 76.166824 
L 179.9092 80.338567 
L 186.765253 84.421256 
L 193.621307 88.58461 
L 200.47736 92.677968 
L 207.333413 96.835358 
L 214.189467 100.936997 
L 221.04552 105.090079 
L 227.901573 109.198231 
L 234.757627 113.348186 
L 241.61368 117.46161 
L 248.469733 121.609255 
L 255.325787 125.726988 
L 262.18184 129.873015 
L 269.037893 133.994237 
L 275.893947 138.139101 
L 282.75 142.263371 
L 289.606053 146.407357 
L 296.462107 150.534135 
L 303.31816 154.677538 
L 310.174213 158.806445 
L 317.030267 162.949491 
L 323.88632 167.080263 
L 330.742373 171.223072 
L 337.598427 175.355519 
L 344.45448 179.498223 
L 351.310533 183.63204 
L 358.166587 187.77476 
L 365.02264 191.909873 
L 371.878693 196.052616 
L 378.734747 200.188898 
L 385.5908 204.33174 
L 392.446853 208.468977 
L 399.302907 212.611987 
L 406.15896 216.750152 
L 413.015013 220.893353 
L 419.871067 225.032366 
L 426.72712 229.175742 
L 433.583173 233.315465 
L 440.439227 237.459106 
L 447.29528 241.59959 
L 454.151333 245.743439 
L 461.007387 249.88454 
L 467.86344 254.028658 
L 474.719493 258.170353 
L 481.575547 262.314683 
L 488.4316 266.456905 
" clip-path="url(#p54e442500f)" style="fill: none; stroke: #bcbd22; stroke-width: 1.5; stroke-linecap: square"/>
   </g>
   <g id="line2d_42">
    <path d="M 77.0684 18.118365 
L 83.924453 26.00866 
L 90.780507 29.415384 
L 97.63656 36.747591 
L 104.492613 40.504176 
L 111.348667 47.580158 
L 118.20472 51.538911 
L 125.060773 58.448153 
L 131.916827 62.548668 
L 138.77288 69.334824 
L 145.628933 73.543992 
L 152.484987 80.233071 
L 159.34104 84.529936 
L 166.197093 91.139146 
L 173.053147 95.509317 
L 179.9092 102.050917 
L 186.765253 106.48382 
L 193.621307 112.966965 
L 200.47736 117.454621 
L 207.333413 123.886422 
L 214.189467 128.422396 
L 221.04552 134.808536 
L 227.901573 139.387799 
L 234.757627 145.732894 
L 241.61368 150.351232 
L 248.469733 156.659163 
L 255.325787 161.312981 
L 262.18184 167.586998 
L 269.037893 172.273312 
L 275.893947 178.516208 
L 282.75 183.23241 
L 289.606053 189.446564 
L 296.462107 194.190482 
L 303.31816 200.377992 
L 310.174213 205.147619 
L 317.030267 211.310333 
L 323.88632 216.103939 
L 330.742373 222.243482 
L 337.598427 227.059496 
L 344.45448 233.177387 
L 351.310533 238.01447 
L 358.166587 244.111921 
L 365.02264 248.968784 
L 371.878693 255.047097 
L 378.734747 259.92259 
L 385.5908 265.982808 
L 392.446853 270.875917 
L 399.302907 276.919003 
L 406.15896 281.828836 
L 413.015013 287.855659 
L 414.607819 289 
" clip-path="url(#p54e442500f)" style="fill: none; stroke: #17becf; stroke-width: 1.5; stroke-linecap: square"/>
   </g>
   <g id="line2d_43">
    <path d="M 77.0684 18.118365 
L 83.924453 25.582176 
L 90.780507 27.720052 
L 97.63656 34.622369 
L 104.492613 37.11351 
L 111.348667 43.756086 
L 118.20472 46.452831 
L 125.060773 52.925348 
L 131.916827 55.767174 
L 138.77288 62.113264 
L 145.628933 65.067035 
L 152.484987 71.312723 
L 159.34104 74.357435 
L 166.197093 80.52 
L 173.053147 83.641231 
L 179.9092 89.732981 
L 186.765253 92.920124 
L 193.621307 98.95024 
L 200.47736 102.195278 
L 207.333413 108.170886 
L 214.189467 111.467392 
L 221.04552 117.394237 
L 227.901573 120.737089 
L 234.757627 126.619834 
L 241.61368 130.004742 
L 248.469733 135.84723 
L 255.325787 139.270694 
L 262.18184 145.076298 
L 269.037893 148.535195 
L 275.893947 154.306645 
L 282.75 157.798428 
L 289.606053 163.538224 
L 296.462107 167.060571 
L 303.31816 172.770848 
L 310.174213 176.321735 
L 317.030267 182.00436 
L 323.88632 185.582059 
L 330.742373 191.23871 
L 337.598427 194.841664 
L 344.45448 200.473781 
L 351.310533 204.100556 
L 358.166587 209.709511 
L 365.02264 213.358809 
L 371.878693 218.945846 
L 378.734747 222.616516 
L 385.5908 228.182744 
L 392.446853 231.873702 
L 399.302907 237.420101 
L 406.15896 241.130423 
L 413.015013 246.65792 
L 419.871067 250.386737 
L 426.72712 255.896157 
L 433.583173 259.642638 
L 440.439227 265.134806 
L 447.29528 268.898185 
L 454.151333 274.373801 
L 461.007387 278.153352 
L 467.86344 283.613122 
L 474.719493 287.408324 
L 476.723856 289 
" clip-path="url(#p54e442500f)" style="fill: none; stroke: #1f77b4; stroke-width: 1.5; stroke-linecap: square"/>
   </g>
   <g id="line2d_44">
    <path d="M 77.0684 18.118365 
L 83.924453 25.488806 
L 90.780507 28.346042 
L 97.63656 35.158233 
L 104.492613 38.365525 
L 111.348667 44.921298 
L 118.20472 48.330973 
L 125.060773 54.71982 
L 131.916827 58.271377 
L 138.77288 64.53702 
L 145.628933 68.197358 
L 152.484987 74.365771 
L 159.34104 78.11399 
L 166.197093 84.202287 
L 173.053147 88.024043 
L 179.9092 94.044591 
L 186.765253 97.929201 
L 193.621307 103.891151 
L 200.47736 107.830603 
L 207.333413 113.741081 
L 214.189467 117.7291 
L 221.04552 123.593755 
L 227.901573 127.625166 
L 234.757627 133.448617 
L 241.61368 137.519244 
L 248.469733 143.305368 
L 255.325787 147.41162 
L 262.18184 153.163709 
L 269.037893 157.302589 
L 275.893947 163.023399 
L 282.75 167.192383 
L 289.606053 172.884302 
L 296.462107 177.081076 
L 303.31816 182.746219 
L 310.174213 186.968837 
L 317.030267 192.609058 
L 323.88632 196.855785 
L 330.742373 202.472753 
L 337.598427 206.742028 
L 344.45448 212.337128 
L 351.310533 216.627554 
L 358.166587 222.202187 
L 365.02264 226.512547 
L 371.878693 232.067835 
L 378.734747 236.397002 
L 385.5908 241.934048 
L 392.446853 246.280962 
L 399.302907 251.800741 
L 406.15896 256.164501 
L 413.015013 261.667942 
L 419.871067 266.047599 
L 426.72712 271.535506 
L 433.583173 275.930362 
L 440.439227 281.403496 
L 447.29528 285.812845 
L 451.298103 289 
" clip-path="url(#p54e442500f)" style="fill: none; stroke: #ff7f0e; stroke-width: 1.5; stroke-linecap: square"/>
   </g>
   <g id="patch_3">
    <path d="M 56.50024 254.64351 
L 56.50024 18.118365 
" style="fill: none; stroke: #000000; stroke-width: 0.8; stroke-linejoin: miter; stroke-linecap: square"/>
   </g>
   <g id="patch_4">
    <path d="M 508.99976 254.64351 
L 508.99976 18.118365 
" style="fill: none; stroke: #000000; stroke-width: 0.8; stroke-linejoin: miter; stroke-linecap: square"/>
   </g>
   <g id="patch_5">
    <path d="M 56.50024 254.64351 
L 508.99976 254.64351 
" style="fill: none; stroke: #000000; stroke-width: 0.8; stroke-linejoin: miter; stroke-linecap: square"/>
   </g>
   <g id="patch_6">
    <path d="M 56.50024 18.118365 
L 508.99976 18.118365 
" style="fill: none; stroke: #000000; stroke-width: 0.8; stroke-linejoin: miter; stroke-linecap: square"/>
   </g>
   <g id="text_19">
    <!-- SrOPh X-C -->
    <g transform="translate(252.259688 12.118365) scale(0.12 -0.12)">
     <defs>
      <path id="DejaVuSans-53" d="M 3425 4513 
L 3425 3897 
Q 3066 4069 2747 4153 
Q 2428 4238 2131 4238 
Q 1616 4238 1336 4038 
Q 1056 3838 1056 3469 
Q 1056 3159 1242 3001 
Q 1428 2844 1947 2747 
L 2328 2669 
Q 3034 2534 3370 2195 
Q 3706 1856 3706 1288 
Q 3706 609 3251 259 
Q 2797 -91 1919 -91 
Q 1588 -91 1214 -16 
Q 841 59 441 206 
L 441 856 
Q 825 641 1194 531 
Q 1563 422 1919 422 
Q 2459 422 2753 634 
Q 3047 847 3047 1241 
Q 3047 1584 2836 1778 
Q 2625 1972 2144 2069 
L 1759 2144 
Q 1053 2284 737 2584 
Q 422 2884 422 3419 
Q 422 4038 858 4394 
Q 1294 4750 2059 4750 
Q 2388 4750 2728 4690 
Q 3069 4631 3425 4513 
z
" transform="scale(0.015625)"/>
      <path id="DejaVuSans-72" d="M 2631 2963 
Q 2534 3019 2420 3045 
Q 2306 3072 2169 3072 
Q 1681 3072 1420 2755 
Q 1159 2438 1159 1844 
L 1159 0 
L 581 0 
L 581 3500 
L 1159 3500 
L 1159 2956 
Q 1341 3275 1631 3429 
Q 1922 3584 2338 3584 
Q 2397 3584 2469 3576 
Q 2541 3569 2628 3553 
L 2631 2963 
z
" transform="scale(0.015625)"/>
      <path id="DejaVuSans-4f" d="M 2522 4238 
Q 1834 4238 1429 3725 
Q 1025 3213 1025 2328 
Q 1025 1447 1429 934 
Q 1834 422 2522 422 
Q 3209 422 3611 934 
Q 4013 1447 4013 2328 
Q 4013 3213 3611 3725 
Q 3209 4238 2522 4238 
z
M 2522 4750 
Q 3503 4750 4090 4092 
Q 4678 3434 4678 2328 
Q 4678 1225 4090 567 
Q 3503 -91 2522 -91 
Q 1538 -91 948 565 
Q 359 1222 359 2328 
Q 359 3434 948 4092 
Q 1538 4750 2522 4750 
z
" transform="scale(0.015625)"/>
      <path id="DejaVuSans-50" d="M 1259 4147 
L 1259 2394 
L 2053 2394 
Q 2494 2394 2734 2622 
Q 2975 2850 2975 3272 
Q 2975 3691 2734 3919 
Q 2494 4147 2053 4147 
L 1259 4147 
z
M 628 4666 
L 2053 4666 
Q 2838 4666 3239 4311 
Q 3641 3956 3641 3272 
Q 3641 2581 3239 2228 
Q 2838 1875 2053 1875 
L 1259 1875 
L 1259 0 
L 628 0 
L 628 4666 
z
" transform="scale(0.015625)"/>
      <path id="DejaVuSans-68" d="M 3513 2113 
L 3513 0 
L 2938 0 
L 2938 2094 
Q 2938 2591 2744 2837 
Q 2550 3084 2163 3084 
Q 1697 3084 1428 2787 
Q 1159 2491 1159 1978 
L 1159 0 
L 581 0 
L 581 4863 
L 1159 4863 
L 1159 2956 
Q 1366 3272 1645 3428 
Q 1925 3584 2291 3584 
Q 2894 3584 3203 3211 
Q 3513 2838 3513 2113 
z
" transform="scale(0.015625)"/>
      <path id="DejaVuSans-20" transform="scale(0.015625)"/>
      <path id="DejaVuSans-58" d="M 403 4666 
L 1081 4666 
L 2241 2931 
L 3406 4666 
L 4084 4666 
L 2584 2425 
L 4184 0 
L 3506 0 
L 2194 1984 
L 872 0 
L 191 0 
L 1856 2491 
L 403 4666 
z
" transform="scale(0.015625)"/>
      <path id="DejaVuSans-2d" d="M 313 2009 
L 1997 2009 
L 1997 1497 
L 313 1497 
L 313 2009 
z
" transform="scale(0.015625)"/>
      <path id="DejaVuSans-43" d="M 4122 4306 
L 4122 3641 
Q 3803 3938 3442 4084 
Q 3081 4231 2675 4231 
Q 1875 4231 1450 3742 
Q 1025 3253 1025 2328 
Q 1025 1406 1450 917 
Q 1875 428 2675 428 
Q 3081 428 3442 575 
Q 3803 722 4122 1019 
L 4122 359 
Q 3791 134 3420 21 
Q 3050 -91 2638 -91 
Q 1578 -91 968 557 
Q 359 1206 359 2328 
Q 359 3453 968 4101 
Q 1578 4750 2638 4750 
Q 3056 4750 3426 4639 
Q 3797 4528 4122 4306 
z
" transform="scale(0.015625)"/>
     </defs>
     <use xlink:href="#DejaVuSans-53"/>
     <use xlink:href="#DejaVuSans-72" transform="translate(63.476562 0)"/>
     <use xlink:href="#DejaVuSans-4f" transform="translate(104.589844 0)"/>
     <use xlink:href="#DejaVuSans-50" transform="translate(183.300781 0)"/>
     <use xlink:href="#DejaVuSans-68" transform="translate(243.603516 0)"/>
     <use xlink:href="#DejaVuSans-20" transform="translate(306.982422 0)"/>
     <use xlink:href="#DejaVuSans-58" transform="translate(338.769531 0)"/>
     <use xlink:href="#DejaVuSans-2d" transform="translate(402.275391 0)"/>
     <use xlink:href="#DejaVuSans-43" transform="translate(438.359375 0)"/>
    </g>
   </g>
   <g id="legend_1">
    <g id="patch_7">
     <path d="M 63.50024 249.64351 
L 205.70024 249.64351 
Q 207.70024 249.64351 207.70024 247.64351 
L 207.70024 72.50601 
Q 207.70024 70.50601 205.70024 70.50601 
L 63.50024 70.50601 
Q 61.50024 70.50601 61.50024 72.50601 
L 61.50024 247.64351 
Q 61.50024 249.64351 63.50024 249.64351 
z
" style="fill: #ffffff; opacity: 0.8; stroke: #cccccc; stroke-linejoin: miter"/>
    </g>
    <g id="line2d_45">
     <path d="M 65.50024 78.604448 
L 75.50024 78.604448 
L 85.50024 78.604448 
" style="fill: none; stroke: #1f77b4; stroke-width: 1.5; stroke-linecap: square"/>
    </g>
    <g id="text_20">
     <!-- $\nu _{12}$($a_{1}$), $\Delta Q=0.1190$ -->
     <g transform="translate(93.50024 82.104448) scale(0.1 -0.1)">
      <defs>
       <path id="DejaVuSans-Oblique-3bd" d="M 959 0 
L 572 3500 
L 1191 3500 
L 1522 563 
Q 1972 950 2391 1488 
Q 2706 1891 2788 2241 
Q 2825 2406 2809 2719 
Q 2794 3091 2544 3500 
L 3125 3500 
L 3125 3500 
Q 3288 3222 3353 2834 
Q 3416 2478 3369 2234 
Q 3250 1622 2719 1075 
Q 2025 363 1572 0 
L 959 0 
z
" transform="scale(0.015625)"/>
       <path id="DejaVuSans-28" d="M 1984 4856 
Q 1566 4138 1362 3434 
Q 1159 2731 1159 2009 
Q 1159 1288 1364 580 
Q 1569 -128 1984 -844 
L 1484 -844 
Q 1016 -109 783 600 
Q 550 1309 550 2009 
Q 550 2706 781 3412 
Q 1013 4119 1484 4856 
L 1984 4856 
z
" transform="scale(0.015625)"/>
       <path id="DejaVuSans-Oblique-61" d="M 3438 1997 
L 3047 0 
L 2472 0 
L 2578 531 
Q 2325 219 2001 64 
Q 1678 -91 1281 -91 
Q 834 -91 548 182 
Q 263 456 263 884 
Q 263 1497 752 1853 
Q 1241 2209 2100 2209 
L 2900 2209 
L 2931 2363 
Q 2938 2388 2941 2417 
Q 2944 2447 2944 2509 
Q 2944 2788 2717 2942 
Q 2491 3097 2081 3097 
Q 1800 3097 1504 3025 
Q 1209 2953 897 2809 
L 997 3341 
Q 1322 3463 1633 3523 
Q 1944 3584 2234 3584 
Q 2853 3584 3176 3315 
Q 3500 3047 3500 2534 
Q 3500 2431 3484 2292 
Q 3469 2153 3438 1997 
z
M 2816 1759 
L 2241 1759 
Q 1534 1759 1195 1570 
Q 856 1381 856 984 
Q 856 709 1029 553 
Q 1203 397 1509 397 
Q 1978 397 2328 733 
Q 2678 1069 2791 1631 
L 2816 1759 
z
" transform="scale(0.015625)"/>
       <path id="DejaVuSans-29" d="M 513 4856 
L 1013 4856 
Q 1481 4119 1714 3412 
Q 1947 2706 1947 2009 
Q 1947 1309 1714 600 
Q 1481 -109 1013 -844 
L 513 -844 
Q 928 -128 1133 580 
Q 1338 1288 1338 2009 
Q 1338 2731 1133 3434 
Q 928 4138 513 4856 
z
" transform="scale(0.015625)"/>
       <path id="DejaVuSans-2c" d="M 750 794 
L 1409 794 
L 1409 256 
L 897 -744 
L 494 -744 
L 750 256 
L 750 794 
z
" transform="scale(0.015625)"/>
       <path id="DejaVuSans-394" d="M 2188 4044 
L 906 525 
L 3472 525 
L 2188 4044 
z
M 50 0 
L 1831 4666 
L 2547 4666 
L 4325 0 
L 50 0 
z
" transform="scale(0.015625)"/>
       <path id="DejaVuSans-Oblique-51" d="M 2309 -84 
Q 2275 -88 2237 -89 
Q 2200 -91 2125 -91 
Q 1250 -91 756 411 
Q 263 913 263 1797 
Q 263 2319 452 2844 
Q 641 3369 978 3788 
Q 1369 4269 1858 4509 
Q 2347 4750 2938 4750 
Q 3794 4750 4287 4245 
Q 4781 3741 4781 2869 
Q 4781 1928 4265 1147 
Q 3750 366 2919 44 
L 3553 -825 
L 2847 -825 
L 2309 -84 
z
M 2919 4238 
Q 2400 4238 2003 3986 
Q 1606 3734 1313 3219 
Q 1125 2891 1026 2522 
Q 928 2153 928 1778 
Q 928 1128 1239 775 
Q 1550 422 2119 422 
Q 2631 422 3032 676 
Q 3434 931 3719 1434 
Q 3909 1772 4009 2142 
Q 4109 2513 4109 2881 
Q 4109 3528 3796 3883 
Q 3484 4238 2919 4238 
z
" transform="scale(0.015625)"/>
       <path id="DejaVuSans-3d" d="M 678 2906 
L 4684 2906 
L 4684 2381 
L 678 2381 
L 678 2906 
z
M 678 1631 
L 4684 1631 
L 4684 1100 
L 678 1100 
L 678 1631 
z
" transform="scale(0.015625)"/>
       <path id="DejaVuSans-2e" d="M 684 794 
L 1344 794 
L 1344 0 
L 684 0 
L 684 794 
z
" transform="scale(0.015625)"/>
       <path id="DejaVuSans-39" d="M 703 97 
L 703 672 
Q 941 559 1184 500 
Q 1428 441 1663 441 
Q 2288 441 2617 861 
Q 2947 1281 2994 2138 
Q 2813 1869 2534 1725 
Q 2256 1581 1919 1581 
Q 1219 1581 811 2004 
Q 403 2428 403 3163 
Q 403 3881 828 4315 
Q 1253 4750 1959 4750 
Q 2769 4750 3195 4129 
Q 3622 3509 3622 2328 
Q 3622 1225 3098 567 
Q 2575 -91 1691 -91 
Q 1453 -91 1209 -44 
Q 966 3 703 97 
z
M 1959 2075 
Q 2384 2075 2632 2365 
Q 2881 2656 2881 3163 
Q 2881 3666 2632 3958 
Q 2384 4250 1959 4250 
Q 1534 4250 1286 3958 
Q 1038 3666 1038 3163 
Q 1038 2656 1286 2365 
Q 1534 2075 1959 2075 
z
" transform="scale(0.015625)"/>
      </defs>
      <use xlink:href="#DejaVuSans-Oblique-3bd" transform="translate(0 0.125)"/>
      <use xlink:href="#DejaVuSans-31" transform="translate(55.859375 -16.28125) scale(0.7)"/>
      <use xlink:href="#DejaVuSans-32" transform="translate(100.395508 -16.28125) scale(0.7)"/>
      <use xlink:href="#DejaVuSans-28" transform="translate(147.666016 0.125)"/>
      <use xlink:href="#DejaVuSans-Oblique-61" transform="translate(186.679688 0.125)"/>
      <use xlink:href="#DejaVuSans-31" transform="translate(247.958984 -16.28125) scale(0.7)"/>
      <use xlink:href="#DejaVuSans-29" transform="translate(295.229492 0.125)"/>
      <use xlink:href="#DejaVuSans-2c" transform="translate(334.243164 0.125)"/>
      <use xlink:href="#DejaVuSans-20" transform="translate(366.030273 0.125)"/>
      <use xlink:href="#DejaVuSans-394" transform="translate(397.817383 0.125)"/>
      <use xlink:href="#DejaVuSans-Oblique-51" transform="translate(466.225586 0.125)"/>
      <use xlink:href="#DejaVuSans-3d" transform="translate(564.418945 0.125)"/>
      <use xlink:href="#DejaVuSans-30" transform="translate(667.69043 0.125)"/>
      <use xlink:href="#DejaVuSans-2e" transform="translate(731.313477 0.125)"/>
      <use xlink:href="#DejaVuSans-31" transform="translate(763.100586 0.125)"/>
      <use xlink:href="#DejaVuSans-31" transform="translate(826.723633 0.125)"/>
      <use xlink:href="#DejaVuSans-39" transform="translate(890.34668 0.125)"/>
      <use xlink:href="#DejaVuSans-30" transform="translate(953.969727 0.125)"/>
     </g>
    </g>
    <g id="line2d_46">
     <path d="M 65.50024 93.282573 
L 75.50024 93.282573 
L 85.50024 93.282573 
" style="fill: none; stroke: #ff7f0e; stroke-width: 1.5; stroke-linecap: square"/>
    </g>
    <g id="text_21">
     <!-- $\nu _{11}$($a_{1}$), $\Delta Q=-0.0205$ -->
     <g transform="translate(93.50024 96.782573) scale(0.1 -0.1)">
      <use xlink:href="#DejaVuSans-Oblique-3bd" transform="translate(0 0.125)"/>
      <use xlink:href="#DejaVuSans-31" transform="translate(55.859375 -16.28125) scale(0.7)"/>
      <use xlink:href="#DejaVuSans-31" transform="translate(100.395508 -16.28125) scale(0.7)"/>
      <use xlink:href="#DejaVuSans-28" transform="translate(147.666016 0.125)"/>
      <use xlink:href="#DejaVuSans-Oblique-61" transform="translate(186.679688 0.125)"/>
      <use xlink:href="#DejaVuSans-31" transform="translate(247.958984 -16.28125) scale(0.7)"/>
      <use xlink:href="#DejaVuSans-29" transform="translate(295.229492 0.125)"/>
      <use xlink:href="#DejaVuSans-2c" transform="translate(334.243164 0.125)"/>
      <use xlink:href="#DejaVuSans-20" transform="translate(366.030273 0.125)"/>
      <use xlink:href="#DejaVuSans-394" transform="translate(397.817383 0.125)"/>
      <use xlink:href="#DejaVuSans-Oblique-51" transform="translate(466.225586 0.125)"/>
      <use xlink:href="#DejaVuSans-3d" transform="translate(564.418945 0.125)"/>
      <use xlink:href="#DejaVuSans-2212" transform="translate(667.69043 0.125)"/>
      <use xlink:href="#DejaVuSans-30" transform="translate(751.479492 0.125)"/>
      <use xlink:href="#DejaVuSans-2e" transform="translate(815.102539 0.125)"/>
      <use xlink:href="#DejaVuSans-30" transform="translate(846.889648 0.125)"/>
      <use xlink:href="#DejaVuSans-32" transform="translate(910.512695 0.125)"/>
      <use xlink:href="#DejaVuSans-30" transform="translate(974.135742 0.125)"/>
      <use xlink:href="#DejaVuSans-35" transform="translate(1037.758789 0.125)"/>
     </g>
    </g>
    <g id="line2d_47">
     <path d="M 65.50024 107.960698 
L 75.50024 107.960698 
L 85.50024 107.960698 
" style="fill: none; stroke: #2ca02c; stroke-width: 1.5; stroke-linecap: square"/>
    </g>
    <g id="text_22">
     <!-- $\nu _{10}$($a_{1}$), $\Delta Q=-0.0117$ -->
     <g transform="translate(93.50024 111.460698) scale(0.1 -0.1)">
      <use xlink:href="#DejaVuSans-Oblique-3bd" transform="translate(0 0.125)"/>
      <use xlink:href="#DejaVuSans-31" transform="translate(55.859375 -16.28125) scale(0.7)"/>
      <use xlink:href="#DejaVuSans-30" transform="translate(100.395508 -16.28125) scale(0.7)"/>
      <use xlink:href="#DejaVuSans-28" transform="translate(147.666016 0.125)"/>
      <use xlink:href="#DejaVuSans-Oblique-61" transform="translate(186.679688 0.125)"/>
      <use xlink:href="#DejaVuSans-31" transform="translate(247.958984 -16.28125) scale(0.7)"/>
      <use xlink:href="#DejaVuSans-29" transform="translate(295.229492 0.125)"/>
      <use xlink:href="#DejaVuSans-2c" transform="translate(334.243164 0.125)"/>
      <use xlink:href="#DejaVuSans-20" transform="translate(366.030273 0.125)"/>
      <use xlink:href="#DejaVuSans-394" transform="translate(397.817383 0.125)"/>
      <use xlink:href="#DejaVuSans-Oblique-51" transform="translate(466.225586 0.125)"/>
      <use xlink:href="#DejaVuSans-3d" transform="translate(564.418945 0.125)"/>
      <use xlink:href="#DejaVuSans-2212" transform="translate(667.69043 0.125)"/>
      <use xlink:href="#DejaVuSans-30" transform="translate(751.479492 0.125)"/>
      <use xlink:href="#DejaVuSans-2e" transform="translate(815.102539 0.125)"/>
      <use xlink:href="#DejaVuSans-30" transform="translate(846.889648 0.125)"/>
      <use xlink:href="#DejaVuSans-31" transform="translate(910.512695 0.125)"/>
      <use xlink:href="#DejaVuSans-31" transform="translate(974.135742 0.125)"/>
      <use xlink:href="#DejaVuSans-37" transform="translate(1037.758789 0.125)"/>
     </g>
    </g>
    <g id="line2d_48">
     <path d="M 65.50024 122.638823 
L 75.50024 122.638823 
L 85.50024 122.638823 
" style="fill: none; stroke: #d62728; stroke-width: 1.5; stroke-linecap: square"/>
    </g>
    <g id="text_23">
     <!-- $\nu _{9}$($a_{1}$), $\Delta Q=-0.0009$ -->
     <g transform="translate(93.50024 126.138823) scale(0.1 -0.1)">
      <use xlink:href="#DejaVuSans-Oblique-3bd" transform="translate(0 0.125)"/>
      <use xlink:href="#DejaVuSans-39" transform="translate(55.859375 -16.28125) scale(0.7)"/>
      <use xlink:href="#DejaVuSans-28" transform="translate(103.129883 0.125)"/>
      <use xlink:href="#DejaVuSans-Oblique-61" transform="translate(142.143555 0.125)"/>
      <use xlink:href="#DejaVuSans-31" transform="translate(203.422852 -16.28125) scale(0.7)"/>
      <use xlink:href="#DejaVuSans-29" transform="translate(250.693359 0.125)"/>
      <use xlink:href="#DejaVuSans-2c" transform="translate(289.707031 0.125)"/>
      <use xlink:href="#DejaVuSans-20" transform="translate(321.494141 0.125)"/>
      <use xlink:href="#DejaVuSans-394" transform="translate(353.28125 0.125)"/>
      <use xlink:href="#DejaVuSans-Oblique-51" transform="translate(421.689453 0.125)"/>
      <use xlink:href="#DejaVuSans-3d" transform="translate(519.882812 0.125)"/>
      <use xlink:href="#DejaVuSans-2212" transform="translate(623.154297 0.125)"/>
      <use xlink:href="#DejaVuSans-30" transform="translate(706.943359 0.125)"/>
      <use xlink:href="#DejaVuSans-2e" transform="translate(770.566406 0.125)"/>
      <use xlink:href="#DejaVuSans-30" transform="translate(802.353516 0.125)"/>
      <use xlink:href="#DejaVuSans-30" transform="translate(865.976562 0.125)"/>
      <use xlink:href="#DejaVuSans-30" transform="translate(929.599609 0.125)"/>
      <use xlink:href="#DejaVuSans-39" transform="translate(993.222656 0.125)"/>
     </g>
    </g>
    <g id="line2d_49">
     <path d="M 65.50024 137.316948 
L 75.50024 137.316948 
L 85.50024 137.316948 
" style="fill: none; stroke: #9467bd; stroke-width: 1.5; stroke-linecap: square"/>
    </g>
    <g id="text_24">
     <!-- $\nu _{8}$($a_{1}$), $\Delta Q=0.0010$ -->
     <g transform="translate(93.50024 140.816948) scale(0.1 -0.1)">
      <use xlink:href="#DejaVuSans-Oblique-3bd" transform="translate(0 0.125)"/>
      <use xlink:href="#DejaVuSans-38" transform="translate(55.859375 -16.28125) scale(0.7)"/>
      <use xlink:href="#DejaVuSans-28" transform="translate(103.129883 0.125)"/>
      <use xlink:href="#DejaVuSans-Oblique-61" transform="translate(142.143555 0.125)"/>
      <use xlink:href="#DejaVuSans-31" transform="translate(203.422852 -16.28125) scale(0.7)"/>
      <use xlink:href="#DejaVuSans-29" transform="translate(250.693359 0.125)"/>
      <use xlink:href="#DejaVuSans-2c" transform="translate(289.707031 0.125)"/>
      <use xlink:href="#DejaVuSans-20" transform="translate(321.494141 0.125)"/>
      <use xlink:href="#DejaVuSans-394" transform="translate(353.28125 0.125)"/>
      <use xlink:href="#DejaVuSans-Oblique-51" transform="translate(421.689453 0.125)"/>
      <use xlink:href="#DejaVuSans-3d" transform="translate(519.882812 0.125)"/>
      <use xlink:href="#DejaVuSans-30" transform="translate(623.154297 0.125)"/>
      <use xlink:href="#DejaVuSans-2e" transform="translate(686.777344 0.125)"/>
      <use xlink:href="#DejaVuSans-30" transform="translate(718.564453 0.125)"/>
      <use xlink:href="#DejaVuSans-30" transform="translate(782.1875 0.125)"/>
      <use xlink:href="#DejaVuSans-31" transform="translate(845.810547 0.125)"/>
      <use xlink:href="#DejaVuSans-30" transform="translate(909.433594 0.125)"/>
     </g>
    </g>
    <g id="line2d_50">
     <path d="M 65.50024 151.995073 
L 75.50024 151.995073 
L 85.50024 151.995073 
" style="fill: none; stroke: #8c564b; stroke-width: 1.5; stroke-linecap: square"/>
    </g>
    <g id="text_25">
     <!-- $\nu _{7}$($a_{1}$), $\Delta Q=0.0025$ -->
     <g transform="translate(93.50024 155.495073) scale(0.1 -0.1)">
      <use xlink:href="#DejaVuSans-Oblique-3bd" transform="translate(0 0.125)"/>
      <use xlink:href="#DejaVuSans-37" transform="translate(55.859375 -16.28125) scale(0.7)"/>
      <use xlink:href="#DejaVuSans-28" transform="translate(103.129883 0.125)"/>
      <use xlink:href="#DejaVuSans-Oblique-61" transform="translate(142.143555 0.125)"/>
      <use xlink:href="#DejaVuSans-31" transform="translate(203.422852 -16.28125) scale(0.7)"/>
      <use xlink:href="#DejaVuSans-29" transform="translate(250.693359 0.125)"/>
      <use xlink:href="#DejaVuSans-2c" transform="translate(289.707031 0.125)"/>
      <use xlink:href="#DejaVuSans-20" transform="translate(321.494141 0.125)"/>
      <use xlink:href="#DejaVuSans-394" transform="translate(353.28125 0.125)"/>
      <use xlink:href="#DejaVuSans-Oblique-51" transform="translate(421.689453 0.125)"/>
      <use xlink:href="#DejaVuSans-3d" transform="translate(519.882812 0.125)"/>
      <use xlink:href="#DejaVuSans-30" transform="translate(623.154297 0.125)"/>
      <use xlink:href="#DejaVuSans-2e" transform="translate(686.777344 0.125)"/>
      <use xlink:href="#DejaVuSans-30" transform="translate(718.564453 0.125)"/>
      <use xlink:href="#DejaVuSans-30" transform="translate(782.1875 0.125)"/>
      <use xlink:href="#DejaVuSans-32" transform="translate(845.810547 0.125)"/>
      <use xlink:href="#DejaVuSans-35" transform="translate(909.433594 0.125)"/>
     </g>
    </g>
    <g id="line2d_51">
     <path d="M 65.50024 166.673198 
L 75.50024 166.673198 
L 85.50024 166.673198 
" style="fill: none; stroke: #e377c2; stroke-width: 1.5; stroke-linecap: square"/>
    </g>
    <g id="text_26">
     <!-- $\nu _{6}$($a_{1}$), $\Delta Q=0.0082$ -->
     <g transform="translate(93.50024 170.173198) scale(0.1 -0.1)">
      <use xlink:href="#DejaVuSans-Oblique-3bd" transform="translate(0 0.125)"/>
      <use xlink:href="#DejaVuSans-36" transform="translate(55.859375 -16.28125) scale(0.7)"/>
      <use xlink:href="#DejaVuSans-28" transform="translate(103.129883 0.125)"/>
      <use xlink:href="#DejaVuSans-Oblique-61" transform="translate(142.143555 0.125)"/>
      <use xlink:href="#DejaVuSans-31" transform="translate(203.422852 -16.28125) scale(0.7)"/>
      <use xlink:href="#DejaVuSans-29" transform="translate(250.693359 0.125)"/>
      <use xlink:href="#DejaVuSans-2c" transform="translate(289.707031 0.125)"/>
      <use xlink:href="#DejaVuSans-20" transform="translate(321.494141 0.125)"/>
      <use xlink:href="#DejaVuSans-394" transform="translate(353.28125 0.125)"/>
      <use xlink:href="#DejaVuSans-Oblique-51" transform="translate(421.689453 0.125)"/>
      <use xlink:href="#DejaVuSans-3d" transform="translate(519.882812 0.125)"/>
      <use xlink:href="#DejaVuSans-30" transform="translate(623.154297 0.125)"/>
      <use xlink:href="#DejaVuSans-2e" transform="translate(686.777344 0.125)"/>
      <use xlink:href="#DejaVuSans-30" transform="translate(718.564453 0.125)"/>
      <use xlink:href="#DejaVuSans-30" transform="translate(782.1875 0.125)"/>
      <use xlink:href="#DejaVuSans-38" transform="translate(845.810547 0.125)"/>
      <use xlink:href="#DejaVuSans-32" transform="translate(909.433594 0.125)"/>
     </g>
    </g>
    <g id="line2d_52">
     <path d="M 65.50024 181.351323 
L 75.50024 181.351323 
L 85.50024 181.351323 
" style="fill: none; stroke: #7f7f7f; stroke-width: 1.5; stroke-linecap: square"/>
    </g>
    <g id="text_27">
     <!-- $\nu _{5}$($a_{1}$), $\Delta Q=0.0031$ -->
     <g transform="translate(93.50024 184.851323) scale(0.1 -0.1)">
      <use xlink:href="#DejaVuSans-Oblique-3bd" transform="translate(0 0.125)"/>
      <use xlink:href="#DejaVuSans-35" transform="translate(55.859375 -16.28125) scale(0.7)"/>
      <use xlink:href="#DejaVuSans-28" transform="translate(103.129883 0.125)"/>
      <use xlink:href="#DejaVuSans-Oblique-61" transform="translate(142.143555 0.125)"/>
      <use xlink:href="#DejaVuSans-31" transform="translate(203.422852 -16.28125) scale(0.7)"/>
      <use xlink:href="#DejaVuSans-29" transform="translate(250.693359 0.125)"/>
      <use xlink:href="#DejaVuSans-2c" transform="translate(289.707031 0.125)"/>
      <use xlink:href="#DejaVuSans-20" transform="translate(321.494141 0.125)"/>
      <use xlink:href="#DejaVuSans-394" transform="translate(353.28125 0.125)"/>
      <use xlink:href="#DejaVuSans-Oblique-51" transform="translate(421.689453 0.125)"/>
      <use xlink:href="#DejaVuSans-3d" transform="translate(519.882812 0.125)"/>
      <use xlink:href="#DejaVuSans-30" transform="translate(623.154297 0.125)"/>
      <use xlink:href="#DejaVuSans-2e" transform="translate(686.777344 0.125)"/>
      <use xlink:href="#DejaVuSans-30" transform="translate(718.564453 0.125)"/>
      <use xlink:href="#DejaVuSans-30" transform="translate(782.1875 0.125)"/>
      <use xlink:href="#DejaVuSans-33" transform="translate(845.810547 0.125)"/>
      <use xlink:href="#DejaVuSans-31" transform="translate(909.433594 0.125)"/>
     </g>
    </g>
    <g id="line2d_53">
     <path d="M 65.50024 196.029448 
L 75.50024 196.029448 
L 85.50024 196.029448 
" style="fill: none; stroke: #bcbd22; stroke-width: 1.5; stroke-linecap: square"/>
    </g>
    <g id="text_28">
     <!-- $\nu _{4}$($a_{1}$), $\Delta Q=0.0017$ -->
     <g transform="translate(93.50024 199.529448) scale(0.1 -0.1)">
      <use xlink:href="#DejaVuSans-Oblique-3bd" transform="translate(0 0.125)"/>
      <use xlink:href="#DejaVuSans-34" transform="translate(55.859375 -16.28125) scale(0.7)"/>
      <use xlink:href="#DejaVuSans-28" transform="translate(103.129883 0.125)"/>
      <use xlink:href="#DejaVuSans-Oblique-61" transform="translate(142.143555 0.125)"/>
      <use xlink:href="#DejaVuSans-31" transform="translate(203.422852 -16.28125) scale(0.7)"/>
      <use xlink:href="#DejaVuSans-29" transform="translate(250.693359 0.125)"/>
      <use xlink:href="#DejaVuSans-2c" transform="translate(289.707031 0.125)"/>
      <use xlink:href="#DejaVuSans-20" transform="translate(321.494141 0.125)"/>
      <use xlink:href="#DejaVuSans-394" transform="translate(353.28125 0.125)"/>
      <use xlink:href="#DejaVuSans-Oblique-51" transform="translate(421.689453 0.125)"/>
      <use xlink:href="#DejaVuSans-3d" transform="translate(519.882812 0.125)"/>
      <use xlink:href="#DejaVuSans-30" transform="translate(623.154297 0.125)"/>
      <use xlink:href="#DejaVuSans-2e" transform="translate(686.777344 0.125)"/>
      <use xlink:href="#DejaVuSans-30" transform="translate(718.564453 0.125)"/>
      <use xlink:href="#DejaVuSans-30" transform="translate(782.1875 0.125)"/>
      <use xlink:href="#DejaVuSans-31" transform="translate(845.810547 0.125)"/>
      <use xlink:href="#DejaVuSans-37" transform="translate(909.433594 0.125)"/>
     </g>
    </g>
    <g id="line2d_54">
     <path d="M 65.50024 210.707572 
L 75.50024 210.707572 
L 85.50024 210.707572 
" style="fill: none; stroke: #17becf; stroke-width: 1.5; stroke-linecap: square"/>
    </g>
    <g id="text_29">
     <!-- $\nu _{3}$($a_{1}$), $\Delta Q=0.0001$ -->
     <g transform="translate(93.50024 214.207572) scale(0.1 -0.1)">
      <use xlink:href="#DejaVuSans-Oblique-3bd" transform="translate(0 0.125)"/>
      <use xlink:href="#DejaVuSans-33" transform="translate(55.859375 -16.28125) scale(0.7)"/>
      <use xlink:href="#DejaVuSans-28" transform="translate(103.129883 0.125)"/>
      <use xlink:href="#DejaVuSans-Oblique-61" transform="translate(142.143555 0.125)"/>
      <use xlink:href="#DejaVuSans-31" transform="translate(203.422852 -16.28125) scale(0.7)"/>
      <use xlink:href="#DejaVuSans-29" transform="translate(250.693359 0.125)"/>
      <use xlink:href="#DejaVuSans-2c" transform="translate(289.707031 0.125)"/>
      <use xlink:href="#DejaVuSans-20" transform="translate(321.494141 0.125)"/>
      <use xlink:href="#DejaVuSans-394" transform="translate(353.28125 0.125)"/>
      <use xlink:href="#DejaVuSans-Oblique-51" transform="translate(421.689453 0.125)"/>
      <use xlink:href="#DejaVuSans-3d" transform="translate(519.882812 0.125)"/>
      <use xlink:href="#DejaVuSans-30" transform="translate(623.154297 0.125)"/>
      <use xlink:href="#DejaVuSans-2e" transform="translate(686.777344 0.125)"/>
      <use xlink:href="#DejaVuSans-30" transform="translate(718.564453 0.125)"/>
      <use xlink:href="#DejaVuSans-30" transform="translate(782.1875 0.125)"/>
      <use xlink:href="#DejaVuSans-30" transform="translate(845.810547 0.125)"/>
      <use xlink:href="#DejaVuSans-31" transform="translate(909.433594 0.125)"/>
     </g>
    </g>
    <g id="line2d_55">
     <path d="M 65.50024 225.385697 
L 75.50024 225.385697 
L 85.50024 225.385697 
" style="fill: none; stroke: #1f77b4; stroke-width: 1.5; stroke-linecap: square"/>
    </g>
    <g id="text_30">
     <!-- $\nu _{2}$($a_{1}$), $\Delta Q=0.0001$ -->
     <g transform="translate(93.50024 228.885697) scale(0.1 -0.1)">
      <use xlink:href="#DejaVuSans-Oblique-3bd" transform="translate(0 0.125)"/>
      <use xlink:href="#DejaVuSans-32" transform="translate(55.859375 -16.28125) scale(0.7)"/>
      <use xlink:href="#DejaVuSans-28" transform="translate(103.129883 0.125)"/>
      <use xlink:href="#DejaVuSans-Oblique-61" transform="translate(142.143555 0.125)"/>
      <use xlink:href="#DejaVuSans-31" transform="translate(203.422852 -16.28125) scale(0.7)"/>
      <use xlink:href="#DejaVuSans-29" transform="translate(250.693359 0.125)"/>
      <use xlink:href="#DejaVuSans-2c" transform="translate(289.707031 0.125)"/>
      <use xlink:href="#DejaVuSans-20" transform="translate(321.494141 0.125)"/>
      <use xlink:href="#DejaVuSans-394" transform="translate(353.28125 0.125)"/>
      <use xlink:href="#DejaVuSans-Oblique-51" transform="translate(421.689453 0.125)"/>
      <use xlink:href="#DejaVuSans-3d" transform="translate(519.882812 0.125)"/>
      <use xlink:href="#DejaVuSans-30" transform="translate(623.154297 0.125)"/>
      <use xlink:href="#DejaVuSans-2e" transform="translate(686.777344 0.125)"/>
      <use xlink:href="#DejaVuSans-30" transform="translate(718.564453 0.125)"/>
      <use xlink:href="#DejaVuSans-30" transform="translate(782.1875 0.125)"/>
      <use xlink:href="#DejaVuSans-30" transform="translate(845.810547 0.125)"/>
      <use xlink:href="#DejaVuSans-31" transform="translate(909.433594 0.125)"/>
     </g>
    </g>
    <g id="line2d_56">
     <path d="M 65.50024 240.063822 
L 75.50024 240.063822 
L 85.50024 240.063822 
" style="fill: none; stroke: #ff7f0e; stroke-width: 1.5; stroke-linecap: square"/>
    </g>
    <g id="text_31">
     <!-- $\nu _{1}$($a_{1}$), $\Delta Q=0.0001$ -->
     <g transform="translate(93.50024 243.563822) scale(0.1 -0.1)">
      <use xlink:href="#DejaVuSans-Oblique-3bd" transform="translate(0 0.125)"/>
      <use xlink:href="#DejaVuSans-31" transform="translate(55.859375 -16.28125) scale(0.7)"/>
      <use xlink:href="#DejaVuSans-28" transform="translate(103.129883 0.125)"/>
      <use xlink:href="#DejaVuSans-Oblique-61" transform="translate(142.143555 0.125)"/>
      <use xlink:href="#DejaVuSans-31" transform="translate(203.422852 -16.28125) scale(0.7)"/>
      <use xlink:href="#DejaVuSans-29" transform="translate(250.693359 0.125)"/>
      <use xlink:href="#DejaVuSans-2c" transform="translate(289.707031 0.125)"/>
      <use xlink:href="#DejaVuSans-20" transform="translate(321.494141 0.125)"/>
      <use xlink:href="#DejaVuSans-394" transform="translate(353.28125 0.125)"/>
      <use xlink:href="#DejaVuSans-Oblique-51" transform="translate(421.689453 0.125)"/>
      <use xlink:href="#DejaVuSans-3d" transform="translate(519.882812 0.125)"/>
      <use xlink:href="#DejaVuSans-30" transform="translate(623.154297 0.125)"/>
      <use xlink:href="#DejaVuSans-2e" transform="translate(686.777344 0.125)"/>
      <use xlink:href="#DejaVuSans-30" transform="translate(718.564453 0.125)"/>
      <use xlink:href="#DejaVuSans-30" transform="translate(782.1875 0.125)"/>
      <use xlink:href="#DejaVuSans-30" transform="translate(845.810547 0.125)"/>
      <use xlink:href="#DejaVuSans-31" transform="translate(909.433594 0.125)"/>
     </g>
    </g>
   </g>
  </g>
 </g>
 <defs>
  <clipPath id="p54e442500f">
   <rect x="56.50024" y="18.118365" width="452.49952" height="236.525145"/>
  </clipPath>
 </defs>
</svg>
