<?xml version="1.0" encoding="utf-8" standalone="no"?>
<!DOCTYPE svg PUBLIC "-//W3C//DTD SVG 1.1//EN"
  "http://www.w3.org/Graphics/SVG/1.1/DTD/svg11.dtd">
<svg xmlns:xlink="http://www.w3.org/1999/xlink" width="672pt" height="378pt" viewBox="0 0 672 378" xmlns="http://www.w3.org/2000/svg" version="1.1">
 <metadata>
  <rdf:RDF xmlns:dc="http://purl.org/dc/elements/1.1/" xmlns:cc="http://creativecommons.org/ns#" xmlns:rdf="http://www.w3.org/1999/02/22-rdf-syntax-ns#">
   <cc:Work>
    <dc:type rdf:resource="http://purl.org/dc/dcmitype/StillImage"/>
    <dc:date>2025-06-07T15:59:27.079522</dc:date>
    <dc:format>image/svg+xml</dc:format>
    <dc:creator>
     <cc:Agent>
      <dc:title>Matplotlib v3.10.3, https://matplotlib.org/</dc:title>
     </cc:Agent>
    </dc:creator>
   </cc:Work>
  </rdf:RDF>
 </metadata>
 <defs>
  <style type="text/css">*{stroke-linejoin: round; stroke-linecap: butt}</style>
 </defs>
 <g id="figure_1">
  <g id="patch_1">
   <path d="M 0 378 
L 672 378 
L 672 0 
L 0 0 
z
" style="fill: #ffffff"/>
  </g>
  <g id="axes_1">
   <g id="patch_2">
    <path d="M 56.50024 344.64351 
L 668.99976 344.64351 
L 668.99976 18.118365 
L 56.50024 18.118365 
z
" style="fill: #ffffff"/>
   </g>
   <g id="matplotlib.axis_1">
    <g id="xtick_1">
     <g id="line2d_1">
      <path d="M 84.341127 344.64351 
L 84.341127 18.118365 
" clip-path="url(#pdb3b7cb19d)" style="fill: none; stroke: #b0b0b0; stroke-width: 0.8; stroke-linecap: square"/>
     </g>
     <g id="line2d_2">
      <defs>
       <path id="me4b9302492" d="M 0 0 
L 0 3.5 
" style="stroke: #000000; stroke-width: 0.8"/>
      </defs>
      <g>
       <use xlink:href="#me4b9302492" x="84.341127" y="344.64351" style="stroke: #000000; stroke-width: 0.8"/>
      </g>
     </g>
     <g id="text_1">
      <!-- 0 -->
      <g transform="translate(81.159877 359.241947) scale(0.1 -0.1)">
       <defs>
        <path id="DejaVuSans-30" d="M 2034 4250 
Q 1547 4250 1301 3770 
Q 1056 3291 1056 2328 
Q 1056 1369 1301 889 
Q 1547 409 2034 409 
Q 2525 409 2770 889 
Q 3016 1369 3016 2328 
Q 3016 3291 2770 3770 
Q 2525 4250 2034 4250 
z
M 2034 4750 
Q 2819 4750 3233 4129 
Q 3647 3509 3647 2328 
Q 3647 1150 3233 529 
Q 2819 -91 2034 -91 
Q 1250 -91 836 529 
Q 422 1150 422 2328 
Q 422 3509 836 4129 
Q 1250 4750 2034 4750 
z
" transform="scale(0.015625)"/>
       </defs>
       <use xlink:href="#DejaVuSans-30"/>
      </g>
     </g>
    </g>
    <g id="xtick_2">
     <g id="line2d_3">
      <path d="M 177.144085 344.64351 
L 177.144085 18.118365 
" clip-path="url(#pdb3b7cb19d)" style="fill: none; stroke: #b0b0b0; stroke-width: 0.8; stroke-linecap: square"/>
     </g>
     <g id="line2d_4">
      <g>
       <use xlink:href="#me4b9302492" x="177.144085" y="344.64351" style="stroke: #000000; stroke-width: 0.8"/>
      </g>
     </g>
     <g id="text_2">
      <!-- 10 -->
      <g transform="translate(170.781585 359.241947) scale(0.1 -0.1)">
       <defs>
        <path id="DejaVuSans-31" d="M 794 531 
L 1825 531 
L 1825 4091 
L 703 3866 
L 703 4441 
L 1819 4666 
L 2450 4666 
L 2450 531 
L 3481 531 
L 3481 0 
L 794 0 
L 794 531 
z
" transform="scale(0.015625)"/>
       </defs>
       <use xlink:href="#DejaVuSans-31"/>
       <use xlink:href="#DejaVuSans-30" transform="translate(63.623047 0)"/>
      </g>
     </g>
    </g>
    <g id="xtick_3">
     <g id="line2d_5">
      <path d="M 269.947042 344.64351 
L 269.947042 18.118365 
" clip-path="url(#pdb3b7cb19d)" style="fill: none; stroke: #b0b0b0; stroke-width: 0.8; stroke-linecap: square"/>
     </g>
     <g id="line2d_6">
      <g>
       <use xlink:href="#me4b9302492" x="269.947042" y="344.64351" style="stroke: #000000; stroke-width: 0.8"/>
      </g>
     </g>
     <g id="text_3">
      <!-- 20 -->
      <g transform="translate(263.584542 359.241947) scale(0.1 -0.1)">
       <defs>
        <path id="DejaVuSans-32" d="M 1228 531 
L 3431 531 
L 3431 0 
L 469 0 
L 469 531 
Q 828 903 1448 1529 
Q 2069 2156 2228 2338 
Q 2531 2678 2651 2914 
Q 2772 3150 2772 3378 
Q 2772 3750 2511 3984 
Q 2250 4219 1831 4219 
Q 1534 4219 1204 4116 
Q 875 4013 500 3803 
L 500 4441 
Q 881 4594 1212 4672 
Q 1544 4750 1819 4750 
Q 2544 4750 2975 4387 
Q 3406 4025 3406 3419 
Q 3406 3131 3298 2873 
Q 3191 2616 2906 2266 
Q 2828 2175 2409 1742 
Q 1991 1309 1228 531 
z
" transform="scale(0.015625)"/>
       </defs>
       <use xlink:href="#DejaVuSans-32"/>
       <use xlink:href="#DejaVuSans-30" transform="translate(63.623047 0)"/>
      </g>
     </g>
    </g>
    <g id="xtick_4">
     <g id="line2d_7">
      <path d="M 362.75 344.64351 
L 362.75 18.118365 
" clip-path="url(#pdb3b7cb19d)" style="fill: none; stroke: #b0b0b0; stroke-width: 0.8; stroke-linecap: square"/>
     </g>
     <g id="line2d_8">
      <g>
       <use xlink:href="#me4b9302492" x="362.75" y="344.64351" style="stroke: #000000; stroke-width: 0.8"/>
      </g>
     </g>
     <g id="text_4">
      <!-- 30 -->
      <g transform="translate(356.3875 359.241947) scale(0.1 -0.1)">
       <defs>
        <path id="DejaVuSans-33" d="M 2597 2516 
Q 3050 2419 3304 2112 
Q 3559 1806 3559 1356 
Q 3559 666 3084 287 
Q 2609 -91 1734 -91 
Q 1441 -91 1130 -33 
Q 819 25 488 141 
L 488 750 
Q 750 597 1062 519 
Q 1375 441 1716 441 
Q 2309 441 2620 675 
Q 2931 909 2931 1356 
Q 2931 1769 2642 2001 
Q 2353 2234 1838 2234 
L 1294 2234 
L 1294 2753 
L 1863 2753 
Q 2328 2753 2575 2939 
Q 2822 3125 2822 3475 
Q 2822 3834 2567 4026 
Q 2313 4219 1838 4219 
Q 1578 4219 1281 4162 
Q 984 4106 628 3988 
L 628 4550 
Q 988 4650 1302 4700 
Q 1616 4750 1894 4750 
Q 2613 4750 3031 4423 
Q 3450 4097 3450 3541 
Q 3450 3153 3228 2886 
Q 3006 2619 2597 2516 
z
" transform="scale(0.015625)"/>
       </defs>
       <use xlink:href="#DejaVuSans-33"/>
       <use xlink:href="#DejaVuSans-30" transform="translate(63.623047 0)"/>
      </g>
     </g>
    </g>
    <g id="xtick_5">
     <g id="line2d_9">
      <path d="M 455.552958 344.64351 
L 455.552958 18.118365 
" clip-path="url(#pdb3b7cb19d)" style="fill: none; stroke: #b0b0b0; stroke-width: 0.8; stroke-linecap: square"/>
     </g>
     <g id="line2d_10">
      <g>
       <use xlink:href="#me4b9302492" x="455.552958" y="344.64351" style="stroke: #000000; stroke-width: 0.8"/>
      </g>
     </g>
     <g id="text_5">
      <!-- 40 -->
      <g transform="translate(449.190458 359.241947) scale(0.1 -0.1)">
       <defs>
        <path id="DejaVuSans-34" d="M 2419 4116 
L 825 1625 
L 2419 1625 
L 2419 4116 
z
M 2253 4666 
L 3047 4666 
L 3047 1625 
L 3713 1625 
L 3713 1100 
L 3047 1100 
L 3047 0 
L 2419 0 
L 2419 1100 
L 313 1100 
L 313 1709 
L 2253 4666 
z
" transform="scale(0.015625)"/>
       </defs>
       <use xlink:href="#DejaVuSans-34"/>
       <use xlink:href="#DejaVuSans-30" transform="translate(63.623047 0)"/>
      </g>
     </g>
    </g>
    <g id="xtick_6">
     <g id="line2d_11">
      <path d="M 548.355915 344.64351 
L 548.355915 18.118365 
" clip-path="url(#pdb3b7cb19d)" style="fill: none; stroke: #b0b0b0; stroke-width: 0.8; stroke-linecap: square"/>
     </g>
     <g id="line2d_12">
      <g>
       <use xlink:href="#me4b9302492" x="548.355915" y="344.64351" style="stroke: #000000; stroke-width: 0.8"/>
      </g>
     </g>
     <g id="text_6">
      <!-- 50 -->
      <g transform="translate(541.993415 359.241947) scale(0.1 -0.1)">
       <defs>
        <path id="DejaVuSans-35" d="M 691 4666 
L 3169 4666 
L 3169 4134 
L 1269 4134 
L 1269 2991 
Q 1406 3038 1543 3061 
Q 1681 3084 1819 3084 
Q 2600 3084 3056 2656 
Q 3513 2228 3513 1497 
Q 3513 744 3044 326 
Q 2575 -91 1722 -91 
Q 1428 -91 1123 -41 
Q 819 9 494 109 
L 494 744 
Q 775 591 1075 516 
Q 1375 441 1709 441 
Q 2250 441 2565 725 
Q 2881 1009 2881 1497 
Q 2881 1984 2565 2268 
Q 2250 2553 1709 2553 
Q 1456 2553 1204 2497 
Q 953 2441 691 2322 
L 691 4666 
z
" transform="scale(0.015625)"/>
       </defs>
       <use xlink:href="#DejaVuSans-35"/>
       <use xlink:href="#DejaVuSans-30" transform="translate(63.623047 0)"/>
      </g>
     </g>
    </g>
    <g id="xtick_7">
     <g id="line2d_13">
      <path d="M 641.158873 344.64351 
L 641.158873 18.118365 
" clip-path="url(#pdb3b7cb19d)" style="fill: none; stroke: #b0b0b0; stroke-width: 0.8; stroke-linecap: square"/>
     </g>
     <g id="line2d_14">
      <g>
       <use xlink:href="#me4b9302492" x="641.158873" y="344.64351" style="stroke: #000000; stroke-width: 0.8"/>
      </g>
     </g>
     <g id="text_7">
      <!-- 60 -->
      <g transform="translate(634.796373 359.241947) scale(0.1 -0.1)">
       <defs>
        <path id="DejaVuSans-36" d="M 2113 2584 
Q 1688 2584 1439 2293 
Q 1191 2003 1191 1497 
Q 1191 994 1439 701 
Q 1688 409 2113 409 
Q 2538 409 2786 701 
Q 3034 994 3034 1497 
Q 3034 2003 2786 2293 
Q 2538 2584 2113 2584 
z
M 3366 4563 
L 3366 3988 
Q 3128 4100 2886 4159 
Q 2644 4219 2406 4219 
Q 1781 4219 1451 3797 
Q 1122 3375 1075 2522 
Q 1259 2794 1537 2939 
Q 1816 3084 2150 3084 
Q 2853 3084 3261 2657 
Q 3669 2231 3669 1497 
Q 3669 778 3244 343 
Q 2819 -91 2113 -91 
Q 1303 -91 875 529 
Q 447 1150 447 2328 
Q 447 3434 972 4092 
Q 1497 4750 2381 4750 
Q 2619 4750 2861 4703 
Q 3103 4656 3366 4563 
z
" transform="scale(0.015625)"/>
       </defs>
       <use xlink:href="#DejaVuSans-36"/>
       <use xlink:href="#DejaVuSans-30" transform="translate(63.623047 0)"/>
      </g>
     </g>
    </g>
    <g id="text_8">
     <!-- $n_X$ -->
     <g transform="translate(357 372.920073) scale(0.1 -0.1)">
      <defs>
       <path id="DejaVuSans-Oblique-6e" d="M 3566 2113 
L 3156 0 
L 2578 0 
L 2988 2091 
Q 3016 2238 3031 2350 
Q 3047 2463 3047 2528 
Q 3047 2791 2881 2937 
Q 2716 3084 2419 3084 
Q 1956 3084 1622 2776 
Q 1288 2469 1184 1941 
L 800 0 
L 225 0 
L 903 3500 
L 1478 3500 
L 1363 2950 
Q 1603 3253 1940 3418 
Q 2278 3584 2650 3584 
Q 3113 3584 3367 3334 
Q 3622 3084 3622 2631 
Q 3622 2519 3608 2391 
Q 3594 2263 3566 2113 
z
" transform="scale(0.015625)"/>
       <path id="DejaVuSans-Oblique-58" d="M 878 4666 
L 1516 4666 
L 2316 2981 
L 3763 4666 
L 4500 4666 
L 2578 2438 
L 3738 0 
L 3103 0 
L 2163 1966 
L 459 0 
L -275 0 
L 1906 2509 
L 878 4666 
z
" transform="scale(0.015625)"/>
      </defs>
      <use xlink:href="#DejaVuSans-Oblique-6e"/>
      <use xlink:href="#DejaVuSans-Oblique-58" transform="translate(63.378906 -16.40625) scale(0.7)"/>
     </g>
    </g>
   </g>
   <g id="matplotlib.axis_2">
    <g id="ytick_1">
     <g id="line2d_15">
      <path d="M 56.50024 344.64351 
L 668.99976 344.64351 
" clip-path="url(#pdb3b7cb19d)" style="fill: none; stroke: #b0b0b0; stroke-width: 0.8; stroke-linecap: square"/>
     </g>
     <g id="line2d_16">
      <defs>
       <path id="mcfe40310e6" d="M 0 0 
L -3.5 0 
" style="stroke: #000000; stroke-width: 0.8"/>
      </defs>
      <g>
       <use xlink:href="#mcfe40310e6" x="56.50024" y="344.64351" style="stroke: #000000; stroke-width: 0.8"/>
      </g>
     </g>
     <g id="text_9">
      <!-- $\mathdefault{10^{-100}}$ -->
      <g transform="translate(17.10024 348.442729) scale(0.1 -0.1)">
       <defs>
        <path id="DejaVuSans-2212" d="M 678 2272 
L 4684 2272 
L 4684 1741 
L 678 1741 
L 678 2272 
z
" transform="scale(0.015625)"/>
       </defs>
       <use xlink:href="#DejaVuSans-31" transform="translate(0 0.765625)"/>
       <use xlink:href="#DejaVuSans-30" transform="translate(63.623047 0.765625)"/>
       <use xlink:href="#DejaVuSans-2212" transform="translate(128.203125 39.046875) scale(0.7)"/>
       <use xlink:href="#DejaVuSans-31" transform="translate(186.855469 39.046875) scale(0.7)"/>
       <use xlink:href="#DejaVuSans-30" transform="translate(231.391602 39.046875) scale(0.7)"/>
       <use xlink:href="#DejaVuSans-30" transform="translate(275.927734 39.046875) scale(0.7)"/>
      </g>
     </g>
    </g>
    <g id="ytick_2">
     <g id="line2d_17">
      <path d="M 56.50024 305.460493 
L 668.99976 305.460493 
" clip-path="url(#pdb3b7cb19d)" style="fill: none; stroke: #b0b0b0; stroke-width: 0.8; stroke-linecap: square"/>
     </g>
     <g id="line2d_18">
      <g>
       <use xlink:href="#mcfe40310e6" x="56.50024" y="305.460493" style="stroke: #000000; stroke-width: 0.8"/>
      </g>
     </g>
     <g id="text_10">
      <!-- $\mathdefault{10^{-88}}$ -->
      <g transform="translate(21.60024 309.259711) scale(0.1 -0.1)">
       <defs>
        <path id="DejaVuSans-38" d="M 2034 2216 
Q 1584 2216 1326 1975 
Q 1069 1734 1069 1313 
Q 1069 891 1326 650 
Q 1584 409 2034 409 
Q 2484 409 2743 651 
Q 3003 894 3003 1313 
Q 3003 1734 2745 1975 
Q 2488 2216 2034 2216 
z
M 1403 2484 
Q 997 2584 770 2862 
Q 544 3141 544 3541 
Q 544 4100 942 4425 
Q 1341 4750 2034 4750 
Q 2731 4750 3128 4425 
Q 3525 4100 3525 3541 
Q 3525 3141 3298 2862 
Q 3072 2584 2669 2484 
Q 3125 2378 3379 2068 
Q 3634 1759 3634 1313 
Q 3634 634 3220 271 
Q 2806 -91 2034 -91 
Q 1263 -91 848 271 
Q 434 634 434 1313 
Q 434 1759 690 2068 
Q 947 2378 1403 2484 
z
M 1172 3481 
Q 1172 3119 1398 2916 
Q 1625 2713 2034 2713 
Q 2441 2713 2670 2916 
Q 2900 3119 2900 3481 
Q 2900 3844 2670 4047 
Q 2441 4250 2034 4250 
Q 1625 4250 1398 4047 
Q 1172 3844 1172 3481 
z
" transform="scale(0.015625)"/>
       </defs>
       <use xlink:href="#DejaVuSans-31" transform="translate(0 0.765625)"/>
       <use xlink:href="#DejaVuSans-30" transform="translate(63.623047 0.765625)"/>
       <use xlink:href="#DejaVuSans-2212" transform="translate(128.203125 39.046875) scale(0.7)"/>
       <use xlink:href="#DejaVuSans-38" transform="translate(186.855469 39.046875) scale(0.7)"/>
       <use xlink:href="#DejaVuSans-38" transform="translate(231.391602 39.046875) scale(0.7)"/>
      </g>
     </g>
    </g>
    <g id="ytick_3">
     <g id="line2d_19">
      <path d="M 56.50024 266.277475 
L 668.99976 266.277475 
" clip-path="url(#pdb3b7cb19d)" style="fill: none; stroke: #b0b0b0; stroke-width: 0.8; stroke-linecap: square"/>
     </g>
     <g id="line2d_20">
      <g>
       <use xlink:href="#mcfe40310e6" x="56.50024" y="266.277475" style="stroke: #000000; stroke-width: 0.8"/>
      </g>
     </g>
     <g id="text_11">
      <!-- $\mathdefault{10^{-76}}$ -->
      <g transform="translate(21.60024 270.076694) scale(0.1 -0.1)">
       <defs>
        <path id="DejaVuSans-37" d="M 525 4666 
L 3525 4666 
L 3525 4397 
L 1831 0 
L 1172 0 
L 2766 4134 
L 525 4134 
L 525 4666 
z
" transform="scale(0.015625)"/>
       </defs>
       <use xlink:href="#DejaVuSans-31" transform="translate(0 0.765625)"/>
       <use xlink:href="#DejaVuSans-30" transform="translate(63.623047 0.765625)"/>
       <use xlink:href="#DejaVuSans-2212" transform="translate(128.203125 39.046875) scale(0.7)"/>
       <use xlink:href="#DejaVuSans-37" transform="translate(186.855469 39.046875) scale(0.7)"/>
       <use xlink:href="#DejaVuSans-36" transform="translate(231.391602 39.046875) scale(0.7)"/>
      </g>
     </g>
    </g>
    <g id="ytick_4">
     <g id="line2d_21">
      <path d="M 56.50024 227.094458 
L 668.99976 227.094458 
" clip-path="url(#pdb3b7cb19d)" style="fill: none; stroke: #b0b0b0; stroke-width: 0.8; stroke-linecap: square"/>
     </g>
     <g id="line2d_22">
      <g>
       <use xlink:href="#mcfe40310e6" x="56.50024" y="227.094458" style="stroke: #000000; stroke-width: 0.8"/>
      </g>
     </g>
     <g id="text_12">
      <!-- $\mathdefault{10^{-64}}$ -->
      <g transform="translate(21.60024 230.893677) scale(0.1 -0.1)">
       <use xlink:href="#DejaVuSans-31" transform="translate(0 0.765625)"/>
       <use xlink:href="#DejaVuSans-30" transform="translate(63.623047 0.765625)"/>
       <use xlink:href="#DejaVuSans-2212" transform="translate(128.203125 39.046875) scale(0.7)"/>
       <use xlink:href="#DejaVuSans-36" transform="translate(186.855469 39.046875) scale(0.7)"/>
       <use xlink:href="#DejaVuSans-34" transform="translate(231.391602 39.046875) scale(0.7)"/>
      </g>
     </g>
    </g>
    <g id="ytick_5">
     <g id="line2d_23">
      <path d="M 56.50024 187.91144 
L 668.99976 187.91144 
" clip-path="url(#pdb3b7cb19d)" style="fill: none; stroke: #b0b0b0; stroke-width: 0.8; stroke-linecap: square"/>
     </g>
     <g id="line2d_24">
      <g>
       <use xlink:href="#mcfe40310e6" x="56.50024" y="187.91144" style="stroke: #000000; stroke-width: 0.8"/>
      </g>
     </g>
     <g id="text_13">
      <!-- $\mathdefault{10^{-52}}$ -->
      <g transform="translate(21.60024 191.710659) scale(0.1 -0.1)">
       <use xlink:href="#DejaVuSans-31" transform="translate(0 0.765625)"/>
       <use xlink:href="#DejaVuSans-30" transform="translate(63.623047 0.765625)"/>
       <use xlink:href="#DejaVuSans-2212" transform="translate(128.203125 39.046875) scale(0.7)"/>
       <use xlink:href="#DejaVuSans-35" transform="translate(186.855469 39.046875) scale(0.7)"/>
       <use xlink:href="#DejaVuSans-32" transform="translate(231.391602 39.046875) scale(0.7)"/>
      </g>
     </g>
    </g>
    <g id="ytick_6">
     <g id="line2d_25">
      <path d="M 56.50024 148.728423 
L 668.99976 148.728423 
" clip-path="url(#pdb3b7cb19d)" style="fill: none; stroke: #b0b0b0; stroke-width: 0.8; stroke-linecap: square"/>
     </g>
     <g id="line2d_26">
      <g>
       <use xlink:href="#mcfe40310e6" x="56.50024" y="148.728423" style="stroke: #000000; stroke-width: 0.8"/>
      </g>
     </g>
     <g id="text_14">
      <!-- $\mathdefault{10^{-40}}$ -->
      <g transform="translate(21.60024 152.527642) scale(0.1 -0.1)">
       <use xlink:href="#DejaVuSans-31" transform="translate(0 0.765625)"/>
       <use xlink:href="#DejaVuSans-30" transform="translate(63.623047 0.765625)"/>
       <use xlink:href="#DejaVuSans-2212" transform="translate(128.203125 39.046875) scale(0.7)"/>
       <use xlink:href="#DejaVuSans-34" transform="translate(186.855469 39.046875) scale(0.7)"/>
       <use xlink:href="#DejaVuSans-30" transform="translate(231.391602 39.046875) scale(0.7)"/>
      </g>
     </g>
    </g>
    <g id="ytick_7">
     <g id="line2d_27">
      <path d="M 56.50024 109.545406 
L 668.99976 109.545406 
" clip-path="url(#pdb3b7cb19d)" style="fill: none; stroke: #b0b0b0; stroke-width: 0.8; stroke-linecap: square"/>
     </g>
     <g id="line2d_28">
      <g>
       <use xlink:href="#mcfe40310e6" x="56.50024" y="109.545406" style="stroke: #000000; stroke-width: 0.8"/>
      </g>
     </g>
     <g id="text_15">
      <!-- $\mathdefault{10^{-28}}$ -->
      <g transform="translate(21.60024 113.344624) scale(0.1 -0.1)">
       <use xlink:href="#DejaVuSans-31" transform="translate(0 0.765625)"/>
       <use xlink:href="#DejaVuSans-30" transform="translate(63.623047 0.765625)"/>
       <use xlink:href="#DejaVuSans-2212" transform="translate(128.203125 39.046875) scale(0.7)"/>
       <use xlink:href="#DejaVuSans-32" transform="translate(186.855469 39.046875) scale(0.7)"/>
       <use xlink:href="#DejaVuSans-38" transform="translate(231.391602 39.046875) scale(0.7)"/>
      </g>
     </g>
    </g>
    <g id="ytick_8">
     <g id="line2d_29">
      <path d="M 56.50024 70.362388 
L 668.99976 70.362388 
" clip-path="url(#pdb3b7cb19d)" style="fill: none; stroke: #b0b0b0; stroke-width: 0.8; stroke-linecap: square"/>
     </g>
     <g id="line2d_30">
      <g>
       <use xlink:href="#mcfe40310e6" x="56.50024" y="70.362388" style="stroke: #000000; stroke-width: 0.8"/>
      </g>
     </g>
     <g id="text_16">
      <!-- $\mathdefault{10^{-16}}$ -->
      <g transform="translate(21.60024 74.161607) scale(0.1 -0.1)">
       <use xlink:href="#DejaVuSans-31" transform="translate(0 0.765625)"/>
       <use xlink:href="#DejaVuSans-30" transform="translate(63.623047 0.765625)"/>
       <use xlink:href="#DejaVuSans-2212" transform="translate(128.203125 39.046875) scale(0.7)"/>
       <use xlink:href="#DejaVuSans-31" transform="translate(186.855469 39.046875) scale(0.7)"/>
       <use xlink:href="#DejaVuSans-36" transform="translate(231.391602 39.046875) scale(0.7)"/>
      </g>
     </g>
    </g>
    <g id="ytick_9">
     <g id="line2d_31">
      <path d="M 56.50024 31.179371 
L 668.99976 31.179371 
" clip-path="url(#pdb3b7cb19d)" style="fill: none; stroke: #b0b0b0; stroke-width: 0.8; stroke-linecap: square"/>
     </g>
     <g id="line2d_32">
      <g>
       <use xlink:href="#mcfe40310e6" x="56.50024" y="31.179371" style="stroke: #000000; stroke-width: 0.8"/>
      </g>
     </g>
     <g id="text_17">
      <!-- $\mathdefault{10^{-4}}$ -->
      <g transform="translate(26.00024 34.97859) scale(0.1 -0.1)">
       <use xlink:href="#DejaVuSans-31" transform="translate(0 0.684375)"/>
       <use xlink:href="#DejaVuSans-30" transform="translate(63.623047 0.684375)"/>
       <use xlink:href="#DejaVuSans-2212" transform="translate(128.203125 38.965625) scale(0.7)"/>
       <use xlink:href="#DejaVuSans-34" transform="translate(186.855469 38.965625) scale(0.7)"/>
      </g>
     </g>
    </g>
    <g id="text_18">
     <!-- $|\langle 0_{C}| n_{X} \rangle |$ -->
     <g transform="translate(10.70024 201.880937) rotate(-90) scale(0.1 -0.1)">
      <defs>
       <path id="DejaVuSans-7c" d="M 1344 4891 
L 1344 -1509 
L 813 -1509 
L 813 4891 
L 1344 4891 
z
" transform="scale(0.015625)"/>
       <path id="DejaVuSans-27e8" d="M 572 2006 
L 1453 4856 
L 1984 4856 
L 1103 2006 
L 1984 -844 
L 1453 -844 
L 572 2006 
z
" transform="scale(0.015625)"/>
       <path id="DejaVuSans-Oblique-43" d="M 4447 4306 
L 4319 3641 
Q 4019 3944 3683 4091 
Q 3347 4238 2956 4238 
Q 2422 4238 2017 3981 
Q 1613 3725 1319 3200 
Q 1131 2863 1032 2486 
Q 934 2109 934 1728 
Q 934 1091 1264 756 
Q 1594 422 2222 422 
Q 2656 422 3056 561 
Q 3456 700 3834 978 
L 3688 231 
Q 3316 72 2936 -9 
Q 2556 -91 2175 -91 
Q 1278 -91 773 396 
Q 269 884 269 1753 
Q 269 2309 461 2846 
Q 653 3384 1013 3828 
Q 1394 4300 1883 4525 
Q 2372 4750 3022 4750 
Q 3422 4750 3780 4639 
Q 4138 4528 4447 4306 
z
" transform="scale(0.015625)"/>
       <path id="DejaVuSans-27e9" d="M 1925 2006 
L 1044 -844 
L 513 -844 
L 1394 2006 
L 513 4856 
L 1044 4856 
L 1925 2006 
z
" transform="scale(0.015625)"/>
      </defs>
      <use xlink:href="#DejaVuSans-7c" transform="translate(0 0.578125)"/>
      <use xlink:href="#DejaVuSans-27e8" transform="translate(33.691406 0.578125)"/>
      <use xlink:href="#DejaVuSans-30" transform="translate(72.705078 0.578125)"/>
      <use xlink:href="#DejaVuSans-Oblique-43" transform="translate(137.285156 -15.828125) scale(0.7)"/>
      <use xlink:href="#DejaVuSans-7c" transform="translate(188.896484 0.578125)"/>
      <use xlink:href="#DejaVuSans-Oblique-6e" transform="translate(222.587891 0.578125)"/>
      <use xlink:href="#DejaVuSans-Oblique-58" transform="translate(285.966797 -15.828125) scale(0.7)"/>
      <use xlink:href="#DejaVuSans-27e9" transform="translate(336.655273 0.578125)"/>
      <use xlink:href="#DejaVuSans-7c" transform="translate(375.668945 0.578125)"/>
     </g>
    </g>
   </g>
   <g id="line2d_33">
    <path d="M 84.341127 18.154282 
L 93.621423 20.262623 
L 102.901719 23.190305 
L 112.182015 27.119324 
L 121.46231 31.96079 
L 130.742606 33.303382 
L 140.022902 37.126502 
L 149.303198 41.131548 
L 158.583493 43.118675 
L 167.863789 47.874038 
L 177.144085 50.054736 
L 186.424381 53.121682 
L 195.704676 58.496651 
L 204.984972 59.447056 
L 214.265268 63.992272 
L 223.545564 66.324619 
L 232.825859 69.461698 
L 242.106155 74.072993 
L 251.386451 75.696428 
L 260.666747 81.272797 
L 269.947042 82.3304 
L 279.227338 86.080216 
L 288.507634 89.389924 
L 297.78793 92.046054 
L 307.068225 97.518507 
L 316.348521 98.403961 
L 325.628817 103.633949 
L 334.909113 105.042218 
L 344.189408 108.798951 
L 353.469704 111.999361 
L 362.75 114.783357 
L 372.030296 119.606433 
L 381.310592 121.088715 
L 390.590887 127.647856 
L 399.871183 127.616691 
L 409.151479 131.911111 
L 418.431775 134.363908 
L 427.71207 137.68894 
L 436.992366 141.42105 
L 446.272662 143.844868 
L 455.552958 149.268645 
L 464.833253 150.215252 
L 474.113549 156.212921 
L 483.393845 156.755907 
L 492.674141 161.021606 
L 501.954436 163.472297 
L 511.234732 166.854036 
L 520.515028 170.429118 
L 529.795324 173.005229 
L 539.075619 177.888444 
L 548.355915 179.341254 
L 557.636211 187.809412 
L 566.916507 185.819945 
L 576.196802 190.630648 
L 585.477098 192.434976 
L 594.757394 196.250966 
L 604.03769 199.210957 
L 613.317985 202.286681 
L 622.598281 206.233266 
L 631.878577 208.525344 
L 641.158873 213.844165 
" clip-path="url(#pdb3b7cb19d)" style="fill: none; stroke: #1f77b4; stroke-width: 1.5; stroke-linecap: square"/>
   </g>
   <g id="line2d_34">
    <path d="M 84.341127 18.121076 
L 93.621423 22.066046 
L 102.901719 30.702125 
L 112.182015 30.358027 
L 121.46231 35.177073 
L 130.742606 38.956599 
L 140.022902 42.668579 
L 149.303198 48.035263 
L 158.583493 50.534965 
L 167.863789 60.916357 
L 177.144085 58.580237 
L 186.424381 64.175614 
L 195.704676 66.755514 
L 204.984972 71.366356 
L 214.265268 75.059741 
L 223.545564 78.96914 
L 232.825859 83.535039 
L 242.106155 86.754578 
L 251.386451 92.329547 
L 260.666747 94.650666 
L 269.947042 102.356845 
L 279.227338 102.62712 
L 288.507634 109.322398 
L 297.78793 110.670556 
L 307.068225 116.092741 
L 316.348521 118.776806 
L 325.628817 123.498423 
L 334.909113 126.949454 
L 344.189408 131.131093 
L 353.469704 135.201561 
L 362.75 138.886628 
L 372.030296 143.562997 
L 381.310592 146.722454 
L 390.590887 152.106163 
L 399.871183 154.617549 
L 409.151479 161.066541 
L 418.431775 162.560161 
L 427.71207 175.587647 
L 436.992366 170.54397 
L 446.272662 177.101264 
L 455.552958 178.565628 
L 464.833253 184.130574 
L 474.113549 186.624543 
L 483.393845 191.582966 
L 492.674141 194.722326 
L 501.954436 199.213457 
L 511.234732 202.863582 
L 520.515028 206.945565 
L 529.795324 211.057093 
L 539.075619 214.745466 
L 548.355915 219.319047 
L 557.636211 222.595126 
L 566.916507 227.681009 
L 576.196802 230.484053 
L 585.477098 236.214962 
L 594.757394 238.405734 
L 604.03769 245.147703 
L 613.317985 246.355982 
L 622.598281 257.768706 
L 631.878577 254.332369 
L 641.158873 261.23826 
" clip-path="url(#pdb3b7cb19d)" style="fill: none; stroke: #ff7f0e; stroke-width: 1.5; stroke-linecap: square"/>
   </g>
   <g id="line2d_35">
    <path d="M 84.341127 18.119642 
L 93.621423 22.59682 
L 102.901719 28.589476 
L 112.182015 33.687984 
L 121.46231 37.918174 
L 130.742606 46.367181 
L 140.022902 48.021791 
L 149.303198 53.653535 
L 158.583493 58.572466 
L 167.863789 63.056163 
L 177.144085 70.013983 
L 186.424381 72.877002 
L 195.704676 80.237329 
L 204.984972 82.939378 
L 214.265268 88.684388 
L 223.545564 93.224519 
L 232.825859 98.071346 
L 242.106155 103.830412 
L 251.386451 107.76137 
L 260.666747 115.354128 
L 269.947042 117.626503 
L 279.227338 125.205692 
L 288.507634 127.626042 
L 297.78793 133.690733 
L 307.068225 137.754931 
L 316.348521 143.012951 
L 325.628817 148.040108 
L 334.909113 152.610747 
L 344.189408 158.57492 
L 353.469704 162.361217 
L 362.75 169.752929 
L 372.030296 172.218786 
L 381.310592 180.829212 
L 390.590887 182.164647 
L 399.871183 188.745979 
L 409.151479 192.194079 
L 418.431775 197.928397 
L 427.71207 202.314174 
L 436.992366 207.428638 
L 446.272662 212.548618 
L 455.552958 217.087865 
L 464.833253 222.957744 
L 474.113549 226.849567 
L 483.393845 233.728207 
L 492.674141 236.687955 
L 501.954436 246.376354 
L 511.234732 246.590551 
L 520.515028 254.066289 
L 529.795324 256.552236 
L 539.075619 262.897452 
L 548.355915 266.573566 
L 557.636211 272.24935 
L 566.916507 276.661068 
L 576.196802 281.807481 
L 585.477098 286.830139 
L 594.757394 291.483031 
L 604.03769 297.113916 
L 613.317985 301.238349 
L 622.598281 307.592198 
L 631.878577 311.054544 
L 641.158873 318.535808 
" clip-path="url(#pdb3b7cb19d)" style="fill: none; stroke: #2ca02c; stroke-width: 1.5; stroke-linecap: square"/>
   </g>
   <g id="line2d_36">
    <path d="M 84.341127 18.118379 
L 93.621423 26.161297 
L 102.901719 31.042023 
L 112.182015 38.235784 
L 121.46231 43.683567 
L 130.742606 50.439884 
L 140.022902 56.256635 
L 149.303198 62.693248 
L 158.583493 68.8022 
L 167.863789 74.972768 
L 177.144085 81.336058 
L 186.424381 87.268564 
L 195.704676 93.866518 
L 204.984972 99.575584 
L 214.265268 106.399213 
L 223.545564 111.890713 
L 232.825859 118.938887 
L 242.106155 124.212285 
L 251.386451 131.49025 
L 260.666747 136.538857 
L 269.947042 144.058658 
L 279.227338 148.869616 
L 288.507634 156.651334 
L 297.78793 161.203898 
L 307.068225 169.278575 
L 316.348521 173.541168 
L 325.628817 181.956721 
L 334.909113 185.881076 
L 344.189408 194.715327 
L 353.469704 198.223338 
L 362.75 207.617066 
L 372.030296 210.567789 
L 381.310592 220.842386 
L 390.590887 222.914088 
L 399.871183 235.697964 
L 409.151479 235.262203 
L 418.431775 246.183722 
L 427.71207 247.612033 
L 436.992366 257.391802 
L 446.272662 259.963426 
L 455.552958 269.12918 
L 464.833253 272.316322 
L 474.113549 281.060732 
L 483.393845 284.670631 
L 492.674141 293.093875 
L 501.954436 297.026403 
L 511.234732 305.189592 
L 520.515028 309.383471 
L 529.795324 317.32766 
L 539.075619 321.741807 
L 548.355915 329.496275 
L 557.636211 334.101552 
L 566.916507 341.688045 
L 576.196802 346.462572 
L 585.477098 353.89786 
L 594.757394 358.824877 
L 604.03769 366.122124 
L 613.317985 371.188456 
L 622.598281 378.358314 
L 623.744588 379 
" clip-path="url(#pdb3b7cb19d)" style="fill: none; stroke: #d62728; stroke-width: 1.5; stroke-linecap: square"/>
   </g>
   <g id="line2d_37">
    <path d="M 84.341127 18.118379 
L 93.621423 25.981856 
L 102.901719 30.302625 
L 112.182015 37.443196 
L 121.46231 42.202545 
L 130.742606 49.034008 
L 140.022902 54.030752 
L 149.303198 60.673989 
L 158.583493 65.826933 
L 167.863789 72.339999 
L 177.144085 77.605679 
L 186.424381 84.022136 
L 195.704676 89.373725 
L 204.984972 95.71534 
L 214.265268 101.134659 
L 223.545564 107.41651 
L 232.825859 112.890788 
L 242.106155 119.123859 
L 251.386451 124.643535 
L 260.666747 130.836091 
L 269.947042 136.39382 
L 279.227338 142.552205 
L 288.507634 148.142329 
L 297.78793 154.271598 
L 307.068225 159.889514 
L 316.348521 165.993776 
L 325.628817 171.635749 
L 334.909113 177.718334 
L 344.189408 183.381322 
L 353.469704 189.444871 
L 362.75 195.126347 
L 372.030296 201.17326 
L 381.310592 206.871077 
L 390.590887 212.903289 
L 399.871183 218.615556 
L 409.151479 224.634695 
L 418.431775 230.359936 
L 427.71207 236.367419 
L 436.992366 242.104257 
L 446.272662 248.101311 
L 455.552958 253.848587 
L 464.833253 259.836256 
L 474.113549 265.593006 
L 483.393845 271.572176 
L 492.674141 277.337449 
L 501.954436 283.309038 
L 511.234732 289.08203 
L 520.515028 295.046738 
L 529.795324 300.826787 
L 539.075619 306.785156 
L 548.355915 312.571683 
L 557.636211 318.524352 
L 566.916507 324.316732 
L 576.196802 330.264198 
L 585.477098 336.062027 
L 594.757394 342.004696 
L 604.03769 347.807525 
L 613.317985 353.74581 
L 622.598281 359.553191 
L 631.878577 365.48746 
L 641.158873 371.299055 
" clip-path="url(#pdb3b7cb19d)" style="fill: none; stroke: #9467bd; stroke-width: 1.5; stroke-linecap: square"/>
   </g>
   <g id="line2d_38">
    <path d="M 84.341127 18.118436 
L 93.621423 24.590389 
L 102.901719 29.151447 
L 112.182015 35.029716 
L 121.46231 39.929224 
L 130.742606 45.601152 
L 140.022902 50.656893 
L 149.303198 56.224023 
L 158.583493 61.369298 
L 167.863789 66.875099 
L 177.144085 72.077397 
L 186.424381 77.544341 
L 195.704676 82.785359 
L 204.984972 88.226473 
L 214.265268 93.495148 
L 223.545564 98.91833 
L 232.825859 104.20744 
L 242.106155 109.618009 
L 251.386451 114.922545 
L 260.666747 120.324042 
L 269.947042 125.64056 
L 279.227338 131.035387 
L 288.507634 136.361482 
L 297.78793 141.75139 
L 307.068225 147.08511 
L 316.348521 152.471387 
L 325.628817 157.811376 
L 334.909113 163.194958 
L 344.189408 168.540107 
L 353.469704 173.921697 
L 362.75 179.271163 
L 372.030296 184.651317 
L 381.310592 190.004466 
L 390.590887 195.383544 
L 399.871183 200.739778 
L 409.151479 206.118165 
L 418.431775 211.477172 
L 427.71207 216.85497 
L 436.992366 222.216349 
L 446.272662 227.593885 
L 455.552958 232.957306 
L 464.833253 238.33467 
L 474.113549 243.699905 
L 483.393845 249.077226 
L 492.674141 254.444091 
L 501.954436 259.821428 
L 511.234732 265.189739 
L 520.515028 270.567222 
L 529.795324 275.936783 
L 539.075619 281.314434 
L 548.355915 286.685275 
L 557.636211 292.063112 
L 566.916507 297.434989 
L 576.196802 302.813059 
L 585.477098 308.185889 
L 594.757394 313.564243 
L 604.03769 318.938046 
L 613.317985 324.316648 
L 622.598281 329.691269 
L 631.878577 335.070185 
L 641.158873 340.445622 
" clip-path="url(#pdb3b7cb19d)" style="fill: none; stroke: #8c564b; stroke-width: 1.5; stroke-linecap: square"/>
   </g>
   <g id="line2d_39">
    <path d="M 84.341127 18.119315 
L 93.621423 22.817627 
L 102.901719 26.250436 
L 112.182015 30.474138 
L 121.46231 34.175714 
L 130.742606 38.267975 
L 140.022902 42.080041 
L 149.303198 46.11791 
L 158.583493 49.988036 
L 167.863789 54.000008 
L 177.144085 57.904761 
L 186.424381 61.90373 
L 195.704676 65.830992 
L 204.984972 69.823309 
L 214.265268 73.76625 
L 223.545564 77.755445 
L 232.825859 81.709668 
L 242.106155 85.697717 
L 251.386451 89.660449 
L 260.666747 93.64846 
L 269.947042 97.617978 
L 279.227338 101.606549 
L 288.507634 105.581405 
L 297.78793 109.570961 
L 307.068225 113.550256 
L 316.348521 117.541015 
L 325.628817 121.52402 
L 334.909113 125.516067 
L 344.189408 129.502238 
L 353.469704 133.49566 
L 362.75 137.484588 
L 372.030296 141.479383 
L 381.310592 145.470722 
L 390.590887 149.466852 
L 399.871183 153.460336 
L 409.151479 157.457739 
L 418.431775 161.453166 
L 427.71207 165.451881 
L 436.992366 169.449038 
L 446.272662 173.448926 
L 455.552958 177.447677 
L 464.833253 181.448788 
L 474.113549 185.449003 
L 483.393845 189.451199 
L 492.674141 193.452779 
L 501.954436 197.455994 
L 511.234732 201.458864 
L 520.515028 205.463164 
L 529.795324 209.467126 
L 539.075619 213.472435 
L 548.355915 217.477486 
L 557.636211 221.483714 
L 566.916507 225.48981 
L 576.196802 229.496941 
L 585.477098 233.503925 
L 594.757394 237.511938 
L 604.03769 241.519909 
L 613.317985 245.52871 
L 622.598281 249.537565 
L 631.878577 253.547121 
L 641.158873 257.556785 
" clip-path="url(#pdb3b7cb19d)" style="fill: none; stroke: #e377c2; stroke-width: 1.5; stroke-linecap: square"/>
   </g>
   <g id="line2d_40">
    <path d="M 84.341127 18.118521 
L 93.621423 24.074548 
L 102.901719 28.36486 
L 112.182015 33.76515 
L 121.46231 38.369564 
L 130.742606 43.589111 
L 140.022902 48.332779 
L 149.303198 53.465789 
L 158.583493 58.286649 
L 167.863789 63.371655 
L 177.144085 68.240431 
L 186.424381 73.296644 
L 195.704676 78.197308 
L 204.984972 83.235348 
L 214.265268 88.158422 
L 223.545564 93.184547 
L 232.825859 98.123938 
L 242.106155 103.142284 
L 251.386451 108.093907 
L 260.666747 113.106975 
L 269.947042 118.068064 
L 279.227338 123.077604 
L 288.507634 128.046152 
L 297.78793 133.053346 
L 307.068225 138.027852 
L 316.348521 143.033609 
L 325.628817 148.01305 
L 334.909113 153.017878 
L 344.189408 158.001384 
L 353.469704 163.005738 
L 362.75 167.992647 
L 372.030296 172.996839 
L 381.310592 177.98673 
L 390.590887 182.99091 
L 399.871183 187.983313 
L 409.151479 192.987747 
L 418.431775 197.982316 
L 427.71207 202.987025 
L 436.992366 207.983584 
L 446.272662 212.988705 
L 455.552958 217.986973 
L 464.833253 222.99253 
L 474.113549 227.992334 
L 483.393845 232.998366 
L 492.674141 237.999586 
L 501.954436 243.006109 
L 511.234732 248.00861 
L 520.515028 253.015689 
L 529.795324 258.019297 
L 539.075619 263.02692 
L 548.355915 268.03161 
L 557.636211 273.039762 
L 566.916507 278.045417 
L 576.196802 283.054103 
L 585.477098 288.060662 
L 594.757394 293.069875 
L 604.03769 298.077289 
L 613.317985 303.087014 
L 622.598281 308.095235 
L 631.878577 313.105463 
L 641.158873 318.114429 
" clip-path="url(#pdb3b7cb19d)" style="fill: none; stroke: #7f7f7f; stroke-width: 1.5; stroke-linecap: square"/>
   </g>
   <g id="line2d_41">
    <path d="M 84.341127 18.118422 
L 93.621423 24.901714 
L 102.901719 29.82678 
L 112.182015 36.023947 
L 121.46231 41.282426 
L 130.742606 47.278386 
L 140.022902 52.689618 
L 149.303198 58.584647 
L 158.583493 64.082665 
L 167.863789 69.919174 
L 177.144085 75.472247 
L 186.424381 81.272112 
L 195.704676 86.862402 
L 204.984972 92.638034 
L 214.265268 98.254799 
L 223.545564 104.013928 
L 232.825859 109.650117 
L 242.106155 115.397666 
L 251.386451 121.048585 
L 260.666747 126.7879 
L 269.947042 132.450251 
L 279.227338 138.183619 
L 288.507634 143.85496 
L 297.78793 149.584012 
L 307.068225 155.262632 
L 316.348521 160.988494 
L 325.628817 166.673063 
L 334.909113 172.396691 
L 344.189408 178.086076 
L 353.469704 183.808098 
L 362.75 189.501691 
L 372.030296 195.222502 
L 381.310592 200.919558 
L 390.590887 206.639563 
L 399.871183 212.339557 
L 409.151479 218.059071 
L 418.431775 223.76164 
L 427.71207 229.480826 
L 436.992366 235.185706 
L 446.272662 240.904747 
L 455.552958 246.611521 
L 464.833253 252.330583 
L 474.113549 258.039145 
L 483.393845 263.75824 
L 492.674141 269.468415 
L 501.954436 275.187647 
L 511.234732 280.899141 
L 520.515028 286.618604 
L 529.795324 292.331379 
L 539.075619 298.051106 
L 548.355915 303.765053 
L 557.636211 309.485021 
L 566.916507 315.199947 
L 576.196802 320.920282 
L 585.477098 326.636258 
L 594.757394 332.35688 
L 604.03769 338.073709 
L 613.317985 343.794701 
L 622.598281 349.512349 
L 631.878577 355.233635 
L 641.158873 360.952011 
" clip-path="url(#pdb3b7cb19d)" style="fill: none; stroke: #bcbd22; stroke-width: 1.5; stroke-linecap: square"/>
   </g>
   <g id="line2d_42">
    <path d="M 84.341127 18.118365 
L 93.621423 29.01099 
L 102.901719 33.714004 
L 112.182015 43.836183 
L 121.46231 49.022183 
L 130.742606 58.790642 
L 140.022902 64.255737 
L 149.303198 73.79401 
L 158.583493 79.454809 
L 167.863789 88.823159 
L 177.144085 94.633954 
L 186.424381 103.86829 
L 195.704676 109.800151 
L 204.984972 118.924227 
L 214.265268 124.957289 
L 223.545564 133.988027 
L 232.825859 140.107691 
L 242.106155 149.057733 
L 251.386451 155.252982 
L 260.666747 164.132144 
L 269.947042 170.394098 
L 279.227338 179.210223 
L 288.507634 185.531937 
L 297.78793 194.2914 
L 307.068225 200.667058 
L 316.348521 209.375215 
L 325.628817 215.799854 
L 334.909113 224.461191 
L 344.189408 230.930691 
L 353.469704 239.549067 
L 362.75 246.059827 
L 372.030296 254.638524 
L 381.310592 261.187547 
L 390.590887 269.729462 
L 399.871183 276.313975 
L 409.151479 284.821659 
L 418.431775 291.439277 
L 427.71207 299.914972 
L 436.992366 306.563524 
L 446.272662 315.009329 
L 455.552958 321.686966 
L 464.833253 330.104555 
L 474.113549 336.809498 
L 483.393845 345.200666 
L 492.674141 351.931329 
L 501.954436 360.297515 
L 511.234732 367.052498 
L 520.515028 375.395033 
L 525.450822 379 
" clip-path="url(#pdb3b7cb19d)" style="fill: none; stroke: #17becf; stroke-width: 1.5; stroke-linecap: square"/>
   </g>
   <g id="line2d_43">
    <path d="M 84.341127 18.118365 
L 93.621423 28.422225 
L 102.901719 31.373583 
L 112.182015 40.902295 
L 121.46231 44.341337 
L 130.742606 53.511475 
L 140.022902 57.234357 
L 149.303198 66.169726 
L 158.583493 70.092894 
L 167.863789 78.853729 
L 177.144085 82.931437 
L 186.424381 91.553667 
L 195.704676 95.75692 
L 204.984972 104.264397 
L 214.265268 108.573286 
L 223.545564 116.983003 
L 232.825859 121.382883 
L 242.106155 129.707514 
L 251.386451 134.187319 
L 260.666747 142.436701 
L 269.947042 146.987557 
L 279.227338 155.169623 
L 288.507634 159.78446 
L 297.78793 167.905644 
L 307.068225 172.57854 
L 316.348521 180.644149 
L 325.628817 185.370274 
L 334.909113 193.384963 
L 344.189408 198.160003 
L 353.469704 206.127542 
L 362.75 210.947981 
L 372.030296 218.871822 
L 381.310592 223.734454 
L 390.590887 231.617545 
L 399.871183 236.519577 
L 409.151479 244.364493 
L 418.431775 249.30354 
L 427.71207 257.112599 
L 436.992366 262.086509 
L 446.272662 269.861699 
L 455.552958 274.868496 
L 464.833253 282.61171 
L 474.113549 287.6496 
L 483.393845 295.362555 
L 492.674141 300.429949 
L 501.954436 308.114179 
L 511.234732 313.20958 
L 520.515028 320.866435 
L 529.795324 325.988569 
L 539.075619 333.619329 
L 548.355915 338.766996 
L 557.636211 346.372801 
L 566.916507 351.544852 
L 576.196802 359.126841 
L 585.477098 364.32222 
L 594.757394 371.881359 
L 604.03769 377.099064 
L 606.378227 379 
" clip-path="url(#pdb3b7cb19d)" style="fill: none; stroke: #1f77b4; stroke-width: 1.5; stroke-linecap: square"/>
   </g>
   <g id="line2d_44">
    <path d="M 84.341127 18.118365 
L 93.621423 28.293327 
L 102.901719 32.237767 
L 112.182015 41.642059 
L 121.46231 46.069756 
L 130.742606 55.120061 
L 140.022902 59.827149 
L 149.303198 68.647012 
L 158.583493 73.549968 
L 167.863789 82.199746 
L 177.144085 87.252877 
L 186.424381 95.768428 
L 195.704676 100.942879 
L 204.984972 109.347829 
L 214.265268 114.623799 
L 223.545564 122.93522 
L 232.825859 128.29796 
L 242.106155 136.528487 
L 251.386451 141.966938 
L 260.666747 150.126407 
L 269.947042 155.631903 
L 279.227338 163.728114 
L 288.507634 169.293514 
L 297.78793 177.332843 
L 307.068225 182.95238 
L 316.348521 190.940178 
L 325.628817 196.608896 
L 334.909113 204.549709 
L 344.189408 210.263471 
L 353.469704 218.161101 
L 362.75 223.916423 
L 372.030296 231.774169 
L 381.310592 237.567854 
L 390.590887 245.388636 
L 399.871183 251.217999 
L 409.151479 259.004376 
L 418.431775 264.867022 
L 427.71207 272.621299 
L 436.992366 278.515072 
L 446.272662 286.23916 
L 455.552958 292.162133 
L 464.833253 299.857965 
L 474.113549 305.808456 
L 483.393845 313.477582 
L 492.674141 319.454037 
L 501.954436 327.09798 
L 511.234732 333.098935 
L 520.515028 340.719042 
L 529.795324 346.743252 
L 539.075619 354.340803 
L 548.355915 360.38696 
L 557.636211 367.963066 
L 566.916507 374.030206 
L 573.020651 379 
" clip-path="url(#pdb3b7cb19d)" style="fill: none; stroke: #ff7f0e; stroke-width: 1.5; stroke-linecap: square"/>
   </g>
   <g id="patch_3">
    <path d="M 56.50024 344.64351 
L 56.50024 18.118365 
" style="fill: none; stroke: #000000; stroke-width: 0.8; stroke-linejoin: miter; stroke-linecap: square"/>
   </g>
   <g id="patch_4">
    <path d="M 668.99976 344.64351 
L 668.99976 18.118365 
" style="fill: none; stroke: #000000; stroke-width: 0.8; stroke-linejoin: miter; stroke-linecap: square"/>
   </g>
   <g id="patch_5">
    <path d="M 56.50024 344.64351 
L 668.99976 344.64351 
" style="fill: none; stroke: #000000; stroke-width: 0.8; stroke-linejoin: miter; stroke-linecap: square"/>
   </g>
   <g id="patch_6">
    <path d="M 56.50024 18.118365 
L 668.99976 18.118365 
" style="fill: none; stroke: #000000; stroke-width: 0.8; stroke-linejoin: miter; stroke-linecap: square"/>
   </g>
   <g id="text_19">
    <!-- SrOPh X-C -->
    <g transform="translate(332.259687 12.118365) scale(0.12 -0.12)">
     <defs>
      <path id="DejaVuSans-53" d="M 3425 4513 
L 3425 3897 
Q 3066 4069 2747 4153 
Q 2428 4238 2131 4238 
Q 1616 4238 1336 4038 
Q 1056 3838 1056 3469 
Q 1056 3159 1242 3001 
Q 1428 2844 1947 2747 
L 2328 2669 
Q 3034 2534 3370 2195 
Q 3706 1856 3706 1288 
Q 3706 609 3251 259 
Q 2797 -91 1919 -91 
Q 1588 -91 1214 -16 
Q 841 59 441 206 
L 441 856 
Q 825 641 1194 531 
Q 1563 422 1919 422 
Q 2459 422 2753 634 
Q 3047 847 3047 1241 
Q 3047 1584 2836 1778 
Q 2625 1972 2144 2069 
L 1759 2144 
Q 1053 2284 737 2584 
Q 422 2884 422 3419 
Q 422 4038 858 4394 
Q 1294 4750 2059 4750 
Q 2388 4750 2728 4690 
Q 3069 4631 3425 4513 
z
" transform="scale(0.015625)"/>
      <path id="DejaVuSans-72" d="M 2631 2963 
Q 2534 3019 2420 3045 
Q 2306 3072 2169 3072 
Q 1681 3072 1420 2755 
Q 1159 2438 1159 1844 
L 1159 0 
L 581 0 
L 581 3500 
L 1159 3500 
L 1159 2956 
Q 1341 3275 1631 3429 
Q 1922 3584 2338 3584 
Q 2397 3584 2469 3576 
Q 2541 3569 2628 3553 
L 2631 2963 
z
" transform="scale(0.015625)"/>
      <path id="DejaVuSans-4f" d="M 2522 4238 
Q 1834 4238 1429 3725 
Q 1025 3213 1025 2328 
Q 1025 1447 1429 934 
Q 1834 422 2522 422 
Q 3209 422 3611 934 
Q 4013 1447 4013 2328 
Q 4013 3213 3611 3725 
Q 3209 4238 2522 4238 
z
M 2522 4750 
Q 3503 4750 4090 4092 
Q 4678 3434 4678 2328 
Q 4678 1225 4090 567 
Q 3503 -91 2522 -91 
Q 1538 -91 948 565 
Q 359 1222 359 2328 
Q 359 3434 948 4092 
Q 1538 4750 2522 4750 
z
" transform="scale(0.015625)"/>
      <path id="DejaVuSans-50" d="M 1259 4147 
L 1259 2394 
L 2053 2394 
Q 2494 2394 2734 2622 
Q 2975 2850 2975 3272 
Q 2975 3691 2734 3919 
Q 2494 4147 2053 4147 
L 1259 4147 
z
M 628 4666 
L 2053 4666 
Q 2838 4666 3239 4311 
Q 3641 3956 3641 3272 
Q 3641 2581 3239 2228 
Q 2838 1875 2053 1875 
L 1259 1875 
L 1259 0 
L 628 0 
L 628 4666 
z
" transform="scale(0.015625)"/>
      <path id="DejaVuSans-68" d="M 3513 2113 
L 3513 0 
L 2938 0 
L 2938 2094 
Q 2938 2591 2744 2837 
Q 2550 3084 2163 3084 
Q 1697 3084 1428 2787 
Q 1159 2491 1159 1978 
L 1159 0 
L 581 0 
L 581 4863 
L 1159 4863 
L 1159 2956 
Q 1366 3272 1645 3428 
Q 1925 3584 2291 3584 
Q 2894 3584 3203 3211 
Q 3513 2838 3513 2113 
z
" transform="scale(0.015625)"/>
      <path id="DejaVuSans-20" transform="scale(0.015625)"/>
      <path id="DejaVuSans-58" d="M 403 4666 
L 1081 4666 
L 2241 2931 
L 3406 4666 
L 4084 4666 
L 2584 2425 
L 4184 0 
L 3506 0 
L 2194 1984 
L 872 0 
L 191 0 
L 1856 2491 
L 403 4666 
z
" transform="scale(0.015625)"/>
      <path id="DejaVuSans-2d" d="M 313 2009 
L 1997 2009 
L 1997 1497 
L 313 1497 
L 313 2009 
z
" transform="scale(0.015625)"/>
      <path id="DejaVuSans-43" d="M 4122 4306 
L 4122 3641 
Q 3803 3938 3442 4084 
Q 3081 4231 2675 4231 
Q 1875 4231 1450 3742 
Q 1025 3253 1025 2328 
Q 1025 1406 1450 917 
Q 1875 428 2675 428 
Q 3081 428 3442 575 
Q 3803 722 4122 1019 
L 4122 359 
Q 3791 134 3420 21 
Q 3050 -91 2638 -91 
Q 1578 -91 968 557 
Q 359 1206 359 2328 
Q 359 3453 968 4101 
Q 1578 4750 2638 4750 
Q 3056 4750 3426 4639 
Q 3797 4528 4122 4306 
z
" transform="scale(0.015625)"/>
     </defs>
     <use xlink:href="#DejaVuSans-53"/>
     <use xlink:href="#DejaVuSans-72" transform="translate(63.476562 0)"/>
     <use xlink:href="#DejaVuSans-4f" transform="translate(104.589844 0)"/>
     <use xlink:href="#DejaVuSans-50" transform="translate(183.300781 0)"/>
     <use xlink:href="#DejaVuSans-68" transform="translate(243.603516 0)"/>
     <use xlink:href="#DejaVuSans-20" transform="translate(306.982422 0)"/>
     <use xlink:href="#DejaVuSans-58" transform="translate(338.769531 0)"/>
     <use xlink:href="#DejaVuSans-2d" transform="translate(402.275391 0)"/>
     <use xlink:href="#DejaVuSans-43" transform="translate(438.359375 0)"/>
    </g>
   </g>
   <g id="legend_1">
    <g id="patch_7">
     <path d="M 63.50024 339.64351 
L 246.20024 339.64351 
Q 248.20024 339.64351 248.20024 337.64351 
L 248.20024 149.64351 
Q 248.20024 147.64351 246.20024 147.64351 
L 63.50024 147.64351 
Q 61.50024 147.64351 61.50024 149.64351 
L 61.50024 337.64351 
Q 61.50024 339.64351 63.50024 339.64351 
z
" style="fill: #ffffff; opacity: 0.8; stroke: #cccccc; stroke-linejoin: miter"/>
    </g>
    <g id="line2d_45">
     <path d="M 65.50024 156.763823 
L 75.50024 156.763823 
L 85.50024 156.763823 
" style="fill: none; stroke: #1f77b4; stroke-width: 1.5; stroke-linecap: square"/>
    </g>
    <g id="text_20">
     <!-- $\nu _{12}=239$cm$^{-1}$, $\Delta Q=0.1190$ -->
     <g transform="translate(93.50024 160.263823) scale(0.1 -0.1)">
      <defs>
       <path id="DejaVuSans-Oblique-3bd" d="M 959 0 
L 572 3500 
L 1191 3500 
L 1522 563 
Q 1972 950 2391 1488 
Q 2706 1891 2788 2241 
Q 2825 2406 2809 2719 
Q 2794 3091 2544 3500 
L 3125 3500 
L 3125 3500 
Q 3288 3222 3353 2834 
Q 3416 2478 3369 2234 
Q 3250 1622 2719 1075 
Q 2025 363 1572 0 
L 959 0 
z
" transform="scale(0.015625)"/>
       <path id="DejaVuSans-3d" d="M 678 2906 
L 4684 2906 
L 4684 2381 
L 678 2381 
L 678 2906 
z
M 678 1631 
L 4684 1631 
L 4684 1100 
L 678 1100 
L 678 1631 
z
" transform="scale(0.015625)"/>
       <path id="DejaVuSans-39" d="M 703 97 
L 703 672 
Q 941 559 1184 500 
Q 1428 441 1663 441 
Q 2288 441 2617 861 
Q 2947 1281 2994 2138 
Q 2813 1869 2534 1725 
Q 2256 1581 1919 1581 
Q 1219 1581 811 2004 
Q 403 2428 403 3163 
Q 403 3881 828 4315 
Q 1253 4750 1959 4750 
Q 2769 4750 3195 4129 
Q 3622 3509 3622 2328 
Q 3622 1225 3098 567 
Q 2575 -91 1691 -91 
Q 1453 -91 1209 -44 
Q 966 3 703 97 
z
M 1959 2075 
Q 2384 2075 2632 2365 
Q 2881 2656 2881 3163 
Q 2881 3666 2632 3958 
Q 2384 4250 1959 4250 
Q 1534 4250 1286 3958 
Q 1038 3666 1038 3163 
Q 1038 2656 1286 2365 
Q 1534 2075 1959 2075 
z
" transform="scale(0.015625)"/>
       <path id="DejaVuSans-63" d="M 3122 3366 
L 3122 2828 
Q 2878 2963 2633 3030 
Q 2388 3097 2138 3097 
Q 1578 3097 1268 2742 
Q 959 2388 959 1747 
Q 959 1106 1268 751 
Q 1578 397 2138 397 
Q 2388 397 2633 464 
Q 2878 531 3122 666 
L 3122 134 
Q 2881 22 2623 -34 
Q 2366 -91 2075 -91 
Q 1284 -91 818 406 
Q 353 903 353 1747 
Q 353 2603 823 3093 
Q 1294 3584 2113 3584 
Q 2378 3584 2631 3529 
Q 2884 3475 3122 3366 
z
" transform="scale(0.015625)"/>
       <path id="DejaVuSans-6d" d="M 3328 2828 
Q 3544 3216 3844 3400 
Q 4144 3584 4550 3584 
Q 5097 3584 5394 3201 
Q 5691 2819 5691 2113 
L 5691 0 
L 5113 0 
L 5113 2094 
Q 5113 2597 4934 2840 
Q 4756 3084 4391 3084 
Q 3944 3084 3684 2787 
Q 3425 2491 3425 1978 
L 3425 0 
L 2847 0 
L 2847 2094 
Q 2847 2600 2669 2842 
Q 2491 3084 2119 3084 
Q 1678 3084 1418 2786 
Q 1159 2488 1159 1978 
L 1159 0 
L 581 0 
L 581 3500 
L 1159 3500 
L 1159 2956 
Q 1356 3278 1631 3431 
Q 1906 3584 2284 3584 
Q 2666 3584 2933 3390 
Q 3200 3197 3328 2828 
z
" transform="scale(0.015625)"/>
       <path id="DejaVuSans-2c" d="M 750 794 
L 1409 794 
L 1409 256 
L 897 -744 
L 494 -744 
L 750 256 
L 750 794 
z
" transform="scale(0.015625)"/>
       <path id="DejaVuSans-394" d="M 2188 4044 
L 906 525 
L 3472 525 
L 2188 4044 
z
M 50 0 
L 1831 4666 
L 2547 4666 
L 4325 0 
L 50 0 
z
" transform="scale(0.015625)"/>
       <path id="DejaVuSans-Oblique-51" d="M 2309 -84 
Q 2275 -88 2237 -89 
Q 2200 -91 2125 -91 
Q 1250 -91 756 411 
Q 263 913 263 1797 
Q 263 2319 452 2844 
Q 641 3369 978 3788 
Q 1369 4269 1858 4509 
Q 2347 4750 2938 4750 
Q 3794 4750 4287 4245 
Q 4781 3741 4781 2869 
Q 4781 1928 4265 1147 
Q 3750 366 2919 44 
L 3553 -825 
L 2847 -825 
L 2309 -84 
z
M 2919 4238 
Q 2400 4238 2003 3986 
Q 1606 3734 1313 3219 
Q 1125 2891 1026 2522 
Q 928 2153 928 1778 
Q 928 1128 1239 775 
Q 1550 422 2119 422 
Q 2631 422 3032 676 
Q 3434 931 3719 1434 
Q 3909 1772 4009 2142 
Q 4109 2513 4109 2881 
Q 4109 3528 3796 3883 
Q 3484 4238 2919 4238 
z
" transform="scale(0.015625)"/>
       <path id="DejaVuSans-2e" d="M 684 794 
L 1344 794 
L 1344 0 
L 684 0 
L 684 794 
z
" transform="scale(0.015625)"/>
      </defs>
      <use xlink:href="#DejaVuSans-Oblique-3bd" transform="translate(0 0.684375)"/>
      <use xlink:href="#DejaVuSans-31" transform="translate(55.859375 -15.721875) scale(0.7)"/>
      <use xlink:href="#DejaVuSans-32" transform="translate(100.395508 -15.721875) scale(0.7)"/>
      <use xlink:href="#DejaVuSans-3d" transform="translate(167.148438 0.684375)"/>
      <use xlink:href="#DejaVuSans-32" transform="translate(270.419922 0.684375)"/>
      <use xlink:href="#DejaVuSans-33" transform="translate(334.042969 0.684375)"/>
      <use xlink:href="#DejaVuSans-39" transform="translate(397.666016 0.684375)"/>
      <use xlink:href="#DejaVuSans-63" transform="translate(461.289062 0.684375)"/>
      <use xlink:href="#DejaVuSans-6d" transform="translate(516.269531 0.684375)"/>
      <use xlink:href="#DejaVuSans-2212" transform="translate(614.638672 38.965625) scale(0.7)"/>
      <use xlink:href="#DejaVuSans-31" transform="translate(673.291016 38.965625) scale(0.7)"/>
      <use xlink:href="#DejaVuSans-2c" transform="translate(720.561523 0.684375)"/>
      <use xlink:href="#DejaVuSans-20" transform="translate(752.348633 0.684375)"/>
      <use xlink:href="#DejaVuSans-394" transform="translate(784.135742 0.684375)"/>
      <use xlink:href="#DejaVuSans-Oblique-51" transform="translate(852.543945 0.684375)"/>
      <use xlink:href="#DejaVuSans-3d" transform="translate(950.737305 0.684375)"/>
      <use xlink:href="#DejaVuSans-30" transform="translate(1054.008789 0.684375)"/>
      <use xlink:href="#DejaVuSans-2e" transform="translate(1117.631836 0.684375)"/>
      <use xlink:href="#DejaVuSans-31" transform="translate(1149.418945 0.684375)"/>
      <use xlink:href="#DejaVuSans-31" transform="translate(1213.041992 0.684375)"/>
      <use xlink:href="#DejaVuSans-39" transform="translate(1276.665039 0.684375)"/>
      <use xlink:href="#DejaVuSans-30" transform="translate(1340.288086 0.684375)"/>
     </g>
    </g>
    <g id="line2d_46">
     <path d="M 65.50024 172.463823 
L 75.50024 172.463823 
L 85.50024 172.463823 
" style="fill: none; stroke: #ff7f0e; stroke-width: 1.5; stroke-linecap: square"/>
    </g>
    <g id="text_21">
     <!-- $\nu _{11}=608$cm$^{-1}$, $\Delta Q=-0.0205$ -->
     <g transform="translate(93.50024 175.963823) scale(0.1 -0.1)">
      <use xlink:href="#DejaVuSans-Oblique-3bd" transform="translate(0 0.684375)"/>
      <use xlink:href="#DejaVuSans-31" transform="translate(55.859375 -15.721875) scale(0.7)"/>
      <use xlink:href="#DejaVuSans-31" transform="translate(100.395508 -15.721875) scale(0.7)"/>
      <use xlink:href="#DejaVuSans-3d" transform="translate(167.148438 0.684375)"/>
      <use xlink:href="#DejaVuSans-36" transform="translate(270.419922 0.684375)"/>
      <use xlink:href="#DejaVuSans-30" transform="translate(334.042969 0.684375)"/>
      <use xlink:href="#DejaVuSans-38" transform="translate(397.666016 0.684375)"/>
      <use xlink:href="#DejaVuSans-63" transform="translate(461.289062 0.684375)"/>
      <use xlink:href="#DejaVuSans-6d" transform="translate(516.269531 0.684375)"/>
      <use xlink:href="#DejaVuSans-2212" transform="translate(614.638672 38.965625) scale(0.7)"/>
      <use xlink:href="#DejaVuSans-31" transform="translate(673.291016 38.965625) scale(0.7)"/>
      <use xlink:href="#DejaVuSans-2c" transform="translate(720.561523 0.684375)"/>
      <use xlink:href="#DejaVuSans-20" transform="translate(752.348633 0.684375)"/>
      <use xlink:href="#DejaVuSans-394" transform="translate(784.135742 0.684375)"/>
      <use xlink:href="#DejaVuSans-Oblique-51" transform="translate(852.543945 0.684375)"/>
      <use xlink:href="#DejaVuSans-3d" transform="translate(950.737305 0.684375)"/>
      <use xlink:href="#DejaVuSans-2212" transform="translate(1054.008789 0.684375)"/>
      <use xlink:href="#DejaVuSans-30" transform="translate(1137.797852 0.684375)"/>
      <use xlink:href="#DejaVuSans-2e" transform="translate(1201.420898 0.684375)"/>
      <use xlink:href="#DejaVuSans-30" transform="translate(1233.208008 0.684375)"/>
      <use xlink:href="#DejaVuSans-32" transform="translate(1296.831055 0.684375)"/>
      <use xlink:href="#DejaVuSans-30" transform="translate(1360.454102 0.684375)"/>
      <use xlink:href="#DejaVuSans-35" transform="translate(1424.077148 0.684375)"/>
     </g>
    </g>
    <g id="line2d_47">
     <path d="M 65.50024 188.263823 
L 75.50024 188.263823 
L 85.50024 188.263823 
" style="fill: none; stroke: #2ca02c; stroke-width: 1.5; stroke-linecap: square"/>
    </g>
    <g id="text_22">
     <!-- $\nu _{10}=885$cm$^{-1}$, $\Delta Q=-0.0117$ -->
     <g transform="translate(93.50024 191.763823) scale(0.1 -0.1)">
      <use xlink:href="#DejaVuSans-Oblique-3bd" transform="translate(0 0.684375)"/>
      <use xlink:href="#DejaVuSans-31" transform="translate(55.859375 -15.721875) scale(0.7)"/>
      <use xlink:href="#DejaVuSans-30" transform="translate(100.395508 -15.721875) scale(0.7)"/>
      <use xlink:href="#DejaVuSans-3d" transform="translate(167.148438 0.684375)"/>
      <use xlink:href="#DejaVuSans-38" transform="translate(270.419922 0.684375)"/>
      <use xlink:href="#DejaVuSans-38" transform="translate(334.042969 0.684375)"/>
      <use xlink:href="#DejaVuSans-35" transform="translate(397.666016 0.684375)"/>
      <use xlink:href="#DejaVuSans-63" transform="translate(461.289062 0.684375)"/>
      <use xlink:href="#DejaVuSans-6d" transform="translate(516.269531 0.684375)"/>
      <use xlink:href="#DejaVuSans-2212" transform="translate(614.638672 38.965625) scale(0.7)"/>
      <use xlink:href="#DejaVuSans-31" transform="translate(673.291016 38.965625) scale(0.7)"/>
      <use xlink:href="#DejaVuSans-2c" transform="translate(720.561523 0.684375)"/>
      <use xlink:href="#DejaVuSans-20" transform="translate(752.348633 0.684375)"/>
      <use xlink:href="#DejaVuSans-394" transform="translate(784.135742 0.684375)"/>
      <use xlink:href="#DejaVuSans-Oblique-51" transform="translate(852.543945 0.684375)"/>
      <use xlink:href="#DejaVuSans-3d" transform="translate(950.737305 0.684375)"/>
      <use xlink:href="#DejaVuSans-2212" transform="translate(1054.008789 0.684375)"/>
      <use xlink:href="#DejaVuSans-30" transform="translate(1137.797852 0.684375)"/>
      <use xlink:href="#DejaVuSans-2e" transform="translate(1201.420898 0.684375)"/>
      <use xlink:href="#DejaVuSans-30" transform="translate(1233.208008 0.684375)"/>
      <use xlink:href="#DejaVuSans-31" transform="translate(1296.831055 0.684375)"/>
      <use xlink:href="#DejaVuSans-31" transform="translate(1360.454102 0.684375)"/>
      <use xlink:href="#DejaVuSans-37" transform="translate(1424.077148 0.684375)"/>
     </g>
    </g>
    <g id="line2d_48">
     <path d="M 65.50024 204.063823 
L 75.50024 204.063823 
L 85.50024 204.063823 
" style="fill: none; stroke: #d62728; stroke-width: 1.5; stroke-linecap: square"/>
    </g>
    <g id="text_23">
     <!-- $\nu _{9}=1014$cm$^{-1}$, $\Delta Q=-0.0009$ -->
     <g transform="translate(93.50024 207.563823) scale(0.1 -0.1)">
      <use xlink:href="#DejaVuSans-Oblique-3bd" transform="translate(0 0.684375)"/>
      <use xlink:href="#DejaVuSans-39" transform="translate(55.859375 -15.721875) scale(0.7)"/>
      <use xlink:href="#DejaVuSans-3d" transform="translate(122.612305 0.684375)"/>
      <use xlink:href="#DejaVuSans-31" transform="translate(225.883789 0.684375)"/>
      <use xlink:href="#DejaVuSans-30" transform="translate(289.506836 0.684375)"/>
      <use xlink:href="#DejaVuSans-31" transform="translate(353.129883 0.684375)"/>
      <use xlink:href="#DejaVuSans-34" transform="translate(416.75293 0.684375)"/>
      <use xlink:href="#DejaVuSans-63" transform="translate(480.375977 0.684375)"/>
      <use xlink:href="#DejaVuSans-6d" transform="translate(535.356445 0.684375)"/>
      <use xlink:href="#DejaVuSans-2212" transform="translate(633.725586 38.965625) scale(0.7)"/>
      <use xlink:href="#DejaVuSans-31" transform="translate(692.37793 38.965625) scale(0.7)"/>
      <use xlink:href="#DejaVuSans-2c" transform="translate(739.648438 0.684375)"/>
      <use xlink:href="#DejaVuSans-20" transform="translate(771.435547 0.684375)"/>
      <use xlink:href="#DejaVuSans-394" transform="translate(803.222656 0.684375)"/>
      <use xlink:href="#DejaVuSans-Oblique-51" transform="translate(871.630859 0.684375)"/>
      <use xlink:href="#DejaVuSans-3d" transform="translate(969.824219 0.684375)"/>
      <use xlink:href="#DejaVuSans-2212" transform="translate(1073.095703 0.684375)"/>
      <use xlink:href="#DejaVuSans-30" transform="translate(1156.884766 0.684375)"/>
      <use xlink:href="#DejaVuSans-2e" transform="translate(1220.507812 0.684375)"/>
      <use xlink:href="#DejaVuSans-30" transform="translate(1252.294922 0.684375)"/>
      <use xlink:href="#DejaVuSans-30" transform="translate(1315.917969 0.684375)"/>
      <use xlink:href="#DejaVuSans-30" transform="translate(1379.541016 0.684375)"/>
      <use xlink:href="#DejaVuSans-39" transform="translate(1443.164062 0.684375)"/>
     </g>
    </g>
    <g id="line2d_49">
     <path d="M 65.50024 219.863823 
L 75.50024 219.863823 
L 85.50024 219.863823 
" style="fill: none; stroke: #9467bd; stroke-width: 1.5; stroke-linecap: square"/>
    </g>
    <g id="text_24">
     <!-- $\nu _{8}=1052$cm$^{-1}$, $\Delta Q=0.0010$ -->
     <g transform="translate(93.50024 223.363823) scale(0.1 -0.1)">
      <use xlink:href="#DejaVuSans-Oblique-3bd" transform="translate(0 0.684375)"/>
      <use xlink:href="#DejaVuSans-38" transform="translate(55.859375 -15.721875) scale(0.7)"/>
      <use xlink:href="#DejaVuSans-3d" transform="translate(122.612305 0.684375)"/>
      <use xlink:href="#DejaVuSans-31" transform="translate(225.883789 0.684375)"/>
      <use xlink:href="#DejaVuSans-30" transform="translate(289.506836 0.684375)"/>
      <use xlink:href="#DejaVuSans-35" transform="translate(353.129883 0.684375)"/>
      <use xlink:href="#DejaVuSans-32" transform="translate(416.75293 0.684375)"/>
      <use xlink:href="#DejaVuSans-63" transform="translate(480.375977 0.684375)"/>
      <use xlink:href="#DejaVuSans-6d" transform="translate(535.356445 0.684375)"/>
      <use xlink:href="#DejaVuSans-2212" transform="translate(633.725586 38.965625) scale(0.7)"/>
      <use xlink:href="#DejaVuSans-31" transform="translate(692.37793 38.965625) scale(0.7)"/>
      <use xlink:href="#DejaVuSans-2c" transform="translate(739.648438 0.684375)"/>
      <use xlink:href="#DejaVuSans-20" transform="translate(771.435547 0.684375)"/>
      <use xlink:href="#DejaVuSans-394" transform="translate(803.222656 0.684375)"/>
      <use xlink:href="#DejaVuSans-Oblique-51" transform="translate(871.630859 0.684375)"/>
      <use xlink:href="#DejaVuSans-3d" transform="translate(969.824219 0.684375)"/>
      <use xlink:href="#DejaVuSans-30" transform="translate(1073.095703 0.684375)"/>
      <use xlink:href="#DejaVuSans-2e" transform="translate(1136.71875 0.684375)"/>
      <use xlink:href="#DejaVuSans-30" transform="translate(1168.505859 0.684375)"/>
      <use xlink:href="#DejaVuSans-30" transform="translate(1232.128906 0.684375)"/>
      <use xlink:href="#DejaVuSans-31" transform="translate(1295.751953 0.684375)"/>
      <use xlink:href="#DejaVuSans-30" transform="translate(1359.375 0.684375)"/>
     </g>
    </g>
    <g id="line2d_50">
     <path d="M 65.50024 235.563823 
L 75.50024 235.563823 
L 85.50024 235.563823 
" style="fill: none; stroke: #8c564b; stroke-width: 1.5; stroke-linecap: square"/>
    </g>
    <g id="text_25">
     <!-- $\nu _{7}=1182$cm$^{-1}$, $\Delta Q=0.0025$ -->
     <g transform="translate(93.50024 239.063823) scale(0.1 -0.1)">
      <use xlink:href="#DejaVuSans-Oblique-3bd" transform="translate(0 0.684375)"/>
      <use xlink:href="#DejaVuSans-37" transform="translate(55.859375 -15.721875) scale(0.7)"/>
      <use xlink:href="#DejaVuSans-3d" transform="translate(122.612305 0.684375)"/>
      <use xlink:href="#DejaVuSans-31" transform="translate(225.883789 0.684375)"/>
      <use xlink:href="#DejaVuSans-31" transform="translate(289.506836 0.684375)"/>
      <use xlink:href="#DejaVuSans-38" transform="translate(353.129883 0.684375)"/>
      <use xlink:href="#DejaVuSans-32" transform="translate(416.75293 0.684375)"/>
      <use xlink:href="#DejaVuSans-63" transform="translate(480.375977 0.684375)"/>
      <use xlink:href="#DejaVuSans-6d" transform="translate(535.356445 0.684375)"/>
      <use xlink:href="#DejaVuSans-2212" transform="translate(633.725586 38.965625) scale(0.7)"/>
      <use xlink:href="#DejaVuSans-31" transform="translate(692.37793 38.965625) scale(0.7)"/>
      <use xlink:href="#DejaVuSans-2c" transform="translate(739.648438 0.684375)"/>
      <use xlink:href="#DejaVuSans-20" transform="translate(771.435547 0.684375)"/>
      <use xlink:href="#DejaVuSans-394" transform="translate(803.222656 0.684375)"/>
      <use xlink:href="#DejaVuSans-Oblique-51" transform="translate(871.630859 0.684375)"/>
      <use xlink:href="#DejaVuSans-3d" transform="translate(969.824219 0.684375)"/>
      <use xlink:href="#DejaVuSans-30" transform="translate(1073.095703 0.684375)"/>
      <use xlink:href="#DejaVuSans-2e" transform="translate(1136.71875 0.684375)"/>
      <use xlink:href="#DejaVuSans-30" transform="translate(1168.505859 0.684375)"/>
      <use xlink:href="#DejaVuSans-30" transform="translate(1232.128906 0.684375)"/>
      <use xlink:href="#DejaVuSans-32" transform="translate(1295.751953 0.684375)"/>
      <use xlink:href="#DejaVuSans-35" transform="translate(1359.375 0.684375)"/>
     </g>
    </g>
    <g id="line2d_51">
     <path d="M 65.50024 251.363823 
L 75.50024 251.363823 
L 85.50024 251.363823 
" style="fill: none; stroke: #e377c2; stroke-width: 1.5; stroke-linecap: square"/>
    </g>
    <g id="text_26">
     <!-- $\nu _{6}=1349$cm$^{-1}$, $\Delta Q=0.0082$ -->
     <g transform="translate(93.50024 254.863823) scale(0.1 -0.1)">
      <use xlink:href="#DejaVuSans-Oblique-3bd" transform="translate(0 0.684375)"/>
      <use xlink:href="#DejaVuSans-36" transform="translate(55.859375 -15.721875) scale(0.7)"/>
      <use xlink:href="#DejaVuSans-3d" transform="translate(122.612305 0.684375)"/>
      <use xlink:href="#DejaVuSans-31" transform="translate(225.883789 0.684375)"/>
      <use xlink:href="#DejaVuSans-33" transform="translate(289.506836 0.684375)"/>
      <use xlink:href="#DejaVuSans-34" transform="translate(353.129883 0.684375)"/>
      <use xlink:href="#DejaVuSans-39" transform="translate(416.75293 0.684375)"/>
      <use xlink:href="#DejaVuSans-63" transform="translate(480.375977 0.684375)"/>
      <use xlink:href="#DejaVuSans-6d" transform="translate(535.356445 0.684375)"/>
      <use xlink:href="#DejaVuSans-2212" transform="translate(633.725586 38.965625) scale(0.7)"/>
      <use xlink:href="#DejaVuSans-31" transform="translate(692.37793 38.965625) scale(0.7)"/>
      <use xlink:href="#DejaVuSans-2c" transform="translate(739.648438 0.684375)"/>
      <use xlink:href="#DejaVuSans-20" transform="translate(771.435547 0.684375)"/>
      <use xlink:href="#DejaVuSans-394" transform="translate(803.222656 0.684375)"/>
      <use xlink:href="#DejaVuSans-Oblique-51" transform="translate(871.630859 0.684375)"/>
      <use xlink:href="#DejaVuSans-3d" transform="translate(969.824219 0.684375)"/>
      <use xlink:href="#DejaVuSans-30" transform="translate(1073.095703 0.684375)"/>
      <use xlink:href="#DejaVuSans-2e" transform="translate(1136.71875 0.684375)"/>
      <use xlink:href="#DejaVuSans-30" transform="translate(1168.505859 0.684375)"/>
      <use xlink:href="#DejaVuSans-30" transform="translate(1232.128906 0.684375)"/>
      <use xlink:href="#DejaVuSans-38" transform="translate(1295.751953 0.684375)"/>
      <use xlink:href="#DejaVuSans-32" transform="translate(1359.375 0.684375)"/>
     </g>
    </g>
    <g id="line2d_52">
     <path d="M 65.50024 267.163823 
L 75.50024 267.163823 
L 85.50024 267.163823 
" style="fill: none; stroke: #7f7f7f; stroke-width: 1.5; stroke-linecap: square"/>
    </g>
    <g id="text_27">
     <!-- $\nu _{5}=1549$cm$^{-1}$, $\Delta Q=0.0031$ -->
     <g transform="translate(93.50024 270.663823) scale(0.1 -0.1)">
      <use xlink:href="#DejaVuSans-Oblique-3bd" transform="translate(0 0.684375)"/>
      <use xlink:href="#DejaVuSans-35" transform="translate(55.859375 -15.721875) scale(0.7)"/>
      <use xlink:href="#DejaVuSans-3d" transform="translate(122.612305 0.684375)"/>
      <use xlink:href="#DejaVuSans-31" transform="translate(225.883789 0.684375)"/>
      <use xlink:href="#DejaVuSans-35" transform="translate(289.506836 0.684375)"/>
      <use xlink:href="#DejaVuSans-34" transform="translate(353.129883 0.684375)"/>
      <use xlink:href="#DejaVuSans-39" transform="translate(416.75293 0.684375)"/>
      <use xlink:href="#DejaVuSans-63" transform="translate(480.375977 0.684375)"/>
      <use xlink:href="#DejaVuSans-6d" transform="translate(535.356445 0.684375)"/>
      <use xlink:href="#DejaVuSans-2212" transform="translate(633.725586 38.965625) scale(0.7)"/>
      <use xlink:href="#DejaVuSans-31" transform="translate(692.37793 38.965625) scale(0.7)"/>
      <use xlink:href="#DejaVuSans-2c" transform="translate(739.648438 0.684375)"/>
      <use xlink:href="#DejaVuSans-20" transform="translate(771.435547 0.684375)"/>
      <use xlink:href="#DejaVuSans-394" transform="translate(803.222656 0.684375)"/>
      <use xlink:href="#DejaVuSans-Oblique-51" transform="translate(871.630859 0.684375)"/>
      <use xlink:href="#DejaVuSans-3d" transform="translate(969.824219 0.684375)"/>
      <use xlink:href="#DejaVuSans-30" transform="translate(1073.095703 0.684375)"/>
      <use xlink:href="#DejaVuSans-2e" transform="translate(1136.71875 0.684375)"/>
      <use xlink:href="#DejaVuSans-30" transform="translate(1168.505859 0.684375)"/>
      <use xlink:href="#DejaVuSans-30" transform="translate(1232.128906 0.684375)"/>
      <use xlink:href="#DejaVuSans-33" transform="translate(1295.751953 0.684375)"/>
      <use xlink:href="#DejaVuSans-31" transform="translate(1359.375 0.684375)"/>
     </g>
    </g>
    <g id="line2d_53">
     <path d="M 65.50024 282.863823 
L 75.50024 282.863823 
L 85.50024 282.863823 
" style="fill: none; stroke: #bcbd22; stroke-width: 1.5; stroke-linecap: square"/>
    </g>
    <g id="text_28">
     <!-- $\nu _{4}=1684$cm$^{-1}$, $\Delta Q=0.0017$ -->
     <g transform="translate(93.50024 286.363823) scale(0.1 -0.1)">
      <use xlink:href="#DejaVuSans-Oblique-3bd" transform="translate(0 0.684375)"/>
      <use xlink:href="#DejaVuSans-34" transform="translate(55.859375 -15.721875) scale(0.7)"/>
      <use xlink:href="#DejaVuSans-3d" transform="translate(122.612305 0.684375)"/>
      <use xlink:href="#DejaVuSans-31" transform="translate(225.883789 0.684375)"/>
      <use xlink:href="#DejaVuSans-36" transform="translate(289.506836 0.684375)"/>
      <use xlink:href="#DejaVuSans-38" transform="translate(353.129883 0.684375)"/>
      <use xlink:href="#DejaVuSans-34" transform="translate(416.75293 0.684375)"/>
      <use xlink:href="#DejaVuSans-63" transform="translate(480.375977 0.684375)"/>
      <use xlink:href="#DejaVuSans-6d" transform="translate(535.356445 0.684375)"/>
      <use xlink:href="#DejaVuSans-2212" transform="translate(633.725586 38.965625) scale(0.7)"/>
      <use xlink:href="#DejaVuSans-31" transform="translate(692.37793 38.965625) scale(0.7)"/>
      <use xlink:href="#DejaVuSans-2c" transform="translate(739.648438 0.684375)"/>
      <use xlink:href="#DejaVuSans-20" transform="translate(771.435547 0.684375)"/>
      <use xlink:href="#DejaVuSans-394" transform="translate(803.222656 0.684375)"/>
      <use xlink:href="#DejaVuSans-Oblique-51" transform="translate(871.630859 0.684375)"/>
      <use xlink:href="#DejaVuSans-3d" transform="translate(969.824219 0.684375)"/>
      <use xlink:href="#DejaVuSans-30" transform="translate(1073.095703 0.684375)"/>
      <use xlink:href="#DejaVuSans-2e" transform="translate(1136.71875 0.684375)"/>
      <use xlink:href="#DejaVuSans-30" transform="translate(1168.505859 0.684375)"/>
      <use xlink:href="#DejaVuSans-30" transform="translate(1232.128906 0.684375)"/>
      <use xlink:href="#DejaVuSans-31" transform="translate(1295.751953 0.684375)"/>
      <use xlink:href="#DejaVuSans-37" transform="translate(1359.375 0.684375)"/>
     </g>
    </g>
    <g id="line2d_54">
     <path d="M 65.50024 298.663823 
L 75.50024 298.663823 
L 85.50024 298.663823 
" style="fill: none; stroke: #17becf; stroke-width: 1.5; stroke-linecap: square"/>
    </g>
    <g id="text_29">
     <!-- $\nu _{3}=3197$cm$^{-1}$, $\Delta Q=0.0001$ -->
     <g transform="translate(93.50024 302.163823) scale(0.1 -0.1)">
      <use xlink:href="#DejaVuSans-Oblique-3bd" transform="translate(0 0.684375)"/>
      <use xlink:href="#DejaVuSans-33" transform="translate(55.859375 -15.721875) scale(0.7)"/>
      <use xlink:href="#DejaVuSans-3d" transform="translate(122.612305 0.684375)"/>
      <use xlink:href="#DejaVuSans-33" transform="translate(225.883789 0.684375)"/>
      <use xlink:href="#DejaVuSans-31" transform="translate(289.506836 0.684375)"/>
      <use xlink:href="#DejaVuSans-39" transform="translate(353.129883 0.684375)"/>
      <use xlink:href="#DejaVuSans-37" transform="translate(416.75293 0.684375)"/>
      <use xlink:href="#DejaVuSans-63" transform="translate(480.375977 0.684375)"/>
      <use xlink:href="#DejaVuSans-6d" transform="translate(535.356445 0.684375)"/>
      <use xlink:href="#DejaVuSans-2212" transform="translate(633.725586 38.965625) scale(0.7)"/>
      <use xlink:href="#DejaVuSans-31" transform="translate(692.37793 38.965625) scale(0.7)"/>
      <use xlink:href="#DejaVuSans-2c" transform="translate(739.648438 0.684375)"/>
      <use xlink:href="#DejaVuSans-20" transform="translate(771.435547 0.684375)"/>
      <use xlink:href="#DejaVuSans-394" transform="translate(803.222656 0.684375)"/>
      <use xlink:href="#DejaVuSans-Oblique-51" transform="translate(871.630859 0.684375)"/>
      <use xlink:href="#DejaVuSans-3d" transform="translate(969.824219 0.684375)"/>
      <use xlink:href="#DejaVuSans-30" transform="translate(1073.095703 0.684375)"/>
      <use xlink:href="#DejaVuSans-2e" transform="translate(1136.71875 0.684375)"/>
      <use xlink:href="#DejaVuSans-30" transform="translate(1168.505859 0.684375)"/>
      <use xlink:href="#DejaVuSans-30" transform="translate(1232.128906 0.684375)"/>
      <use xlink:href="#DejaVuSans-30" transform="translate(1295.751953 0.684375)"/>
      <use xlink:href="#DejaVuSans-31" transform="translate(1359.375 0.684375)"/>
     </g>
    </g>
    <g id="line2d_55">
     <path d="M 65.50024 314.363823 
L 75.50024 314.363823 
L 85.50024 314.363823 
" style="fill: none; stroke: #1f77b4; stroke-width: 1.5; stroke-linecap: square"/>
    </g>
    <g id="text_30">
     <!-- $\nu _{2}=3216$cm$^{-1}$, $\Delta Q=0.0001$ -->
     <g transform="translate(93.50024 317.863823) scale(0.1 -0.1)">
      <use xlink:href="#DejaVuSans-Oblique-3bd" transform="translate(0 0.684375)"/>
      <use xlink:href="#DejaVuSans-32" transform="translate(55.859375 -15.721875) scale(0.7)"/>
      <use xlink:href="#DejaVuSans-3d" transform="translate(122.612305 0.684375)"/>
      <use xlink:href="#DejaVuSans-33" transform="translate(225.883789 0.684375)"/>
      <use xlink:href="#DejaVuSans-32" transform="translate(289.506836 0.684375)"/>
      <use xlink:href="#DejaVuSans-31" transform="translate(353.129883 0.684375)"/>
      <use xlink:href="#DejaVuSans-36" transform="translate(416.75293 0.684375)"/>
      <use xlink:href="#DejaVuSans-63" transform="translate(480.375977 0.684375)"/>
      <use xlink:href="#DejaVuSans-6d" transform="translate(535.356445 0.684375)"/>
      <use xlink:href="#DejaVuSans-2212" transform="translate(633.725586 38.965625) scale(0.7)"/>
      <use xlink:href="#DejaVuSans-31" transform="translate(692.37793 38.965625) scale(0.7)"/>
      <use xlink:href="#DejaVuSans-2c" transform="translate(739.648438 0.684375)"/>
      <use xlink:href="#DejaVuSans-20" transform="translate(771.435547 0.684375)"/>
      <use xlink:href="#DejaVuSans-394" transform="translate(803.222656 0.684375)"/>
      <use xlink:href="#DejaVuSans-Oblique-51" transform="translate(871.630859 0.684375)"/>
      <use xlink:href="#DejaVuSans-3d" transform="translate(969.824219 0.684375)"/>
      <use xlink:href="#DejaVuSans-30" transform="translate(1073.095703 0.684375)"/>
      <use xlink:href="#DejaVuSans-2e" transform="translate(1136.71875 0.684375)"/>
      <use xlink:href="#DejaVuSans-30" transform="translate(1168.505859 0.684375)"/>
      <use xlink:href="#DejaVuSans-30" transform="translate(1232.128906 0.684375)"/>
      <use xlink:href="#DejaVuSans-30" transform="translate(1295.751953 0.684375)"/>
      <use xlink:href="#DejaVuSans-31" transform="translate(1359.375 0.684375)"/>
     </g>
    </g>
    <g id="line2d_56">
     <path d="M 65.50024 330.063823 
L 75.50024 330.063823 
L 85.50024 330.063823 
" style="fill: none; stroke: #ff7f0e; stroke-width: 1.5; stroke-linecap: square"/>
    </g>
    <g id="text_31">
     <!-- $\nu _{1}=3235$cm$^{-1}$, $\Delta Q=0.0001$ -->
     <g transform="translate(93.50024 333.563823) scale(0.1 -0.1)">
      <use xlink:href="#DejaVuSans-Oblique-3bd" transform="translate(0 0.684375)"/>
      <use xlink:href="#DejaVuSans-31" transform="translate(55.859375 -15.721875) scale(0.7)"/>
      <use xlink:href="#DejaVuSans-3d" transform="translate(122.612305 0.684375)"/>
      <use xlink:href="#DejaVuSans-33" transform="translate(225.883789 0.684375)"/>
      <use xlink:href="#DejaVuSans-32" transform="translate(289.506836 0.684375)"/>
      <use xlink:href="#DejaVuSans-33" transform="translate(353.129883 0.684375)"/>
      <use xlink:href="#DejaVuSans-35" transform="translate(416.75293 0.684375)"/>
      <use xlink:href="#DejaVuSans-63" transform="translate(480.375977 0.684375)"/>
      <use xlink:href="#DejaVuSans-6d" transform="translate(535.356445 0.684375)"/>
      <use xlink:href="#DejaVuSans-2212" transform="translate(633.725586 38.965625) scale(0.7)"/>
      <use xlink:href="#DejaVuSans-31" transform="translate(692.37793 38.965625) scale(0.7)"/>
      <use xlink:href="#DejaVuSans-2c" transform="translate(739.648438 0.684375)"/>
      <use xlink:href="#DejaVuSans-20" transform="translate(771.435547 0.684375)"/>
      <use xlink:href="#DejaVuSans-394" transform="translate(803.222656 0.684375)"/>
      <use xlink:href="#DejaVuSans-Oblique-51" transform="translate(871.630859 0.684375)"/>
      <use xlink:href="#DejaVuSans-3d" transform="translate(969.824219 0.684375)"/>
      <use xlink:href="#DejaVuSans-30" transform="translate(1073.095703 0.684375)"/>
      <use xlink:href="#DejaVuSans-2e" transform="translate(1136.71875 0.684375)"/>
      <use xlink:href="#DejaVuSans-30" transform="translate(1168.505859 0.684375)"/>
      <use xlink:href="#DejaVuSans-30" transform="translate(1232.128906 0.684375)"/>
      <use xlink:href="#DejaVuSans-30" transform="translate(1295.751953 0.684375)"/>
      <use xlink:href="#DejaVuSans-31" transform="translate(1359.375 0.684375)"/>
     </g>
    </g>
   </g>
  </g>
 </g>
 <defs>
  <clipPath id="pdb3b7cb19d">
   <rect x="56.50024" y="18.118365" width="612.49952" height="326.525145"/>
  </clipPath>
 </defs>
</svg>
